%TF.GenerationSoftware,KiCad,Pcbnew,(5.1.10)-1*%
%TF.CreationDate,2022-11-09T22:19:52-03:00*%
%TF.ProjectId,potenciostato,706f7465-6e63-4696-9f73-7461746f2e6b,rev?*%
%TF.SameCoordinates,Original*%
%TF.FileFunction,Paste,Top*%
%TF.FilePolarity,Positive*%
%FSLAX46Y46*%
G04 Gerber Fmt 4.6, Leading zero omitted, Abs format (unit mm)*
G04 Created by KiCad (PCBNEW (5.1.10)-1) date 2022-11-09 22:19:52*
%MOMM*%
%LPD*%
G01*
G04 APERTURE LIST*
%ADD10C,0.120000*%
G04 APERTURE END LIST*
D10*
%TO.C,TR1*%
X115824000Y-111506000D02*
X131127500Y-111506000D01*
X115824000Y-71501000D02*
X115824000Y-111506000D01*
X131127500Y-71501000D02*
X115824000Y-71501000D01*
X131127500Y-111506000D02*
X131127500Y-71501000D01*
%TD*%
%TO.C,R20*%
G36*
G01*
X122921000Y-124577000D02*
X122921000Y-123327000D01*
G75*
G02*
X123171000Y-123077000I250000J0D01*
G01*
X123971000Y-123077000D01*
G75*
G02*
X124221000Y-123327000I0J-250000D01*
G01*
X124221000Y-124577000D01*
G75*
G02*
X123971000Y-124827000I-250000J0D01*
G01*
X123171000Y-124827000D01*
G75*
G02*
X122921000Y-124577000I0J250000D01*
G01*
G37*
G36*
G01*
X119821000Y-124577000D02*
X119821000Y-123327000D01*
G75*
G02*
X120071000Y-123077000I250000J0D01*
G01*
X120871000Y-123077000D01*
G75*
G02*
X121121000Y-123327000I0J-250000D01*
G01*
X121121000Y-124577000D01*
G75*
G02*
X120871000Y-124827000I-250000J0D01*
G01*
X120071000Y-124827000D01*
G75*
G02*
X119821000Y-124577000I0J250000D01*
G01*
G37*
%TD*%
%TO.C,R16*%
G36*
G01*
X126096000Y-124577000D02*
X126096000Y-123327000D01*
G75*
G02*
X126346000Y-123077000I250000J0D01*
G01*
X127146000Y-123077000D01*
G75*
G02*
X127396000Y-123327000I0J-250000D01*
G01*
X127396000Y-124577000D01*
G75*
G02*
X127146000Y-124827000I-250000J0D01*
G01*
X126346000Y-124827000D01*
G75*
G02*
X126096000Y-124577000I0J250000D01*
G01*
G37*
G36*
G01*
X129196000Y-124577000D02*
X129196000Y-123327000D01*
G75*
G02*
X129446000Y-123077000I250000J0D01*
G01*
X130246000Y-123077000D01*
G75*
G02*
X130496000Y-123327000I0J-250000D01*
G01*
X130496000Y-124577000D01*
G75*
G02*
X130246000Y-124827000I-250000J0D01*
G01*
X129446000Y-124827000D01*
G75*
G02*
X129196000Y-124577000I0J250000D01*
G01*
G37*
%TD*%
%TO.C,R17*%
G36*
G01*
X128216500Y-151802000D02*
X129466500Y-151802000D01*
G75*
G02*
X129716500Y-152052000I0J-250000D01*
G01*
X129716500Y-152852000D01*
G75*
G02*
X129466500Y-153102000I-250000J0D01*
G01*
X128216500Y-153102000D01*
G75*
G02*
X127966500Y-152852000I0J250000D01*
G01*
X127966500Y-152052000D01*
G75*
G02*
X128216500Y-151802000I250000J0D01*
G01*
G37*
G36*
G01*
X128216500Y-148702000D02*
X129466500Y-148702000D01*
G75*
G02*
X129716500Y-148952000I0J-250000D01*
G01*
X129716500Y-149752000D01*
G75*
G02*
X129466500Y-150002000I-250000J0D01*
G01*
X128216500Y-150002000D01*
G75*
G02*
X127966500Y-149752000I0J250000D01*
G01*
X127966500Y-148952000D01*
G75*
G02*
X128216500Y-148702000I250000J0D01*
G01*
G37*
%TD*%
%TO.C,R19*%
G36*
G01*
X124386500Y-153102000D02*
X123136500Y-153102000D01*
G75*
G02*
X122886500Y-152852000I0J250000D01*
G01*
X122886500Y-152052000D01*
G75*
G02*
X123136500Y-151802000I250000J0D01*
G01*
X124386500Y-151802000D01*
G75*
G02*
X124636500Y-152052000I0J-250000D01*
G01*
X124636500Y-152852000D01*
G75*
G02*
X124386500Y-153102000I-250000J0D01*
G01*
G37*
G36*
G01*
X124386500Y-150002000D02*
X123136500Y-150002000D01*
G75*
G02*
X122886500Y-149752000I0J250000D01*
G01*
X122886500Y-148952000D01*
G75*
G02*
X123136500Y-148702000I250000J0D01*
G01*
X124386500Y-148702000D01*
G75*
G02*
X124636500Y-148952000I0J-250000D01*
G01*
X124636500Y-149752000D01*
G75*
G02*
X124386500Y-150002000I-250000J0D01*
G01*
G37*
%TD*%
%TO.C,R1*%
G36*
G01*
X170170000Y-134075000D02*
X168920000Y-134075000D01*
G75*
G02*
X168670000Y-133825000I0J250000D01*
G01*
X168670000Y-133025000D01*
G75*
G02*
X168920000Y-132775000I250000J0D01*
G01*
X170170000Y-132775000D01*
G75*
G02*
X170420000Y-133025000I0J-250000D01*
G01*
X170420000Y-133825000D01*
G75*
G02*
X170170000Y-134075000I-250000J0D01*
G01*
G37*
G36*
G01*
X170170000Y-137175000D02*
X168920000Y-137175000D01*
G75*
G02*
X168670000Y-136925000I0J250000D01*
G01*
X168670000Y-136125000D01*
G75*
G02*
X168920000Y-135875000I250000J0D01*
G01*
X170170000Y-135875000D01*
G75*
G02*
X170420000Y-136125000I0J-250000D01*
G01*
X170420000Y-136925000D01*
G75*
G02*
X170170000Y-137175000I-250000J0D01*
G01*
G37*
%TD*%
%TO.C,R2*%
G36*
G01*
X151310500Y-137163500D02*
X150060500Y-137163500D01*
G75*
G02*
X149810500Y-136913500I0J250000D01*
G01*
X149810500Y-136113500D01*
G75*
G02*
X150060500Y-135863500I250000J0D01*
G01*
X151310500Y-135863500D01*
G75*
G02*
X151560500Y-136113500I0J-250000D01*
G01*
X151560500Y-136913500D01*
G75*
G02*
X151310500Y-137163500I-250000J0D01*
G01*
G37*
G36*
G01*
X151310500Y-134063500D02*
X150060500Y-134063500D01*
G75*
G02*
X149810500Y-133813500I0J250000D01*
G01*
X149810500Y-133013500D01*
G75*
G02*
X150060500Y-132763500I250000J0D01*
G01*
X151310500Y-132763500D01*
G75*
G02*
X151560500Y-133013500I0J-250000D01*
G01*
X151560500Y-133813500D01*
G75*
G02*
X151310500Y-134063500I-250000J0D01*
G01*
G37*
%TD*%
%TO.C,R3*%
G36*
G01*
X155374500Y-134063500D02*
X154124500Y-134063500D01*
G75*
G02*
X153874500Y-133813500I0J250000D01*
G01*
X153874500Y-133013500D01*
G75*
G02*
X154124500Y-132763500I250000J0D01*
G01*
X155374500Y-132763500D01*
G75*
G02*
X155624500Y-133013500I0J-250000D01*
G01*
X155624500Y-133813500D01*
G75*
G02*
X155374500Y-134063500I-250000J0D01*
G01*
G37*
G36*
G01*
X155374500Y-137163500D02*
X154124500Y-137163500D01*
G75*
G02*
X153874500Y-136913500I0J250000D01*
G01*
X153874500Y-136113500D01*
G75*
G02*
X154124500Y-135863500I250000J0D01*
G01*
X155374500Y-135863500D01*
G75*
G02*
X155624500Y-136113500I0J-250000D01*
G01*
X155624500Y-136913500D01*
G75*
G02*
X155374500Y-137163500I-250000J0D01*
G01*
G37*
%TD*%
%TO.C,R4*%
G36*
G01*
X166995000Y-148605000D02*
X165745000Y-148605000D01*
G75*
G02*
X165495000Y-148355000I0J250000D01*
G01*
X165495000Y-147555000D01*
G75*
G02*
X165745000Y-147305000I250000J0D01*
G01*
X166995000Y-147305000D01*
G75*
G02*
X167245000Y-147555000I0J-250000D01*
G01*
X167245000Y-148355000D01*
G75*
G02*
X166995000Y-148605000I-250000J0D01*
G01*
G37*
G36*
G01*
X166995000Y-145505000D02*
X165745000Y-145505000D01*
G75*
G02*
X165495000Y-145255000I0J250000D01*
G01*
X165495000Y-144455000D01*
G75*
G02*
X165745000Y-144205000I250000J0D01*
G01*
X166995000Y-144205000D01*
G75*
G02*
X167245000Y-144455000I0J-250000D01*
G01*
X167245000Y-145255000D01*
G75*
G02*
X166995000Y-145505000I-250000J0D01*
G01*
G37*
%TD*%
%TO.C,R5*%
G36*
G01*
X161910000Y-141595000D02*
X161910000Y-140345000D01*
G75*
G02*
X162160000Y-140095000I250000J0D01*
G01*
X162960000Y-140095000D01*
G75*
G02*
X163210000Y-140345000I0J-250000D01*
G01*
X163210000Y-141595000D01*
G75*
G02*
X162960000Y-141845000I-250000J0D01*
G01*
X162160000Y-141845000D01*
G75*
G02*
X161910000Y-141595000I0J250000D01*
G01*
G37*
G36*
G01*
X158810000Y-141595000D02*
X158810000Y-140345000D01*
G75*
G02*
X159060000Y-140095000I250000J0D01*
G01*
X159860000Y-140095000D01*
G75*
G02*
X160110000Y-140345000I0J-250000D01*
G01*
X160110000Y-141595000D01*
G75*
G02*
X159860000Y-141845000I-250000J0D01*
G01*
X159060000Y-141845000D01*
G75*
G02*
X158810000Y-141595000I0J250000D01*
G01*
G37*
%TD*%
%TO.C,R6*%
G36*
G01*
X140325000Y-134000000D02*
X139075000Y-134000000D01*
G75*
G02*
X138825000Y-133750000I0J250000D01*
G01*
X138825000Y-132950000D01*
G75*
G02*
X139075000Y-132700000I250000J0D01*
G01*
X140325000Y-132700000D01*
G75*
G02*
X140575000Y-132950000I0J-250000D01*
G01*
X140575000Y-133750000D01*
G75*
G02*
X140325000Y-134000000I-250000J0D01*
G01*
G37*
G36*
G01*
X140325000Y-137100000D02*
X139075000Y-137100000D01*
G75*
G02*
X138825000Y-136850000I0J250000D01*
G01*
X138825000Y-136050000D01*
G75*
G02*
X139075000Y-135800000I250000J0D01*
G01*
X140325000Y-135800000D01*
G75*
G02*
X140575000Y-136050000I0J-250000D01*
G01*
X140575000Y-136850000D01*
G75*
G02*
X140325000Y-137100000I-250000J0D01*
G01*
G37*
%TD*%
%TO.C,R7*%
G36*
G01*
X136769000Y-137074000D02*
X135519000Y-137074000D01*
G75*
G02*
X135269000Y-136824000I0J250000D01*
G01*
X135269000Y-136024000D01*
G75*
G02*
X135519000Y-135774000I250000J0D01*
G01*
X136769000Y-135774000D01*
G75*
G02*
X137019000Y-136024000I0J-250000D01*
G01*
X137019000Y-136824000D01*
G75*
G02*
X136769000Y-137074000I-250000J0D01*
G01*
G37*
G36*
G01*
X136769000Y-133974000D02*
X135519000Y-133974000D01*
G75*
G02*
X135269000Y-133724000I0J250000D01*
G01*
X135269000Y-132924000D01*
G75*
G02*
X135519000Y-132674000I250000J0D01*
G01*
X136769000Y-132674000D01*
G75*
G02*
X137019000Y-132924000I0J-250000D01*
G01*
X137019000Y-133724000D01*
G75*
G02*
X136769000Y-133974000I-250000J0D01*
G01*
G37*
%TD*%
%TO.C,R8*%
G36*
G01*
X164772500Y-114722000D02*
X163522500Y-114722000D01*
G75*
G02*
X163272500Y-114472000I0J250000D01*
G01*
X163272500Y-113672000D01*
G75*
G02*
X163522500Y-113422000I250000J0D01*
G01*
X164772500Y-113422000D01*
G75*
G02*
X165022500Y-113672000I0J-250000D01*
G01*
X165022500Y-114472000D01*
G75*
G02*
X164772500Y-114722000I-250000J0D01*
G01*
G37*
G36*
G01*
X164772500Y-111622000D02*
X163522500Y-111622000D01*
G75*
G02*
X163272500Y-111372000I0J250000D01*
G01*
X163272500Y-110572000D01*
G75*
G02*
X163522500Y-110322000I250000J0D01*
G01*
X164772500Y-110322000D01*
G75*
G02*
X165022500Y-110572000I0J-250000D01*
G01*
X165022500Y-111372000D01*
G75*
G02*
X164772500Y-111622000I-250000J0D01*
G01*
G37*
%TD*%
%TO.C,R9*%
G36*
G01*
X155819000Y-93614000D02*
X154569000Y-93614000D01*
G75*
G02*
X154319000Y-93364000I0J250000D01*
G01*
X154319000Y-92564000D01*
G75*
G02*
X154569000Y-92314000I250000J0D01*
G01*
X155819000Y-92314000D01*
G75*
G02*
X156069000Y-92564000I0J-250000D01*
G01*
X156069000Y-93364000D01*
G75*
G02*
X155819000Y-93614000I-250000J0D01*
G01*
G37*
G36*
G01*
X155819000Y-90514000D02*
X154569000Y-90514000D01*
G75*
G02*
X154319000Y-90264000I0J250000D01*
G01*
X154319000Y-89464000D01*
G75*
G02*
X154569000Y-89214000I250000J0D01*
G01*
X155819000Y-89214000D01*
G75*
G02*
X156069000Y-89464000I0J-250000D01*
G01*
X156069000Y-90264000D01*
G75*
G02*
X155819000Y-90514000I-250000J0D01*
G01*
G37*
%TD*%
%TO.C,R10*%
G36*
G01*
X153914000Y-111648000D02*
X152664000Y-111648000D01*
G75*
G02*
X152414000Y-111398000I0J250000D01*
G01*
X152414000Y-110598000D01*
G75*
G02*
X152664000Y-110348000I250000J0D01*
G01*
X153914000Y-110348000D01*
G75*
G02*
X154164000Y-110598000I0J-250000D01*
G01*
X154164000Y-111398000D01*
G75*
G02*
X153914000Y-111648000I-250000J0D01*
G01*
G37*
G36*
G01*
X153914000Y-114748000D02*
X152664000Y-114748000D01*
G75*
G02*
X152414000Y-114498000I0J250000D01*
G01*
X152414000Y-113698000D01*
G75*
G02*
X152664000Y-113448000I250000J0D01*
G01*
X153914000Y-113448000D01*
G75*
G02*
X154164000Y-113698000I0J-250000D01*
G01*
X154164000Y-114498000D01*
G75*
G02*
X153914000Y-114748000I-250000J0D01*
G01*
G37*
%TD*%
%TO.C,R11*%
G36*
G01*
X163820000Y-134075000D02*
X162570000Y-134075000D01*
G75*
G02*
X162320000Y-133825000I0J250000D01*
G01*
X162320000Y-133025000D01*
G75*
G02*
X162570000Y-132775000I250000J0D01*
G01*
X163820000Y-132775000D01*
G75*
G02*
X164070000Y-133025000I0J-250000D01*
G01*
X164070000Y-133825000D01*
G75*
G02*
X163820000Y-134075000I-250000J0D01*
G01*
G37*
G36*
G01*
X163820000Y-137175000D02*
X162570000Y-137175000D01*
G75*
G02*
X162320000Y-136925000I0J250000D01*
G01*
X162320000Y-136125000D01*
G75*
G02*
X162570000Y-135875000I250000J0D01*
G01*
X163820000Y-135875000D01*
G75*
G02*
X164070000Y-136125000I0J-250000D01*
G01*
X164070000Y-136925000D01*
G75*
G02*
X163820000Y-137175000I-250000J0D01*
G01*
G37*
%TD*%
%TO.C,R12*%
G36*
G01*
X160010000Y-137175000D02*
X158760000Y-137175000D01*
G75*
G02*
X158510000Y-136925000I0J250000D01*
G01*
X158510000Y-136125000D01*
G75*
G02*
X158760000Y-135875000I250000J0D01*
G01*
X160010000Y-135875000D01*
G75*
G02*
X160260000Y-136125000I0J-250000D01*
G01*
X160260000Y-136925000D01*
G75*
G02*
X160010000Y-137175000I-250000J0D01*
G01*
G37*
G36*
G01*
X160010000Y-134075000D02*
X158760000Y-134075000D01*
G75*
G02*
X158510000Y-133825000I0J250000D01*
G01*
X158510000Y-133025000D01*
G75*
G02*
X158760000Y-132775000I250000J0D01*
G01*
X160010000Y-132775000D01*
G75*
G02*
X160260000Y-133025000I0J-250000D01*
G01*
X160260000Y-133825000D01*
G75*
G02*
X160010000Y-134075000I-250000J0D01*
G01*
G37*
%TD*%
%TO.C,R13*%
G36*
G01*
X147183000Y-134000000D02*
X145933000Y-134000000D01*
G75*
G02*
X145683000Y-133750000I0J250000D01*
G01*
X145683000Y-132950000D01*
G75*
G02*
X145933000Y-132700000I250000J0D01*
G01*
X147183000Y-132700000D01*
G75*
G02*
X147433000Y-132950000I0J-250000D01*
G01*
X147433000Y-133750000D01*
G75*
G02*
X147183000Y-134000000I-250000J0D01*
G01*
G37*
G36*
G01*
X147183000Y-137100000D02*
X145933000Y-137100000D01*
G75*
G02*
X145683000Y-136850000I0J250000D01*
G01*
X145683000Y-136050000D01*
G75*
G02*
X145933000Y-135800000I250000J0D01*
G01*
X147183000Y-135800000D01*
G75*
G02*
X147433000Y-136050000I0J-250000D01*
G01*
X147433000Y-136850000D01*
G75*
G02*
X147183000Y-137100000I-250000J0D01*
G01*
G37*
%TD*%
%TO.C,R14*%
G36*
G01*
X167396000Y-113448000D02*
X168646000Y-113448000D01*
G75*
G02*
X168896000Y-113698000I0J-250000D01*
G01*
X168896000Y-114498000D01*
G75*
G02*
X168646000Y-114748000I-250000J0D01*
G01*
X167396000Y-114748000D01*
G75*
G02*
X167146000Y-114498000I0J250000D01*
G01*
X167146000Y-113698000D01*
G75*
G02*
X167396000Y-113448000I250000J0D01*
G01*
G37*
G36*
G01*
X167396000Y-110348000D02*
X168646000Y-110348000D01*
G75*
G02*
X168896000Y-110598000I0J-250000D01*
G01*
X168896000Y-111398000D01*
G75*
G02*
X168646000Y-111648000I-250000J0D01*
G01*
X167396000Y-111648000D01*
G75*
G02*
X167146000Y-111398000I0J250000D01*
G01*
X167146000Y-110598000D01*
G75*
G02*
X167396000Y-110348000I250000J0D01*
G01*
G37*
%TD*%
%TO.C,R15*%
G36*
G01*
X166995000Y-137175000D02*
X165745000Y-137175000D01*
G75*
G02*
X165495000Y-136925000I0J250000D01*
G01*
X165495000Y-136125000D01*
G75*
G02*
X165745000Y-135875000I250000J0D01*
G01*
X166995000Y-135875000D01*
G75*
G02*
X167245000Y-136125000I0J-250000D01*
G01*
X167245000Y-136925000D01*
G75*
G02*
X166995000Y-137175000I-250000J0D01*
G01*
G37*
G36*
G01*
X166995000Y-134075000D02*
X165745000Y-134075000D01*
G75*
G02*
X165495000Y-133825000I0J250000D01*
G01*
X165495000Y-133025000D01*
G75*
G02*
X165745000Y-132775000I250000J0D01*
G01*
X166995000Y-132775000D01*
G75*
G02*
X167245000Y-133025000I0J-250000D01*
G01*
X167245000Y-133825000D01*
G75*
G02*
X166995000Y-134075000I-250000J0D01*
G01*
G37*
%TD*%
%TO.C,R18*%
G36*
G01*
X160696000Y-112405000D02*
X160696000Y-113655000D01*
G75*
G02*
X160446000Y-113905000I-250000J0D01*
G01*
X159646000Y-113905000D01*
G75*
G02*
X159396000Y-113655000I0J250000D01*
G01*
X159396000Y-112405000D01*
G75*
G02*
X159646000Y-112155000I250000J0D01*
G01*
X160446000Y-112155000D01*
G75*
G02*
X160696000Y-112405000I0J-250000D01*
G01*
G37*
G36*
G01*
X157596000Y-112405000D02*
X157596000Y-113655000D01*
G75*
G02*
X157346000Y-113905000I-250000J0D01*
G01*
X156546000Y-113905000D01*
G75*
G02*
X156296000Y-113655000I0J250000D01*
G01*
X156296000Y-112405000D01*
G75*
G02*
X156546000Y-112155000I250000J0D01*
G01*
X157346000Y-112155000D01*
G75*
G02*
X157596000Y-112405000I0J-250000D01*
G01*
G37*
%TD*%
%TO.C,R21*%
G36*
G01*
X144663000Y-113422000D02*
X145913000Y-113422000D01*
G75*
G02*
X146163000Y-113672000I0J-250000D01*
G01*
X146163000Y-114472000D01*
G75*
G02*
X145913000Y-114722000I-250000J0D01*
G01*
X144663000Y-114722000D01*
G75*
G02*
X144413000Y-114472000I0J250000D01*
G01*
X144413000Y-113672000D01*
G75*
G02*
X144663000Y-113422000I250000J0D01*
G01*
G37*
G36*
G01*
X144663000Y-110322000D02*
X145913000Y-110322000D01*
G75*
G02*
X146163000Y-110572000I0J-250000D01*
G01*
X146163000Y-111372000D01*
G75*
G02*
X145913000Y-111622000I-250000J0D01*
G01*
X144663000Y-111622000D01*
G75*
G02*
X144413000Y-111372000I0J250000D01*
G01*
X144413000Y-110572000D01*
G75*
G02*
X144663000Y-110322000I250000J0D01*
G01*
G37*
%TD*%
%TO.C,U1*%
G36*
G01*
X175491000Y-108310000D02*
X175791000Y-108310000D01*
G75*
G02*
X175941000Y-108460000I0J-150000D01*
G01*
X175941000Y-109760000D01*
G75*
G02*
X175791000Y-109910000I-150000J0D01*
G01*
X175491000Y-109910000D01*
G75*
G02*
X175341000Y-109760000I0J150000D01*
G01*
X175341000Y-108460000D01*
G75*
G02*
X175491000Y-108310000I150000J0D01*
G01*
G37*
G36*
G01*
X174221000Y-108310000D02*
X174521000Y-108310000D01*
G75*
G02*
X174671000Y-108460000I0J-150000D01*
G01*
X174671000Y-109760000D01*
G75*
G02*
X174521000Y-109910000I-150000J0D01*
G01*
X174221000Y-109910000D01*
G75*
G02*
X174071000Y-109760000I0J150000D01*
G01*
X174071000Y-108460000D01*
G75*
G02*
X174221000Y-108310000I150000J0D01*
G01*
G37*
G36*
G01*
X172951000Y-108310000D02*
X173251000Y-108310000D01*
G75*
G02*
X173401000Y-108460000I0J-150000D01*
G01*
X173401000Y-109760000D01*
G75*
G02*
X173251000Y-109910000I-150000J0D01*
G01*
X172951000Y-109910000D01*
G75*
G02*
X172801000Y-109760000I0J150000D01*
G01*
X172801000Y-108460000D01*
G75*
G02*
X172951000Y-108310000I150000J0D01*
G01*
G37*
G36*
G01*
X171681000Y-108310000D02*
X171981000Y-108310000D01*
G75*
G02*
X172131000Y-108460000I0J-150000D01*
G01*
X172131000Y-109760000D01*
G75*
G02*
X171981000Y-109910000I-150000J0D01*
G01*
X171681000Y-109910000D01*
G75*
G02*
X171531000Y-109760000I0J150000D01*
G01*
X171531000Y-108460000D01*
G75*
G02*
X171681000Y-108310000I150000J0D01*
G01*
G37*
G36*
G01*
X171681000Y-113610000D02*
X171981000Y-113610000D01*
G75*
G02*
X172131000Y-113760000I0J-150000D01*
G01*
X172131000Y-115060000D01*
G75*
G02*
X171981000Y-115210000I-150000J0D01*
G01*
X171681000Y-115210000D01*
G75*
G02*
X171531000Y-115060000I0J150000D01*
G01*
X171531000Y-113760000D01*
G75*
G02*
X171681000Y-113610000I150000J0D01*
G01*
G37*
G36*
G01*
X172951000Y-113610000D02*
X173251000Y-113610000D01*
G75*
G02*
X173401000Y-113760000I0J-150000D01*
G01*
X173401000Y-115060000D01*
G75*
G02*
X173251000Y-115210000I-150000J0D01*
G01*
X172951000Y-115210000D01*
G75*
G02*
X172801000Y-115060000I0J150000D01*
G01*
X172801000Y-113760000D01*
G75*
G02*
X172951000Y-113610000I150000J0D01*
G01*
G37*
G36*
G01*
X174221000Y-113610000D02*
X174521000Y-113610000D01*
G75*
G02*
X174671000Y-113760000I0J-150000D01*
G01*
X174671000Y-115060000D01*
G75*
G02*
X174521000Y-115210000I-150000J0D01*
G01*
X174221000Y-115210000D01*
G75*
G02*
X174071000Y-115060000I0J150000D01*
G01*
X174071000Y-113760000D01*
G75*
G02*
X174221000Y-113610000I150000J0D01*
G01*
G37*
G36*
G01*
X175491000Y-113610000D02*
X175791000Y-113610000D01*
G75*
G02*
X175941000Y-113760000I0J-150000D01*
G01*
X175941000Y-115060000D01*
G75*
G02*
X175791000Y-115210000I-150000J0D01*
G01*
X175491000Y-115210000D01*
G75*
G02*
X175341000Y-115060000I0J150000D01*
G01*
X175341000Y-113760000D01*
G75*
G02*
X175491000Y-113610000I150000J0D01*
G01*
G37*
G36*
G01*
X174128500Y-110675000D02*
X174893500Y-110675000D01*
G75*
G02*
X175136000Y-110917500I0J-242500D01*
G01*
X175136000Y-111402500D01*
G75*
G02*
X174893500Y-111645000I-242500J0D01*
G01*
X174128500Y-111645000D01*
G75*
G02*
X173886000Y-111402500I0J242500D01*
G01*
X173886000Y-110917500D01*
G75*
G02*
X174128500Y-110675000I242500J0D01*
G01*
G37*
G36*
G01*
X172578500Y-110675000D02*
X173343500Y-110675000D01*
G75*
G02*
X173586000Y-110917500I0J-242500D01*
G01*
X173586000Y-111402500D01*
G75*
G02*
X173343500Y-111645000I-242500J0D01*
G01*
X172578500Y-111645000D01*
G75*
G02*
X172336000Y-111402500I0J242500D01*
G01*
X172336000Y-110917500D01*
G75*
G02*
X172578500Y-110675000I242500J0D01*
G01*
G37*
G36*
G01*
X174128500Y-111875000D02*
X174893500Y-111875000D01*
G75*
G02*
X175136000Y-112117500I0J-242500D01*
G01*
X175136000Y-112602500D01*
G75*
G02*
X174893500Y-112845000I-242500J0D01*
G01*
X174128500Y-112845000D01*
G75*
G02*
X173886000Y-112602500I0J242500D01*
G01*
X173886000Y-112117500D01*
G75*
G02*
X174128500Y-111875000I242500J0D01*
G01*
G37*
G36*
G01*
X172578500Y-111875000D02*
X173343500Y-111875000D01*
G75*
G02*
X173586000Y-112117500I0J-242500D01*
G01*
X173586000Y-112602500D01*
G75*
G02*
X173343500Y-112845000I-242500J0D01*
G01*
X172578500Y-112845000D01*
G75*
G02*
X172336000Y-112602500I0J242500D01*
G01*
X172336000Y-112117500D01*
G75*
G02*
X172578500Y-111875000I242500J0D01*
G01*
G37*
%TD*%
%TO.C,U3*%
G36*
G01*
X141527000Y-143989000D02*
X142292000Y-143989000D01*
G75*
G02*
X142534500Y-144231500I0J-242500D01*
G01*
X142534500Y-144716500D01*
G75*
G02*
X142292000Y-144959000I-242500J0D01*
G01*
X141527000Y-144959000D01*
G75*
G02*
X141284500Y-144716500I0J242500D01*
G01*
X141284500Y-144231500D01*
G75*
G02*
X141527000Y-143989000I242500J0D01*
G01*
G37*
G36*
G01*
X143077000Y-143989000D02*
X143842000Y-143989000D01*
G75*
G02*
X144084500Y-144231500I0J-242500D01*
G01*
X144084500Y-144716500D01*
G75*
G02*
X143842000Y-144959000I-242500J0D01*
G01*
X143077000Y-144959000D01*
G75*
G02*
X142834500Y-144716500I0J242500D01*
G01*
X142834500Y-144231500D01*
G75*
G02*
X143077000Y-143989000I242500J0D01*
G01*
G37*
G36*
G01*
X141527000Y-142789000D02*
X142292000Y-142789000D01*
G75*
G02*
X142534500Y-143031500I0J-242500D01*
G01*
X142534500Y-143516500D01*
G75*
G02*
X142292000Y-143759000I-242500J0D01*
G01*
X141527000Y-143759000D01*
G75*
G02*
X141284500Y-143516500I0J242500D01*
G01*
X141284500Y-143031500D01*
G75*
G02*
X141527000Y-142789000I242500J0D01*
G01*
G37*
G36*
G01*
X143077000Y-142789000D02*
X143842000Y-142789000D01*
G75*
G02*
X144084500Y-143031500I0J-242500D01*
G01*
X144084500Y-143516500D01*
G75*
G02*
X143842000Y-143759000I-242500J0D01*
G01*
X143077000Y-143759000D01*
G75*
G02*
X142834500Y-143516500I0J242500D01*
G01*
X142834500Y-143031500D01*
G75*
G02*
X143077000Y-142789000I242500J0D01*
G01*
G37*
G36*
G01*
X144439500Y-145724000D02*
X144739500Y-145724000D01*
G75*
G02*
X144889500Y-145874000I0J-150000D01*
G01*
X144889500Y-147174000D01*
G75*
G02*
X144739500Y-147324000I-150000J0D01*
G01*
X144439500Y-147324000D01*
G75*
G02*
X144289500Y-147174000I0J150000D01*
G01*
X144289500Y-145874000D01*
G75*
G02*
X144439500Y-145724000I150000J0D01*
G01*
G37*
G36*
G01*
X143169500Y-145724000D02*
X143469500Y-145724000D01*
G75*
G02*
X143619500Y-145874000I0J-150000D01*
G01*
X143619500Y-147174000D01*
G75*
G02*
X143469500Y-147324000I-150000J0D01*
G01*
X143169500Y-147324000D01*
G75*
G02*
X143019500Y-147174000I0J150000D01*
G01*
X143019500Y-145874000D01*
G75*
G02*
X143169500Y-145724000I150000J0D01*
G01*
G37*
G36*
G01*
X141899500Y-145724000D02*
X142199500Y-145724000D01*
G75*
G02*
X142349500Y-145874000I0J-150000D01*
G01*
X142349500Y-147174000D01*
G75*
G02*
X142199500Y-147324000I-150000J0D01*
G01*
X141899500Y-147324000D01*
G75*
G02*
X141749500Y-147174000I0J150000D01*
G01*
X141749500Y-145874000D01*
G75*
G02*
X141899500Y-145724000I150000J0D01*
G01*
G37*
G36*
G01*
X140629500Y-145724000D02*
X140929500Y-145724000D01*
G75*
G02*
X141079500Y-145874000I0J-150000D01*
G01*
X141079500Y-147174000D01*
G75*
G02*
X140929500Y-147324000I-150000J0D01*
G01*
X140629500Y-147324000D01*
G75*
G02*
X140479500Y-147174000I0J150000D01*
G01*
X140479500Y-145874000D01*
G75*
G02*
X140629500Y-145724000I150000J0D01*
G01*
G37*
G36*
G01*
X140629500Y-140424000D02*
X140929500Y-140424000D01*
G75*
G02*
X141079500Y-140574000I0J-150000D01*
G01*
X141079500Y-141874000D01*
G75*
G02*
X140929500Y-142024000I-150000J0D01*
G01*
X140629500Y-142024000D01*
G75*
G02*
X140479500Y-141874000I0J150000D01*
G01*
X140479500Y-140574000D01*
G75*
G02*
X140629500Y-140424000I150000J0D01*
G01*
G37*
G36*
G01*
X141899500Y-140424000D02*
X142199500Y-140424000D01*
G75*
G02*
X142349500Y-140574000I0J-150000D01*
G01*
X142349500Y-141874000D01*
G75*
G02*
X142199500Y-142024000I-150000J0D01*
G01*
X141899500Y-142024000D01*
G75*
G02*
X141749500Y-141874000I0J150000D01*
G01*
X141749500Y-140574000D01*
G75*
G02*
X141899500Y-140424000I150000J0D01*
G01*
G37*
G36*
G01*
X143169500Y-140424000D02*
X143469500Y-140424000D01*
G75*
G02*
X143619500Y-140574000I0J-150000D01*
G01*
X143619500Y-141874000D01*
G75*
G02*
X143469500Y-142024000I-150000J0D01*
G01*
X143169500Y-142024000D01*
G75*
G02*
X143019500Y-141874000I0J150000D01*
G01*
X143019500Y-140574000D01*
G75*
G02*
X143169500Y-140424000I150000J0D01*
G01*
G37*
G36*
G01*
X144439500Y-140424000D02*
X144739500Y-140424000D01*
G75*
G02*
X144889500Y-140574000I0J-150000D01*
G01*
X144889500Y-141874000D01*
G75*
G02*
X144739500Y-142024000I-150000J0D01*
G01*
X144439500Y-142024000D01*
G75*
G02*
X144289500Y-141874000I0J150000D01*
G01*
X144289500Y-140574000D01*
G75*
G02*
X144439500Y-140424000I150000J0D01*
G01*
G37*
%TD*%
%TO.C,U4*%
G36*
G01*
X155190000Y-145565000D02*
X155190000Y-145265000D01*
G75*
G02*
X155340000Y-145115000I150000J0D01*
G01*
X156640000Y-145115000D01*
G75*
G02*
X156790000Y-145265000I0J-150000D01*
G01*
X156790000Y-145565000D01*
G75*
G02*
X156640000Y-145715000I-150000J0D01*
G01*
X155340000Y-145715000D01*
G75*
G02*
X155190000Y-145565000I0J150000D01*
G01*
G37*
G36*
G01*
X155190000Y-146835000D02*
X155190000Y-146535000D01*
G75*
G02*
X155340000Y-146385000I150000J0D01*
G01*
X156640000Y-146385000D01*
G75*
G02*
X156790000Y-146535000I0J-150000D01*
G01*
X156790000Y-146835000D01*
G75*
G02*
X156640000Y-146985000I-150000J0D01*
G01*
X155340000Y-146985000D01*
G75*
G02*
X155190000Y-146835000I0J150000D01*
G01*
G37*
G36*
G01*
X155190000Y-148105000D02*
X155190000Y-147805000D01*
G75*
G02*
X155340000Y-147655000I150000J0D01*
G01*
X156640000Y-147655000D01*
G75*
G02*
X156790000Y-147805000I0J-150000D01*
G01*
X156790000Y-148105000D01*
G75*
G02*
X156640000Y-148255000I-150000J0D01*
G01*
X155340000Y-148255000D01*
G75*
G02*
X155190000Y-148105000I0J150000D01*
G01*
G37*
G36*
G01*
X155190000Y-149375000D02*
X155190000Y-149075000D01*
G75*
G02*
X155340000Y-148925000I150000J0D01*
G01*
X156640000Y-148925000D01*
G75*
G02*
X156790000Y-149075000I0J-150000D01*
G01*
X156790000Y-149375000D01*
G75*
G02*
X156640000Y-149525000I-150000J0D01*
G01*
X155340000Y-149525000D01*
G75*
G02*
X155190000Y-149375000I0J150000D01*
G01*
G37*
G36*
G01*
X160490000Y-149375000D02*
X160490000Y-149075000D01*
G75*
G02*
X160640000Y-148925000I150000J0D01*
G01*
X161940000Y-148925000D01*
G75*
G02*
X162090000Y-149075000I0J-150000D01*
G01*
X162090000Y-149375000D01*
G75*
G02*
X161940000Y-149525000I-150000J0D01*
G01*
X160640000Y-149525000D01*
G75*
G02*
X160490000Y-149375000I0J150000D01*
G01*
G37*
G36*
G01*
X160490000Y-148105000D02*
X160490000Y-147805000D01*
G75*
G02*
X160640000Y-147655000I150000J0D01*
G01*
X161940000Y-147655000D01*
G75*
G02*
X162090000Y-147805000I0J-150000D01*
G01*
X162090000Y-148105000D01*
G75*
G02*
X161940000Y-148255000I-150000J0D01*
G01*
X160640000Y-148255000D01*
G75*
G02*
X160490000Y-148105000I0J150000D01*
G01*
G37*
G36*
G01*
X160490000Y-146835000D02*
X160490000Y-146535000D01*
G75*
G02*
X160640000Y-146385000I150000J0D01*
G01*
X161940000Y-146385000D01*
G75*
G02*
X162090000Y-146535000I0J-150000D01*
G01*
X162090000Y-146835000D01*
G75*
G02*
X161940000Y-146985000I-150000J0D01*
G01*
X160640000Y-146985000D01*
G75*
G02*
X160490000Y-146835000I0J150000D01*
G01*
G37*
G36*
G01*
X160490000Y-145565000D02*
X160490000Y-145265000D01*
G75*
G02*
X160640000Y-145115000I150000J0D01*
G01*
X161940000Y-145115000D01*
G75*
G02*
X162090000Y-145265000I0J-150000D01*
G01*
X162090000Y-145565000D01*
G75*
G02*
X161940000Y-145715000I-150000J0D01*
G01*
X160640000Y-145715000D01*
G75*
G02*
X160490000Y-145565000I0J150000D01*
G01*
G37*
G36*
G01*
X157555000Y-146927500D02*
X157555000Y-146162500D01*
G75*
G02*
X157797500Y-145920000I242500J0D01*
G01*
X158282500Y-145920000D01*
G75*
G02*
X158525000Y-146162500I0J-242500D01*
G01*
X158525000Y-146927500D01*
G75*
G02*
X158282500Y-147170000I-242500J0D01*
G01*
X157797500Y-147170000D01*
G75*
G02*
X157555000Y-146927500I0J242500D01*
G01*
G37*
G36*
G01*
X157555000Y-148477500D02*
X157555000Y-147712500D01*
G75*
G02*
X157797500Y-147470000I242500J0D01*
G01*
X158282500Y-147470000D01*
G75*
G02*
X158525000Y-147712500I0J-242500D01*
G01*
X158525000Y-148477500D01*
G75*
G02*
X158282500Y-148720000I-242500J0D01*
G01*
X157797500Y-148720000D01*
G75*
G02*
X157555000Y-148477500I0J242500D01*
G01*
G37*
G36*
G01*
X158755000Y-146927500D02*
X158755000Y-146162500D01*
G75*
G02*
X158997500Y-145920000I242500J0D01*
G01*
X159482500Y-145920000D01*
G75*
G02*
X159725000Y-146162500I0J-242500D01*
G01*
X159725000Y-146927500D01*
G75*
G02*
X159482500Y-147170000I-242500J0D01*
G01*
X158997500Y-147170000D01*
G75*
G02*
X158755000Y-146927500I0J242500D01*
G01*
G37*
G36*
G01*
X158755000Y-148477500D02*
X158755000Y-147712500D01*
G75*
G02*
X158997500Y-147470000I242500J0D01*
G01*
X159482500Y-147470000D01*
G75*
G02*
X159725000Y-147712500I0J-242500D01*
G01*
X159725000Y-148477500D01*
G75*
G02*
X159482500Y-148720000I-242500J0D01*
G01*
X158997500Y-148720000D01*
G75*
G02*
X158755000Y-148477500I0J242500D01*
G01*
G37*
%TD*%
%TO.C,R22*%
G36*
G01*
X150993000Y-90514000D02*
X149743000Y-90514000D01*
G75*
G02*
X149493000Y-90264000I0J250000D01*
G01*
X149493000Y-89464000D01*
G75*
G02*
X149743000Y-89214000I250000J0D01*
G01*
X150993000Y-89214000D01*
G75*
G02*
X151243000Y-89464000I0J-250000D01*
G01*
X151243000Y-90264000D01*
G75*
G02*
X150993000Y-90514000I-250000J0D01*
G01*
G37*
G36*
G01*
X150993000Y-93614000D02*
X149743000Y-93614000D01*
G75*
G02*
X149493000Y-93364000I0J250000D01*
G01*
X149493000Y-92564000D01*
G75*
G02*
X149743000Y-92314000I250000J0D01*
G01*
X150993000Y-92314000D01*
G75*
G02*
X151243000Y-92564000I0J-250000D01*
G01*
X151243000Y-93364000D01*
G75*
G02*
X150993000Y-93614000I-250000J0D01*
G01*
G37*
%TD*%
%TO.C,R23*%
G36*
G01*
X156301680Y-110342840D02*
X156301680Y-109092840D01*
G75*
G02*
X156551680Y-108842840I250000J0D01*
G01*
X157351680Y-108842840D01*
G75*
G02*
X157601680Y-109092840I0J-250000D01*
G01*
X157601680Y-110342840D01*
G75*
G02*
X157351680Y-110592840I-250000J0D01*
G01*
X156551680Y-110592840D01*
G75*
G02*
X156301680Y-110342840I0J250000D01*
G01*
G37*
G36*
G01*
X159401680Y-110342840D02*
X159401680Y-109092840D01*
G75*
G02*
X159651680Y-108842840I250000J0D01*
G01*
X160451680Y-108842840D01*
G75*
G02*
X160701680Y-109092840I0J-250000D01*
G01*
X160701680Y-110342840D01*
G75*
G02*
X160451680Y-110592840I-250000J0D01*
G01*
X159651680Y-110592840D01*
G75*
G02*
X159401680Y-110342840I0J250000D01*
G01*
G37*
%TD*%
M02*
