%TF.GenerationSoftware,KiCad,Pcbnew,(5.1.10)-1*%
%TF.CreationDate,2022-11-10T21:57:10-03:00*%
%TF.ProjectId,potenciostato,706f7465-6e63-4696-9f73-7461746f2e6b,rev?*%
%TF.SameCoordinates,Original*%
%TF.FileFunction,Paste,Bot*%
%TF.FilePolarity,Positive*%
%FSLAX46Y46*%
G04 Gerber Fmt 4.6, Leading zero omitted, Abs format (unit mm)*
G04 Created by KiCad (PCBNEW (5.1.10)-1) date 2022-11-10 21:57:10*
%MOMM*%
%LPD*%
G01*
G04 APERTURE LIST*
%ADD10R,1.500000X2.000000*%
G04 APERTURE END LIST*
D10*
%TO.C,D1*%
X145923000Y-60971500D03*
X140823000Y-60971500D03*
X140823000Y-69711500D03*
X145923000Y-69711500D03*
%TD*%
%TO.C,C4*%
G36*
G01*
X175677000Y-61546502D02*
X175677000Y-60246498D01*
G75*
G02*
X175926998Y-59996500I249998J0D01*
G01*
X176752002Y-59996500D01*
G75*
G02*
X177002000Y-60246498I0J-249998D01*
G01*
X177002000Y-61546502D01*
G75*
G02*
X176752002Y-61796500I-249998J0D01*
G01*
X175926998Y-61796500D01*
G75*
G02*
X175677000Y-61546502I0J249998D01*
G01*
G37*
G36*
G01*
X172552000Y-61546502D02*
X172552000Y-60246498D01*
G75*
G02*
X172801998Y-59996500I249998J0D01*
G01*
X173627002Y-59996500D01*
G75*
G02*
X173877000Y-60246498I0J-249998D01*
G01*
X173877000Y-61546502D01*
G75*
G02*
X173627002Y-61796500I-249998J0D01*
G01*
X172801998Y-61796500D01*
G75*
G02*
X172552000Y-61546502I0J249998D01*
G01*
G37*
%TD*%
%TO.C,C3*%
G36*
G01*
X163562000Y-61546502D02*
X163562000Y-60246498D01*
G75*
G02*
X163811998Y-59996500I249998J0D01*
G01*
X164637002Y-59996500D01*
G75*
G02*
X164887000Y-60246498I0J-249998D01*
G01*
X164887000Y-61546502D01*
G75*
G02*
X164637002Y-61796500I-249998J0D01*
G01*
X163811998Y-61796500D01*
G75*
G02*
X163562000Y-61546502I0J249998D01*
G01*
G37*
G36*
G01*
X160437000Y-61546502D02*
X160437000Y-60246498D01*
G75*
G02*
X160686998Y-59996500I249998J0D01*
G01*
X161512002Y-59996500D01*
G75*
G02*
X161762000Y-60246498I0J-249998D01*
G01*
X161762000Y-61546502D01*
G75*
G02*
X161512002Y-61796500I-249998J0D01*
G01*
X160686998Y-61796500D01*
G75*
G02*
X160437000Y-61546502I0J249998D01*
G01*
G37*
%TD*%
M02*
