%TF.GenerationSoftware,KiCad,Pcbnew,(5.1.10)-1*%
%TF.CreationDate,2022-11-12T22:12:05-03:00*%
%TF.ProjectId,potenciostato,706f7465-6e63-4696-9f73-7461746f2e6b,rev?*%
%TF.SameCoordinates,Original*%
%TF.FileFunction,Paste,Top*%
%TF.FilePolarity,Positive*%
%FSLAX46Y46*%
G04 Gerber Fmt 4.6, Leading zero omitted, Abs format (unit mm)*
G04 Created by KiCad (PCBNEW (5.1.10)-1) date 2022-11-12 22:12:05*
%MOMM*%
%LPD*%
G01*
G04 APERTURE LIST*
%ADD10C,0.120000*%
G04 APERTURE END LIST*
D10*
%TO.C,TR1*%
X131127500Y-111506000D02*
X131127500Y-71501000D01*
X131127500Y-71501000D02*
X115824000Y-71501000D01*
X115824000Y-71501000D02*
X115824000Y-111506000D01*
X115824000Y-111506000D02*
X131127500Y-111506000D01*
%TD*%
%TO.C,R20*%
G36*
G01*
X122921000Y-124577001D02*
X122921000Y-123326999D01*
G75*
G02*
X123170999Y-123077000I249999J0D01*
G01*
X123971001Y-123077000D01*
G75*
G02*
X124221000Y-123326999I0J-249999D01*
G01*
X124221000Y-124577001D01*
G75*
G02*
X123971001Y-124827000I-249999J0D01*
G01*
X123170999Y-124827000D01*
G75*
G02*
X122921000Y-124577001I0J249999D01*
G01*
G37*
G36*
G01*
X119821000Y-124577001D02*
X119821000Y-123326999D01*
G75*
G02*
X120070999Y-123077000I249999J0D01*
G01*
X120871001Y-123077000D01*
G75*
G02*
X121121000Y-123326999I0J-249999D01*
G01*
X121121000Y-124577001D01*
G75*
G02*
X120871001Y-124827000I-249999J0D01*
G01*
X120070999Y-124827000D01*
G75*
G02*
X119821000Y-124577001I0J249999D01*
G01*
G37*
%TD*%
%TO.C,R16*%
G36*
G01*
X126096000Y-124577001D02*
X126096000Y-123326999D01*
G75*
G02*
X126345999Y-123077000I249999J0D01*
G01*
X127146001Y-123077000D01*
G75*
G02*
X127396000Y-123326999I0J-249999D01*
G01*
X127396000Y-124577001D01*
G75*
G02*
X127146001Y-124827000I-249999J0D01*
G01*
X126345999Y-124827000D01*
G75*
G02*
X126096000Y-124577001I0J249999D01*
G01*
G37*
G36*
G01*
X129196000Y-124577001D02*
X129196000Y-123326999D01*
G75*
G02*
X129445999Y-123077000I249999J0D01*
G01*
X130246001Y-123077000D01*
G75*
G02*
X130496000Y-123326999I0J-249999D01*
G01*
X130496000Y-124577001D01*
G75*
G02*
X130246001Y-124827000I-249999J0D01*
G01*
X129445999Y-124827000D01*
G75*
G02*
X129196000Y-124577001I0J249999D01*
G01*
G37*
%TD*%
%TO.C,R17*%
G36*
G01*
X127708499Y-149770000D02*
X128958501Y-149770000D01*
G75*
G02*
X129208500Y-150019999I0J-249999D01*
G01*
X129208500Y-150820001D01*
G75*
G02*
X128958501Y-151070000I-249999J0D01*
G01*
X127708499Y-151070000D01*
G75*
G02*
X127458500Y-150820001I0J249999D01*
G01*
X127458500Y-150019999D01*
G75*
G02*
X127708499Y-149770000I249999J0D01*
G01*
G37*
G36*
G01*
X127708499Y-146670000D02*
X128958501Y-146670000D01*
G75*
G02*
X129208500Y-146919999I0J-249999D01*
G01*
X129208500Y-147720001D01*
G75*
G02*
X128958501Y-147970000I-249999J0D01*
G01*
X127708499Y-147970000D01*
G75*
G02*
X127458500Y-147720001I0J249999D01*
G01*
X127458500Y-146919999D01*
G75*
G02*
X127708499Y-146670000I249999J0D01*
G01*
G37*
%TD*%
%TO.C,R19*%
G36*
G01*
X123878501Y-151070000D02*
X122628499Y-151070000D01*
G75*
G02*
X122378500Y-150820001I0J249999D01*
G01*
X122378500Y-150019999D01*
G75*
G02*
X122628499Y-149770000I249999J0D01*
G01*
X123878501Y-149770000D01*
G75*
G02*
X124128500Y-150019999I0J-249999D01*
G01*
X124128500Y-150820001D01*
G75*
G02*
X123878501Y-151070000I-249999J0D01*
G01*
G37*
G36*
G01*
X123878501Y-147970000D02*
X122628499Y-147970000D01*
G75*
G02*
X122378500Y-147720001I0J249999D01*
G01*
X122378500Y-146919999D01*
G75*
G02*
X122628499Y-146670000I249999J0D01*
G01*
X123878501Y-146670000D01*
G75*
G02*
X124128500Y-146919999I0J-249999D01*
G01*
X124128500Y-147720001D01*
G75*
G02*
X123878501Y-147970000I-249999J0D01*
G01*
G37*
%TD*%
%TO.C,R1*%
G36*
G01*
X170170001Y-134075000D02*
X168919999Y-134075000D01*
G75*
G02*
X168670000Y-133825001I0J249999D01*
G01*
X168670000Y-133024999D01*
G75*
G02*
X168919999Y-132775000I249999J0D01*
G01*
X170170001Y-132775000D01*
G75*
G02*
X170420000Y-133024999I0J-249999D01*
G01*
X170420000Y-133825001D01*
G75*
G02*
X170170001Y-134075000I-249999J0D01*
G01*
G37*
G36*
G01*
X170170001Y-137175000D02*
X168919999Y-137175000D01*
G75*
G02*
X168670000Y-136925001I0J249999D01*
G01*
X168670000Y-136124999D01*
G75*
G02*
X168919999Y-135875000I249999J0D01*
G01*
X170170001Y-135875000D01*
G75*
G02*
X170420000Y-136124999I0J-249999D01*
G01*
X170420000Y-136925001D01*
G75*
G02*
X170170001Y-137175000I-249999J0D01*
G01*
G37*
%TD*%
%TO.C,R2*%
G36*
G01*
X151310501Y-137163500D02*
X150060499Y-137163500D01*
G75*
G02*
X149810500Y-136913501I0J249999D01*
G01*
X149810500Y-136113499D01*
G75*
G02*
X150060499Y-135863500I249999J0D01*
G01*
X151310501Y-135863500D01*
G75*
G02*
X151560500Y-136113499I0J-249999D01*
G01*
X151560500Y-136913501D01*
G75*
G02*
X151310501Y-137163500I-249999J0D01*
G01*
G37*
G36*
G01*
X151310501Y-134063500D02*
X150060499Y-134063500D01*
G75*
G02*
X149810500Y-133813501I0J249999D01*
G01*
X149810500Y-133013499D01*
G75*
G02*
X150060499Y-132763500I249999J0D01*
G01*
X151310501Y-132763500D01*
G75*
G02*
X151560500Y-133013499I0J-249999D01*
G01*
X151560500Y-133813501D01*
G75*
G02*
X151310501Y-134063500I-249999J0D01*
G01*
G37*
%TD*%
%TO.C,R3*%
G36*
G01*
X155374501Y-134063500D02*
X154124499Y-134063500D01*
G75*
G02*
X153874500Y-133813501I0J249999D01*
G01*
X153874500Y-133013499D01*
G75*
G02*
X154124499Y-132763500I249999J0D01*
G01*
X155374501Y-132763500D01*
G75*
G02*
X155624500Y-133013499I0J-249999D01*
G01*
X155624500Y-133813501D01*
G75*
G02*
X155374501Y-134063500I-249999J0D01*
G01*
G37*
G36*
G01*
X155374501Y-137163500D02*
X154124499Y-137163500D01*
G75*
G02*
X153874500Y-136913501I0J249999D01*
G01*
X153874500Y-136113499D01*
G75*
G02*
X154124499Y-135863500I249999J0D01*
G01*
X155374501Y-135863500D01*
G75*
G02*
X155624500Y-136113499I0J-249999D01*
G01*
X155624500Y-136913501D01*
G75*
G02*
X155374501Y-137163500I-249999J0D01*
G01*
G37*
%TD*%
%TO.C,R4*%
G36*
G01*
X166995001Y-148605000D02*
X165744999Y-148605000D01*
G75*
G02*
X165495000Y-148355001I0J249999D01*
G01*
X165495000Y-147554999D01*
G75*
G02*
X165744999Y-147305000I249999J0D01*
G01*
X166995001Y-147305000D01*
G75*
G02*
X167245000Y-147554999I0J-249999D01*
G01*
X167245000Y-148355001D01*
G75*
G02*
X166995001Y-148605000I-249999J0D01*
G01*
G37*
G36*
G01*
X166995001Y-145505000D02*
X165744999Y-145505000D01*
G75*
G02*
X165495000Y-145255001I0J249999D01*
G01*
X165495000Y-144454999D01*
G75*
G02*
X165744999Y-144205000I249999J0D01*
G01*
X166995001Y-144205000D01*
G75*
G02*
X167245000Y-144454999I0J-249999D01*
G01*
X167245000Y-145255001D01*
G75*
G02*
X166995001Y-145505000I-249999J0D01*
G01*
G37*
%TD*%
%TO.C,R5*%
G36*
G01*
X161910000Y-141595001D02*
X161910000Y-140344999D01*
G75*
G02*
X162159999Y-140095000I249999J0D01*
G01*
X162960001Y-140095000D01*
G75*
G02*
X163210000Y-140344999I0J-249999D01*
G01*
X163210000Y-141595001D01*
G75*
G02*
X162960001Y-141845000I-249999J0D01*
G01*
X162159999Y-141845000D01*
G75*
G02*
X161910000Y-141595001I0J249999D01*
G01*
G37*
G36*
G01*
X158810000Y-141595001D02*
X158810000Y-140344999D01*
G75*
G02*
X159059999Y-140095000I249999J0D01*
G01*
X159860001Y-140095000D01*
G75*
G02*
X160110000Y-140344999I0J-249999D01*
G01*
X160110000Y-141595001D01*
G75*
G02*
X159860001Y-141845000I-249999J0D01*
G01*
X159059999Y-141845000D01*
G75*
G02*
X158810000Y-141595001I0J249999D01*
G01*
G37*
%TD*%
%TO.C,R6*%
G36*
G01*
X140325001Y-134000000D02*
X139074999Y-134000000D01*
G75*
G02*
X138825000Y-133750001I0J249999D01*
G01*
X138825000Y-132949999D01*
G75*
G02*
X139074999Y-132700000I249999J0D01*
G01*
X140325001Y-132700000D01*
G75*
G02*
X140575000Y-132949999I0J-249999D01*
G01*
X140575000Y-133750001D01*
G75*
G02*
X140325001Y-134000000I-249999J0D01*
G01*
G37*
G36*
G01*
X140325001Y-137100000D02*
X139074999Y-137100000D01*
G75*
G02*
X138825000Y-136850001I0J249999D01*
G01*
X138825000Y-136049999D01*
G75*
G02*
X139074999Y-135800000I249999J0D01*
G01*
X140325001Y-135800000D01*
G75*
G02*
X140575000Y-136049999I0J-249999D01*
G01*
X140575000Y-136850001D01*
G75*
G02*
X140325001Y-137100000I-249999J0D01*
G01*
G37*
%TD*%
%TO.C,R7*%
G36*
G01*
X136769001Y-137074000D02*
X135518999Y-137074000D01*
G75*
G02*
X135269000Y-136824001I0J249999D01*
G01*
X135269000Y-136023999D01*
G75*
G02*
X135518999Y-135774000I249999J0D01*
G01*
X136769001Y-135774000D01*
G75*
G02*
X137019000Y-136023999I0J-249999D01*
G01*
X137019000Y-136824001D01*
G75*
G02*
X136769001Y-137074000I-249999J0D01*
G01*
G37*
G36*
G01*
X136769001Y-133974000D02*
X135518999Y-133974000D01*
G75*
G02*
X135269000Y-133724001I0J249999D01*
G01*
X135269000Y-132923999D01*
G75*
G02*
X135518999Y-132674000I249999J0D01*
G01*
X136769001Y-132674000D01*
G75*
G02*
X137019000Y-132923999I0J-249999D01*
G01*
X137019000Y-133724001D01*
G75*
G02*
X136769001Y-133974000I-249999J0D01*
G01*
G37*
%TD*%
%TO.C,R8*%
G36*
G01*
X164772501Y-114722000D02*
X163522499Y-114722000D01*
G75*
G02*
X163272500Y-114472001I0J249999D01*
G01*
X163272500Y-113671999D01*
G75*
G02*
X163522499Y-113422000I249999J0D01*
G01*
X164772501Y-113422000D01*
G75*
G02*
X165022500Y-113671999I0J-249999D01*
G01*
X165022500Y-114472001D01*
G75*
G02*
X164772501Y-114722000I-249999J0D01*
G01*
G37*
G36*
G01*
X164772501Y-111622000D02*
X163522499Y-111622000D01*
G75*
G02*
X163272500Y-111372001I0J249999D01*
G01*
X163272500Y-110571999D01*
G75*
G02*
X163522499Y-110322000I249999J0D01*
G01*
X164772501Y-110322000D01*
G75*
G02*
X165022500Y-110571999I0J-249999D01*
G01*
X165022500Y-111372001D01*
G75*
G02*
X164772501Y-111622000I-249999J0D01*
G01*
G37*
%TD*%
%TO.C,R9*%
G36*
G01*
X155793601Y-95544400D02*
X154543599Y-95544400D01*
G75*
G02*
X154293600Y-95294401I0J249999D01*
G01*
X154293600Y-94494399D01*
G75*
G02*
X154543599Y-94244400I249999J0D01*
G01*
X155793601Y-94244400D01*
G75*
G02*
X156043600Y-94494399I0J-249999D01*
G01*
X156043600Y-95294401D01*
G75*
G02*
X155793601Y-95544400I-249999J0D01*
G01*
G37*
G36*
G01*
X155793601Y-92444400D02*
X154543599Y-92444400D01*
G75*
G02*
X154293600Y-92194401I0J249999D01*
G01*
X154293600Y-91394399D01*
G75*
G02*
X154543599Y-91144400I249999J0D01*
G01*
X155793601Y-91144400D01*
G75*
G02*
X156043600Y-91394399I0J-249999D01*
G01*
X156043600Y-92194401D01*
G75*
G02*
X155793601Y-92444400I-249999J0D01*
G01*
G37*
%TD*%
%TO.C,R10*%
G36*
G01*
X153914001Y-111648000D02*
X152663999Y-111648000D01*
G75*
G02*
X152414000Y-111398001I0J249999D01*
G01*
X152414000Y-110597999D01*
G75*
G02*
X152663999Y-110348000I249999J0D01*
G01*
X153914001Y-110348000D01*
G75*
G02*
X154164000Y-110597999I0J-249999D01*
G01*
X154164000Y-111398001D01*
G75*
G02*
X153914001Y-111648000I-249999J0D01*
G01*
G37*
G36*
G01*
X153914001Y-114748000D02*
X152663999Y-114748000D01*
G75*
G02*
X152414000Y-114498001I0J249999D01*
G01*
X152414000Y-113697999D01*
G75*
G02*
X152663999Y-113448000I249999J0D01*
G01*
X153914001Y-113448000D01*
G75*
G02*
X154164000Y-113697999I0J-249999D01*
G01*
X154164000Y-114498001D01*
G75*
G02*
X153914001Y-114748000I-249999J0D01*
G01*
G37*
%TD*%
%TO.C,R11*%
G36*
G01*
X163820001Y-134075000D02*
X162569999Y-134075000D01*
G75*
G02*
X162320000Y-133825001I0J249999D01*
G01*
X162320000Y-133024999D01*
G75*
G02*
X162569999Y-132775000I249999J0D01*
G01*
X163820001Y-132775000D01*
G75*
G02*
X164070000Y-133024999I0J-249999D01*
G01*
X164070000Y-133825001D01*
G75*
G02*
X163820001Y-134075000I-249999J0D01*
G01*
G37*
G36*
G01*
X163820001Y-137175000D02*
X162569999Y-137175000D01*
G75*
G02*
X162320000Y-136925001I0J249999D01*
G01*
X162320000Y-136124999D01*
G75*
G02*
X162569999Y-135875000I249999J0D01*
G01*
X163820001Y-135875000D01*
G75*
G02*
X164070000Y-136124999I0J-249999D01*
G01*
X164070000Y-136925001D01*
G75*
G02*
X163820001Y-137175000I-249999J0D01*
G01*
G37*
%TD*%
%TO.C,R12*%
G36*
G01*
X160010001Y-137175000D02*
X158759999Y-137175000D01*
G75*
G02*
X158510000Y-136925001I0J249999D01*
G01*
X158510000Y-136124999D01*
G75*
G02*
X158759999Y-135875000I249999J0D01*
G01*
X160010001Y-135875000D01*
G75*
G02*
X160260000Y-136124999I0J-249999D01*
G01*
X160260000Y-136925001D01*
G75*
G02*
X160010001Y-137175000I-249999J0D01*
G01*
G37*
G36*
G01*
X160010001Y-134075000D02*
X158759999Y-134075000D01*
G75*
G02*
X158510000Y-133825001I0J249999D01*
G01*
X158510000Y-133024999D01*
G75*
G02*
X158759999Y-132775000I249999J0D01*
G01*
X160010001Y-132775000D01*
G75*
G02*
X160260000Y-133024999I0J-249999D01*
G01*
X160260000Y-133825001D01*
G75*
G02*
X160010001Y-134075000I-249999J0D01*
G01*
G37*
%TD*%
%TO.C,R13*%
G36*
G01*
X147183001Y-134000000D02*
X145932999Y-134000000D01*
G75*
G02*
X145683000Y-133750001I0J249999D01*
G01*
X145683000Y-132949999D01*
G75*
G02*
X145932999Y-132700000I249999J0D01*
G01*
X147183001Y-132700000D01*
G75*
G02*
X147433000Y-132949999I0J-249999D01*
G01*
X147433000Y-133750001D01*
G75*
G02*
X147183001Y-134000000I-249999J0D01*
G01*
G37*
G36*
G01*
X147183001Y-137100000D02*
X145932999Y-137100000D01*
G75*
G02*
X145683000Y-136850001I0J249999D01*
G01*
X145683000Y-136049999D01*
G75*
G02*
X145932999Y-135800000I249999J0D01*
G01*
X147183001Y-135800000D01*
G75*
G02*
X147433000Y-136049999I0J-249999D01*
G01*
X147433000Y-136850001D01*
G75*
G02*
X147183001Y-137100000I-249999J0D01*
G01*
G37*
%TD*%
%TO.C,R14*%
G36*
G01*
X167395999Y-113448000D02*
X168646001Y-113448000D01*
G75*
G02*
X168896000Y-113697999I0J-249999D01*
G01*
X168896000Y-114498001D01*
G75*
G02*
X168646001Y-114748000I-249999J0D01*
G01*
X167395999Y-114748000D01*
G75*
G02*
X167146000Y-114498001I0J249999D01*
G01*
X167146000Y-113697999D01*
G75*
G02*
X167395999Y-113448000I249999J0D01*
G01*
G37*
G36*
G01*
X167395999Y-110348000D02*
X168646001Y-110348000D01*
G75*
G02*
X168896000Y-110597999I0J-249999D01*
G01*
X168896000Y-111398001D01*
G75*
G02*
X168646001Y-111648000I-249999J0D01*
G01*
X167395999Y-111648000D01*
G75*
G02*
X167146000Y-111398001I0J249999D01*
G01*
X167146000Y-110597999D01*
G75*
G02*
X167395999Y-110348000I249999J0D01*
G01*
G37*
%TD*%
%TO.C,R15*%
G36*
G01*
X166995001Y-137175000D02*
X165744999Y-137175000D01*
G75*
G02*
X165495000Y-136925001I0J249999D01*
G01*
X165495000Y-136124999D01*
G75*
G02*
X165744999Y-135875000I249999J0D01*
G01*
X166995001Y-135875000D01*
G75*
G02*
X167245000Y-136124999I0J-249999D01*
G01*
X167245000Y-136925001D01*
G75*
G02*
X166995001Y-137175000I-249999J0D01*
G01*
G37*
G36*
G01*
X166995001Y-134075000D02*
X165744999Y-134075000D01*
G75*
G02*
X165495000Y-133825001I0J249999D01*
G01*
X165495000Y-133024999D01*
G75*
G02*
X165744999Y-132775000I249999J0D01*
G01*
X166995001Y-132775000D01*
G75*
G02*
X167245000Y-133024999I0J-249999D01*
G01*
X167245000Y-133825001D01*
G75*
G02*
X166995001Y-134075000I-249999J0D01*
G01*
G37*
%TD*%
%TO.C,R18*%
G36*
G01*
X160696000Y-112404999D02*
X160696000Y-113655001D01*
G75*
G02*
X160446001Y-113905000I-249999J0D01*
G01*
X159645999Y-113905000D01*
G75*
G02*
X159396000Y-113655001I0J249999D01*
G01*
X159396000Y-112404999D01*
G75*
G02*
X159645999Y-112155000I249999J0D01*
G01*
X160446001Y-112155000D01*
G75*
G02*
X160696000Y-112404999I0J-249999D01*
G01*
G37*
G36*
G01*
X157596000Y-112404999D02*
X157596000Y-113655001D01*
G75*
G02*
X157346001Y-113905000I-249999J0D01*
G01*
X156545999Y-113905000D01*
G75*
G02*
X156296000Y-113655001I0J249999D01*
G01*
X156296000Y-112404999D01*
G75*
G02*
X156545999Y-112155000I249999J0D01*
G01*
X157346001Y-112155000D01*
G75*
G02*
X157596000Y-112404999I0J-249999D01*
G01*
G37*
%TD*%
%TO.C,R21*%
G36*
G01*
X144662999Y-113422000D02*
X145913001Y-113422000D01*
G75*
G02*
X146163000Y-113671999I0J-249999D01*
G01*
X146163000Y-114472001D01*
G75*
G02*
X145913001Y-114722000I-249999J0D01*
G01*
X144662999Y-114722000D01*
G75*
G02*
X144413000Y-114472001I0J249999D01*
G01*
X144413000Y-113671999D01*
G75*
G02*
X144662999Y-113422000I249999J0D01*
G01*
G37*
G36*
G01*
X144662999Y-110322000D02*
X145913001Y-110322000D01*
G75*
G02*
X146163000Y-110571999I0J-249999D01*
G01*
X146163000Y-111372001D01*
G75*
G02*
X145913001Y-111622000I-249999J0D01*
G01*
X144662999Y-111622000D01*
G75*
G02*
X144413000Y-111372001I0J249999D01*
G01*
X144413000Y-110571999D01*
G75*
G02*
X144662999Y-110322000I249999J0D01*
G01*
G37*
%TD*%
%TO.C,U1*%
G36*
G01*
X175491000Y-108310000D02*
X175791000Y-108310000D01*
G75*
G02*
X175941000Y-108460000I0J-150000D01*
G01*
X175941000Y-109760000D01*
G75*
G02*
X175791000Y-109910000I-150000J0D01*
G01*
X175491000Y-109910000D01*
G75*
G02*
X175341000Y-109760000I0J150000D01*
G01*
X175341000Y-108460000D01*
G75*
G02*
X175491000Y-108310000I150000J0D01*
G01*
G37*
G36*
G01*
X174221000Y-108310000D02*
X174521000Y-108310000D01*
G75*
G02*
X174671000Y-108460000I0J-150000D01*
G01*
X174671000Y-109760000D01*
G75*
G02*
X174521000Y-109910000I-150000J0D01*
G01*
X174221000Y-109910000D01*
G75*
G02*
X174071000Y-109760000I0J150000D01*
G01*
X174071000Y-108460000D01*
G75*
G02*
X174221000Y-108310000I150000J0D01*
G01*
G37*
G36*
G01*
X172951000Y-108310000D02*
X173251000Y-108310000D01*
G75*
G02*
X173401000Y-108460000I0J-150000D01*
G01*
X173401000Y-109760000D01*
G75*
G02*
X173251000Y-109910000I-150000J0D01*
G01*
X172951000Y-109910000D01*
G75*
G02*
X172801000Y-109760000I0J150000D01*
G01*
X172801000Y-108460000D01*
G75*
G02*
X172951000Y-108310000I150000J0D01*
G01*
G37*
G36*
G01*
X171681000Y-108310000D02*
X171981000Y-108310000D01*
G75*
G02*
X172131000Y-108460000I0J-150000D01*
G01*
X172131000Y-109760000D01*
G75*
G02*
X171981000Y-109910000I-150000J0D01*
G01*
X171681000Y-109910000D01*
G75*
G02*
X171531000Y-109760000I0J150000D01*
G01*
X171531000Y-108460000D01*
G75*
G02*
X171681000Y-108310000I150000J0D01*
G01*
G37*
G36*
G01*
X171681000Y-113610000D02*
X171981000Y-113610000D01*
G75*
G02*
X172131000Y-113760000I0J-150000D01*
G01*
X172131000Y-115060000D01*
G75*
G02*
X171981000Y-115210000I-150000J0D01*
G01*
X171681000Y-115210000D01*
G75*
G02*
X171531000Y-115060000I0J150000D01*
G01*
X171531000Y-113760000D01*
G75*
G02*
X171681000Y-113610000I150000J0D01*
G01*
G37*
G36*
G01*
X172951000Y-113610000D02*
X173251000Y-113610000D01*
G75*
G02*
X173401000Y-113760000I0J-150000D01*
G01*
X173401000Y-115060000D01*
G75*
G02*
X173251000Y-115210000I-150000J0D01*
G01*
X172951000Y-115210000D01*
G75*
G02*
X172801000Y-115060000I0J150000D01*
G01*
X172801000Y-113760000D01*
G75*
G02*
X172951000Y-113610000I150000J0D01*
G01*
G37*
G36*
G01*
X174221000Y-113610000D02*
X174521000Y-113610000D01*
G75*
G02*
X174671000Y-113760000I0J-150000D01*
G01*
X174671000Y-115060000D01*
G75*
G02*
X174521000Y-115210000I-150000J0D01*
G01*
X174221000Y-115210000D01*
G75*
G02*
X174071000Y-115060000I0J150000D01*
G01*
X174071000Y-113760000D01*
G75*
G02*
X174221000Y-113610000I150000J0D01*
G01*
G37*
G36*
G01*
X175491000Y-113610000D02*
X175791000Y-113610000D01*
G75*
G02*
X175941000Y-113760000I0J-150000D01*
G01*
X175941000Y-115060000D01*
G75*
G02*
X175791000Y-115210000I-150000J0D01*
G01*
X175491000Y-115210000D01*
G75*
G02*
X175341000Y-115060000I0J150000D01*
G01*
X175341000Y-113760000D01*
G75*
G02*
X175491000Y-113610000I150000J0D01*
G01*
G37*
G36*
G01*
X174128500Y-110675000D02*
X174893500Y-110675000D01*
G75*
G02*
X175136000Y-110917500I0J-242500D01*
G01*
X175136000Y-111402500D01*
G75*
G02*
X174893500Y-111645000I-242500J0D01*
G01*
X174128500Y-111645000D01*
G75*
G02*
X173886000Y-111402500I0J242500D01*
G01*
X173886000Y-110917500D01*
G75*
G02*
X174128500Y-110675000I242500J0D01*
G01*
G37*
G36*
G01*
X172578500Y-110675000D02*
X173343500Y-110675000D01*
G75*
G02*
X173586000Y-110917500I0J-242500D01*
G01*
X173586000Y-111402500D01*
G75*
G02*
X173343500Y-111645000I-242500J0D01*
G01*
X172578500Y-111645000D01*
G75*
G02*
X172336000Y-111402500I0J242500D01*
G01*
X172336000Y-110917500D01*
G75*
G02*
X172578500Y-110675000I242500J0D01*
G01*
G37*
G36*
G01*
X174128500Y-111875000D02*
X174893500Y-111875000D01*
G75*
G02*
X175136000Y-112117500I0J-242500D01*
G01*
X175136000Y-112602500D01*
G75*
G02*
X174893500Y-112845000I-242500J0D01*
G01*
X174128500Y-112845000D01*
G75*
G02*
X173886000Y-112602500I0J242500D01*
G01*
X173886000Y-112117500D01*
G75*
G02*
X174128500Y-111875000I242500J0D01*
G01*
G37*
G36*
G01*
X172578500Y-111875000D02*
X173343500Y-111875000D01*
G75*
G02*
X173586000Y-112117500I0J-242500D01*
G01*
X173586000Y-112602500D01*
G75*
G02*
X173343500Y-112845000I-242500J0D01*
G01*
X172578500Y-112845000D01*
G75*
G02*
X172336000Y-112602500I0J242500D01*
G01*
X172336000Y-112117500D01*
G75*
G02*
X172578500Y-111875000I242500J0D01*
G01*
G37*
%TD*%
%TO.C,U3*%
G36*
G01*
X141527000Y-143989000D02*
X142292000Y-143989000D01*
G75*
G02*
X142534500Y-144231500I0J-242500D01*
G01*
X142534500Y-144716500D01*
G75*
G02*
X142292000Y-144959000I-242500J0D01*
G01*
X141527000Y-144959000D01*
G75*
G02*
X141284500Y-144716500I0J242500D01*
G01*
X141284500Y-144231500D01*
G75*
G02*
X141527000Y-143989000I242500J0D01*
G01*
G37*
G36*
G01*
X143077000Y-143989000D02*
X143842000Y-143989000D01*
G75*
G02*
X144084500Y-144231500I0J-242500D01*
G01*
X144084500Y-144716500D01*
G75*
G02*
X143842000Y-144959000I-242500J0D01*
G01*
X143077000Y-144959000D01*
G75*
G02*
X142834500Y-144716500I0J242500D01*
G01*
X142834500Y-144231500D01*
G75*
G02*
X143077000Y-143989000I242500J0D01*
G01*
G37*
G36*
G01*
X141527000Y-142789000D02*
X142292000Y-142789000D01*
G75*
G02*
X142534500Y-143031500I0J-242500D01*
G01*
X142534500Y-143516500D01*
G75*
G02*
X142292000Y-143759000I-242500J0D01*
G01*
X141527000Y-143759000D01*
G75*
G02*
X141284500Y-143516500I0J242500D01*
G01*
X141284500Y-143031500D01*
G75*
G02*
X141527000Y-142789000I242500J0D01*
G01*
G37*
G36*
G01*
X143077000Y-142789000D02*
X143842000Y-142789000D01*
G75*
G02*
X144084500Y-143031500I0J-242500D01*
G01*
X144084500Y-143516500D01*
G75*
G02*
X143842000Y-143759000I-242500J0D01*
G01*
X143077000Y-143759000D01*
G75*
G02*
X142834500Y-143516500I0J242500D01*
G01*
X142834500Y-143031500D01*
G75*
G02*
X143077000Y-142789000I242500J0D01*
G01*
G37*
G36*
G01*
X144439500Y-145724000D02*
X144739500Y-145724000D01*
G75*
G02*
X144889500Y-145874000I0J-150000D01*
G01*
X144889500Y-147174000D01*
G75*
G02*
X144739500Y-147324000I-150000J0D01*
G01*
X144439500Y-147324000D01*
G75*
G02*
X144289500Y-147174000I0J150000D01*
G01*
X144289500Y-145874000D01*
G75*
G02*
X144439500Y-145724000I150000J0D01*
G01*
G37*
G36*
G01*
X143169500Y-145724000D02*
X143469500Y-145724000D01*
G75*
G02*
X143619500Y-145874000I0J-150000D01*
G01*
X143619500Y-147174000D01*
G75*
G02*
X143469500Y-147324000I-150000J0D01*
G01*
X143169500Y-147324000D01*
G75*
G02*
X143019500Y-147174000I0J150000D01*
G01*
X143019500Y-145874000D01*
G75*
G02*
X143169500Y-145724000I150000J0D01*
G01*
G37*
G36*
G01*
X141899500Y-145724000D02*
X142199500Y-145724000D01*
G75*
G02*
X142349500Y-145874000I0J-150000D01*
G01*
X142349500Y-147174000D01*
G75*
G02*
X142199500Y-147324000I-150000J0D01*
G01*
X141899500Y-147324000D01*
G75*
G02*
X141749500Y-147174000I0J150000D01*
G01*
X141749500Y-145874000D01*
G75*
G02*
X141899500Y-145724000I150000J0D01*
G01*
G37*
G36*
G01*
X140629500Y-145724000D02*
X140929500Y-145724000D01*
G75*
G02*
X141079500Y-145874000I0J-150000D01*
G01*
X141079500Y-147174000D01*
G75*
G02*
X140929500Y-147324000I-150000J0D01*
G01*
X140629500Y-147324000D01*
G75*
G02*
X140479500Y-147174000I0J150000D01*
G01*
X140479500Y-145874000D01*
G75*
G02*
X140629500Y-145724000I150000J0D01*
G01*
G37*
G36*
G01*
X140629500Y-140424000D02*
X140929500Y-140424000D01*
G75*
G02*
X141079500Y-140574000I0J-150000D01*
G01*
X141079500Y-141874000D01*
G75*
G02*
X140929500Y-142024000I-150000J0D01*
G01*
X140629500Y-142024000D01*
G75*
G02*
X140479500Y-141874000I0J150000D01*
G01*
X140479500Y-140574000D01*
G75*
G02*
X140629500Y-140424000I150000J0D01*
G01*
G37*
G36*
G01*
X141899500Y-140424000D02*
X142199500Y-140424000D01*
G75*
G02*
X142349500Y-140574000I0J-150000D01*
G01*
X142349500Y-141874000D01*
G75*
G02*
X142199500Y-142024000I-150000J0D01*
G01*
X141899500Y-142024000D01*
G75*
G02*
X141749500Y-141874000I0J150000D01*
G01*
X141749500Y-140574000D01*
G75*
G02*
X141899500Y-140424000I150000J0D01*
G01*
G37*
G36*
G01*
X143169500Y-140424000D02*
X143469500Y-140424000D01*
G75*
G02*
X143619500Y-140574000I0J-150000D01*
G01*
X143619500Y-141874000D01*
G75*
G02*
X143469500Y-142024000I-150000J0D01*
G01*
X143169500Y-142024000D01*
G75*
G02*
X143019500Y-141874000I0J150000D01*
G01*
X143019500Y-140574000D01*
G75*
G02*
X143169500Y-140424000I150000J0D01*
G01*
G37*
G36*
G01*
X144439500Y-140424000D02*
X144739500Y-140424000D01*
G75*
G02*
X144889500Y-140574000I0J-150000D01*
G01*
X144889500Y-141874000D01*
G75*
G02*
X144739500Y-142024000I-150000J0D01*
G01*
X144439500Y-142024000D01*
G75*
G02*
X144289500Y-141874000I0J150000D01*
G01*
X144289500Y-140574000D01*
G75*
G02*
X144439500Y-140424000I150000J0D01*
G01*
G37*
%TD*%
%TO.C,U4*%
G36*
G01*
X155190000Y-145565000D02*
X155190000Y-145265000D01*
G75*
G02*
X155340000Y-145115000I150000J0D01*
G01*
X156640000Y-145115000D01*
G75*
G02*
X156790000Y-145265000I0J-150000D01*
G01*
X156790000Y-145565000D01*
G75*
G02*
X156640000Y-145715000I-150000J0D01*
G01*
X155340000Y-145715000D01*
G75*
G02*
X155190000Y-145565000I0J150000D01*
G01*
G37*
G36*
G01*
X155190000Y-146835000D02*
X155190000Y-146535000D01*
G75*
G02*
X155340000Y-146385000I150000J0D01*
G01*
X156640000Y-146385000D01*
G75*
G02*
X156790000Y-146535000I0J-150000D01*
G01*
X156790000Y-146835000D01*
G75*
G02*
X156640000Y-146985000I-150000J0D01*
G01*
X155340000Y-146985000D01*
G75*
G02*
X155190000Y-146835000I0J150000D01*
G01*
G37*
G36*
G01*
X155190000Y-148105000D02*
X155190000Y-147805000D01*
G75*
G02*
X155340000Y-147655000I150000J0D01*
G01*
X156640000Y-147655000D01*
G75*
G02*
X156790000Y-147805000I0J-150000D01*
G01*
X156790000Y-148105000D01*
G75*
G02*
X156640000Y-148255000I-150000J0D01*
G01*
X155340000Y-148255000D01*
G75*
G02*
X155190000Y-148105000I0J150000D01*
G01*
G37*
G36*
G01*
X155190000Y-149375000D02*
X155190000Y-149075000D01*
G75*
G02*
X155340000Y-148925000I150000J0D01*
G01*
X156640000Y-148925000D01*
G75*
G02*
X156790000Y-149075000I0J-150000D01*
G01*
X156790000Y-149375000D01*
G75*
G02*
X156640000Y-149525000I-150000J0D01*
G01*
X155340000Y-149525000D01*
G75*
G02*
X155190000Y-149375000I0J150000D01*
G01*
G37*
G36*
G01*
X160490000Y-149375000D02*
X160490000Y-149075000D01*
G75*
G02*
X160640000Y-148925000I150000J0D01*
G01*
X161940000Y-148925000D01*
G75*
G02*
X162090000Y-149075000I0J-150000D01*
G01*
X162090000Y-149375000D01*
G75*
G02*
X161940000Y-149525000I-150000J0D01*
G01*
X160640000Y-149525000D01*
G75*
G02*
X160490000Y-149375000I0J150000D01*
G01*
G37*
G36*
G01*
X160490000Y-148105000D02*
X160490000Y-147805000D01*
G75*
G02*
X160640000Y-147655000I150000J0D01*
G01*
X161940000Y-147655000D01*
G75*
G02*
X162090000Y-147805000I0J-150000D01*
G01*
X162090000Y-148105000D01*
G75*
G02*
X161940000Y-148255000I-150000J0D01*
G01*
X160640000Y-148255000D01*
G75*
G02*
X160490000Y-148105000I0J150000D01*
G01*
G37*
G36*
G01*
X160490000Y-146835000D02*
X160490000Y-146535000D01*
G75*
G02*
X160640000Y-146385000I150000J0D01*
G01*
X161940000Y-146385000D01*
G75*
G02*
X162090000Y-146535000I0J-150000D01*
G01*
X162090000Y-146835000D01*
G75*
G02*
X161940000Y-146985000I-150000J0D01*
G01*
X160640000Y-146985000D01*
G75*
G02*
X160490000Y-146835000I0J150000D01*
G01*
G37*
G36*
G01*
X160490000Y-145565000D02*
X160490000Y-145265000D01*
G75*
G02*
X160640000Y-145115000I150000J0D01*
G01*
X161940000Y-145115000D01*
G75*
G02*
X162090000Y-145265000I0J-150000D01*
G01*
X162090000Y-145565000D01*
G75*
G02*
X161940000Y-145715000I-150000J0D01*
G01*
X160640000Y-145715000D01*
G75*
G02*
X160490000Y-145565000I0J150000D01*
G01*
G37*
G36*
G01*
X157555000Y-146927500D02*
X157555000Y-146162500D01*
G75*
G02*
X157797500Y-145920000I242500J0D01*
G01*
X158282500Y-145920000D01*
G75*
G02*
X158525000Y-146162500I0J-242500D01*
G01*
X158525000Y-146927500D01*
G75*
G02*
X158282500Y-147170000I-242500J0D01*
G01*
X157797500Y-147170000D01*
G75*
G02*
X157555000Y-146927500I0J242500D01*
G01*
G37*
G36*
G01*
X157555000Y-148477500D02*
X157555000Y-147712500D01*
G75*
G02*
X157797500Y-147470000I242500J0D01*
G01*
X158282500Y-147470000D01*
G75*
G02*
X158525000Y-147712500I0J-242500D01*
G01*
X158525000Y-148477500D01*
G75*
G02*
X158282500Y-148720000I-242500J0D01*
G01*
X157797500Y-148720000D01*
G75*
G02*
X157555000Y-148477500I0J242500D01*
G01*
G37*
G36*
G01*
X158755000Y-146927500D02*
X158755000Y-146162500D01*
G75*
G02*
X158997500Y-145920000I242500J0D01*
G01*
X159482500Y-145920000D01*
G75*
G02*
X159725000Y-146162500I0J-242500D01*
G01*
X159725000Y-146927500D01*
G75*
G02*
X159482500Y-147170000I-242500J0D01*
G01*
X158997500Y-147170000D01*
G75*
G02*
X158755000Y-146927500I0J242500D01*
G01*
G37*
G36*
G01*
X158755000Y-148477500D02*
X158755000Y-147712500D01*
G75*
G02*
X158997500Y-147470000I242500J0D01*
G01*
X159482500Y-147470000D01*
G75*
G02*
X159725000Y-147712500I0J-242500D01*
G01*
X159725000Y-148477500D01*
G75*
G02*
X159482500Y-148720000I-242500J0D01*
G01*
X158997500Y-148720000D01*
G75*
G02*
X158755000Y-148477500I0J242500D01*
G01*
G37*
%TD*%
%TO.C,R22*%
G36*
G01*
X150967601Y-92444400D02*
X149717599Y-92444400D01*
G75*
G02*
X149467600Y-92194401I0J249999D01*
G01*
X149467600Y-91394399D01*
G75*
G02*
X149717599Y-91144400I249999J0D01*
G01*
X150967601Y-91144400D01*
G75*
G02*
X151217600Y-91394399I0J-249999D01*
G01*
X151217600Y-92194401D01*
G75*
G02*
X150967601Y-92444400I-249999J0D01*
G01*
G37*
G36*
G01*
X150967601Y-95544400D02*
X149717599Y-95544400D01*
G75*
G02*
X149467600Y-95294401I0J249999D01*
G01*
X149467600Y-94494399D01*
G75*
G02*
X149717599Y-94244400I249999J0D01*
G01*
X150967601Y-94244400D01*
G75*
G02*
X151217600Y-94494399I0J-249999D01*
G01*
X151217600Y-95294401D01*
G75*
G02*
X150967601Y-95544400I-249999J0D01*
G01*
G37*
%TD*%
%TO.C,R23*%
G36*
G01*
X156301680Y-110342841D02*
X156301680Y-109092839D01*
G75*
G02*
X156551679Y-108842840I249999J0D01*
G01*
X157351681Y-108842840D01*
G75*
G02*
X157601680Y-109092839I0J-249999D01*
G01*
X157601680Y-110342841D01*
G75*
G02*
X157351681Y-110592840I-249999J0D01*
G01*
X156551679Y-110592840D01*
G75*
G02*
X156301680Y-110342841I0J249999D01*
G01*
G37*
G36*
G01*
X159401680Y-110342841D02*
X159401680Y-109092839D01*
G75*
G02*
X159651679Y-108842840I249999J0D01*
G01*
X160451681Y-108842840D01*
G75*
G02*
X160701680Y-109092839I0J-249999D01*
G01*
X160701680Y-110342841D01*
G75*
G02*
X160451681Y-110592840I-249999J0D01*
G01*
X159651679Y-110592840D01*
G75*
G02*
X159401680Y-110342841I0J249999D01*
G01*
G37*
%TD*%
M02*
