M48
; DRILL file {KiCad (5.1.10)-1} date 11/09/22 22:32:06
; FORMAT={-:-/ absolute / inch / decimal}
; #@! TF.CreationDate,2022-11-09T22:32:06-03:00
; #@! TF.GenerationSoftware,Kicad,Pcbnew,(5.1.10)-1
FMAT,2
INCH
T1C0.0157
T2C0.0315
T3C0.0394
T4C0.0433
T5C0.0472
T6C0.0787
T7C0.1181
%
G90
G05
T1
X4.75Y-5.06
X4.75Y-5.36
X4.85Y-5.06
X4.85Y-5.36
X4.8725Y-5.68
X4.95Y-5.36
X4.9725Y-5.68
X5.05Y-5.06
X5.05Y-5.36
X5.0725Y-5.68
X5.095Y-4.5775
X5.18Y-4.79
X5.3591Y-5.1559
X5.43Y-4.68
X5.43Y-4.98
X5.53Y-4.68
X5.53Y-4.98
X5.59Y-5.12
X5.63Y-4.68
X5.63Y-4.98
X5.73Y-4.68
X5.73Y-4.98
X5.8025Y-4.5775
X5.8775Y-4.4075
X5.8775Y-4.7625
X5.8775Y-5.12
X6.025Y-4.975
X6.095Y-5.4775
X6.125Y-4.975
X6.225Y-4.675
X6.225Y-4.975
X6.325Y-4.675
X6.325Y-4.975
X6.4025Y-5.6475
X6.425Y-4.675
X6.425Y-4.975
X6.525Y-4.675
X6.525Y-4.975
X6.6075Y-4.1575
X6.625Y-4.675
X6.625Y-4.975
X6.6425Y-3.9875
X6.725Y-4.675
X6.725Y-4.975
X6.7275Y-5.675
X6.7575Y-3.285
X6.765Y-3.67
X6.8275Y-5.675
X6.8416Y-3.2127
X6.865Y-4.6825
X6.9275Y-5.675
X6.9975Y-3.525
X7.0275Y-5.675
X7.0475Y-5.28
X7.065Y-4.9925
X7.15Y-3.305
X7.195Y-3.305
X7.2625Y-5.0525
X7.2625Y-5.1725
X7.425Y-4.325
X7.425Y-4.425
X7.425Y-4.525
X7.425Y-4.625
X7.425Y-4.725
X7.425Y-4.825
X7.425Y-4.925
X7.425Y-5.025
X7.425Y-5.125
X7.425Y-5.225
X7.425Y-5.325
X7.425Y-5.425
X7.425Y-5.525
X7.425Y-5.625
X7.425Y-5.725
X7.425Y-5.825
X8.325Y-4.325
X8.325Y-4.425
X8.325Y-4.525
X8.325Y-4.625
X8.325Y-4.725
X8.325Y-4.825
X8.325Y-4.925
X8.325Y-5.025
X8.325Y-5.125
X8.325Y-5.225
X8.325Y-5.325
X8.325Y-5.425
X8.325Y-5.525
X8.325Y-5.625
X8.325Y-5.725
X8.325Y-5.825
T2
X4.75Y-5.06
X4.75Y-5.36
X4.85Y-5.06
X4.85Y-5.36
X4.8725Y-5.68
X4.95Y-5.06
X4.95Y-5.36
X4.9725Y-5.68
X5.05Y-5.06
X5.05Y-5.36
X5.0725Y-5.68
X5.115Y-2.4
X5.115Y-2.6675
X5.405Y-2.4
X5.405Y-2.5325
X5.405Y-2.6675
X5.42Y-3.87
X5.42Y-4.17
X5.43Y-4.68
X5.43Y-4.98
X5.52Y-3.87
X5.52Y-4.17
X5.53Y-4.68
X5.53Y-4.98
X5.62Y-3.87
X5.62Y-4.17
X5.63Y-4.68
X5.63Y-4.98
X5.72Y-3.87
X5.72Y-4.17
X5.73Y-4.68
X5.73Y-4.98
X5.82Y-3.87
X5.82Y-4.17
X5.92Y-3.87
X5.92Y-4.17
X6.02Y-3.87
X6.02Y-4.17
X6.025Y-4.675
X6.025Y-4.975
X6.0425Y-2.3725
X6.0425Y-2.4512
X6.0425Y-2.6225
X6.0425Y-2.7012
X6.125Y-4.675
X6.125Y-4.975
X6.225Y-4.675
X6.225Y-4.975
X6.325Y-4.675
X6.325Y-4.975
X6.4038Y-2.8925
X6.425Y-4.675
X6.425Y-4.975
X6.4825Y-2.8925
X6.525Y-4.675
X6.525Y-4.975
X6.625Y-4.675
X6.625Y-4.975
X6.725Y-4.675
X6.725Y-4.975
X6.7275Y-5.675
X6.8275Y-5.675
X6.9275Y-5.675
X6.95Y-2.8925
X7.0275Y-5.675
X7.0287Y-2.8925
X7.1275Y-5.675
T3
X4.9425Y-2.3
X5.115Y-2.3
X5.21Y-6.002
X5.59Y-5.12
X5.5925Y-5.9497
X5.73Y-5.95
X5.8678Y-5.95
X5.8775Y-4.4075
X5.8775Y-4.7625
X5.8775Y-5.12
X5.8775Y-5.54
X6.0325Y-3.0025
X6.14Y-5.9825
X6.195Y-3.005
X6.2Y-4.16
X6.36Y-4.16
X6.7025Y-2.8725
X6.7025Y-2.9725
X6.71Y-5.955
X7.1425Y-5.955
X7.425Y-3.425
X7.425Y-3.525
X7.425Y-3.625
X7.425Y-3.725
X7.425Y-3.825
X7.425Y-3.925
X7.425Y-4.025
X7.425Y-4.125
X7.425Y-4.225
X7.425Y-4.325
X7.425Y-4.425
X7.425Y-4.525
X7.425Y-4.625
X7.425Y-4.725
X7.425Y-4.825
X7.425Y-4.925
X7.425Y-5.025
X7.425Y-5.125
X7.425Y-5.225
X7.425Y-5.325
X7.425Y-5.425
X7.425Y-5.525
X7.425Y-5.625
X7.425Y-5.725
X7.425Y-5.825
X7.425Y-5.925
X7.425Y-5.925
X7.425Y-6.025
X7.425Y-6.025
X7.612Y-5.725
X7.612Y-5.825
X7.612Y-5.925
X7.612Y-6.025
X7.712Y-5.825
X7.712Y-5.925
X7.712Y-6.025
X7.812Y-5.825
X7.812Y-5.925
X7.812Y-6.025
X7.912Y-5.825
X7.912Y-5.925
X7.912Y-6.025
X8.012Y-5.825
X8.012Y-5.925
X8.012Y-6.025
X8.112Y-5.825
X8.112Y-5.925
X8.112Y-6.025
X8.325Y-3.425
X8.325Y-3.525
X8.325Y-3.625
X8.325Y-3.725
X8.325Y-3.825
X8.325Y-3.925
X8.325Y-4.025
X8.325Y-4.125
X8.325Y-4.225
X8.325Y-4.325
X8.325Y-4.425
X8.325Y-4.525
X8.325Y-4.625
X8.325Y-4.725
X8.325Y-4.825
X8.325Y-4.925
X8.325Y-5.025
X8.325Y-5.125
X8.325Y-5.225
X8.325Y-5.325
X8.325Y-5.425
X8.325Y-5.525
X8.325Y-5.625
X8.325Y-5.725
X8.325Y-5.825
X8.325Y-5.925
X8.325Y-5.925
X8.325Y-6.025
T4
X6.3425Y-2.6225
X6.4425Y-2.6225
X6.5425Y-2.6225
X6.8425Y-2.6225
X6.9425Y-2.6225
X7.0425Y-2.6225
T5
X5.5922Y-5.95
X5.73Y-5.95
X5.8678Y-5.95
T7
X4.73Y-2.3206
X4.73Y-6.0925
X6.77Y-5.865
X6.77Y-5.865
X7.0825Y-5.865
X7.0825Y-5.865
X8.5075Y-2.3156
X8.5075Y-6.0981
T6
G00X4.8625Y-2.5425
M15
G01X4.8625Y-2.5425
M16
G05
G00X4.8625Y-4.6675
M15
G01X4.8625Y-4.6675
M16
G05
T0
M30
