%TF.GenerationSoftware,KiCad,Pcbnew,(5.1.10)-1*%
%TF.CreationDate,2022-11-09T22:19:52-03:00*%
%TF.ProjectId,potenciostato,706f7465-6e63-4696-9f73-7461746f2e6b,rev?*%
%TF.SameCoordinates,Original*%
%TF.FileFunction,Legend,Top*%
%TF.FilePolarity,Positive*%
%FSLAX46Y46*%
G04 Gerber Fmt 4.6, Leading zero omitted, Abs format (unit mm)*
G04 Created by KiCad (PCBNEW (5.1.10)-1) date 2022-11-09 22:19:52*
%MOMM*%
%LPD*%
G01*
G04 APERTURE LIST*
%ADD10C,0.120000*%
%ADD11C,0.152400*%
%ADD12C,0.127000*%
%ADD13C,0.150000*%
%ADD14C,0.015000*%
G04 APERTURE END LIST*
D10*
%TO.C,R20*%
X121293936Y-124862000D02*
X122748064Y-124862000D01*
X121293936Y-123042000D02*
X122748064Y-123042000D01*
%TO.C,U8*%
X178190500Y-63341500D02*
X178190500Y-64851500D01*
X174489500Y-63341500D02*
X174489500Y-64851500D01*
X171219500Y-64851500D02*
X181459500Y-64851500D01*
X181459500Y-63341500D02*
X181459500Y-67982500D01*
X171219500Y-63341500D02*
X171219500Y-67982500D01*
X171219500Y-67982500D02*
X181459500Y-67982500D01*
X171219500Y-63341500D02*
X181459500Y-63341500D01*
%TO.C,C6*%
X180150000Y-73469500D02*
G75*
G03*
X180150000Y-73469500I-2620000J0D01*
G01*
X177530000Y-72429500D02*
X177530000Y-70889500D01*
X177530000Y-76049500D02*
X177530000Y-74509500D01*
X177490000Y-72429500D02*
X177490000Y-70889500D01*
X177490000Y-76049500D02*
X177490000Y-74509500D01*
X177450000Y-76048500D02*
X177450000Y-74509500D01*
X177450000Y-72429500D02*
X177450000Y-70890500D01*
X177410000Y-76047500D02*
X177410000Y-74509500D01*
X177410000Y-72429500D02*
X177410000Y-70891500D01*
X177370000Y-76045500D02*
X177370000Y-74509500D01*
X177370000Y-72429500D02*
X177370000Y-70893500D01*
X177330000Y-76042500D02*
X177330000Y-74509500D01*
X177330000Y-72429500D02*
X177330000Y-70896500D01*
X177290000Y-76038500D02*
X177290000Y-74509500D01*
X177290000Y-72429500D02*
X177290000Y-70900500D01*
X177250000Y-76034500D02*
X177250000Y-74509500D01*
X177250000Y-72429500D02*
X177250000Y-70904500D01*
X177210000Y-76030500D02*
X177210000Y-74509500D01*
X177210000Y-72429500D02*
X177210000Y-70908500D01*
X177170000Y-76025500D02*
X177170000Y-74509500D01*
X177170000Y-72429500D02*
X177170000Y-70913500D01*
X177130000Y-76019500D02*
X177130000Y-74509500D01*
X177130000Y-72429500D02*
X177130000Y-70919500D01*
X177090000Y-76012500D02*
X177090000Y-74509500D01*
X177090000Y-72429500D02*
X177090000Y-70926500D01*
X177050000Y-76005500D02*
X177050000Y-74509500D01*
X177050000Y-72429500D02*
X177050000Y-70933500D01*
X177010000Y-75997500D02*
X177010000Y-74509500D01*
X177010000Y-72429500D02*
X177010000Y-70941500D01*
X176970000Y-75989500D02*
X176970000Y-74509500D01*
X176970000Y-72429500D02*
X176970000Y-70949500D01*
X176930000Y-75980500D02*
X176930000Y-74509500D01*
X176930000Y-72429500D02*
X176930000Y-70958500D01*
X176890000Y-75970500D02*
X176890000Y-74509500D01*
X176890000Y-72429500D02*
X176890000Y-70968500D01*
X176850000Y-75960500D02*
X176850000Y-74509500D01*
X176850000Y-72429500D02*
X176850000Y-70978500D01*
X176809000Y-75949500D02*
X176809000Y-74509500D01*
X176809000Y-72429500D02*
X176809000Y-70989500D01*
X176769000Y-75937500D02*
X176769000Y-74509500D01*
X176769000Y-72429500D02*
X176769000Y-71001500D01*
X176729000Y-75924500D02*
X176729000Y-74509500D01*
X176729000Y-72429500D02*
X176729000Y-71014500D01*
X176689000Y-75911500D02*
X176689000Y-74509500D01*
X176689000Y-72429500D02*
X176689000Y-71027500D01*
X176649000Y-75897500D02*
X176649000Y-74509500D01*
X176649000Y-72429500D02*
X176649000Y-71041500D01*
X176609000Y-75883500D02*
X176609000Y-74509500D01*
X176609000Y-72429500D02*
X176609000Y-71055500D01*
X176569000Y-75867500D02*
X176569000Y-74509500D01*
X176569000Y-72429500D02*
X176569000Y-71071500D01*
X176529000Y-75851500D02*
X176529000Y-74509500D01*
X176529000Y-72429500D02*
X176529000Y-71087500D01*
X176489000Y-75834500D02*
X176489000Y-74509500D01*
X176489000Y-72429500D02*
X176489000Y-71104500D01*
X176449000Y-75817500D02*
X176449000Y-74509500D01*
X176449000Y-72429500D02*
X176449000Y-71121500D01*
X176409000Y-75798500D02*
X176409000Y-74509500D01*
X176409000Y-72429500D02*
X176409000Y-71140500D01*
X176369000Y-75779500D02*
X176369000Y-74509500D01*
X176369000Y-72429500D02*
X176369000Y-71159500D01*
X176329000Y-75759500D02*
X176329000Y-74509500D01*
X176329000Y-72429500D02*
X176329000Y-71179500D01*
X176289000Y-75737500D02*
X176289000Y-74509500D01*
X176289000Y-72429500D02*
X176289000Y-71201500D01*
X176249000Y-75716500D02*
X176249000Y-74509500D01*
X176249000Y-72429500D02*
X176249000Y-71222500D01*
X176209000Y-75693500D02*
X176209000Y-74509500D01*
X176209000Y-72429500D02*
X176209000Y-71245500D01*
X176169000Y-75669500D02*
X176169000Y-74509500D01*
X176169000Y-72429500D02*
X176169000Y-71269500D01*
X176129000Y-75644500D02*
X176129000Y-74509500D01*
X176129000Y-72429500D02*
X176129000Y-71294500D01*
X176089000Y-75618500D02*
X176089000Y-74509500D01*
X176089000Y-72429500D02*
X176089000Y-71320500D01*
X176049000Y-75591500D02*
X176049000Y-74509500D01*
X176049000Y-72429500D02*
X176049000Y-71347500D01*
X176009000Y-75564500D02*
X176009000Y-74509500D01*
X176009000Y-72429500D02*
X176009000Y-71374500D01*
X175969000Y-75534500D02*
X175969000Y-74509500D01*
X175969000Y-72429500D02*
X175969000Y-71404500D01*
X175929000Y-75504500D02*
X175929000Y-74509500D01*
X175929000Y-72429500D02*
X175929000Y-71434500D01*
X175889000Y-75473500D02*
X175889000Y-74509500D01*
X175889000Y-72429500D02*
X175889000Y-71465500D01*
X175849000Y-75440500D02*
X175849000Y-74509500D01*
X175849000Y-72429500D02*
X175849000Y-71498500D01*
X175809000Y-75406500D02*
X175809000Y-74509500D01*
X175809000Y-72429500D02*
X175809000Y-71532500D01*
X175769000Y-75370500D02*
X175769000Y-74509500D01*
X175769000Y-72429500D02*
X175769000Y-71568500D01*
X175729000Y-75333500D02*
X175729000Y-74509500D01*
X175729000Y-72429500D02*
X175729000Y-71605500D01*
X175689000Y-75295500D02*
X175689000Y-74509500D01*
X175689000Y-72429500D02*
X175689000Y-71643500D01*
X175649000Y-75254500D02*
X175649000Y-74509500D01*
X175649000Y-72429500D02*
X175649000Y-71684500D01*
X175609000Y-75212500D02*
X175609000Y-74509500D01*
X175609000Y-72429500D02*
X175609000Y-71726500D01*
X175569000Y-75168500D02*
X175569000Y-74509500D01*
X175569000Y-72429500D02*
X175569000Y-71770500D01*
X175529000Y-75122500D02*
X175529000Y-74509500D01*
X175529000Y-72429500D02*
X175529000Y-71816500D01*
X175489000Y-75074500D02*
X175489000Y-71864500D01*
X175449000Y-75023500D02*
X175449000Y-71915500D01*
X175409000Y-74969500D02*
X175409000Y-71969500D01*
X175369000Y-74912500D02*
X175369000Y-72026500D01*
X175329000Y-74852500D02*
X175329000Y-72086500D01*
X175289000Y-74788500D02*
X175289000Y-72150500D01*
X175249000Y-74720500D02*
X175249000Y-72218500D01*
X175209000Y-74647500D02*
X175209000Y-72291500D01*
X175169000Y-74567500D02*
X175169000Y-72371500D01*
X175129000Y-74480500D02*
X175129000Y-72458500D01*
X175089000Y-74384500D02*
X175089000Y-72554500D01*
X175049000Y-74274500D02*
X175049000Y-72664500D01*
X175009000Y-74146500D02*
X175009000Y-72792500D01*
X174969000Y-73987500D02*
X174969000Y-72951500D01*
X174929000Y-73753500D02*
X174929000Y-73185500D01*
X180334775Y-74944500D02*
X179834775Y-74944500D01*
X180084775Y-75194500D02*
X180084775Y-74694500D01*
%TO.C,C1*%
X155204500Y-65056725D02*
X154704500Y-65056725D01*
X154954500Y-64806725D02*
X154954500Y-65306725D01*
X153763500Y-70212500D02*
X153195500Y-70212500D01*
X153997500Y-70172500D02*
X152961500Y-70172500D01*
X154156500Y-70132500D02*
X152802500Y-70132500D01*
X154284500Y-70092500D02*
X152674500Y-70092500D01*
X154394500Y-70052500D02*
X152564500Y-70052500D01*
X154490500Y-70012500D02*
X152468500Y-70012500D01*
X154577500Y-69972500D02*
X152381500Y-69972500D01*
X154657500Y-69932500D02*
X152301500Y-69932500D01*
X154730500Y-69892500D02*
X152228500Y-69892500D01*
X154798500Y-69852500D02*
X152160500Y-69852500D01*
X154862500Y-69812500D02*
X152096500Y-69812500D01*
X154922500Y-69772500D02*
X152036500Y-69772500D01*
X154979500Y-69732500D02*
X151979500Y-69732500D01*
X155033500Y-69692500D02*
X151925500Y-69692500D01*
X155084500Y-69652500D02*
X151874500Y-69652500D01*
X152439500Y-69612500D02*
X151826500Y-69612500D01*
X155132500Y-69612500D02*
X154519500Y-69612500D01*
X152439500Y-69572500D02*
X151780500Y-69572500D01*
X155178500Y-69572500D02*
X154519500Y-69572500D01*
X152439500Y-69532500D02*
X151736500Y-69532500D01*
X155222500Y-69532500D02*
X154519500Y-69532500D01*
X152439500Y-69492500D02*
X151694500Y-69492500D01*
X155264500Y-69492500D02*
X154519500Y-69492500D01*
X152439500Y-69452500D02*
X151653500Y-69452500D01*
X155305500Y-69452500D02*
X154519500Y-69452500D01*
X152439500Y-69412500D02*
X151615500Y-69412500D01*
X155343500Y-69412500D02*
X154519500Y-69412500D01*
X152439500Y-69372500D02*
X151578500Y-69372500D01*
X155380500Y-69372500D02*
X154519500Y-69372500D01*
X152439500Y-69332500D02*
X151542500Y-69332500D01*
X155416500Y-69332500D02*
X154519500Y-69332500D01*
X152439500Y-69292500D02*
X151508500Y-69292500D01*
X155450500Y-69292500D02*
X154519500Y-69292500D01*
X152439500Y-69252500D02*
X151475500Y-69252500D01*
X155483500Y-69252500D02*
X154519500Y-69252500D01*
X152439500Y-69212500D02*
X151444500Y-69212500D01*
X155514500Y-69212500D02*
X154519500Y-69212500D01*
X152439500Y-69172500D02*
X151414500Y-69172500D01*
X155544500Y-69172500D02*
X154519500Y-69172500D01*
X152439500Y-69132500D02*
X151384500Y-69132500D01*
X155574500Y-69132500D02*
X154519500Y-69132500D01*
X152439500Y-69092500D02*
X151357500Y-69092500D01*
X155601500Y-69092500D02*
X154519500Y-69092500D01*
X152439500Y-69052500D02*
X151330500Y-69052500D01*
X155628500Y-69052500D02*
X154519500Y-69052500D01*
X152439500Y-69012500D02*
X151304500Y-69012500D01*
X155654500Y-69012500D02*
X154519500Y-69012500D01*
X152439500Y-68972500D02*
X151279500Y-68972500D01*
X155679500Y-68972500D02*
X154519500Y-68972500D01*
X152439500Y-68932500D02*
X151255500Y-68932500D01*
X155703500Y-68932500D02*
X154519500Y-68932500D01*
X152439500Y-68892500D02*
X151232500Y-68892500D01*
X155726500Y-68892500D02*
X154519500Y-68892500D01*
X152439500Y-68852500D02*
X151211500Y-68852500D01*
X155747500Y-68852500D02*
X154519500Y-68852500D01*
X152439500Y-68812500D02*
X151189500Y-68812500D01*
X155769500Y-68812500D02*
X154519500Y-68812500D01*
X152439500Y-68772500D02*
X151169500Y-68772500D01*
X155789500Y-68772500D02*
X154519500Y-68772500D01*
X152439500Y-68732500D02*
X151150500Y-68732500D01*
X155808500Y-68732500D02*
X154519500Y-68732500D01*
X152439500Y-68692500D02*
X151131500Y-68692500D01*
X155827500Y-68692500D02*
X154519500Y-68692500D01*
X152439500Y-68652500D02*
X151114500Y-68652500D01*
X155844500Y-68652500D02*
X154519500Y-68652500D01*
X152439500Y-68612500D02*
X151097500Y-68612500D01*
X155861500Y-68612500D02*
X154519500Y-68612500D01*
X152439500Y-68572500D02*
X151081500Y-68572500D01*
X155877500Y-68572500D02*
X154519500Y-68572500D01*
X152439500Y-68532500D02*
X151065500Y-68532500D01*
X155893500Y-68532500D02*
X154519500Y-68532500D01*
X152439500Y-68492500D02*
X151051500Y-68492500D01*
X155907500Y-68492500D02*
X154519500Y-68492500D01*
X152439500Y-68452500D02*
X151037500Y-68452500D01*
X155921500Y-68452500D02*
X154519500Y-68452500D01*
X152439500Y-68412500D02*
X151024500Y-68412500D01*
X155934500Y-68412500D02*
X154519500Y-68412500D01*
X152439500Y-68372500D02*
X151011500Y-68372500D01*
X155947500Y-68372500D02*
X154519500Y-68372500D01*
X152439500Y-68332500D02*
X150999500Y-68332500D01*
X155959500Y-68332500D02*
X154519500Y-68332500D01*
X152439500Y-68291500D02*
X150988500Y-68291500D01*
X155970500Y-68291500D02*
X154519500Y-68291500D01*
X152439500Y-68251500D02*
X150978500Y-68251500D01*
X155980500Y-68251500D02*
X154519500Y-68251500D01*
X152439500Y-68211500D02*
X150968500Y-68211500D01*
X155990500Y-68211500D02*
X154519500Y-68211500D01*
X152439500Y-68171500D02*
X150959500Y-68171500D01*
X155999500Y-68171500D02*
X154519500Y-68171500D01*
X152439500Y-68131500D02*
X150951500Y-68131500D01*
X156007500Y-68131500D02*
X154519500Y-68131500D01*
X152439500Y-68091500D02*
X150943500Y-68091500D01*
X156015500Y-68091500D02*
X154519500Y-68091500D01*
X152439500Y-68051500D02*
X150936500Y-68051500D01*
X156022500Y-68051500D02*
X154519500Y-68051500D01*
X152439500Y-68011500D02*
X150929500Y-68011500D01*
X156029500Y-68011500D02*
X154519500Y-68011500D01*
X152439500Y-67971500D02*
X150923500Y-67971500D01*
X156035500Y-67971500D02*
X154519500Y-67971500D01*
X152439500Y-67931500D02*
X150918500Y-67931500D01*
X156040500Y-67931500D02*
X154519500Y-67931500D01*
X152439500Y-67891500D02*
X150914500Y-67891500D01*
X156044500Y-67891500D02*
X154519500Y-67891500D01*
X152439500Y-67851500D02*
X150910500Y-67851500D01*
X156048500Y-67851500D02*
X154519500Y-67851500D01*
X152439500Y-67811500D02*
X150906500Y-67811500D01*
X156052500Y-67811500D02*
X154519500Y-67811500D01*
X152439500Y-67771500D02*
X150903500Y-67771500D01*
X156055500Y-67771500D02*
X154519500Y-67771500D01*
X152439500Y-67731500D02*
X150901500Y-67731500D01*
X156057500Y-67731500D02*
X154519500Y-67731500D01*
X152439500Y-67691500D02*
X150900500Y-67691500D01*
X156058500Y-67691500D02*
X154519500Y-67691500D01*
X156059500Y-67651500D02*
X154519500Y-67651500D01*
X152439500Y-67651500D02*
X150899500Y-67651500D01*
X156059500Y-67611500D02*
X154519500Y-67611500D01*
X152439500Y-67611500D02*
X150899500Y-67611500D01*
X156099500Y-67611500D02*
G75*
G03*
X156099500Y-67611500I-2620000J0D01*
G01*
%TO.C,C2*%
X156099500Y-61261500D02*
G75*
G03*
X156099500Y-61261500I-2620000J0D01*
G01*
X152439500Y-61261500D02*
X150899500Y-61261500D01*
X156059500Y-61261500D02*
X154519500Y-61261500D01*
X152439500Y-61301500D02*
X150899500Y-61301500D01*
X156059500Y-61301500D02*
X154519500Y-61301500D01*
X156058500Y-61341500D02*
X154519500Y-61341500D01*
X152439500Y-61341500D02*
X150900500Y-61341500D01*
X156057500Y-61381500D02*
X154519500Y-61381500D01*
X152439500Y-61381500D02*
X150901500Y-61381500D01*
X156055500Y-61421500D02*
X154519500Y-61421500D01*
X152439500Y-61421500D02*
X150903500Y-61421500D01*
X156052500Y-61461500D02*
X154519500Y-61461500D01*
X152439500Y-61461500D02*
X150906500Y-61461500D01*
X156048500Y-61501500D02*
X154519500Y-61501500D01*
X152439500Y-61501500D02*
X150910500Y-61501500D01*
X156044500Y-61541500D02*
X154519500Y-61541500D01*
X152439500Y-61541500D02*
X150914500Y-61541500D01*
X156040500Y-61581500D02*
X154519500Y-61581500D01*
X152439500Y-61581500D02*
X150918500Y-61581500D01*
X156035500Y-61621500D02*
X154519500Y-61621500D01*
X152439500Y-61621500D02*
X150923500Y-61621500D01*
X156029500Y-61661500D02*
X154519500Y-61661500D01*
X152439500Y-61661500D02*
X150929500Y-61661500D01*
X156022500Y-61701500D02*
X154519500Y-61701500D01*
X152439500Y-61701500D02*
X150936500Y-61701500D01*
X156015500Y-61741500D02*
X154519500Y-61741500D01*
X152439500Y-61741500D02*
X150943500Y-61741500D01*
X156007500Y-61781500D02*
X154519500Y-61781500D01*
X152439500Y-61781500D02*
X150951500Y-61781500D01*
X155999500Y-61821500D02*
X154519500Y-61821500D01*
X152439500Y-61821500D02*
X150959500Y-61821500D01*
X155990500Y-61861500D02*
X154519500Y-61861500D01*
X152439500Y-61861500D02*
X150968500Y-61861500D01*
X155980500Y-61901500D02*
X154519500Y-61901500D01*
X152439500Y-61901500D02*
X150978500Y-61901500D01*
X155970500Y-61941500D02*
X154519500Y-61941500D01*
X152439500Y-61941500D02*
X150988500Y-61941500D01*
X155959500Y-61982500D02*
X154519500Y-61982500D01*
X152439500Y-61982500D02*
X150999500Y-61982500D01*
X155947500Y-62022500D02*
X154519500Y-62022500D01*
X152439500Y-62022500D02*
X151011500Y-62022500D01*
X155934500Y-62062500D02*
X154519500Y-62062500D01*
X152439500Y-62062500D02*
X151024500Y-62062500D01*
X155921500Y-62102500D02*
X154519500Y-62102500D01*
X152439500Y-62102500D02*
X151037500Y-62102500D01*
X155907500Y-62142500D02*
X154519500Y-62142500D01*
X152439500Y-62142500D02*
X151051500Y-62142500D01*
X155893500Y-62182500D02*
X154519500Y-62182500D01*
X152439500Y-62182500D02*
X151065500Y-62182500D01*
X155877500Y-62222500D02*
X154519500Y-62222500D01*
X152439500Y-62222500D02*
X151081500Y-62222500D01*
X155861500Y-62262500D02*
X154519500Y-62262500D01*
X152439500Y-62262500D02*
X151097500Y-62262500D01*
X155844500Y-62302500D02*
X154519500Y-62302500D01*
X152439500Y-62302500D02*
X151114500Y-62302500D01*
X155827500Y-62342500D02*
X154519500Y-62342500D01*
X152439500Y-62342500D02*
X151131500Y-62342500D01*
X155808500Y-62382500D02*
X154519500Y-62382500D01*
X152439500Y-62382500D02*
X151150500Y-62382500D01*
X155789500Y-62422500D02*
X154519500Y-62422500D01*
X152439500Y-62422500D02*
X151169500Y-62422500D01*
X155769500Y-62462500D02*
X154519500Y-62462500D01*
X152439500Y-62462500D02*
X151189500Y-62462500D01*
X155747500Y-62502500D02*
X154519500Y-62502500D01*
X152439500Y-62502500D02*
X151211500Y-62502500D01*
X155726500Y-62542500D02*
X154519500Y-62542500D01*
X152439500Y-62542500D02*
X151232500Y-62542500D01*
X155703500Y-62582500D02*
X154519500Y-62582500D01*
X152439500Y-62582500D02*
X151255500Y-62582500D01*
X155679500Y-62622500D02*
X154519500Y-62622500D01*
X152439500Y-62622500D02*
X151279500Y-62622500D01*
X155654500Y-62662500D02*
X154519500Y-62662500D01*
X152439500Y-62662500D02*
X151304500Y-62662500D01*
X155628500Y-62702500D02*
X154519500Y-62702500D01*
X152439500Y-62702500D02*
X151330500Y-62702500D01*
X155601500Y-62742500D02*
X154519500Y-62742500D01*
X152439500Y-62742500D02*
X151357500Y-62742500D01*
X155574500Y-62782500D02*
X154519500Y-62782500D01*
X152439500Y-62782500D02*
X151384500Y-62782500D01*
X155544500Y-62822500D02*
X154519500Y-62822500D01*
X152439500Y-62822500D02*
X151414500Y-62822500D01*
X155514500Y-62862500D02*
X154519500Y-62862500D01*
X152439500Y-62862500D02*
X151444500Y-62862500D01*
X155483500Y-62902500D02*
X154519500Y-62902500D01*
X152439500Y-62902500D02*
X151475500Y-62902500D01*
X155450500Y-62942500D02*
X154519500Y-62942500D01*
X152439500Y-62942500D02*
X151508500Y-62942500D01*
X155416500Y-62982500D02*
X154519500Y-62982500D01*
X152439500Y-62982500D02*
X151542500Y-62982500D01*
X155380500Y-63022500D02*
X154519500Y-63022500D01*
X152439500Y-63022500D02*
X151578500Y-63022500D01*
X155343500Y-63062500D02*
X154519500Y-63062500D01*
X152439500Y-63062500D02*
X151615500Y-63062500D01*
X155305500Y-63102500D02*
X154519500Y-63102500D01*
X152439500Y-63102500D02*
X151653500Y-63102500D01*
X155264500Y-63142500D02*
X154519500Y-63142500D01*
X152439500Y-63142500D02*
X151694500Y-63142500D01*
X155222500Y-63182500D02*
X154519500Y-63182500D01*
X152439500Y-63182500D02*
X151736500Y-63182500D01*
X155178500Y-63222500D02*
X154519500Y-63222500D01*
X152439500Y-63222500D02*
X151780500Y-63222500D01*
X155132500Y-63262500D02*
X154519500Y-63262500D01*
X152439500Y-63262500D02*
X151826500Y-63262500D01*
X155084500Y-63302500D02*
X151874500Y-63302500D01*
X155033500Y-63342500D02*
X151925500Y-63342500D01*
X154979500Y-63382500D02*
X151979500Y-63382500D01*
X154922500Y-63422500D02*
X152036500Y-63422500D01*
X154862500Y-63462500D02*
X152096500Y-63462500D01*
X154798500Y-63502500D02*
X152160500Y-63502500D01*
X154730500Y-63542500D02*
X152228500Y-63542500D01*
X154657500Y-63582500D02*
X152301500Y-63582500D01*
X154577500Y-63622500D02*
X152381500Y-63622500D01*
X154490500Y-63662500D02*
X152468500Y-63662500D01*
X154394500Y-63702500D02*
X152564500Y-63702500D01*
X154284500Y-63742500D02*
X152674500Y-63742500D01*
X154156500Y-63782500D02*
X152802500Y-63782500D01*
X153997500Y-63822500D02*
X152961500Y-63822500D01*
X153763500Y-63862500D02*
X153195500Y-63862500D01*
X154954500Y-58456725D02*
X154954500Y-58956725D01*
X155204500Y-58706725D02*
X154704500Y-58706725D01*
%TO.C,C5*%
X166210275Y-75194500D02*
X166210275Y-74694500D01*
X166460275Y-74944500D02*
X165960275Y-74944500D01*
X161054500Y-73753500D02*
X161054500Y-73185500D01*
X161094500Y-73987500D02*
X161094500Y-72951500D01*
X161134500Y-74146500D02*
X161134500Y-72792500D01*
X161174500Y-74274500D02*
X161174500Y-72664500D01*
X161214500Y-74384500D02*
X161214500Y-72554500D01*
X161254500Y-74480500D02*
X161254500Y-72458500D01*
X161294500Y-74567500D02*
X161294500Y-72371500D01*
X161334500Y-74647500D02*
X161334500Y-72291500D01*
X161374500Y-74720500D02*
X161374500Y-72218500D01*
X161414500Y-74788500D02*
X161414500Y-72150500D01*
X161454500Y-74852500D02*
X161454500Y-72086500D01*
X161494500Y-74912500D02*
X161494500Y-72026500D01*
X161534500Y-74969500D02*
X161534500Y-71969500D01*
X161574500Y-75023500D02*
X161574500Y-71915500D01*
X161614500Y-75074500D02*
X161614500Y-71864500D01*
X161654500Y-72429500D02*
X161654500Y-71816500D01*
X161654500Y-75122500D02*
X161654500Y-74509500D01*
X161694500Y-72429500D02*
X161694500Y-71770500D01*
X161694500Y-75168500D02*
X161694500Y-74509500D01*
X161734500Y-72429500D02*
X161734500Y-71726500D01*
X161734500Y-75212500D02*
X161734500Y-74509500D01*
X161774500Y-72429500D02*
X161774500Y-71684500D01*
X161774500Y-75254500D02*
X161774500Y-74509500D01*
X161814500Y-72429500D02*
X161814500Y-71643500D01*
X161814500Y-75295500D02*
X161814500Y-74509500D01*
X161854500Y-72429500D02*
X161854500Y-71605500D01*
X161854500Y-75333500D02*
X161854500Y-74509500D01*
X161894500Y-72429500D02*
X161894500Y-71568500D01*
X161894500Y-75370500D02*
X161894500Y-74509500D01*
X161934500Y-72429500D02*
X161934500Y-71532500D01*
X161934500Y-75406500D02*
X161934500Y-74509500D01*
X161974500Y-72429500D02*
X161974500Y-71498500D01*
X161974500Y-75440500D02*
X161974500Y-74509500D01*
X162014500Y-72429500D02*
X162014500Y-71465500D01*
X162014500Y-75473500D02*
X162014500Y-74509500D01*
X162054500Y-72429500D02*
X162054500Y-71434500D01*
X162054500Y-75504500D02*
X162054500Y-74509500D01*
X162094500Y-72429500D02*
X162094500Y-71404500D01*
X162094500Y-75534500D02*
X162094500Y-74509500D01*
X162134500Y-72429500D02*
X162134500Y-71374500D01*
X162134500Y-75564500D02*
X162134500Y-74509500D01*
X162174500Y-72429500D02*
X162174500Y-71347500D01*
X162174500Y-75591500D02*
X162174500Y-74509500D01*
X162214500Y-72429500D02*
X162214500Y-71320500D01*
X162214500Y-75618500D02*
X162214500Y-74509500D01*
X162254500Y-72429500D02*
X162254500Y-71294500D01*
X162254500Y-75644500D02*
X162254500Y-74509500D01*
X162294500Y-72429500D02*
X162294500Y-71269500D01*
X162294500Y-75669500D02*
X162294500Y-74509500D01*
X162334500Y-72429500D02*
X162334500Y-71245500D01*
X162334500Y-75693500D02*
X162334500Y-74509500D01*
X162374500Y-72429500D02*
X162374500Y-71222500D01*
X162374500Y-75716500D02*
X162374500Y-74509500D01*
X162414500Y-72429500D02*
X162414500Y-71201500D01*
X162414500Y-75737500D02*
X162414500Y-74509500D01*
X162454500Y-72429500D02*
X162454500Y-71179500D01*
X162454500Y-75759500D02*
X162454500Y-74509500D01*
X162494500Y-72429500D02*
X162494500Y-71159500D01*
X162494500Y-75779500D02*
X162494500Y-74509500D01*
X162534500Y-72429500D02*
X162534500Y-71140500D01*
X162534500Y-75798500D02*
X162534500Y-74509500D01*
X162574500Y-72429500D02*
X162574500Y-71121500D01*
X162574500Y-75817500D02*
X162574500Y-74509500D01*
X162614500Y-72429500D02*
X162614500Y-71104500D01*
X162614500Y-75834500D02*
X162614500Y-74509500D01*
X162654500Y-72429500D02*
X162654500Y-71087500D01*
X162654500Y-75851500D02*
X162654500Y-74509500D01*
X162694500Y-72429500D02*
X162694500Y-71071500D01*
X162694500Y-75867500D02*
X162694500Y-74509500D01*
X162734500Y-72429500D02*
X162734500Y-71055500D01*
X162734500Y-75883500D02*
X162734500Y-74509500D01*
X162774500Y-72429500D02*
X162774500Y-71041500D01*
X162774500Y-75897500D02*
X162774500Y-74509500D01*
X162814500Y-72429500D02*
X162814500Y-71027500D01*
X162814500Y-75911500D02*
X162814500Y-74509500D01*
X162854500Y-72429500D02*
X162854500Y-71014500D01*
X162854500Y-75924500D02*
X162854500Y-74509500D01*
X162894500Y-72429500D02*
X162894500Y-71001500D01*
X162894500Y-75937500D02*
X162894500Y-74509500D01*
X162934500Y-72429500D02*
X162934500Y-70989500D01*
X162934500Y-75949500D02*
X162934500Y-74509500D01*
X162975500Y-72429500D02*
X162975500Y-70978500D01*
X162975500Y-75960500D02*
X162975500Y-74509500D01*
X163015500Y-72429500D02*
X163015500Y-70968500D01*
X163015500Y-75970500D02*
X163015500Y-74509500D01*
X163055500Y-72429500D02*
X163055500Y-70958500D01*
X163055500Y-75980500D02*
X163055500Y-74509500D01*
X163095500Y-72429500D02*
X163095500Y-70949500D01*
X163095500Y-75989500D02*
X163095500Y-74509500D01*
X163135500Y-72429500D02*
X163135500Y-70941500D01*
X163135500Y-75997500D02*
X163135500Y-74509500D01*
X163175500Y-72429500D02*
X163175500Y-70933500D01*
X163175500Y-76005500D02*
X163175500Y-74509500D01*
X163215500Y-72429500D02*
X163215500Y-70926500D01*
X163215500Y-76012500D02*
X163215500Y-74509500D01*
X163255500Y-72429500D02*
X163255500Y-70919500D01*
X163255500Y-76019500D02*
X163255500Y-74509500D01*
X163295500Y-72429500D02*
X163295500Y-70913500D01*
X163295500Y-76025500D02*
X163295500Y-74509500D01*
X163335500Y-72429500D02*
X163335500Y-70908500D01*
X163335500Y-76030500D02*
X163335500Y-74509500D01*
X163375500Y-72429500D02*
X163375500Y-70904500D01*
X163375500Y-76034500D02*
X163375500Y-74509500D01*
X163415500Y-72429500D02*
X163415500Y-70900500D01*
X163415500Y-76038500D02*
X163415500Y-74509500D01*
X163455500Y-72429500D02*
X163455500Y-70896500D01*
X163455500Y-76042500D02*
X163455500Y-74509500D01*
X163495500Y-72429500D02*
X163495500Y-70893500D01*
X163495500Y-76045500D02*
X163495500Y-74509500D01*
X163535500Y-72429500D02*
X163535500Y-70891500D01*
X163535500Y-76047500D02*
X163535500Y-74509500D01*
X163575500Y-72429500D02*
X163575500Y-70890500D01*
X163575500Y-76048500D02*
X163575500Y-74509500D01*
X163615500Y-76049500D02*
X163615500Y-74509500D01*
X163615500Y-72429500D02*
X163615500Y-70889500D01*
X163655500Y-76049500D02*
X163655500Y-74509500D01*
X163655500Y-72429500D02*
X163655500Y-70889500D01*
X166275500Y-73469500D02*
G75*
G03*
X166275500Y-73469500I-2620000J0D01*
G01*
%TO.C,R16*%
X127568936Y-123042000D02*
X129023064Y-123042000D01*
X127568936Y-124862000D02*
X129023064Y-124862000D01*
%TO.C,U9*%
X119320000Y-130084000D02*
X119320000Y-131334000D01*
X129600000Y-130084000D02*
X119320000Y-130084000D01*
X129600000Y-134584000D02*
X129600000Y-130084000D01*
X119320000Y-134584000D02*
X129600000Y-134584000D01*
X119320000Y-133334000D02*
X119320000Y-134584000D01*
X119320000Y-131334000D02*
G75*
G02*
X119320000Y-133334000I0J-1000000D01*
G01*
%TO.C,RV1*%
X131186500Y-141742000D02*
X131186500Y-146812000D01*
X121416500Y-141742000D02*
X121416500Y-146812000D01*
X121416500Y-146812000D02*
X131186500Y-146812000D01*
X121416500Y-141742000D02*
X131186500Y-141742000D01*
%TO.C,U6*%
X158519500Y-63341500D02*
X168759500Y-63341500D01*
X158519500Y-67982500D02*
X168759500Y-67982500D01*
X158519500Y-63341500D02*
X158519500Y-67982500D01*
X168759500Y-63341500D02*
X168759500Y-67982500D01*
X158519500Y-64851500D02*
X168759500Y-64851500D01*
X161789500Y-63341500D02*
X161789500Y-64851500D01*
X165490500Y-63341500D02*
X165490500Y-64851500D01*
%TO.C,R17*%
X127931500Y-150174936D02*
X127931500Y-151629064D01*
X129751500Y-150174936D02*
X129751500Y-151629064D01*
%TO.C,R19*%
X122851500Y-151629064D02*
X122851500Y-150174936D01*
X124671500Y-151629064D02*
X124671500Y-150174936D01*
%TO.C,J2*%
X140656000Y-128718000D02*
X141986000Y-128718000D01*
X140656000Y-130048000D02*
X140656000Y-128718000D01*
X140656000Y-131318000D02*
X143316000Y-131318000D01*
X143316000Y-131318000D02*
X143316000Y-131378000D01*
X140656000Y-131318000D02*
X140656000Y-131378000D01*
X140656000Y-131378000D02*
X143316000Y-131378000D01*
%TO.C,J3*%
X151602000Y-155490000D02*
X151602000Y-148020000D01*
X151602000Y-148020000D02*
X139482000Y-148020000D01*
X139482000Y-148020000D02*
X139482000Y-155490000D01*
X139482000Y-155490000D02*
X151602000Y-155490000D01*
X149792000Y-148880000D02*
X150542000Y-148880000D01*
X150542000Y-148880000D02*
X150542000Y-153180000D01*
X150542000Y-153180000D02*
X149792000Y-153180000D01*
X149792000Y-153180000D02*
X149792000Y-153530000D01*
X149792000Y-153530000D02*
X150292000Y-153530000D01*
X150292000Y-153530000D02*
X150542000Y-154530000D01*
X150542000Y-154530000D02*
X147542000Y-154530000D01*
X147542000Y-154530000D02*
X147792000Y-153530000D01*
X147792000Y-153530000D02*
X148292000Y-153530000D01*
X148292000Y-153530000D02*
X148292000Y-153180000D01*
X148292000Y-153180000D02*
X147542000Y-153180000D01*
X147542000Y-153180000D02*
X147542000Y-148880000D01*
X147542000Y-148880000D02*
X148292000Y-148880000D01*
X146292000Y-148880000D02*
X147042000Y-148880000D01*
X147042000Y-148880000D02*
X147042000Y-153180000D01*
X147042000Y-153180000D02*
X146292000Y-153180000D01*
X146292000Y-153180000D02*
X146292000Y-153530000D01*
X146292000Y-153530000D02*
X146792000Y-153530000D01*
X146792000Y-153530000D02*
X147042000Y-154530000D01*
X147042000Y-154530000D02*
X144042000Y-154530000D01*
X144042000Y-154530000D02*
X144292000Y-153530000D01*
X144292000Y-153530000D02*
X144792000Y-153530000D01*
X144792000Y-153530000D02*
X144792000Y-153180000D01*
X144792000Y-153180000D02*
X144042000Y-153180000D01*
X144042000Y-153180000D02*
X144042000Y-148880000D01*
X144042000Y-148880000D02*
X144792000Y-148880000D01*
X142792000Y-148880000D02*
X143542000Y-148880000D01*
X143542000Y-148880000D02*
X143542000Y-153180000D01*
X143542000Y-153180000D02*
X142792000Y-153180000D01*
X142792000Y-153180000D02*
X142792000Y-153530000D01*
X142792000Y-153530000D02*
X143292000Y-153530000D01*
X143292000Y-153530000D02*
X143542000Y-154530000D01*
X143542000Y-154530000D02*
X140542000Y-154530000D01*
X140542000Y-154530000D02*
X140792000Y-153530000D01*
X140792000Y-153530000D02*
X141292000Y-153530000D01*
X141292000Y-153530000D02*
X141292000Y-153180000D01*
X141292000Y-153180000D02*
X140542000Y-153180000D01*
X140542000Y-153180000D02*
X140542000Y-148880000D01*
X140542000Y-148880000D02*
X141292000Y-148880000D01*
X151992000Y-154630000D02*
X151992000Y-155880000D01*
X151992000Y-155880000D02*
X149992000Y-155880000D01*
X148292353Y-148880155D02*
G75*
G03*
X149792000Y-148880000I749647J1700155D01*
G01*
X144792353Y-148880155D02*
G75*
G03*
X146292000Y-148880000I749647J1700155D01*
G01*
X141292353Y-148880155D02*
G75*
G03*
X142792000Y-148880000I749647J1700155D01*
G01*
%TO.C,JP1*%
X168913500Y-76831500D02*
X171573500Y-76831500D01*
X168913500Y-74231500D02*
X168913500Y-76831500D01*
X171573500Y-74231500D02*
X171573500Y-76831500D01*
X168913500Y-74231500D02*
X171573500Y-74231500D01*
X168913500Y-72961500D02*
X168913500Y-71631500D01*
X168913500Y-71631500D02*
X170243500Y-71631500D01*
%TO.C,R1*%
X170455000Y-135702064D02*
X170455000Y-134247936D01*
X168635000Y-135702064D02*
X168635000Y-134247936D01*
%TO.C,R2*%
X149775500Y-135690564D02*
X149775500Y-134236436D01*
X151595500Y-135690564D02*
X151595500Y-134236436D01*
%TO.C,R3*%
X155659500Y-135690564D02*
X155659500Y-134236436D01*
X153839500Y-135690564D02*
X153839500Y-134236436D01*
%TO.C,R4*%
X165460000Y-147132064D02*
X165460000Y-145677936D01*
X167280000Y-147132064D02*
X167280000Y-145677936D01*
%TO.C,R5*%
X160282936Y-141880000D02*
X161737064Y-141880000D01*
X160282936Y-140060000D02*
X161737064Y-140060000D01*
%TO.C,R6*%
X140610000Y-135627064D02*
X140610000Y-134172936D01*
X138790000Y-135627064D02*
X138790000Y-134172936D01*
%TO.C,R7*%
X135234000Y-135601064D02*
X135234000Y-134146936D01*
X137054000Y-135601064D02*
X137054000Y-134146936D01*
%TO.C,R8*%
X163237500Y-113249064D02*
X163237500Y-111794936D01*
X165057500Y-113249064D02*
X165057500Y-111794936D01*
%TO.C,R9*%
X154284000Y-92141064D02*
X154284000Y-90686936D01*
X156104000Y-92141064D02*
X156104000Y-90686936D01*
%TO.C,R10*%
X154199000Y-113275064D02*
X154199000Y-111820936D01*
X152379000Y-113275064D02*
X152379000Y-111820936D01*
%TO.C,R11*%
X164105000Y-135702064D02*
X164105000Y-134247936D01*
X162285000Y-135702064D02*
X162285000Y-134247936D01*
%TO.C,R12*%
X158475000Y-135702064D02*
X158475000Y-134247936D01*
X160295000Y-135702064D02*
X160295000Y-134247936D01*
%TO.C,R13*%
X147468000Y-135627064D02*
X147468000Y-134172936D01*
X145648000Y-135627064D02*
X145648000Y-134172936D01*
%TO.C,R14*%
X167111000Y-111820936D02*
X167111000Y-113275064D01*
X168931000Y-111820936D02*
X168931000Y-113275064D01*
%TO.C,R15*%
X165460000Y-135702064D02*
X165460000Y-134247936D01*
X167280000Y-135702064D02*
X167280000Y-134247936D01*
%TO.C,R18*%
X159223064Y-113940000D02*
X157768936Y-113940000D01*
X159223064Y-112120000D02*
X157768936Y-112120000D01*
%TO.C,R21*%
X144378000Y-111794936D02*
X144378000Y-113249064D01*
X146198000Y-111794936D02*
X146198000Y-113249064D01*
%TO.C,U1*%
X171176000Y-111760000D02*
X171176000Y-113710000D01*
X171176000Y-111760000D02*
X171176000Y-109810000D01*
X176296000Y-111760000D02*
X176296000Y-113710000D01*
X176296000Y-111760000D02*
X176296000Y-108310000D01*
%TO.C,U2*%
X136592000Y-123682000D02*
X136592000Y-124932000D01*
X136592000Y-124932000D02*
X146872000Y-124932000D01*
X146872000Y-124932000D02*
X146872000Y-120432000D01*
X146872000Y-120432000D02*
X136592000Y-120432000D01*
X136592000Y-120432000D02*
X136592000Y-121682000D01*
X136592000Y-121682000D02*
G75*
G02*
X136592000Y-123682000I0J-1000000D01*
G01*
%TO.C,U3*%
X145244500Y-143874000D02*
X145244500Y-140424000D01*
X145244500Y-143874000D02*
X145244500Y-145824000D01*
X140124500Y-143874000D02*
X140124500Y-141924000D01*
X140124500Y-143874000D02*
X140124500Y-145824000D01*
%TO.C,U4*%
X158640000Y-149880000D02*
X160590000Y-149880000D01*
X158640000Y-149880000D02*
X156690000Y-149880000D01*
X158640000Y-144760000D02*
X160590000Y-144760000D01*
X158640000Y-144760000D02*
X155190000Y-144760000D01*
%TO.C,U7*%
X136338000Y-103108000D02*
X136338000Y-104358000D01*
X136338000Y-104358000D02*
X154238000Y-104358000D01*
X154238000Y-104358000D02*
X154238000Y-99858000D01*
X154238000Y-99858000D02*
X136338000Y-99858000D01*
X136338000Y-99858000D02*
X136338000Y-101108000D01*
X136278000Y-107358000D02*
X154298000Y-107358000D01*
X154298000Y-107358000D02*
X154298000Y-96858000D01*
X154298000Y-96858000D02*
X136278000Y-96858000D01*
X136278000Y-96858000D02*
X136278000Y-107358000D01*
X136338000Y-101108000D02*
G75*
G02*
X136338000Y-103108000I0J-1000000D01*
G01*
D11*
%TO.C,LPC1*%
X187960000Y-85725000D02*
X187325000Y-86360000D01*
X187325000Y-87630000D02*
X187960000Y-88265000D01*
X187960000Y-88265000D02*
X187325000Y-88900000D01*
X187325000Y-90170000D02*
X187960000Y-90805000D01*
X187960000Y-90805000D02*
X187325000Y-91440000D01*
X187325000Y-92710000D02*
X187960000Y-93345000D01*
X187960000Y-93345000D02*
X187325000Y-93980000D01*
X187325000Y-95250000D02*
X187960000Y-95885000D01*
X187960000Y-95885000D02*
X187325000Y-96520000D01*
X187325000Y-97790000D02*
X187960000Y-98425000D01*
X187960000Y-98425000D02*
X187325000Y-99060000D01*
X187325000Y-100330000D02*
X187960000Y-100965000D01*
X187960000Y-85725000D02*
X189230000Y-85725000D01*
X189230000Y-85725000D02*
X189865000Y-86360000D01*
X189865000Y-86360000D02*
X189865000Y-87630000D01*
X189865000Y-87630000D02*
X189230000Y-88265000D01*
X189230000Y-88265000D02*
X189865000Y-88900000D01*
X189865000Y-88900000D02*
X189865000Y-90170000D01*
X189865000Y-90170000D02*
X189230000Y-90805000D01*
X189230000Y-90805000D02*
X189865000Y-91440000D01*
X189865000Y-91440000D02*
X189865000Y-92710000D01*
X189865000Y-92710000D02*
X189230000Y-93345000D01*
X189230000Y-93345000D02*
X189865000Y-93980000D01*
X189865000Y-93980000D02*
X189865000Y-95250000D01*
X189865000Y-95250000D02*
X189230000Y-95885000D01*
X189230000Y-95885000D02*
X189865000Y-96520000D01*
X189865000Y-96520000D02*
X189865000Y-97790000D01*
X189865000Y-97790000D02*
X189230000Y-98425000D01*
X189230000Y-98425000D02*
X189865000Y-99060000D01*
X189865000Y-99060000D02*
X189865000Y-100330000D01*
X189865000Y-100330000D02*
X189230000Y-100965000D01*
X189230000Y-100965000D02*
X189865000Y-101600000D01*
X189865000Y-101600000D02*
X189865000Y-102870000D01*
X189865000Y-102870000D02*
X189230000Y-103505000D01*
X189230000Y-103505000D02*
X189865000Y-104140000D01*
X189865000Y-104140000D02*
X189865000Y-105410000D01*
X189865000Y-105410000D02*
X189230000Y-106045000D01*
X189230000Y-106045000D02*
X189865000Y-106680000D01*
X189865000Y-106680000D02*
X189865000Y-107950000D01*
X189865000Y-107950000D02*
X189230000Y-108585000D01*
X187960000Y-108585000D02*
X187325000Y-107950000D01*
X187960000Y-106045000D02*
X187325000Y-106680000D01*
X187960000Y-106045000D02*
X187325000Y-105410000D01*
X187960000Y-103505000D02*
X187325000Y-104140000D01*
X187960000Y-103505000D02*
X187325000Y-102870000D01*
X187960000Y-100965000D02*
X187325000Y-101600000D01*
X189230000Y-88265000D02*
X187960000Y-88265000D01*
X189230000Y-90805000D02*
X187960000Y-90805000D01*
X189230000Y-93345000D02*
X187960000Y-93345000D01*
X189230000Y-95885000D02*
X187960000Y-95885000D01*
X189230000Y-98425000D02*
X187960000Y-98425000D01*
X189230000Y-100965000D02*
X187960000Y-100965000D01*
X189230000Y-103505000D02*
X187960000Y-103505000D01*
X189230000Y-106045000D02*
X187960000Y-106045000D01*
X189230000Y-108585000D02*
X187960000Y-108585000D01*
X187325000Y-106680000D02*
X187325000Y-107950000D01*
X187325000Y-104140000D02*
X187325000Y-105410000D01*
X187325000Y-101600000D02*
X187325000Y-102870000D01*
X187325000Y-99060000D02*
X187325000Y-100330000D01*
X187325000Y-96520000D02*
X187325000Y-97790000D01*
X187325000Y-93980000D02*
X187325000Y-95250000D01*
X187325000Y-91440000D02*
X187325000Y-92710000D01*
X187325000Y-88900000D02*
X187325000Y-90170000D01*
X187325000Y-86360000D02*
X187325000Y-87630000D01*
X189230000Y-108585000D02*
X189865000Y-109220000D01*
X189865000Y-109220000D02*
X189865000Y-110490000D01*
X189865000Y-110490000D02*
X189230000Y-111125000D01*
X187960000Y-111125000D02*
X187325000Y-110490000D01*
X187960000Y-108585000D02*
X187325000Y-109220000D01*
X189230000Y-111125000D02*
X187960000Y-111125000D01*
X187325000Y-109220000D02*
X187325000Y-110490000D01*
X187960000Y-111125000D02*
X187325000Y-111760000D01*
X187325000Y-113030000D02*
X187960000Y-113665000D01*
X187960000Y-113665000D02*
X187325000Y-114300000D01*
X187325000Y-115570000D02*
X187960000Y-116205000D01*
X187960000Y-116205000D02*
X187325000Y-116840000D01*
X187325000Y-118110000D02*
X187960000Y-118745000D01*
X187960000Y-118745000D02*
X187325000Y-119380000D01*
X187325000Y-120650000D02*
X187960000Y-121285000D01*
X187960000Y-121285000D02*
X187325000Y-121920000D01*
X187325000Y-123190000D02*
X187960000Y-123825000D01*
X187960000Y-123825000D02*
X187325000Y-124460000D01*
X187325000Y-125730000D02*
X187960000Y-126365000D01*
X189230000Y-111125000D02*
X189865000Y-111760000D01*
X189865000Y-111760000D02*
X189865000Y-113030000D01*
X189865000Y-113030000D02*
X189230000Y-113665000D01*
X189230000Y-113665000D02*
X189865000Y-114300000D01*
X189865000Y-114300000D02*
X189865000Y-115570000D01*
X189865000Y-115570000D02*
X189230000Y-116205000D01*
X189230000Y-116205000D02*
X189865000Y-116840000D01*
X189865000Y-116840000D02*
X189865000Y-118110000D01*
X189865000Y-118110000D02*
X189230000Y-118745000D01*
X189230000Y-118745000D02*
X189865000Y-119380000D01*
X189865000Y-119380000D02*
X189865000Y-120650000D01*
X189865000Y-120650000D02*
X189230000Y-121285000D01*
X189230000Y-121285000D02*
X189865000Y-121920000D01*
X189865000Y-121920000D02*
X189865000Y-123190000D01*
X189865000Y-123190000D02*
X189230000Y-123825000D01*
X189230000Y-123825000D02*
X189865000Y-124460000D01*
X189865000Y-124460000D02*
X189865000Y-125730000D01*
X189865000Y-125730000D02*
X189230000Y-126365000D01*
X189230000Y-126365000D02*
X189865000Y-127000000D01*
X189865000Y-127000000D02*
X189865000Y-128270000D01*
X189865000Y-128270000D02*
X189230000Y-128905000D01*
X189230000Y-128905000D02*
X189865000Y-129540000D01*
X189865000Y-129540000D02*
X189865000Y-130810000D01*
X189865000Y-130810000D02*
X189230000Y-131445000D01*
X189230000Y-131445000D02*
X189865000Y-132080000D01*
X189865000Y-132080000D02*
X189865000Y-133350000D01*
X189865000Y-133350000D02*
X189230000Y-133985000D01*
X187960000Y-133985000D02*
X187325000Y-133350000D01*
X187960000Y-131445000D02*
X187325000Y-132080000D01*
X187960000Y-131445000D02*
X187325000Y-130810000D01*
X187960000Y-128905000D02*
X187325000Y-129540000D01*
X187960000Y-128905000D02*
X187325000Y-128270000D01*
X187960000Y-126365000D02*
X187325000Y-127000000D01*
X189230000Y-113665000D02*
X187960000Y-113665000D01*
X189230000Y-116205000D02*
X187960000Y-116205000D01*
X189230000Y-118745000D02*
X187960000Y-118745000D01*
X189230000Y-121285000D02*
X187960000Y-121285000D01*
X189230000Y-123825000D02*
X187960000Y-123825000D01*
X189230000Y-126365000D02*
X187960000Y-126365000D01*
X189230000Y-128905000D02*
X187960000Y-128905000D01*
X189230000Y-131445000D02*
X187960000Y-131445000D01*
X189230000Y-133985000D02*
X187960000Y-133985000D01*
X187325000Y-132080000D02*
X187325000Y-133350000D01*
X187325000Y-129540000D02*
X187325000Y-130810000D01*
X187325000Y-127000000D02*
X187325000Y-128270000D01*
X187325000Y-124460000D02*
X187325000Y-125730000D01*
X187325000Y-121920000D02*
X187325000Y-123190000D01*
X187325000Y-119380000D02*
X187325000Y-120650000D01*
X187325000Y-116840000D02*
X187325000Y-118110000D01*
X187325000Y-114300000D02*
X187325000Y-115570000D01*
X187325000Y-111760000D02*
X187325000Y-113030000D01*
X189230000Y-133985000D02*
X189865000Y-134620000D01*
X189865000Y-134620000D02*
X189865000Y-135890000D01*
X189865000Y-135890000D02*
X189230000Y-136525000D01*
X187960000Y-136525000D02*
X187325000Y-135890000D01*
X187960000Y-133985000D02*
X187325000Y-134620000D01*
X189230000Y-136525000D02*
X187960000Y-136525000D01*
X187325000Y-134620000D02*
X187325000Y-135890000D01*
X187960000Y-136525000D02*
X187325000Y-137160000D01*
X187325000Y-138430000D02*
X187960000Y-139065000D01*
X187960000Y-139065000D02*
X187325000Y-139700000D01*
X187325000Y-140970000D02*
X187960000Y-141605000D01*
X187960000Y-141605000D02*
X187325000Y-142240000D01*
X187325000Y-143510000D02*
X187960000Y-144145000D01*
X187960000Y-144145000D02*
X187325000Y-144780000D01*
X187325000Y-146050000D02*
X187960000Y-146685000D01*
X187960000Y-146685000D02*
X187325000Y-147320000D01*
X187325000Y-148590000D02*
X187960000Y-149225000D01*
X187960000Y-149225000D02*
X187325000Y-149860000D01*
X187325000Y-151130000D02*
X187960000Y-151765000D01*
X189230000Y-136525000D02*
X189865000Y-137160000D01*
X189865000Y-137160000D02*
X189865000Y-138430000D01*
X189865000Y-138430000D02*
X189230000Y-139065000D01*
X189230000Y-139065000D02*
X189865000Y-139700000D01*
X189865000Y-139700000D02*
X189865000Y-140970000D01*
X189865000Y-140970000D02*
X189230000Y-141605000D01*
X189230000Y-141605000D02*
X189865000Y-142240000D01*
X189865000Y-142240000D02*
X189865000Y-143510000D01*
X189865000Y-143510000D02*
X189230000Y-144145000D01*
X189230000Y-144145000D02*
X189865000Y-144780000D01*
X189865000Y-144780000D02*
X189865000Y-146050000D01*
X189865000Y-146050000D02*
X189230000Y-146685000D01*
X189230000Y-146685000D02*
X189865000Y-147320000D01*
X189865000Y-147320000D02*
X189865000Y-148590000D01*
X189865000Y-148590000D02*
X189230000Y-149225000D01*
X189230000Y-149225000D02*
X189865000Y-149860000D01*
X189865000Y-149860000D02*
X189865000Y-151130000D01*
X189865000Y-151130000D02*
X189230000Y-151765000D01*
X189230000Y-151765000D02*
X189865000Y-152400000D01*
X189865000Y-152400000D02*
X189865000Y-153670000D01*
X189865000Y-153670000D02*
X189230000Y-154305000D01*
X187960000Y-154305000D02*
X187325000Y-153670000D01*
X187960000Y-151765000D02*
X187325000Y-152400000D01*
X189230000Y-139065000D02*
X187960000Y-139065000D01*
X189230000Y-141605000D02*
X187960000Y-141605000D01*
X189230000Y-144145000D02*
X187960000Y-144145000D01*
X189230000Y-146685000D02*
X187960000Y-146685000D01*
X189230000Y-149225000D02*
X187960000Y-149225000D01*
X189230000Y-151765000D02*
X187960000Y-151765000D01*
X189230000Y-154305000D02*
X187960000Y-154305000D01*
X187325000Y-152400000D02*
X187325000Y-153670000D01*
X187325000Y-149860000D02*
X187325000Y-151130000D01*
X187325000Y-147320000D02*
X187325000Y-148590000D01*
X187325000Y-144780000D02*
X187325000Y-146050000D01*
X187325000Y-142240000D02*
X187325000Y-143510000D01*
X187325000Y-139700000D02*
X187325000Y-140970000D01*
X187325000Y-137160000D02*
X187325000Y-138430000D01*
X210820000Y-85725000D02*
X210185000Y-86360000D01*
X210185000Y-87630000D02*
X210820000Y-88265000D01*
X210820000Y-88265000D02*
X210185000Y-88900000D01*
X210185000Y-90170000D02*
X210820000Y-90805000D01*
X210820000Y-90805000D02*
X210185000Y-91440000D01*
X210185000Y-92710000D02*
X210820000Y-93345000D01*
X210820000Y-93345000D02*
X210185000Y-93980000D01*
X210185000Y-95250000D02*
X210820000Y-95885000D01*
X210820000Y-95885000D02*
X210185000Y-96520000D01*
X210185000Y-97790000D02*
X210820000Y-98425000D01*
X210820000Y-98425000D02*
X210185000Y-99060000D01*
X210185000Y-100330000D02*
X210820000Y-100965000D01*
X210820000Y-85725000D02*
X212090000Y-85725000D01*
X212090000Y-85725000D02*
X212725000Y-86360000D01*
X212725000Y-86360000D02*
X212725000Y-87630000D01*
X212725000Y-87630000D02*
X212090000Y-88265000D01*
X212090000Y-88265000D02*
X212725000Y-88900000D01*
X212725000Y-88900000D02*
X212725000Y-90170000D01*
X212725000Y-90170000D02*
X212090000Y-90805000D01*
X212090000Y-90805000D02*
X212725000Y-91440000D01*
X212725000Y-91440000D02*
X212725000Y-92710000D01*
X212725000Y-92710000D02*
X212090000Y-93345000D01*
X212090000Y-93345000D02*
X212725000Y-93980000D01*
X212725000Y-93980000D02*
X212725000Y-95250000D01*
X212725000Y-95250000D02*
X212090000Y-95885000D01*
X212090000Y-95885000D02*
X212725000Y-96520000D01*
X212725000Y-96520000D02*
X212725000Y-97790000D01*
X212725000Y-97790000D02*
X212090000Y-98425000D01*
X212090000Y-98425000D02*
X212725000Y-99060000D01*
X212725000Y-99060000D02*
X212725000Y-100330000D01*
X212725000Y-100330000D02*
X212090000Y-100965000D01*
X212090000Y-100965000D02*
X212725000Y-101600000D01*
X212725000Y-101600000D02*
X212725000Y-102870000D01*
X212725000Y-102870000D02*
X212090000Y-103505000D01*
X212090000Y-103505000D02*
X212725000Y-104140000D01*
X212725000Y-104140000D02*
X212725000Y-105410000D01*
X212725000Y-105410000D02*
X212090000Y-106045000D01*
X212090000Y-106045000D02*
X212725000Y-106680000D01*
X212725000Y-106680000D02*
X212725000Y-107950000D01*
X212725000Y-107950000D02*
X212090000Y-108585000D01*
X210820000Y-108585000D02*
X210185000Y-107950000D01*
X210820000Y-106045000D02*
X210185000Y-106680000D01*
X210820000Y-106045000D02*
X210185000Y-105410000D01*
X210820000Y-103505000D02*
X210185000Y-104140000D01*
X210820000Y-103505000D02*
X210185000Y-102870000D01*
X210820000Y-100965000D02*
X210185000Y-101600000D01*
X212090000Y-88265000D02*
X210820000Y-88265000D01*
X212090000Y-90805000D02*
X210820000Y-90805000D01*
X212090000Y-93345000D02*
X210820000Y-93345000D01*
X212090000Y-95885000D02*
X210820000Y-95885000D01*
X212090000Y-98425000D02*
X210820000Y-98425000D01*
X212090000Y-100965000D02*
X210820000Y-100965000D01*
X212090000Y-103505000D02*
X210820000Y-103505000D01*
X212090000Y-106045000D02*
X210820000Y-106045000D01*
X212090000Y-108585000D02*
X210820000Y-108585000D01*
X210185000Y-106680000D02*
X210185000Y-107950000D01*
X210185000Y-104140000D02*
X210185000Y-105410000D01*
X210185000Y-101600000D02*
X210185000Y-102870000D01*
X210185000Y-99060000D02*
X210185000Y-100330000D01*
X210185000Y-96520000D02*
X210185000Y-97790000D01*
X210185000Y-93980000D02*
X210185000Y-95250000D01*
X210185000Y-91440000D02*
X210185000Y-92710000D01*
X210185000Y-88900000D02*
X210185000Y-90170000D01*
X210185000Y-86360000D02*
X210185000Y-87630000D01*
X212090000Y-108585000D02*
X212725000Y-109220000D01*
X212725000Y-109220000D02*
X212725000Y-110490000D01*
X212725000Y-110490000D02*
X212090000Y-111125000D01*
X210820000Y-111125000D02*
X210185000Y-110490000D01*
X210820000Y-108585000D02*
X210185000Y-109220000D01*
X212090000Y-111125000D02*
X210820000Y-111125000D01*
X210185000Y-109220000D02*
X210185000Y-110490000D01*
X210820000Y-111125000D02*
X210185000Y-111760000D01*
X210185000Y-113030000D02*
X210820000Y-113665000D01*
X210820000Y-113665000D02*
X210185000Y-114300000D01*
X210185000Y-115570000D02*
X210820000Y-116205000D01*
X210820000Y-116205000D02*
X210185000Y-116840000D01*
X210185000Y-118110000D02*
X210820000Y-118745000D01*
X210820000Y-118745000D02*
X210185000Y-119380000D01*
X210185000Y-120650000D02*
X210820000Y-121285000D01*
X210820000Y-121285000D02*
X210185000Y-121920000D01*
X210185000Y-123190000D02*
X210820000Y-123825000D01*
X210820000Y-123825000D02*
X210185000Y-124460000D01*
X210185000Y-125730000D02*
X210820000Y-126365000D01*
X212090000Y-111125000D02*
X212725000Y-111760000D01*
X212725000Y-111760000D02*
X212725000Y-113030000D01*
X212725000Y-113030000D02*
X212090000Y-113665000D01*
X212090000Y-113665000D02*
X212725000Y-114300000D01*
X212725000Y-114300000D02*
X212725000Y-115570000D01*
X212725000Y-115570000D02*
X212090000Y-116205000D01*
X212090000Y-116205000D02*
X212725000Y-116840000D01*
X212725000Y-116840000D02*
X212725000Y-118110000D01*
X212725000Y-118110000D02*
X212090000Y-118745000D01*
X212090000Y-118745000D02*
X212725000Y-119380000D01*
X212725000Y-119380000D02*
X212725000Y-120650000D01*
X212725000Y-120650000D02*
X212090000Y-121285000D01*
X212090000Y-121285000D02*
X212725000Y-121920000D01*
X212725000Y-121920000D02*
X212725000Y-123190000D01*
X212725000Y-123190000D02*
X212090000Y-123825000D01*
X212090000Y-123825000D02*
X212725000Y-124460000D01*
X212725000Y-124460000D02*
X212725000Y-125730000D01*
X212725000Y-125730000D02*
X212090000Y-126365000D01*
X212090000Y-126365000D02*
X212725000Y-127000000D01*
X212725000Y-127000000D02*
X212725000Y-128270000D01*
X212725000Y-128270000D02*
X212090000Y-128905000D01*
X212090000Y-128905000D02*
X212725000Y-129540000D01*
X212725000Y-129540000D02*
X212725000Y-130810000D01*
X212725000Y-130810000D02*
X212090000Y-131445000D01*
X212090000Y-131445000D02*
X212725000Y-132080000D01*
X212725000Y-132080000D02*
X212725000Y-133350000D01*
X212725000Y-133350000D02*
X212090000Y-133985000D01*
X210820000Y-133985000D02*
X210185000Y-133350000D01*
X210820000Y-131445000D02*
X210185000Y-132080000D01*
X210820000Y-131445000D02*
X210185000Y-130810000D01*
X210820000Y-128905000D02*
X210185000Y-129540000D01*
X210820000Y-128905000D02*
X210185000Y-128270000D01*
X210820000Y-126365000D02*
X210185000Y-127000000D01*
X212090000Y-113665000D02*
X210820000Y-113665000D01*
X212090000Y-116205000D02*
X210820000Y-116205000D01*
X212090000Y-118745000D02*
X210820000Y-118745000D01*
X212090000Y-121285000D02*
X210820000Y-121285000D01*
X212090000Y-123825000D02*
X210820000Y-123825000D01*
X212090000Y-126365000D02*
X210820000Y-126365000D01*
X212090000Y-128905000D02*
X210820000Y-128905000D01*
X212090000Y-131445000D02*
X210820000Y-131445000D01*
X212090000Y-133985000D02*
X210820000Y-133985000D01*
X210185000Y-132080000D02*
X210185000Y-133350000D01*
X210185000Y-129540000D02*
X210185000Y-130810000D01*
X210185000Y-127000000D02*
X210185000Y-128270000D01*
X210185000Y-124460000D02*
X210185000Y-125730000D01*
X210185000Y-121920000D02*
X210185000Y-123190000D01*
X210185000Y-119380000D02*
X210185000Y-120650000D01*
X210185000Y-116840000D02*
X210185000Y-118110000D01*
X210185000Y-114300000D02*
X210185000Y-115570000D01*
X210185000Y-111760000D02*
X210185000Y-113030000D01*
X212090000Y-133985000D02*
X212725000Y-134620000D01*
X212725000Y-134620000D02*
X212725000Y-135890000D01*
X212725000Y-135890000D02*
X212090000Y-136525000D01*
X210820000Y-136525000D02*
X210185000Y-135890000D01*
X210820000Y-133985000D02*
X210185000Y-134620000D01*
X212090000Y-136525000D02*
X210820000Y-136525000D01*
X210185000Y-134620000D02*
X210185000Y-135890000D01*
X210820000Y-136525000D02*
X210185000Y-137160000D01*
X210185000Y-138430000D02*
X210820000Y-139065000D01*
X210820000Y-139065000D02*
X210185000Y-139700000D01*
X210185000Y-140970000D02*
X210820000Y-141605000D01*
X210820000Y-141605000D02*
X210185000Y-142240000D01*
X210185000Y-143510000D02*
X210820000Y-144145000D01*
X210820000Y-144145000D02*
X210185000Y-144780000D01*
X210185000Y-146050000D02*
X210820000Y-146685000D01*
X210820000Y-146685000D02*
X210185000Y-147320000D01*
X210185000Y-148590000D02*
X210820000Y-149225000D01*
X210820000Y-149225000D02*
X210185000Y-149860000D01*
X210185000Y-151130000D02*
X210820000Y-151765000D01*
X212090000Y-136525000D02*
X212725000Y-137160000D01*
X212725000Y-137160000D02*
X212725000Y-138430000D01*
X212725000Y-138430000D02*
X212090000Y-139065000D01*
X212090000Y-139065000D02*
X212725000Y-139700000D01*
X212725000Y-139700000D02*
X212725000Y-140970000D01*
X212725000Y-140970000D02*
X212090000Y-141605000D01*
X212090000Y-141605000D02*
X212725000Y-142240000D01*
X212725000Y-142240000D02*
X212725000Y-143510000D01*
X212725000Y-143510000D02*
X212090000Y-144145000D01*
X212090000Y-144145000D02*
X212725000Y-144780000D01*
X212725000Y-144780000D02*
X212725000Y-146050000D01*
X212725000Y-146050000D02*
X212090000Y-146685000D01*
X212090000Y-146685000D02*
X212725000Y-147320000D01*
X212725000Y-147320000D02*
X212725000Y-148590000D01*
X212725000Y-148590000D02*
X212090000Y-149225000D01*
X212090000Y-149225000D02*
X212725000Y-149860000D01*
X212725000Y-149860000D02*
X212725000Y-151130000D01*
X212725000Y-151130000D02*
X212090000Y-151765000D01*
X212090000Y-151765000D02*
X212725000Y-152400000D01*
X212725000Y-152400000D02*
X212725000Y-153670000D01*
X212725000Y-153670000D02*
X212090000Y-154305000D01*
X210820000Y-154305000D02*
X210185000Y-153670000D01*
X210820000Y-151765000D02*
X210185000Y-152400000D01*
X212090000Y-139065000D02*
X210820000Y-139065000D01*
X212090000Y-141605000D02*
X210820000Y-141605000D01*
X212090000Y-144145000D02*
X210820000Y-144145000D01*
X212090000Y-146685000D02*
X210820000Y-146685000D01*
X212090000Y-149225000D02*
X210820000Y-149225000D01*
X212090000Y-151765000D02*
X210820000Y-151765000D01*
X212090000Y-154305000D02*
X210820000Y-154305000D01*
X210185000Y-152400000D02*
X210185000Y-153670000D01*
X210185000Y-149860000D02*
X210185000Y-151130000D01*
X210185000Y-147320000D02*
X210185000Y-148590000D01*
X210185000Y-144780000D02*
X210185000Y-146050000D01*
X210185000Y-142240000D02*
X210185000Y-143510000D01*
X210185000Y-139700000D02*
X210185000Y-140970000D01*
X210185000Y-137160000D02*
X210185000Y-138430000D01*
D12*
X216535000Y-154940000D02*
X182245000Y-154940000D01*
X182245000Y-154940000D02*
X182245000Y-83185000D01*
X182245000Y-83185000D02*
X182245000Y-15875000D01*
X182245000Y-15875000D02*
X196215000Y-15875000D01*
X196215000Y-15875000D02*
X203835000Y-15875000D01*
X203835000Y-15875000D02*
X216535000Y-15875000D01*
X216535000Y-15875000D02*
X216535000Y-83185000D01*
X216535000Y-83185000D02*
X216535000Y-154940000D01*
D11*
X189865000Y-85090000D02*
X190500000Y-85725000D01*
X191770000Y-85725000D02*
X192405000Y-85090000D01*
X192405000Y-85090000D02*
X193040000Y-85725000D01*
X194310000Y-85725000D02*
X194945000Y-85090000D01*
X194945000Y-85090000D02*
X195580000Y-85725000D01*
X196850000Y-85725000D02*
X197485000Y-85090000D01*
X197485000Y-85090000D02*
X198120000Y-85725000D01*
X199390000Y-85725000D02*
X200025000Y-85090000D01*
X200025000Y-85090000D02*
X200660000Y-85725000D01*
X201930000Y-85725000D02*
X202565000Y-85090000D01*
X202565000Y-85090000D02*
X203200000Y-85725000D01*
X204470000Y-85725000D02*
X205105000Y-85090000D01*
X189865000Y-85090000D02*
X189865000Y-83820000D01*
X189865000Y-83820000D02*
X190500000Y-83185000D01*
X190500000Y-83185000D02*
X191770000Y-83185000D01*
X191770000Y-83185000D02*
X192405000Y-83820000D01*
X192405000Y-83820000D02*
X193040000Y-83185000D01*
X193040000Y-83185000D02*
X194310000Y-83185000D01*
X194310000Y-83185000D02*
X194945000Y-83820000D01*
X194945000Y-83820000D02*
X195580000Y-83185000D01*
X195580000Y-83185000D02*
X196850000Y-83185000D01*
X196850000Y-83185000D02*
X197485000Y-83820000D01*
X197485000Y-83820000D02*
X198120000Y-83185000D01*
X198120000Y-83185000D02*
X199390000Y-83185000D01*
X199390000Y-83185000D02*
X200025000Y-83820000D01*
X200025000Y-83820000D02*
X200660000Y-83185000D01*
X200660000Y-83185000D02*
X201930000Y-83185000D01*
X201930000Y-83185000D02*
X202565000Y-83820000D01*
X202565000Y-83820000D02*
X203200000Y-83185000D01*
X203200000Y-83185000D02*
X204470000Y-83185000D01*
X204470000Y-83185000D02*
X205105000Y-83820000D01*
X205105000Y-83820000D02*
X205740000Y-83185000D01*
X205740000Y-83185000D02*
X207010000Y-83185000D01*
X207010000Y-83185000D02*
X207645000Y-83820000D01*
X207645000Y-83820000D02*
X208280000Y-83185000D01*
X208280000Y-83185000D02*
X209550000Y-83185000D01*
X209550000Y-83185000D02*
X210185000Y-83820000D01*
X210185000Y-85090000D02*
X209550000Y-85725000D01*
X207645000Y-85090000D02*
X208280000Y-85725000D01*
X207645000Y-85090000D02*
X207010000Y-85725000D01*
X205105000Y-85090000D02*
X205740000Y-85725000D01*
X192405000Y-83820000D02*
X192405000Y-85090000D01*
X194945000Y-83820000D02*
X194945000Y-85090000D01*
X197485000Y-83820000D02*
X197485000Y-85090000D01*
X200025000Y-83820000D02*
X200025000Y-85090000D01*
X202565000Y-83820000D02*
X202565000Y-85090000D01*
X205105000Y-83820000D02*
X205105000Y-85090000D01*
X207645000Y-83820000D02*
X207645000Y-85090000D01*
X210185000Y-83820000D02*
X210185000Y-85090000D01*
X208280000Y-85725000D02*
X209550000Y-85725000D01*
X205740000Y-85725000D02*
X207010000Y-85725000D01*
X203200000Y-85725000D02*
X204470000Y-85725000D01*
X200660000Y-85725000D02*
X201930000Y-85725000D01*
X198120000Y-85725000D02*
X199390000Y-85725000D01*
X195580000Y-85725000D02*
X196850000Y-85725000D01*
X193040000Y-85725000D02*
X194310000Y-85725000D01*
X190500000Y-85725000D02*
X191770000Y-85725000D01*
X189865000Y-82550000D02*
X190500000Y-83185000D01*
X191770000Y-83185000D02*
X192405000Y-82550000D01*
X192405000Y-82550000D02*
X193040000Y-83185000D01*
X194310000Y-83185000D02*
X194945000Y-82550000D01*
X194945000Y-82550000D02*
X195580000Y-83185000D01*
X196850000Y-83185000D02*
X197485000Y-82550000D01*
X197485000Y-82550000D02*
X198120000Y-83185000D01*
X199390000Y-83185000D02*
X200025000Y-82550000D01*
X200025000Y-82550000D02*
X200660000Y-83185000D01*
X201930000Y-83185000D02*
X202565000Y-82550000D01*
X202565000Y-82550000D02*
X203200000Y-83185000D01*
X204470000Y-83185000D02*
X205105000Y-82550000D01*
X189865000Y-82550000D02*
X189865000Y-81280000D01*
X189865000Y-81280000D02*
X190500000Y-80645000D01*
X190500000Y-80645000D02*
X191770000Y-80645000D01*
X191770000Y-80645000D02*
X192405000Y-81280000D01*
X192405000Y-81280000D02*
X193040000Y-80645000D01*
X193040000Y-80645000D02*
X194310000Y-80645000D01*
X194310000Y-80645000D02*
X194945000Y-81280000D01*
X194945000Y-81280000D02*
X195580000Y-80645000D01*
X195580000Y-80645000D02*
X196850000Y-80645000D01*
X196850000Y-80645000D02*
X197485000Y-81280000D01*
X197485000Y-81280000D02*
X198120000Y-80645000D01*
X198120000Y-80645000D02*
X199390000Y-80645000D01*
X199390000Y-80645000D02*
X200025000Y-81280000D01*
X200025000Y-81280000D02*
X200660000Y-80645000D01*
X200660000Y-80645000D02*
X201930000Y-80645000D01*
X201930000Y-80645000D02*
X202565000Y-81280000D01*
X202565000Y-81280000D02*
X203200000Y-80645000D01*
X203200000Y-80645000D02*
X204470000Y-80645000D01*
X204470000Y-80645000D02*
X205105000Y-81280000D01*
X205105000Y-81280000D02*
X205740000Y-80645000D01*
X205740000Y-80645000D02*
X207010000Y-80645000D01*
X207010000Y-80645000D02*
X207645000Y-81280000D01*
X207645000Y-81280000D02*
X208280000Y-80645000D01*
X208280000Y-80645000D02*
X209550000Y-80645000D01*
X209550000Y-80645000D02*
X210185000Y-81280000D01*
X210185000Y-82550000D02*
X209550000Y-83185000D01*
X207645000Y-82550000D02*
X208280000Y-83185000D01*
X207645000Y-82550000D02*
X207010000Y-83185000D01*
X205105000Y-82550000D02*
X205740000Y-83185000D01*
X192405000Y-81280000D02*
X192405000Y-82550000D01*
X194945000Y-81280000D02*
X194945000Y-82550000D01*
X197485000Y-81280000D02*
X197485000Y-82550000D01*
X200025000Y-81280000D02*
X200025000Y-82550000D01*
X202565000Y-81280000D02*
X202565000Y-82550000D01*
X205105000Y-81280000D02*
X205105000Y-82550000D01*
X207645000Y-81280000D02*
X207645000Y-82550000D01*
X210185000Y-81280000D02*
X210185000Y-82550000D01*
X209550000Y-83185000D02*
X216535000Y-83185000D01*
X182245000Y-83185000D02*
X190500000Y-83185000D01*
X203835000Y-23495000D02*
X203835000Y-15875000D01*
X203835000Y-23495000D02*
X196215000Y-23495000D01*
X196215000Y-15875000D02*
X196215000Y-23495000D01*
X203835000Y-15875000D02*
X203835000Y-14605000D01*
X196215000Y-14605000D02*
X196215000Y-15875000D01*
X203835000Y-14605000D02*
X196215000Y-14605000D01*
X192709800Y-144145000D02*
X192074800Y-144780000D01*
X192074800Y-146050000D02*
X192709800Y-146685000D01*
X193979800Y-144145000D02*
X194614800Y-144780000D01*
X194614800Y-144780000D02*
X194614800Y-146050000D01*
X194614800Y-146050000D02*
X193979800Y-146685000D01*
X193979800Y-146685000D02*
X194614800Y-147320000D01*
X194614800Y-147320000D02*
X194614800Y-148590000D01*
X194614800Y-148590000D02*
X193979800Y-149225000D01*
X193979800Y-149225000D02*
X194614800Y-149860000D01*
X194614800Y-149860000D02*
X194614800Y-151130000D01*
X194614800Y-151130000D02*
X193979800Y-151765000D01*
X193979800Y-151765000D02*
X194614800Y-152400000D01*
X194614800Y-152400000D02*
X194614800Y-153670000D01*
X194614800Y-153670000D02*
X193979800Y-154305000D01*
X192709800Y-154305000D02*
X192074800Y-153670000D01*
X192709800Y-151765000D02*
X192074800Y-152400000D01*
X192709800Y-151765000D02*
X192074800Y-151130000D01*
X192709800Y-149225000D02*
X192074800Y-149860000D01*
X192709800Y-149225000D02*
X192074800Y-148590000D01*
X192709800Y-146685000D02*
X192074800Y-147320000D01*
X193979800Y-144145000D02*
X192709800Y-144145000D01*
X193979800Y-146685000D02*
X192709800Y-146685000D01*
X193979800Y-149225000D02*
X192709800Y-149225000D01*
X193979800Y-151765000D02*
X192709800Y-151765000D01*
X193979800Y-154305000D02*
X192709800Y-154305000D01*
X192074800Y-152400000D02*
X192074800Y-153670000D01*
X192074800Y-149860000D02*
X192074800Y-151130000D01*
X192074800Y-147320000D02*
X192074800Y-148590000D01*
X192074800Y-144780000D02*
X192074800Y-146050000D01*
X196519800Y-146685000D02*
X197154800Y-147320000D01*
X197154800Y-147320000D02*
X197154800Y-148590000D01*
X197154800Y-148590000D02*
X196519800Y-149225000D01*
X196519800Y-149225000D02*
X197154800Y-149860000D01*
X197154800Y-149860000D02*
X197154800Y-151130000D01*
X197154800Y-151130000D02*
X196519800Y-151765000D01*
X196519800Y-151765000D02*
X197154800Y-152400000D01*
X197154800Y-152400000D02*
X197154800Y-153670000D01*
X197154800Y-153670000D02*
X196519800Y-154305000D01*
X195249800Y-154305000D02*
X194614800Y-153670000D01*
X195249800Y-151765000D02*
X194614800Y-152400000D01*
X195249800Y-151765000D02*
X194614800Y-151130000D01*
X195249800Y-149225000D02*
X194614800Y-149860000D01*
X195249800Y-149225000D02*
X194614800Y-148590000D01*
X195249800Y-146685000D02*
X194614800Y-147320000D01*
X196519800Y-146685000D02*
X195249800Y-146685000D01*
X196519800Y-149225000D02*
X195249800Y-149225000D01*
X196519800Y-151765000D02*
X195249800Y-151765000D01*
X196519800Y-154305000D02*
X195249800Y-154305000D01*
X199059800Y-146685000D02*
X199694800Y-147320000D01*
X199694800Y-147320000D02*
X199694800Y-148590000D01*
X199694800Y-148590000D02*
X199059800Y-149225000D01*
X199059800Y-149225000D02*
X199694800Y-149860000D01*
X199694800Y-149860000D02*
X199694800Y-151130000D01*
X199694800Y-151130000D02*
X199059800Y-151765000D01*
X199059800Y-151765000D02*
X199694800Y-152400000D01*
X199694800Y-152400000D02*
X199694800Y-153670000D01*
X199694800Y-153670000D02*
X199059800Y-154305000D01*
X197789800Y-154305000D02*
X197154800Y-153670000D01*
X197789800Y-151765000D02*
X197154800Y-152400000D01*
X197789800Y-151765000D02*
X197154800Y-151130000D01*
X197789800Y-149225000D02*
X197154800Y-149860000D01*
X197789800Y-149225000D02*
X197154800Y-148590000D01*
X197789800Y-146685000D02*
X197154800Y-147320000D01*
X199059800Y-146685000D02*
X197789800Y-146685000D01*
X199059800Y-149225000D02*
X197789800Y-149225000D01*
X199059800Y-151765000D02*
X197789800Y-151765000D01*
X199059800Y-154305000D02*
X197789800Y-154305000D01*
X201599800Y-146685000D02*
X202234800Y-147320000D01*
X202234800Y-147320000D02*
X202234800Y-148590000D01*
X202234800Y-148590000D02*
X201599800Y-149225000D01*
X201599800Y-149225000D02*
X202234800Y-149860000D01*
X202234800Y-149860000D02*
X202234800Y-151130000D01*
X202234800Y-151130000D02*
X201599800Y-151765000D01*
X201599800Y-151765000D02*
X202234800Y-152400000D01*
X202234800Y-152400000D02*
X202234800Y-153670000D01*
X202234800Y-153670000D02*
X201599800Y-154305000D01*
X200329800Y-154305000D02*
X199694800Y-153670000D01*
X200329800Y-151765000D02*
X199694800Y-152400000D01*
X200329800Y-151765000D02*
X199694800Y-151130000D01*
X200329800Y-149225000D02*
X199694800Y-149860000D01*
X200329800Y-149225000D02*
X199694800Y-148590000D01*
X200329800Y-146685000D02*
X199694800Y-147320000D01*
X201599800Y-146685000D02*
X200329800Y-146685000D01*
X201599800Y-149225000D02*
X200329800Y-149225000D01*
X201599800Y-151765000D02*
X200329800Y-151765000D01*
X201599800Y-154305000D02*
X200329800Y-154305000D01*
X204139800Y-146685000D02*
X204774800Y-147320000D01*
X204774800Y-147320000D02*
X204774800Y-148590000D01*
X204774800Y-148590000D02*
X204139800Y-149225000D01*
X204139800Y-149225000D02*
X204774800Y-149860000D01*
X204774800Y-149860000D02*
X204774800Y-151130000D01*
X204774800Y-151130000D02*
X204139800Y-151765000D01*
X204139800Y-151765000D02*
X204774800Y-152400000D01*
X204774800Y-152400000D02*
X204774800Y-153670000D01*
X204774800Y-153670000D02*
X204139800Y-154305000D01*
X202869800Y-154305000D02*
X202234800Y-153670000D01*
X202869800Y-151765000D02*
X202234800Y-152400000D01*
X202869800Y-151765000D02*
X202234800Y-151130000D01*
X202869800Y-149225000D02*
X202234800Y-149860000D01*
X202869800Y-149225000D02*
X202234800Y-148590000D01*
X202869800Y-146685000D02*
X202234800Y-147320000D01*
X204139800Y-146685000D02*
X202869800Y-146685000D01*
X204139800Y-149225000D02*
X202869800Y-149225000D01*
X204139800Y-151765000D02*
X202869800Y-151765000D01*
X204139800Y-154305000D02*
X202869800Y-154305000D01*
X206679800Y-146685000D02*
X207314800Y-147320000D01*
X207314800Y-147320000D02*
X207314800Y-148590000D01*
X207314800Y-148590000D02*
X206679800Y-149225000D01*
X206679800Y-149225000D02*
X207314800Y-149860000D01*
X207314800Y-149860000D02*
X207314800Y-151130000D01*
X207314800Y-151130000D02*
X206679800Y-151765000D01*
X206679800Y-151765000D02*
X207314800Y-152400000D01*
X207314800Y-152400000D02*
X207314800Y-153670000D01*
X207314800Y-153670000D02*
X206679800Y-154305000D01*
X205409800Y-154305000D02*
X204774800Y-153670000D01*
X205409800Y-151765000D02*
X204774800Y-152400000D01*
X205409800Y-151765000D02*
X204774800Y-151130000D01*
X205409800Y-149225000D02*
X204774800Y-149860000D01*
X205409800Y-149225000D02*
X204774800Y-148590000D01*
X205409800Y-146685000D02*
X204774800Y-147320000D01*
X206679800Y-146685000D02*
X205409800Y-146685000D01*
X206679800Y-149225000D02*
X205409800Y-149225000D01*
X206679800Y-151765000D02*
X205409800Y-151765000D01*
X206679800Y-154305000D02*
X205409800Y-154305000D01*
D10*
%TO.C,R22*%
X151278000Y-92141064D02*
X151278000Y-90686936D01*
X149458000Y-92141064D02*
X149458000Y-90686936D01*
%TO.C,R23*%
X157774616Y-108807840D02*
X159228744Y-108807840D01*
X157774616Y-110627840D02*
X159228744Y-110627840D01*
%TO.C,U5*%
X172145000Y-121555000D02*
X172145000Y-120305000D01*
X172145000Y-120305000D02*
X151705000Y-120305000D01*
X151705000Y-120305000D02*
X151705000Y-124805000D01*
X151705000Y-124805000D02*
X172145000Y-124805000D01*
X172145000Y-124805000D02*
X172145000Y-123555000D01*
X172145000Y-123555000D02*
G75*
G02*
X172145000Y-121555000I0J1000000D01*
G01*
%TO.C,J4*%
X147958500Y-122297500D02*
X150618500Y-122297500D01*
X147958500Y-122237500D02*
X147958500Y-122297500D01*
X150618500Y-122237500D02*
X150618500Y-122297500D01*
X147958500Y-122237500D02*
X150618500Y-122237500D01*
X147958500Y-120967500D02*
X147958500Y-119637500D01*
X147958500Y-119637500D02*
X149288500Y-119637500D01*
%TO.C,J5*%
X147958500Y-110620500D02*
X149288500Y-110620500D01*
X147958500Y-111950500D02*
X147958500Y-110620500D01*
X147958500Y-113220500D02*
X150618500Y-113220500D01*
X150618500Y-113220500D02*
X150618500Y-113280500D01*
X147958500Y-113220500D02*
X147958500Y-113280500D01*
X147958500Y-113280500D02*
X150618500Y-113280500D01*
%TO.C,J6*%
X147958500Y-131378000D02*
X150618500Y-131378000D01*
X147958500Y-131318000D02*
X147958500Y-131378000D01*
X150618500Y-131318000D02*
X150618500Y-131378000D01*
X147958500Y-131318000D02*
X150618500Y-131318000D01*
X147958500Y-130048000D02*
X147958500Y-128718000D01*
X147958500Y-128718000D02*
X149288500Y-128718000D01*
%TO.C,J7*%
X158683000Y-74997000D02*
X156023000Y-74997000D01*
X158683000Y-75057000D02*
X158683000Y-74997000D01*
X156023000Y-75057000D02*
X156023000Y-74997000D01*
X158683000Y-75057000D02*
X156023000Y-75057000D01*
X158683000Y-76327000D02*
X158683000Y-77657000D01*
X158683000Y-77657000D02*
X157353000Y-77657000D01*
%TO.C,J8*%
X162874000Y-106994000D02*
X161544000Y-106994000D01*
X162874000Y-105664000D02*
X162874000Y-106994000D01*
X162874000Y-104394000D02*
X160214000Y-104394000D01*
X160214000Y-104394000D02*
X160214000Y-104334000D01*
X162874000Y-104394000D02*
X162874000Y-104334000D01*
X162874000Y-104334000D02*
X160214000Y-104334000D01*
%TO.C,J9*%
X124209500Y-59750000D02*
X126869500Y-59750000D01*
X124209500Y-59690000D02*
X124209500Y-59750000D01*
X126869500Y-59690000D02*
X126869500Y-59750000D01*
X124209500Y-59690000D02*
X126869500Y-59690000D01*
X124209500Y-58420000D02*
X124209500Y-57090000D01*
X124209500Y-57090000D02*
X125539500Y-57090000D01*
%TO.C,J10*%
X151895500Y-74933500D02*
X153225500Y-74933500D01*
X151895500Y-76263500D02*
X151895500Y-74933500D01*
X151895500Y-77533500D02*
X154555500Y-77533500D01*
X154555500Y-77533500D02*
X154555500Y-77593500D01*
X151895500Y-77533500D02*
X151895500Y-77593500D01*
X151895500Y-77593500D02*
X154555500Y-77593500D01*
%TO.C,J11*%
X156150000Y-104334000D02*
X157480000Y-104334000D01*
X156150000Y-105664000D02*
X156150000Y-104334000D01*
X156150000Y-106934000D02*
X158810000Y-106934000D01*
X158810000Y-106934000D02*
X158810000Y-106994000D01*
X156150000Y-106934000D02*
X156150000Y-106994000D01*
X156150000Y-106994000D02*
X158810000Y-106994000D01*
%TO.C,J12*%
X147958500Y-142046000D02*
X150618500Y-142046000D01*
X147958500Y-141986000D02*
X147958500Y-142046000D01*
X150618500Y-141986000D02*
X150618500Y-142046000D01*
X147958500Y-141986000D02*
X150618500Y-141986000D01*
X147958500Y-140716000D02*
X147958500Y-139386000D01*
X147958500Y-139386000D02*
X149288500Y-139386000D01*
%TO.C,J13*%
X128591000Y-57090000D02*
X129921000Y-57090000D01*
X128591000Y-58420000D02*
X128591000Y-57090000D01*
X128591000Y-59690000D02*
X131251000Y-59690000D01*
X131251000Y-59690000D02*
X131251000Y-59750000D01*
X128591000Y-59690000D02*
X128591000Y-59750000D01*
X128591000Y-59750000D02*
X131251000Y-59750000D01*
%TO.C,J1*%
X169926000Y-150749000D02*
X169926000Y-151765000D01*
X170942000Y-151765000D02*
X169926000Y-150749000D01*
X169926000Y-151765000D02*
X170942000Y-150749000D01*
X169926000Y-151765000D02*
X168910000Y-151765000D01*
X170942000Y-151765000D02*
X169926000Y-151765000D01*
X170942000Y-150749000D02*
X170942000Y-151765000D01*
X169926000Y-150749000D02*
X170942000Y-150749000D01*
X168910000Y-150749000D02*
X169926000Y-150749000D01*
X168910000Y-151765000D02*
X168910000Y-150749000D01*
X168910000Y-156781500D02*
X168910000Y-151765000D01*
X180911500Y-150749000D02*
X181927500Y-151765000D01*
X181927500Y-150749000D02*
X180911500Y-151765000D01*
X181927500Y-151765000D02*
X181927500Y-150749000D01*
X180911500Y-150749000D02*
X180911500Y-151765000D01*
X181927500Y-150749000D02*
X180911500Y-150749000D01*
X182943500Y-150749000D02*
X181927500Y-150749000D01*
X182943500Y-151765000D02*
X182943500Y-150749000D01*
X181927500Y-151765000D02*
X180911500Y-151765000D01*
X182943500Y-151765000D02*
X181927500Y-151765000D01*
X182943500Y-156781500D02*
X182943500Y-151765000D01*
X170434000Y-148971000D02*
X171958000Y-148971000D01*
X181419500Y-148971000D02*
X179895500Y-148971000D01*
X173482000Y-148971000D02*
G75*
G03*
X173482000Y-148971000I-1524000J0D01*
G01*
X181419500Y-148971000D02*
G75*
G03*
X181419500Y-148971000I-1524000J0D01*
G01*
X168910000Y-142938500D02*
X182937000Y-142938500D01*
X168910000Y-156781500D02*
X168910000Y-142938500D01*
X182943500Y-156781500D02*
X168910000Y-156781500D01*
X182937000Y-142945000D02*
X182943500Y-156781500D01*
X172148500Y-142945000D02*
X172148500Y-145345000D01*
X169678500Y-145345000D02*
X169678500Y-142945000D01*
X182238500Y-145345000D02*
X169678500Y-145345000D01*
X182238500Y-142945000D02*
X182238500Y-145345000D01*
X169678500Y-142945000D02*
X182238500Y-142945000D01*
%TO.C,TR1*%
X123507500Y-64579500D02*
X123888500Y-64579500D01*
X123507500Y-61531500D02*
X123507500Y-64579500D01*
X124015500Y-118554500D02*
X122999500Y-118554500D01*
X123507500Y-115506500D02*
X123507500Y-118554500D01*
X123507500Y-121539000D02*
X123507500Y-115506500D01*
X117407500Y-121503000D02*
X105207500Y-121503000D01*
X117407500Y-121863000D02*
X117407500Y-121503000D01*
X129607499Y-121863000D02*
X117407500Y-121863000D01*
X129607499Y-121503000D02*
X129607499Y-121863000D01*
X141807499Y-121503000D02*
X129607499Y-121503000D01*
X141807500Y-61503500D02*
X141807499Y-121503500D01*
X105207501Y-61503500D02*
X141807500Y-61503500D01*
X105207500Y-121503500D02*
X105207501Y-61503500D01*
%TO.C,R20*%
D13*
X121378142Y-122584380D02*
X121044809Y-122108190D01*
X120806714Y-122584380D02*
X120806714Y-121584380D01*
X121187666Y-121584380D01*
X121282904Y-121632000D01*
X121330523Y-121679619D01*
X121378142Y-121774857D01*
X121378142Y-121917714D01*
X121330523Y-122012952D01*
X121282904Y-122060571D01*
X121187666Y-122108190D01*
X120806714Y-122108190D01*
X121759095Y-121679619D02*
X121806714Y-121632000D01*
X121901952Y-121584380D01*
X122140047Y-121584380D01*
X122235285Y-121632000D01*
X122282904Y-121679619D01*
X122330523Y-121774857D01*
X122330523Y-121870095D01*
X122282904Y-122012952D01*
X121711476Y-122584380D01*
X122330523Y-122584380D01*
X122949571Y-121584380D02*
X123044809Y-121584380D01*
X123140047Y-121632000D01*
X123187666Y-121679619D01*
X123235285Y-121774857D01*
X123282904Y-121965333D01*
X123282904Y-122203428D01*
X123235285Y-122393904D01*
X123187666Y-122489142D01*
X123140047Y-122536761D01*
X123044809Y-122584380D01*
X122949571Y-122584380D01*
X122854333Y-122536761D01*
X122806714Y-122489142D01*
X122759095Y-122393904D01*
X122711476Y-122203428D01*
X122711476Y-121965333D01*
X122759095Y-121774857D01*
X122806714Y-121679619D01*
X122854333Y-121632000D01*
X122949571Y-121584380D01*
%TO.C,U8*%
X175577595Y-61793880D02*
X175577595Y-62603404D01*
X175625214Y-62698642D01*
X175672833Y-62746261D01*
X175768071Y-62793880D01*
X175958547Y-62793880D01*
X176053785Y-62746261D01*
X176101404Y-62698642D01*
X176149023Y-62603404D01*
X176149023Y-61793880D01*
X176768071Y-62222452D02*
X176672833Y-62174833D01*
X176625214Y-62127214D01*
X176577595Y-62031976D01*
X176577595Y-61984357D01*
X176625214Y-61889119D01*
X176672833Y-61841500D01*
X176768071Y-61793880D01*
X176958547Y-61793880D01*
X177053785Y-61841500D01*
X177101404Y-61889119D01*
X177149023Y-61984357D01*
X177149023Y-62031976D01*
X177101404Y-62127214D01*
X177053785Y-62174833D01*
X176958547Y-62222452D01*
X176768071Y-62222452D01*
X176672833Y-62270071D01*
X176625214Y-62317690D01*
X176577595Y-62412928D01*
X176577595Y-62603404D01*
X176625214Y-62698642D01*
X176672833Y-62746261D01*
X176768071Y-62793880D01*
X176958547Y-62793880D01*
X177053785Y-62746261D01*
X177101404Y-62698642D01*
X177149023Y-62603404D01*
X177149023Y-62412928D01*
X177101404Y-62317690D01*
X177053785Y-62270071D01*
X176958547Y-62222452D01*
%TO.C,C6*%
X177363333Y-77576642D02*
X177315714Y-77624261D01*
X177172857Y-77671880D01*
X177077619Y-77671880D01*
X176934761Y-77624261D01*
X176839523Y-77529023D01*
X176791904Y-77433785D01*
X176744285Y-77243309D01*
X176744285Y-77100452D01*
X176791904Y-76909976D01*
X176839523Y-76814738D01*
X176934761Y-76719500D01*
X177077619Y-76671880D01*
X177172857Y-76671880D01*
X177315714Y-76719500D01*
X177363333Y-76767119D01*
X178220476Y-76671880D02*
X178030000Y-76671880D01*
X177934761Y-76719500D01*
X177887142Y-76767119D01*
X177791904Y-76909976D01*
X177744285Y-77100452D01*
X177744285Y-77481404D01*
X177791904Y-77576642D01*
X177839523Y-77624261D01*
X177934761Y-77671880D01*
X178125238Y-77671880D01*
X178220476Y-77624261D01*
X178268095Y-77576642D01*
X178315714Y-77481404D01*
X178315714Y-77243309D01*
X178268095Y-77148071D01*
X178220476Y-77100452D01*
X178125238Y-77052833D01*
X177934761Y-77052833D01*
X177839523Y-77100452D01*
X177791904Y-77148071D01*
X177744285Y-77243309D01*
%TO.C,C1*%
X157586642Y-67778166D02*
X157634261Y-67825785D01*
X157681880Y-67968642D01*
X157681880Y-68063880D01*
X157634261Y-68206738D01*
X157539023Y-68301976D01*
X157443785Y-68349595D01*
X157253309Y-68397214D01*
X157110452Y-68397214D01*
X156919976Y-68349595D01*
X156824738Y-68301976D01*
X156729500Y-68206738D01*
X156681880Y-68063880D01*
X156681880Y-67968642D01*
X156729500Y-67825785D01*
X156777119Y-67778166D01*
X157681880Y-66825785D02*
X157681880Y-67397214D01*
X157681880Y-67111500D02*
X156681880Y-67111500D01*
X156824738Y-67206738D01*
X156919976Y-67301976D01*
X156967595Y-67397214D01*
%TO.C,C2*%
X157586642Y-61428166D02*
X157634261Y-61475785D01*
X157681880Y-61618642D01*
X157681880Y-61713880D01*
X157634261Y-61856738D01*
X157539023Y-61951976D01*
X157443785Y-61999595D01*
X157253309Y-62047214D01*
X157110452Y-62047214D01*
X156919976Y-61999595D01*
X156824738Y-61951976D01*
X156729500Y-61856738D01*
X156681880Y-61713880D01*
X156681880Y-61618642D01*
X156729500Y-61475785D01*
X156777119Y-61428166D01*
X156777119Y-61047214D02*
X156729500Y-60999595D01*
X156681880Y-60904357D01*
X156681880Y-60666261D01*
X156729500Y-60571023D01*
X156777119Y-60523404D01*
X156872357Y-60475785D01*
X156967595Y-60475785D01*
X157110452Y-60523404D01*
X157681880Y-61094833D01*
X157681880Y-60475785D01*
%TO.C,C5*%
X163488833Y-77576642D02*
X163441214Y-77624261D01*
X163298357Y-77671880D01*
X163203119Y-77671880D01*
X163060261Y-77624261D01*
X162965023Y-77529023D01*
X162917404Y-77433785D01*
X162869785Y-77243309D01*
X162869785Y-77100452D01*
X162917404Y-76909976D01*
X162965023Y-76814738D01*
X163060261Y-76719500D01*
X163203119Y-76671880D01*
X163298357Y-76671880D01*
X163441214Y-76719500D01*
X163488833Y-76767119D01*
X164393595Y-76671880D02*
X163917404Y-76671880D01*
X163869785Y-77148071D01*
X163917404Y-77100452D01*
X164012642Y-77052833D01*
X164250738Y-77052833D01*
X164345976Y-77100452D01*
X164393595Y-77148071D01*
X164441214Y-77243309D01*
X164441214Y-77481404D01*
X164393595Y-77576642D01*
X164345976Y-77624261D01*
X164250738Y-77671880D01*
X164012642Y-77671880D01*
X163917404Y-77624261D01*
X163869785Y-77576642D01*
%TO.C,R16*%
X127653142Y-122584380D02*
X127319809Y-122108190D01*
X127081714Y-122584380D02*
X127081714Y-121584380D01*
X127462666Y-121584380D01*
X127557904Y-121632000D01*
X127605523Y-121679619D01*
X127653142Y-121774857D01*
X127653142Y-121917714D01*
X127605523Y-122012952D01*
X127557904Y-122060571D01*
X127462666Y-122108190D01*
X127081714Y-122108190D01*
X128605523Y-122584380D02*
X128034095Y-122584380D01*
X128319809Y-122584380D02*
X128319809Y-121584380D01*
X128224571Y-121727238D01*
X128129333Y-121822476D01*
X128034095Y-121870095D01*
X129462666Y-121584380D02*
X129272190Y-121584380D01*
X129176952Y-121632000D01*
X129129333Y-121679619D01*
X129034095Y-121822476D01*
X128986476Y-122012952D01*
X128986476Y-122393904D01*
X129034095Y-122489142D01*
X129081714Y-122536761D01*
X129176952Y-122584380D01*
X129367428Y-122584380D01*
X129462666Y-122536761D01*
X129510285Y-122489142D01*
X129557904Y-122393904D01*
X129557904Y-122155809D01*
X129510285Y-122060571D01*
X129462666Y-122012952D01*
X129367428Y-121965333D01*
X129176952Y-121965333D01*
X129081714Y-122012952D01*
X129034095Y-122060571D01*
X128986476Y-122155809D01*
%TO.C,U9*%
X117772380Y-133095904D02*
X118581904Y-133095904D01*
X118677142Y-133048285D01*
X118724761Y-133000666D01*
X118772380Y-132905428D01*
X118772380Y-132714952D01*
X118724761Y-132619714D01*
X118677142Y-132572095D01*
X118581904Y-132524476D01*
X117772380Y-132524476D01*
X118772380Y-132000666D02*
X118772380Y-131810190D01*
X118724761Y-131714952D01*
X118677142Y-131667333D01*
X118534285Y-131572095D01*
X118343809Y-131524476D01*
X117962857Y-131524476D01*
X117867619Y-131572095D01*
X117820000Y-131619714D01*
X117772380Y-131714952D01*
X117772380Y-131905428D01*
X117820000Y-132000666D01*
X117867619Y-132048285D01*
X117962857Y-132095904D01*
X118200952Y-132095904D01*
X118296190Y-132048285D01*
X118343809Y-132000666D01*
X118391428Y-131905428D01*
X118391428Y-131714952D01*
X118343809Y-131619714D01*
X118296190Y-131572095D01*
X118200952Y-131524476D01*
%TO.C,RV1*%
X125706261Y-141064380D02*
X125372928Y-140588190D01*
X125134833Y-141064380D02*
X125134833Y-140064380D01*
X125515785Y-140064380D01*
X125611023Y-140112000D01*
X125658642Y-140159619D01*
X125706261Y-140254857D01*
X125706261Y-140397714D01*
X125658642Y-140492952D01*
X125611023Y-140540571D01*
X125515785Y-140588190D01*
X125134833Y-140588190D01*
X125991976Y-140064380D02*
X126325309Y-141064380D01*
X126658642Y-140064380D01*
X127515785Y-141064380D02*
X126944357Y-141064380D01*
X127230071Y-141064380D02*
X127230071Y-140064380D01*
X127134833Y-140207238D01*
X127039595Y-140302476D01*
X126944357Y-140350095D01*
%TO.C,U6*%
X162877595Y-61793880D02*
X162877595Y-62603404D01*
X162925214Y-62698642D01*
X162972833Y-62746261D01*
X163068071Y-62793880D01*
X163258547Y-62793880D01*
X163353785Y-62746261D01*
X163401404Y-62698642D01*
X163449023Y-62603404D01*
X163449023Y-61793880D01*
X164353785Y-61793880D02*
X164163309Y-61793880D01*
X164068071Y-61841500D01*
X164020452Y-61889119D01*
X163925214Y-62031976D01*
X163877595Y-62222452D01*
X163877595Y-62603404D01*
X163925214Y-62698642D01*
X163972833Y-62746261D01*
X164068071Y-62793880D01*
X164258547Y-62793880D01*
X164353785Y-62746261D01*
X164401404Y-62698642D01*
X164449023Y-62603404D01*
X164449023Y-62365309D01*
X164401404Y-62270071D01*
X164353785Y-62222452D01*
X164258547Y-62174833D01*
X164068071Y-62174833D01*
X163972833Y-62222452D01*
X163925214Y-62270071D01*
X163877595Y-62365309D01*
%TO.C,R17*%
X131113880Y-151544857D02*
X130637690Y-151878190D01*
X131113880Y-152116285D02*
X130113880Y-152116285D01*
X130113880Y-151735333D01*
X130161500Y-151640095D01*
X130209119Y-151592476D01*
X130304357Y-151544857D01*
X130447214Y-151544857D01*
X130542452Y-151592476D01*
X130590071Y-151640095D01*
X130637690Y-151735333D01*
X130637690Y-152116285D01*
X131113880Y-150592476D02*
X131113880Y-151163904D01*
X131113880Y-150878190D02*
X130113880Y-150878190D01*
X130256738Y-150973428D01*
X130351976Y-151068666D01*
X130399595Y-151163904D01*
X130113880Y-150259142D02*
X130113880Y-149592476D01*
X131113880Y-150021047D01*
%TO.C,R19*%
X121489119Y-150259142D02*
X121965309Y-149925809D01*
X121489119Y-149687714D02*
X122489119Y-149687714D01*
X122489119Y-150068666D01*
X122441500Y-150163904D01*
X122393880Y-150211523D01*
X122298642Y-150259142D01*
X122155785Y-150259142D01*
X122060547Y-150211523D01*
X122012928Y-150163904D01*
X121965309Y-150068666D01*
X121965309Y-149687714D01*
X121489119Y-151211523D02*
X121489119Y-150640095D01*
X121489119Y-150925809D02*
X122489119Y-150925809D01*
X122346261Y-150830571D01*
X122251023Y-150735333D01*
X122203404Y-150640095D01*
X121489119Y-151687714D02*
X121489119Y-151878190D01*
X121536738Y-151973428D01*
X121584357Y-152021047D01*
X121727214Y-152116285D01*
X121917690Y-152163904D01*
X122298642Y-152163904D01*
X122393880Y-152116285D01*
X122441500Y-152068666D01*
X122489119Y-151973428D01*
X122489119Y-151782952D01*
X122441500Y-151687714D01*
X122393880Y-151640095D01*
X122298642Y-151592476D01*
X122060547Y-151592476D01*
X121965309Y-151640095D01*
X121917690Y-151687714D01*
X121870071Y-151782952D01*
X121870071Y-151973428D01*
X121917690Y-152068666D01*
X121965309Y-152116285D01*
X122060547Y-152163904D01*
%TO.C,J2*%
X141652666Y-127170380D02*
X141652666Y-127884666D01*
X141605047Y-128027523D01*
X141509809Y-128122761D01*
X141366952Y-128170380D01*
X141271714Y-128170380D01*
X142081238Y-127265619D02*
X142128857Y-127218000D01*
X142224095Y-127170380D01*
X142462190Y-127170380D01*
X142557428Y-127218000D01*
X142605047Y-127265619D01*
X142652666Y-127360857D01*
X142652666Y-127456095D01*
X142605047Y-127598952D01*
X142033619Y-128170380D01*
X142652666Y-128170380D01*
%TO.C,J3*%
X145208666Y-156032380D02*
X145208666Y-156746666D01*
X145161047Y-156889523D01*
X145065809Y-156984761D01*
X144922952Y-157032380D01*
X144827714Y-157032380D01*
X145589619Y-156032380D02*
X146208666Y-156032380D01*
X145875333Y-156413333D01*
X146018190Y-156413333D01*
X146113428Y-156460952D01*
X146161047Y-156508571D01*
X146208666Y-156603809D01*
X146208666Y-156841904D01*
X146161047Y-156937142D01*
X146113428Y-156984761D01*
X146018190Y-157032380D01*
X145732476Y-157032380D01*
X145637238Y-156984761D01*
X145589619Y-156937142D01*
%TO.C,JP1*%
X169410166Y-70083880D02*
X169410166Y-70798166D01*
X169362547Y-70941023D01*
X169267309Y-71036261D01*
X169124452Y-71083880D01*
X169029214Y-71083880D01*
X169886357Y-71083880D02*
X169886357Y-70083880D01*
X170267309Y-70083880D01*
X170362547Y-70131500D01*
X170410166Y-70179119D01*
X170457785Y-70274357D01*
X170457785Y-70417214D01*
X170410166Y-70512452D01*
X170362547Y-70560071D01*
X170267309Y-70607690D01*
X169886357Y-70607690D01*
X171410166Y-71083880D02*
X170838738Y-71083880D01*
X171124452Y-71083880D02*
X171124452Y-70083880D01*
X171029214Y-70226738D01*
X170933976Y-70321976D01*
X170838738Y-70369595D01*
%TO.C,R1*%
X168177380Y-135141666D02*
X167701190Y-135475000D01*
X168177380Y-135713095D02*
X167177380Y-135713095D01*
X167177380Y-135332142D01*
X167225000Y-135236904D01*
X167272619Y-135189285D01*
X167367857Y-135141666D01*
X167510714Y-135141666D01*
X167605952Y-135189285D01*
X167653571Y-135236904D01*
X167701190Y-135332142D01*
X167701190Y-135713095D01*
X168177380Y-134189285D02*
X168177380Y-134760714D01*
X168177380Y-134475000D02*
X167177380Y-134475000D01*
X167320238Y-134570238D01*
X167415476Y-134665476D01*
X167463095Y-134760714D01*
%TO.C,R2*%
X149317880Y-135130166D02*
X148841690Y-135463500D01*
X149317880Y-135701595D02*
X148317880Y-135701595D01*
X148317880Y-135320642D01*
X148365500Y-135225404D01*
X148413119Y-135177785D01*
X148508357Y-135130166D01*
X148651214Y-135130166D01*
X148746452Y-135177785D01*
X148794071Y-135225404D01*
X148841690Y-135320642D01*
X148841690Y-135701595D01*
X148413119Y-134749214D02*
X148365500Y-134701595D01*
X148317880Y-134606357D01*
X148317880Y-134368261D01*
X148365500Y-134273023D01*
X148413119Y-134225404D01*
X148508357Y-134177785D01*
X148603595Y-134177785D01*
X148746452Y-134225404D01*
X149317880Y-134796833D01*
X149317880Y-134177785D01*
%TO.C,R3*%
X153381880Y-135130166D02*
X152905690Y-135463500D01*
X153381880Y-135701595D02*
X152381880Y-135701595D01*
X152381880Y-135320642D01*
X152429500Y-135225404D01*
X152477119Y-135177785D01*
X152572357Y-135130166D01*
X152715214Y-135130166D01*
X152810452Y-135177785D01*
X152858071Y-135225404D01*
X152905690Y-135320642D01*
X152905690Y-135701595D01*
X152381880Y-134796833D02*
X152381880Y-134177785D01*
X152762833Y-134511119D01*
X152762833Y-134368261D01*
X152810452Y-134273023D01*
X152858071Y-134225404D01*
X152953309Y-134177785D01*
X153191404Y-134177785D01*
X153286642Y-134225404D01*
X153334261Y-134273023D01*
X153381880Y-134368261D01*
X153381880Y-134653976D01*
X153334261Y-134749214D01*
X153286642Y-134796833D01*
%TO.C,R4*%
X165002380Y-146571666D02*
X164526190Y-146905000D01*
X165002380Y-147143095D02*
X164002380Y-147143095D01*
X164002380Y-146762142D01*
X164050000Y-146666904D01*
X164097619Y-146619285D01*
X164192857Y-146571666D01*
X164335714Y-146571666D01*
X164430952Y-146619285D01*
X164478571Y-146666904D01*
X164526190Y-146762142D01*
X164526190Y-147143095D01*
X164335714Y-145714523D02*
X165002380Y-145714523D01*
X163954761Y-145952619D02*
X164669047Y-146190714D01*
X164669047Y-145571666D01*
%TO.C,R5*%
X160843333Y-139602380D02*
X160510000Y-139126190D01*
X160271904Y-139602380D02*
X160271904Y-138602380D01*
X160652857Y-138602380D01*
X160748095Y-138650000D01*
X160795714Y-138697619D01*
X160843333Y-138792857D01*
X160843333Y-138935714D01*
X160795714Y-139030952D01*
X160748095Y-139078571D01*
X160652857Y-139126190D01*
X160271904Y-139126190D01*
X161748095Y-138602380D02*
X161271904Y-138602380D01*
X161224285Y-139078571D01*
X161271904Y-139030952D01*
X161367142Y-138983333D01*
X161605238Y-138983333D01*
X161700476Y-139030952D01*
X161748095Y-139078571D01*
X161795714Y-139173809D01*
X161795714Y-139411904D01*
X161748095Y-139507142D01*
X161700476Y-139554761D01*
X161605238Y-139602380D01*
X161367142Y-139602380D01*
X161271904Y-139554761D01*
X161224285Y-139507142D01*
%TO.C,R6*%
X138332380Y-135066666D02*
X137856190Y-135400000D01*
X138332380Y-135638095D02*
X137332380Y-135638095D01*
X137332380Y-135257142D01*
X137380000Y-135161904D01*
X137427619Y-135114285D01*
X137522857Y-135066666D01*
X137665714Y-135066666D01*
X137760952Y-135114285D01*
X137808571Y-135161904D01*
X137856190Y-135257142D01*
X137856190Y-135638095D01*
X137332380Y-134209523D02*
X137332380Y-134400000D01*
X137380000Y-134495238D01*
X137427619Y-134542857D01*
X137570476Y-134638095D01*
X137760952Y-134685714D01*
X138141904Y-134685714D01*
X138237142Y-134638095D01*
X138284761Y-134590476D01*
X138332380Y-134495238D01*
X138332380Y-134304761D01*
X138284761Y-134209523D01*
X138237142Y-134161904D01*
X138141904Y-134114285D01*
X137903809Y-134114285D01*
X137808571Y-134161904D01*
X137760952Y-134209523D01*
X137713333Y-134304761D01*
X137713333Y-134495238D01*
X137760952Y-134590476D01*
X137808571Y-134638095D01*
X137903809Y-134685714D01*
%TO.C,R7*%
X134776380Y-135040666D02*
X134300190Y-135374000D01*
X134776380Y-135612095D02*
X133776380Y-135612095D01*
X133776380Y-135231142D01*
X133824000Y-135135904D01*
X133871619Y-135088285D01*
X133966857Y-135040666D01*
X134109714Y-135040666D01*
X134204952Y-135088285D01*
X134252571Y-135135904D01*
X134300190Y-135231142D01*
X134300190Y-135612095D01*
X133776380Y-134707333D02*
X133776380Y-134040666D01*
X134776380Y-134469238D01*
%TO.C,R8*%
X162779880Y-112688666D02*
X162303690Y-113022000D01*
X162779880Y-113260095D02*
X161779880Y-113260095D01*
X161779880Y-112879142D01*
X161827500Y-112783904D01*
X161875119Y-112736285D01*
X161970357Y-112688666D01*
X162113214Y-112688666D01*
X162208452Y-112736285D01*
X162256071Y-112783904D01*
X162303690Y-112879142D01*
X162303690Y-113260095D01*
X162208452Y-112117238D02*
X162160833Y-112212476D01*
X162113214Y-112260095D01*
X162017976Y-112307714D01*
X161970357Y-112307714D01*
X161875119Y-112260095D01*
X161827500Y-112212476D01*
X161779880Y-112117238D01*
X161779880Y-111926761D01*
X161827500Y-111831523D01*
X161875119Y-111783904D01*
X161970357Y-111736285D01*
X162017976Y-111736285D01*
X162113214Y-111783904D01*
X162160833Y-111831523D01*
X162208452Y-111926761D01*
X162208452Y-112117238D01*
X162256071Y-112212476D01*
X162303690Y-112260095D01*
X162398928Y-112307714D01*
X162589404Y-112307714D01*
X162684642Y-112260095D01*
X162732261Y-112212476D01*
X162779880Y-112117238D01*
X162779880Y-111926761D01*
X162732261Y-111831523D01*
X162684642Y-111783904D01*
X162589404Y-111736285D01*
X162398928Y-111736285D01*
X162303690Y-111783904D01*
X162256071Y-111831523D01*
X162208452Y-111926761D01*
%TO.C,R9*%
X153826380Y-91580666D02*
X153350190Y-91914000D01*
X153826380Y-92152095D02*
X152826380Y-92152095D01*
X152826380Y-91771142D01*
X152874000Y-91675904D01*
X152921619Y-91628285D01*
X153016857Y-91580666D01*
X153159714Y-91580666D01*
X153254952Y-91628285D01*
X153302571Y-91675904D01*
X153350190Y-91771142D01*
X153350190Y-92152095D01*
X153826380Y-91104476D02*
X153826380Y-90914000D01*
X153778761Y-90818761D01*
X153731142Y-90771142D01*
X153588285Y-90675904D01*
X153397809Y-90628285D01*
X153016857Y-90628285D01*
X152921619Y-90675904D01*
X152874000Y-90723523D01*
X152826380Y-90818761D01*
X152826380Y-91009238D01*
X152874000Y-91104476D01*
X152921619Y-91152095D01*
X153016857Y-91199714D01*
X153254952Y-91199714D01*
X153350190Y-91152095D01*
X153397809Y-91104476D01*
X153445428Y-91009238D01*
X153445428Y-90818761D01*
X153397809Y-90723523D01*
X153350190Y-90675904D01*
X153254952Y-90628285D01*
%TO.C,R10*%
X151921380Y-113190857D02*
X151445190Y-113524190D01*
X151921380Y-113762285D02*
X150921380Y-113762285D01*
X150921380Y-113381333D01*
X150969000Y-113286095D01*
X151016619Y-113238476D01*
X151111857Y-113190857D01*
X151254714Y-113190857D01*
X151349952Y-113238476D01*
X151397571Y-113286095D01*
X151445190Y-113381333D01*
X151445190Y-113762285D01*
X151921380Y-112238476D02*
X151921380Y-112809904D01*
X151921380Y-112524190D02*
X150921380Y-112524190D01*
X151064238Y-112619428D01*
X151159476Y-112714666D01*
X151207095Y-112809904D01*
X150921380Y-111619428D02*
X150921380Y-111524190D01*
X150969000Y-111428952D01*
X151016619Y-111381333D01*
X151111857Y-111333714D01*
X151302333Y-111286095D01*
X151540428Y-111286095D01*
X151730904Y-111333714D01*
X151826142Y-111381333D01*
X151873761Y-111428952D01*
X151921380Y-111524190D01*
X151921380Y-111619428D01*
X151873761Y-111714666D01*
X151826142Y-111762285D01*
X151730904Y-111809904D01*
X151540428Y-111857523D01*
X151302333Y-111857523D01*
X151111857Y-111809904D01*
X151016619Y-111762285D01*
X150969000Y-111714666D01*
X150921380Y-111619428D01*
%TO.C,R11*%
X161827380Y-135617857D02*
X161351190Y-135951190D01*
X161827380Y-136189285D02*
X160827380Y-136189285D01*
X160827380Y-135808333D01*
X160875000Y-135713095D01*
X160922619Y-135665476D01*
X161017857Y-135617857D01*
X161160714Y-135617857D01*
X161255952Y-135665476D01*
X161303571Y-135713095D01*
X161351190Y-135808333D01*
X161351190Y-136189285D01*
X161827380Y-134665476D02*
X161827380Y-135236904D01*
X161827380Y-134951190D02*
X160827380Y-134951190D01*
X160970238Y-135046428D01*
X161065476Y-135141666D01*
X161113095Y-135236904D01*
X161827380Y-133713095D02*
X161827380Y-134284523D01*
X161827380Y-133998809D02*
X160827380Y-133998809D01*
X160970238Y-134094047D01*
X161065476Y-134189285D01*
X161113095Y-134284523D01*
%TO.C,R12*%
X158017380Y-135617857D02*
X157541190Y-135951190D01*
X158017380Y-136189285D02*
X157017380Y-136189285D01*
X157017380Y-135808333D01*
X157065000Y-135713095D01*
X157112619Y-135665476D01*
X157207857Y-135617857D01*
X157350714Y-135617857D01*
X157445952Y-135665476D01*
X157493571Y-135713095D01*
X157541190Y-135808333D01*
X157541190Y-136189285D01*
X158017380Y-134665476D02*
X158017380Y-135236904D01*
X158017380Y-134951190D02*
X157017380Y-134951190D01*
X157160238Y-135046428D01*
X157255476Y-135141666D01*
X157303095Y-135236904D01*
X157112619Y-134284523D02*
X157065000Y-134236904D01*
X157017380Y-134141666D01*
X157017380Y-133903571D01*
X157065000Y-133808333D01*
X157112619Y-133760714D01*
X157207857Y-133713095D01*
X157303095Y-133713095D01*
X157445952Y-133760714D01*
X158017380Y-134332142D01*
X158017380Y-133713095D01*
%TO.C,R13*%
X145190380Y-135542857D02*
X144714190Y-135876190D01*
X145190380Y-136114285D02*
X144190380Y-136114285D01*
X144190380Y-135733333D01*
X144238000Y-135638095D01*
X144285619Y-135590476D01*
X144380857Y-135542857D01*
X144523714Y-135542857D01*
X144618952Y-135590476D01*
X144666571Y-135638095D01*
X144714190Y-135733333D01*
X144714190Y-136114285D01*
X145190380Y-134590476D02*
X145190380Y-135161904D01*
X145190380Y-134876190D02*
X144190380Y-134876190D01*
X144333238Y-134971428D01*
X144428476Y-135066666D01*
X144476095Y-135161904D01*
X144190380Y-134257142D02*
X144190380Y-133638095D01*
X144571333Y-133971428D01*
X144571333Y-133828571D01*
X144618952Y-133733333D01*
X144666571Y-133685714D01*
X144761809Y-133638095D01*
X144999904Y-133638095D01*
X145095142Y-133685714D01*
X145142761Y-133733333D01*
X145190380Y-133828571D01*
X145190380Y-134114285D01*
X145142761Y-134209523D01*
X145095142Y-134257142D01*
%TO.C,R14*%
X170293380Y-113190857D02*
X169817190Y-113524190D01*
X170293380Y-113762285D02*
X169293380Y-113762285D01*
X169293380Y-113381333D01*
X169341000Y-113286095D01*
X169388619Y-113238476D01*
X169483857Y-113190857D01*
X169626714Y-113190857D01*
X169721952Y-113238476D01*
X169769571Y-113286095D01*
X169817190Y-113381333D01*
X169817190Y-113762285D01*
X170293380Y-112238476D02*
X170293380Y-112809904D01*
X170293380Y-112524190D02*
X169293380Y-112524190D01*
X169436238Y-112619428D01*
X169531476Y-112714666D01*
X169579095Y-112809904D01*
X169626714Y-111381333D02*
X170293380Y-111381333D01*
X169245761Y-111619428D02*
X169960047Y-111857523D01*
X169960047Y-111238476D01*
%TO.C,R15*%
X165002380Y-135617857D02*
X164526190Y-135951190D01*
X165002380Y-136189285D02*
X164002380Y-136189285D01*
X164002380Y-135808333D01*
X164050000Y-135713095D01*
X164097619Y-135665476D01*
X164192857Y-135617857D01*
X164335714Y-135617857D01*
X164430952Y-135665476D01*
X164478571Y-135713095D01*
X164526190Y-135808333D01*
X164526190Y-136189285D01*
X165002380Y-134665476D02*
X165002380Y-135236904D01*
X165002380Y-134951190D02*
X164002380Y-134951190D01*
X164145238Y-135046428D01*
X164240476Y-135141666D01*
X164288095Y-135236904D01*
X164002380Y-133760714D02*
X164002380Y-134236904D01*
X164478571Y-134284523D01*
X164430952Y-134236904D01*
X164383333Y-134141666D01*
X164383333Y-133903571D01*
X164430952Y-133808333D01*
X164478571Y-133760714D01*
X164573809Y-133713095D01*
X164811904Y-133713095D01*
X164907142Y-133760714D01*
X164954761Y-133808333D01*
X165002380Y-133903571D01*
X165002380Y-134141666D01*
X164954761Y-134236904D01*
X164907142Y-134284523D01*
%TO.C,R18*%
X157853142Y-115302380D02*
X157519809Y-114826190D01*
X157281714Y-115302380D02*
X157281714Y-114302380D01*
X157662666Y-114302380D01*
X157757904Y-114350000D01*
X157805523Y-114397619D01*
X157853142Y-114492857D01*
X157853142Y-114635714D01*
X157805523Y-114730952D01*
X157757904Y-114778571D01*
X157662666Y-114826190D01*
X157281714Y-114826190D01*
X158805523Y-115302380D02*
X158234095Y-115302380D01*
X158519809Y-115302380D02*
X158519809Y-114302380D01*
X158424571Y-114445238D01*
X158329333Y-114540476D01*
X158234095Y-114588095D01*
X159376952Y-114730952D02*
X159281714Y-114683333D01*
X159234095Y-114635714D01*
X159186476Y-114540476D01*
X159186476Y-114492857D01*
X159234095Y-114397619D01*
X159281714Y-114350000D01*
X159376952Y-114302380D01*
X159567428Y-114302380D01*
X159662666Y-114350000D01*
X159710285Y-114397619D01*
X159757904Y-114492857D01*
X159757904Y-114540476D01*
X159710285Y-114635714D01*
X159662666Y-114683333D01*
X159567428Y-114730952D01*
X159376952Y-114730952D01*
X159281714Y-114778571D01*
X159234095Y-114826190D01*
X159186476Y-114921428D01*
X159186476Y-115111904D01*
X159234095Y-115207142D01*
X159281714Y-115254761D01*
X159376952Y-115302380D01*
X159567428Y-115302380D01*
X159662666Y-115254761D01*
X159710285Y-115207142D01*
X159757904Y-115111904D01*
X159757904Y-114921428D01*
X159710285Y-114826190D01*
X159662666Y-114778571D01*
X159567428Y-114730952D01*
%TO.C,R21*%
X147560380Y-113164857D02*
X147084190Y-113498190D01*
X147560380Y-113736285D02*
X146560380Y-113736285D01*
X146560380Y-113355333D01*
X146608000Y-113260095D01*
X146655619Y-113212476D01*
X146750857Y-113164857D01*
X146893714Y-113164857D01*
X146988952Y-113212476D01*
X147036571Y-113260095D01*
X147084190Y-113355333D01*
X147084190Y-113736285D01*
X146655619Y-112783904D02*
X146608000Y-112736285D01*
X146560380Y-112641047D01*
X146560380Y-112402952D01*
X146608000Y-112307714D01*
X146655619Y-112260095D01*
X146750857Y-112212476D01*
X146846095Y-112212476D01*
X146988952Y-112260095D01*
X147560380Y-112831523D01*
X147560380Y-112212476D01*
X147560380Y-111260095D02*
X147560380Y-111831523D01*
X147560380Y-111545809D02*
X146560380Y-111545809D01*
X146703238Y-111641047D01*
X146798476Y-111736285D01*
X146846095Y-111831523D01*
%TO.C,U1*%
X176588380Y-112521904D02*
X177397904Y-112521904D01*
X177493142Y-112474285D01*
X177540761Y-112426666D01*
X177588380Y-112331428D01*
X177588380Y-112140952D01*
X177540761Y-112045714D01*
X177493142Y-111998095D01*
X177397904Y-111950476D01*
X176588380Y-111950476D01*
X177588380Y-110950476D02*
X177588380Y-111521904D01*
X177588380Y-111236190D02*
X176588380Y-111236190D01*
X176731238Y-111331428D01*
X176826476Y-111426666D01*
X176874095Y-111521904D01*
%TO.C,U2*%
X135044380Y-123443904D02*
X135853904Y-123443904D01*
X135949142Y-123396285D01*
X135996761Y-123348666D01*
X136044380Y-123253428D01*
X136044380Y-123062952D01*
X135996761Y-122967714D01*
X135949142Y-122920095D01*
X135853904Y-122872476D01*
X135044380Y-122872476D01*
X135139619Y-122443904D02*
X135092000Y-122396285D01*
X135044380Y-122301047D01*
X135044380Y-122062952D01*
X135092000Y-121967714D01*
X135139619Y-121920095D01*
X135234857Y-121872476D01*
X135330095Y-121872476D01*
X135472952Y-121920095D01*
X136044380Y-122491523D01*
X136044380Y-121872476D01*
%TO.C,U3*%
X145536880Y-144635904D02*
X146346404Y-144635904D01*
X146441642Y-144588285D01*
X146489261Y-144540666D01*
X146536880Y-144445428D01*
X146536880Y-144254952D01*
X146489261Y-144159714D01*
X146441642Y-144112095D01*
X146346404Y-144064476D01*
X145536880Y-144064476D01*
X145536880Y-143683523D02*
X145536880Y-143064476D01*
X145917833Y-143397809D01*
X145917833Y-143254952D01*
X145965452Y-143159714D01*
X146013071Y-143112095D01*
X146108309Y-143064476D01*
X146346404Y-143064476D01*
X146441642Y-143112095D01*
X146489261Y-143159714D01*
X146536880Y-143254952D01*
X146536880Y-143540666D01*
X146489261Y-143635904D01*
X146441642Y-143683523D01*
%TO.C,U4*%
X157878095Y-143372380D02*
X157878095Y-144181904D01*
X157925714Y-144277142D01*
X157973333Y-144324761D01*
X158068571Y-144372380D01*
X158259047Y-144372380D01*
X158354285Y-144324761D01*
X158401904Y-144277142D01*
X158449523Y-144181904D01*
X158449523Y-143372380D01*
X159354285Y-143705714D02*
X159354285Y-144372380D01*
X159116190Y-143324761D02*
X158878095Y-144039047D01*
X159497142Y-144039047D01*
%TO.C,U7*%
X134790380Y-102869904D02*
X135599904Y-102869904D01*
X135695142Y-102822285D01*
X135742761Y-102774666D01*
X135790380Y-102679428D01*
X135790380Y-102488952D01*
X135742761Y-102393714D01*
X135695142Y-102346095D01*
X135599904Y-102298476D01*
X134790380Y-102298476D01*
X134790380Y-101917523D02*
X134790380Y-101250857D01*
X135790380Y-101679428D01*
%TO.C,LPC1*%
D14*
X192857380Y-91971666D02*
X192857380Y-92447857D01*
X191857380Y-92447857D01*
X192857380Y-91638333D02*
X191857380Y-91638333D01*
X191857380Y-91257380D01*
X191905000Y-91162142D01*
X191952619Y-91114523D01*
X192047857Y-91066904D01*
X192190714Y-91066904D01*
X192285952Y-91114523D01*
X192333571Y-91162142D01*
X192381190Y-91257380D01*
X192381190Y-91638333D01*
X192762142Y-90066904D02*
X192809761Y-90114523D01*
X192857380Y-90257380D01*
X192857380Y-90352619D01*
X192809761Y-90495476D01*
X192714523Y-90590714D01*
X192619285Y-90638333D01*
X192428809Y-90685952D01*
X192285952Y-90685952D01*
X192095476Y-90638333D01*
X192000238Y-90590714D01*
X191905000Y-90495476D01*
X191857380Y-90352619D01*
X191857380Y-90257380D01*
X191905000Y-90114523D01*
X191952619Y-90066904D01*
X192857380Y-89114523D02*
X192857380Y-89685952D01*
X192857380Y-89400238D02*
X191857380Y-89400238D01*
X192000238Y-89495476D01*
X192095476Y-89590714D01*
X192143095Y-89685952D01*
%TO.C,R22*%
D13*
X149000380Y-92056857D02*
X148524190Y-92390190D01*
X149000380Y-92628285D02*
X148000380Y-92628285D01*
X148000380Y-92247333D01*
X148048000Y-92152095D01*
X148095619Y-92104476D01*
X148190857Y-92056857D01*
X148333714Y-92056857D01*
X148428952Y-92104476D01*
X148476571Y-92152095D01*
X148524190Y-92247333D01*
X148524190Y-92628285D01*
X148095619Y-91675904D02*
X148048000Y-91628285D01*
X148000380Y-91533047D01*
X148000380Y-91294952D01*
X148048000Y-91199714D01*
X148095619Y-91152095D01*
X148190857Y-91104476D01*
X148286095Y-91104476D01*
X148428952Y-91152095D01*
X149000380Y-91723523D01*
X149000380Y-91104476D01*
X148095619Y-90723523D02*
X148048000Y-90675904D01*
X148000380Y-90580666D01*
X148000380Y-90342571D01*
X148048000Y-90247333D01*
X148095619Y-90199714D01*
X148190857Y-90152095D01*
X148286095Y-90152095D01*
X148428952Y-90199714D01*
X149000380Y-90771142D01*
X149000380Y-90152095D01*
%TO.C,R23*%
X157858822Y-108350220D02*
X157525489Y-107874030D01*
X157287394Y-108350220D02*
X157287394Y-107350220D01*
X157668346Y-107350220D01*
X157763584Y-107397840D01*
X157811203Y-107445459D01*
X157858822Y-107540697D01*
X157858822Y-107683554D01*
X157811203Y-107778792D01*
X157763584Y-107826411D01*
X157668346Y-107874030D01*
X157287394Y-107874030D01*
X158239775Y-107445459D02*
X158287394Y-107397840D01*
X158382632Y-107350220D01*
X158620727Y-107350220D01*
X158715965Y-107397840D01*
X158763584Y-107445459D01*
X158811203Y-107540697D01*
X158811203Y-107635935D01*
X158763584Y-107778792D01*
X158192156Y-108350220D01*
X158811203Y-108350220D01*
X159144537Y-107350220D02*
X159763584Y-107350220D01*
X159430251Y-107731173D01*
X159573108Y-107731173D01*
X159668346Y-107778792D01*
X159715965Y-107826411D01*
X159763584Y-107921649D01*
X159763584Y-108159744D01*
X159715965Y-108254982D01*
X159668346Y-108302601D01*
X159573108Y-108350220D01*
X159287394Y-108350220D01*
X159192156Y-108302601D01*
X159144537Y-108254982D01*
%TO.C,U5*%
X172597380Y-123316904D02*
X173406904Y-123316904D01*
X173502142Y-123269285D01*
X173549761Y-123221666D01*
X173597380Y-123126428D01*
X173597380Y-122935952D01*
X173549761Y-122840714D01*
X173502142Y-122793095D01*
X173406904Y-122745476D01*
X172597380Y-122745476D01*
X172597380Y-121793095D02*
X172597380Y-122269285D01*
X173073571Y-122316904D01*
X173025952Y-122269285D01*
X172978333Y-122174047D01*
X172978333Y-121935952D01*
X173025952Y-121840714D01*
X173073571Y-121793095D01*
X173168809Y-121745476D01*
X173406904Y-121745476D01*
X173502142Y-121793095D01*
X173549761Y-121840714D01*
X173597380Y-121935952D01*
X173597380Y-122174047D01*
X173549761Y-122269285D01*
X173502142Y-122316904D01*
%TO.C,J4*%
X148955166Y-118089880D02*
X148955166Y-118804166D01*
X148907547Y-118947023D01*
X148812309Y-119042261D01*
X148669452Y-119089880D01*
X148574214Y-119089880D01*
X149859928Y-118423214D02*
X149859928Y-119089880D01*
X149621833Y-118042261D02*
X149383738Y-118756547D01*
X150002785Y-118756547D01*
%TO.C,J5*%
X148955166Y-109072880D02*
X148955166Y-109787166D01*
X148907547Y-109930023D01*
X148812309Y-110025261D01*
X148669452Y-110072880D01*
X148574214Y-110072880D01*
X149907547Y-109072880D02*
X149431357Y-109072880D01*
X149383738Y-109549071D01*
X149431357Y-109501452D01*
X149526595Y-109453833D01*
X149764690Y-109453833D01*
X149859928Y-109501452D01*
X149907547Y-109549071D01*
X149955166Y-109644309D01*
X149955166Y-109882404D01*
X149907547Y-109977642D01*
X149859928Y-110025261D01*
X149764690Y-110072880D01*
X149526595Y-110072880D01*
X149431357Y-110025261D01*
X149383738Y-109977642D01*
%TO.C,J6*%
X148955166Y-127170380D02*
X148955166Y-127884666D01*
X148907547Y-128027523D01*
X148812309Y-128122761D01*
X148669452Y-128170380D01*
X148574214Y-128170380D01*
X149859928Y-127170380D02*
X149669452Y-127170380D01*
X149574214Y-127218000D01*
X149526595Y-127265619D01*
X149431357Y-127408476D01*
X149383738Y-127598952D01*
X149383738Y-127979904D01*
X149431357Y-128075142D01*
X149478976Y-128122761D01*
X149574214Y-128170380D01*
X149764690Y-128170380D01*
X149859928Y-128122761D01*
X149907547Y-128075142D01*
X149955166Y-127979904D01*
X149955166Y-127741809D01*
X149907547Y-127646571D01*
X149859928Y-127598952D01*
X149764690Y-127551333D01*
X149574214Y-127551333D01*
X149478976Y-127598952D01*
X149431357Y-127646571D01*
X149383738Y-127741809D01*
%TO.C,J7*%
X157019666Y-78109380D02*
X157019666Y-78823666D01*
X156972047Y-78966523D01*
X156876809Y-79061761D01*
X156733952Y-79109380D01*
X156638714Y-79109380D01*
X157400619Y-78109380D02*
X158067285Y-78109380D01*
X157638714Y-79109380D01*
%TO.C,J8*%
X161210666Y-107446380D02*
X161210666Y-108160666D01*
X161163047Y-108303523D01*
X161067809Y-108398761D01*
X160924952Y-108446380D01*
X160829714Y-108446380D01*
X161829714Y-107874952D02*
X161734476Y-107827333D01*
X161686857Y-107779714D01*
X161639238Y-107684476D01*
X161639238Y-107636857D01*
X161686857Y-107541619D01*
X161734476Y-107494000D01*
X161829714Y-107446380D01*
X162020190Y-107446380D01*
X162115428Y-107494000D01*
X162163047Y-107541619D01*
X162210666Y-107636857D01*
X162210666Y-107684476D01*
X162163047Y-107779714D01*
X162115428Y-107827333D01*
X162020190Y-107874952D01*
X161829714Y-107874952D01*
X161734476Y-107922571D01*
X161686857Y-107970190D01*
X161639238Y-108065428D01*
X161639238Y-108255904D01*
X161686857Y-108351142D01*
X161734476Y-108398761D01*
X161829714Y-108446380D01*
X162020190Y-108446380D01*
X162115428Y-108398761D01*
X162163047Y-108351142D01*
X162210666Y-108255904D01*
X162210666Y-108065428D01*
X162163047Y-107970190D01*
X162115428Y-107922571D01*
X162020190Y-107874952D01*
%TO.C,J9*%
X125206166Y-55542380D02*
X125206166Y-56256666D01*
X125158547Y-56399523D01*
X125063309Y-56494761D01*
X124920452Y-56542380D01*
X124825214Y-56542380D01*
X125729976Y-56542380D02*
X125920452Y-56542380D01*
X126015690Y-56494761D01*
X126063309Y-56447142D01*
X126158547Y-56304285D01*
X126206166Y-56113809D01*
X126206166Y-55732857D01*
X126158547Y-55637619D01*
X126110928Y-55590000D01*
X126015690Y-55542380D01*
X125825214Y-55542380D01*
X125729976Y-55590000D01*
X125682357Y-55637619D01*
X125634738Y-55732857D01*
X125634738Y-55970952D01*
X125682357Y-56066190D01*
X125729976Y-56113809D01*
X125825214Y-56161428D01*
X126015690Y-56161428D01*
X126110928Y-56113809D01*
X126158547Y-56066190D01*
X126206166Y-55970952D01*
%TO.C,J10*%
X152415976Y-73385880D02*
X152415976Y-74100166D01*
X152368357Y-74243023D01*
X152273119Y-74338261D01*
X152130261Y-74385880D01*
X152035023Y-74385880D01*
X153415976Y-74385880D02*
X152844547Y-74385880D01*
X153130261Y-74385880D02*
X153130261Y-73385880D01*
X153035023Y-73528738D01*
X152939785Y-73623976D01*
X152844547Y-73671595D01*
X154035023Y-73385880D02*
X154130261Y-73385880D01*
X154225500Y-73433500D01*
X154273119Y-73481119D01*
X154320738Y-73576357D01*
X154368357Y-73766833D01*
X154368357Y-74004928D01*
X154320738Y-74195404D01*
X154273119Y-74290642D01*
X154225500Y-74338261D01*
X154130261Y-74385880D01*
X154035023Y-74385880D01*
X153939785Y-74338261D01*
X153892166Y-74290642D01*
X153844547Y-74195404D01*
X153796928Y-74004928D01*
X153796928Y-73766833D01*
X153844547Y-73576357D01*
X153892166Y-73481119D01*
X153939785Y-73433500D01*
X154035023Y-73385880D01*
%TO.C,J11*%
X156670476Y-102786380D02*
X156670476Y-103500666D01*
X156622857Y-103643523D01*
X156527619Y-103738761D01*
X156384761Y-103786380D01*
X156289523Y-103786380D01*
X157670476Y-103786380D02*
X157099047Y-103786380D01*
X157384761Y-103786380D02*
X157384761Y-102786380D01*
X157289523Y-102929238D01*
X157194285Y-103024476D01*
X157099047Y-103072095D01*
X158622857Y-103786380D02*
X158051428Y-103786380D01*
X158337142Y-103786380D02*
X158337142Y-102786380D01*
X158241904Y-102929238D01*
X158146666Y-103024476D01*
X158051428Y-103072095D01*
%TO.C,J12*%
X148478976Y-137838380D02*
X148478976Y-138552666D01*
X148431357Y-138695523D01*
X148336119Y-138790761D01*
X148193261Y-138838380D01*
X148098023Y-138838380D01*
X149478976Y-138838380D02*
X148907547Y-138838380D01*
X149193261Y-138838380D02*
X149193261Y-137838380D01*
X149098023Y-137981238D01*
X149002785Y-138076476D01*
X148907547Y-138124095D01*
X149859928Y-137933619D02*
X149907547Y-137886000D01*
X150002785Y-137838380D01*
X150240880Y-137838380D01*
X150336119Y-137886000D01*
X150383738Y-137933619D01*
X150431357Y-138028857D01*
X150431357Y-138124095D01*
X150383738Y-138266952D01*
X149812309Y-138838380D01*
X150431357Y-138838380D01*
%TO.C,J13*%
X129111476Y-55542380D02*
X129111476Y-56256666D01*
X129063857Y-56399523D01*
X128968619Y-56494761D01*
X128825761Y-56542380D01*
X128730523Y-56542380D01*
X130111476Y-56542380D02*
X129540047Y-56542380D01*
X129825761Y-56542380D02*
X129825761Y-55542380D01*
X129730523Y-55685238D01*
X129635285Y-55780476D01*
X129540047Y-55828095D01*
X130444809Y-55542380D02*
X131063857Y-55542380D01*
X130730523Y-55923333D01*
X130873380Y-55923333D01*
X130968619Y-55970952D01*
X131016238Y-56018571D01*
X131063857Y-56113809D01*
X131063857Y-56351904D01*
X131016238Y-56447142D01*
X130968619Y-56494761D01*
X130873380Y-56542380D01*
X130587666Y-56542380D01*
X130492428Y-56494761D01*
X130444809Y-56447142D01*
%TO.C,J1*%
X175625166Y-156297380D02*
X175625166Y-157011666D01*
X175577547Y-157154523D01*
X175482309Y-157249761D01*
X175339452Y-157297380D01*
X175244214Y-157297380D01*
X176625166Y-157297380D02*
X176053738Y-157297380D01*
X176339452Y-157297380D02*
X176339452Y-156297380D01*
X176244214Y-156440238D01*
X176148976Y-156535476D01*
X176053738Y-156583095D01*
%TO.C,TR1*%
X122245595Y-119955380D02*
X122817023Y-119955380D01*
X122531309Y-120955380D02*
X122531309Y-119955380D01*
X123721785Y-120955380D02*
X123388452Y-120479190D01*
X123150357Y-120955380D02*
X123150357Y-119955380D01*
X123531309Y-119955380D01*
X123626547Y-120003000D01*
X123674166Y-120050619D01*
X123721785Y-120145857D01*
X123721785Y-120288714D01*
X123674166Y-120383952D01*
X123626547Y-120431571D01*
X123531309Y-120479190D01*
X123150357Y-120479190D01*
X124674166Y-120955380D02*
X124102738Y-120955380D01*
X124388452Y-120955380D02*
X124388452Y-119955380D01*
X124293214Y-120098238D01*
X124197976Y-120193476D01*
X124102738Y-120241095D01*
%TD*%
M02*
