%TF.GenerationSoftware,KiCad,Pcbnew,(5.1.10)-1*%
%TF.CreationDate,2022-11-12T22:12:05-03:00*%
%TF.ProjectId,potenciostato,706f7465-6e63-4696-9f73-7461746f2e6b,rev?*%
%TF.SameCoordinates,Original*%
%TF.FileFunction,Soldermask,Top*%
%TF.FilePolarity,Negative*%
%FSLAX46Y46*%
G04 Gerber Fmt 4.6, Leading zero omitted, Abs format (unit mm)*
G04 Created by KiCad (PCBNEW (5.1.10)-1) date 2022-11-12 22:12:05*
%MOMM*%
%LPD*%
G01*
G04 APERTURE LIST*
%ADD10C,1.610000*%
%ADD11O,2.007000X2.102000*%
%ADD12C,1.702000*%
%ADD13O,1.702000X2.502000*%
%ADD14C,1.542000*%
%ADD15O,1.902000X3.702000*%
%ADD16O,1.802000X1.802000*%
%ADD17C,1.502000*%
%ADD18C,4.102000*%
%ADD19C,1.352000*%
%ADD20O,2.102000X1.302000*%
%ADD21O,3.602000X7.102000*%
%ADD22O,1.702000X2.602000*%
%ADD23C,0.100000*%
G04 APERTURE END LIST*
D10*
%TO.C,LPC1*%
X188595000Y-86995000D03*
X188595000Y-89535000D03*
X188595000Y-92075000D03*
X188595000Y-94615000D03*
X188595000Y-97155000D03*
X188595000Y-99695000D03*
X188595000Y-102235000D03*
X188595000Y-104775000D03*
X188595000Y-107315000D03*
X188595000Y-109855000D03*
X188595000Y-112395000D03*
X188595000Y-114935000D03*
X188595000Y-117475000D03*
X188595000Y-120015000D03*
X188595000Y-122555000D03*
X188595000Y-125095000D03*
X188595000Y-127635000D03*
X188595000Y-130175000D03*
X188595000Y-132715000D03*
X188595000Y-135255000D03*
X188595000Y-137795000D03*
X188595000Y-140335000D03*
X188595000Y-142875000D03*
X188595000Y-145415000D03*
X188595000Y-147955000D03*
X188595000Y-150495000D03*
X188595000Y-153035000D03*
X211455000Y-86995000D03*
X211455000Y-89535000D03*
X211455000Y-92075000D03*
X211455000Y-94615000D03*
X211455000Y-97155000D03*
X211455000Y-99695000D03*
X211455000Y-102235000D03*
X211455000Y-104775000D03*
X211455000Y-107315000D03*
X211455000Y-109855000D03*
X211455000Y-112395000D03*
X211455000Y-114935000D03*
X211455000Y-117475000D03*
X211455000Y-120015000D03*
X211455000Y-122555000D03*
X211455000Y-125095000D03*
X211455000Y-127635000D03*
X211455000Y-130175000D03*
X211455000Y-132715000D03*
X211455000Y-135255000D03*
X211455000Y-137795000D03*
X211455000Y-140335000D03*
X211455000Y-142875000D03*
X211455000Y-145415000D03*
X211455000Y-147955000D03*
X211455000Y-150495000D03*
X211455000Y-153035000D03*
%TD*%
%TO.C,R20*%
G36*
G01*
X122870000Y-124608386D02*
X122870000Y-123295614D01*
G75*
G02*
X123139614Y-123026000I269614J0D01*
G01*
X124002386Y-123026000D01*
G75*
G02*
X124272000Y-123295614I0J-269614D01*
G01*
X124272000Y-124608386D01*
G75*
G02*
X124002386Y-124878000I-269614J0D01*
G01*
X123139614Y-124878000D01*
G75*
G02*
X122870000Y-124608386I0J269614D01*
G01*
G37*
G36*
G01*
X119770000Y-124608386D02*
X119770000Y-123295614D01*
G75*
G02*
X120039614Y-123026000I269614J0D01*
G01*
X120902386Y-123026000D01*
G75*
G02*
X121172000Y-123295614I0J-269614D01*
G01*
X121172000Y-124608386D01*
G75*
G02*
X120902386Y-124878000I-269614J0D01*
G01*
X120039614Y-124878000D01*
G75*
G02*
X119770000Y-124608386I0J269614D01*
G01*
G37*
%TD*%
D11*
%TO.C,U8*%
X178879500Y-66611500D03*
X176339500Y-66611500D03*
G36*
G01*
X172796000Y-67611500D02*
X172796000Y-65611500D01*
G75*
G02*
X172847000Y-65560500I51000J0D01*
G01*
X174752000Y-65560500D01*
G75*
G02*
X174803000Y-65611500I0J-51000D01*
G01*
X174803000Y-67611500D01*
G75*
G02*
X174752000Y-67662500I-51000J0D01*
G01*
X172847000Y-67662500D01*
G75*
G02*
X172796000Y-67611500I0J51000D01*
G01*
G37*
%TD*%
%TO.C,C6*%
G36*
G01*
X179381000Y-72669500D02*
X179381000Y-74269500D01*
G75*
G02*
X179330000Y-74320500I-51000J0D01*
G01*
X177730000Y-74320500D01*
G75*
G02*
X177679000Y-74269500I0J51000D01*
G01*
X177679000Y-72669500D01*
G75*
G02*
X177730000Y-72618500I51000J0D01*
G01*
X179330000Y-72618500D01*
G75*
G02*
X179381000Y-72669500I0J-51000D01*
G01*
G37*
D12*
X176530000Y-73469500D03*
%TD*%
%TO.C,C1*%
X153479500Y-68611500D03*
G36*
G01*
X152679500Y-65760500D02*
X154279500Y-65760500D01*
G75*
G02*
X154330500Y-65811500I0J-51000D01*
G01*
X154330500Y-67411500D01*
G75*
G02*
X154279500Y-67462500I-51000J0D01*
G01*
X152679500Y-67462500D01*
G75*
G02*
X152628500Y-67411500I0J51000D01*
G01*
X152628500Y-65811500D01*
G75*
G02*
X152679500Y-65760500I51000J0D01*
G01*
G37*
%TD*%
%TO.C,C2*%
G36*
G01*
X152679500Y-59410500D02*
X154279500Y-59410500D01*
G75*
G02*
X154330500Y-59461500I0J-51000D01*
G01*
X154330500Y-61061500D01*
G75*
G02*
X154279500Y-61112500I-51000J0D01*
G01*
X152679500Y-61112500D01*
G75*
G02*
X152628500Y-61061500I0J51000D01*
G01*
X152628500Y-59461500D01*
G75*
G02*
X152679500Y-59410500I51000J0D01*
G01*
G37*
X153479500Y-62261500D03*
%TD*%
%TO.C,C5*%
X162655500Y-73469500D03*
G36*
G01*
X165506500Y-72669500D02*
X165506500Y-74269500D01*
G75*
G02*
X165455500Y-74320500I-51000J0D01*
G01*
X163855500Y-74320500D01*
G75*
G02*
X163804500Y-74269500I0J51000D01*
G01*
X163804500Y-72669500D01*
G75*
G02*
X163855500Y-72618500I51000J0D01*
G01*
X165455500Y-72618500D01*
G75*
G02*
X165506500Y-72669500I0J-51000D01*
G01*
G37*
%TD*%
%TO.C,R16*%
G36*
G01*
X126045000Y-124608386D02*
X126045000Y-123295614D01*
G75*
G02*
X126314614Y-123026000I269614J0D01*
G01*
X127177386Y-123026000D01*
G75*
G02*
X127447000Y-123295614I0J-269614D01*
G01*
X127447000Y-124608386D01*
G75*
G02*
X127177386Y-124878000I-269614J0D01*
G01*
X126314614Y-124878000D01*
G75*
G02*
X126045000Y-124608386I0J269614D01*
G01*
G37*
G36*
G01*
X129145000Y-124608386D02*
X129145000Y-123295614D01*
G75*
G02*
X129414614Y-123026000I269614J0D01*
G01*
X130277386Y-123026000D01*
G75*
G02*
X130547000Y-123295614I0J-269614D01*
G01*
X130547000Y-124608386D01*
G75*
G02*
X130277386Y-124878000I-269614J0D01*
G01*
X129414614Y-124878000D01*
G75*
G02*
X129145000Y-124608386I0J269614D01*
G01*
G37*
%TD*%
D13*
%TO.C,U9*%
X120650000Y-128524000D03*
X128270000Y-136144000D03*
X123190000Y-128524000D03*
X125730000Y-136144000D03*
X125730000Y-128524000D03*
X123190000Y-136144000D03*
X128270000Y-128524000D03*
G36*
G01*
X121450000Y-137395000D02*
X119850000Y-137395000D01*
G75*
G02*
X119799000Y-137344000I0J51000D01*
G01*
X119799000Y-134944000D01*
G75*
G02*
X119850000Y-134893000I51000J0D01*
G01*
X121450000Y-134893000D01*
G75*
G02*
X121501000Y-134944000I0J-51000D01*
G01*
X121501000Y-137344000D01*
G75*
G02*
X121450000Y-137395000I-51000J0D01*
G01*
G37*
%TD*%
D14*
%TO.C,RV1*%
X123253500Y-142240000D03*
X125793500Y-142240000D03*
X128333500Y-142240000D03*
%TD*%
%TO.C,U6*%
G36*
G01*
X160096000Y-67611500D02*
X160096000Y-65611500D01*
G75*
G02*
X160147000Y-65560500I51000J0D01*
G01*
X162052000Y-65560500D01*
G75*
G02*
X162103000Y-65611500I0J-51000D01*
G01*
X162103000Y-67611500D01*
G75*
G02*
X162052000Y-67662500I-51000J0D01*
G01*
X160147000Y-67662500D01*
G75*
G02*
X160096000Y-67611500I0J51000D01*
G01*
G37*
D11*
X163639500Y-66611500D03*
X166179500Y-66611500D03*
%TD*%
%TO.C,R17*%
G36*
G01*
X127677114Y-149719000D02*
X128989886Y-149719000D01*
G75*
G02*
X129259500Y-149988614I0J-269614D01*
G01*
X129259500Y-150851386D01*
G75*
G02*
X128989886Y-151121000I-269614J0D01*
G01*
X127677114Y-151121000D01*
G75*
G02*
X127407500Y-150851386I0J269614D01*
G01*
X127407500Y-149988614D01*
G75*
G02*
X127677114Y-149719000I269614J0D01*
G01*
G37*
G36*
G01*
X127677114Y-146619000D02*
X128989886Y-146619000D01*
G75*
G02*
X129259500Y-146888614I0J-269614D01*
G01*
X129259500Y-147751386D01*
G75*
G02*
X128989886Y-148021000I-269614J0D01*
G01*
X127677114Y-148021000D01*
G75*
G02*
X127407500Y-147751386I0J269614D01*
G01*
X127407500Y-146888614D01*
G75*
G02*
X127677114Y-146619000I269614J0D01*
G01*
G37*
%TD*%
%TO.C,R19*%
G36*
G01*
X123909886Y-151121000D02*
X122597114Y-151121000D01*
G75*
G02*
X122327500Y-150851386I0J269614D01*
G01*
X122327500Y-149988614D01*
G75*
G02*
X122597114Y-149719000I269614J0D01*
G01*
X123909886Y-149719000D01*
G75*
G02*
X124179500Y-149988614I0J-269614D01*
G01*
X124179500Y-150851386D01*
G75*
G02*
X123909886Y-151121000I-269614J0D01*
G01*
G37*
G36*
G01*
X123909886Y-148021000D02*
X122597114Y-148021000D01*
G75*
G02*
X122327500Y-147751386I0J269614D01*
G01*
X122327500Y-146888614D01*
G75*
G02*
X122597114Y-146619000I269614J0D01*
G01*
X123909886Y-146619000D01*
G75*
G02*
X124179500Y-146888614I0J-269614D01*
G01*
X124179500Y-147751386D01*
G75*
G02*
X123909886Y-148021000I-269614J0D01*
G01*
G37*
%TD*%
%TO.C,J2*%
G36*
G01*
X141085000Y-130898000D02*
X141085000Y-129198000D01*
G75*
G02*
X141136000Y-129147000I51000J0D01*
G01*
X142836000Y-129147000D01*
G75*
G02*
X142887000Y-129198000I0J-51000D01*
G01*
X142887000Y-130898000D01*
G75*
G02*
X142836000Y-130949000I-51000J0D01*
G01*
X141136000Y-130949000D01*
G75*
G02*
X141085000Y-130898000I0J51000D01*
G01*
G37*
%TD*%
%TO.C,J3*%
G36*
G01*
X149993000Y-149543166D02*
X149993000Y-152716834D01*
G75*
G02*
X149728834Y-152981000I-264166J0D01*
G01*
X148355166Y-152981000D01*
G75*
G02*
X148091000Y-152716834I0J264166D01*
G01*
X148091000Y-149543166D01*
G75*
G02*
X148355166Y-149279000I264166J0D01*
G01*
X149728834Y-149279000D01*
G75*
G02*
X149993000Y-149543166I0J-264166D01*
G01*
G37*
D15*
X145542000Y-151130000D03*
X142042000Y-151130000D03*
%TD*%
%TO.C,JP1*%
G36*
G01*
X169342500Y-73811500D02*
X169342500Y-72111500D01*
G75*
G02*
X169393500Y-72060500I51000J0D01*
G01*
X171093500Y-72060500D01*
G75*
G02*
X171144500Y-72111500I0J-51000D01*
G01*
X171144500Y-73811500D01*
G75*
G02*
X171093500Y-73862500I-51000J0D01*
G01*
X169393500Y-73862500D01*
G75*
G02*
X169342500Y-73811500I0J51000D01*
G01*
G37*
D16*
X170243500Y-75501500D03*
%TD*%
%TO.C,R1*%
G36*
G01*
X170201386Y-134126000D02*
X168888614Y-134126000D01*
G75*
G02*
X168619000Y-133856386I0J269614D01*
G01*
X168619000Y-132993614D01*
G75*
G02*
X168888614Y-132724000I269614J0D01*
G01*
X170201386Y-132724000D01*
G75*
G02*
X170471000Y-132993614I0J-269614D01*
G01*
X170471000Y-133856386D01*
G75*
G02*
X170201386Y-134126000I-269614J0D01*
G01*
G37*
G36*
G01*
X170201386Y-137226000D02*
X168888614Y-137226000D01*
G75*
G02*
X168619000Y-136956386I0J269614D01*
G01*
X168619000Y-136093614D01*
G75*
G02*
X168888614Y-135824000I269614J0D01*
G01*
X170201386Y-135824000D01*
G75*
G02*
X170471000Y-136093614I0J-269614D01*
G01*
X170471000Y-136956386D01*
G75*
G02*
X170201386Y-137226000I-269614J0D01*
G01*
G37*
%TD*%
%TO.C,R2*%
G36*
G01*
X151341886Y-137214500D02*
X150029114Y-137214500D01*
G75*
G02*
X149759500Y-136944886I0J269614D01*
G01*
X149759500Y-136082114D01*
G75*
G02*
X150029114Y-135812500I269614J0D01*
G01*
X151341886Y-135812500D01*
G75*
G02*
X151611500Y-136082114I0J-269614D01*
G01*
X151611500Y-136944886D01*
G75*
G02*
X151341886Y-137214500I-269614J0D01*
G01*
G37*
G36*
G01*
X151341886Y-134114500D02*
X150029114Y-134114500D01*
G75*
G02*
X149759500Y-133844886I0J269614D01*
G01*
X149759500Y-132982114D01*
G75*
G02*
X150029114Y-132712500I269614J0D01*
G01*
X151341886Y-132712500D01*
G75*
G02*
X151611500Y-132982114I0J-269614D01*
G01*
X151611500Y-133844886D01*
G75*
G02*
X151341886Y-134114500I-269614J0D01*
G01*
G37*
%TD*%
%TO.C,R3*%
G36*
G01*
X155405886Y-134114500D02*
X154093114Y-134114500D01*
G75*
G02*
X153823500Y-133844886I0J269614D01*
G01*
X153823500Y-132982114D01*
G75*
G02*
X154093114Y-132712500I269614J0D01*
G01*
X155405886Y-132712500D01*
G75*
G02*
X155675500Y-132982114I0J-269614D01*
G01*
X155675500Y-133844886D01*
G75*
G02*
X155405886Y-134114500I-269614J0D01*
G01*
G37*
G36*
G01*
X155405886Y-137214500D02*
X154093114Y-137214500D01*
G75*
G02*
X153823500Y-136944886I0J269614D01*
G01*
X153823500Y-136082114D01*
G75*
G02*
X154093114Y-135812500I269614J0D01*
G01*
X155405886Y-135812500D01*
G75*
G02*
X155675500Y-136082114I0J-269614D01*
G01*
X155675500Y-136944886D01*
G75*
G02*
X155405886Y-137214500I-269614J0D01*
G01*
G37*
%TD*%
%TO.C,R4*%
G36*
G01*
X167026386Y-148656000D02*
X165713614Y-148656000D01*
G75*
G02*
X165444000Y-148386386I0J269614D01*
G01*
X165444000Y-147523614D01*
G75*
G02*
X165713614Y-147254000I269614J0D01*
G01*
X167026386Y-147254000D01*
G75*
G02*
X167296000Y-147523614I0J-269614D01*
G01*
X167296000Y-148386386D01*
G75*
G02*
X167026386Y-148656000I-269614J0D01*
G01*
G37*
G36*
G01*
X167026386Y-145556000D02*
X165713614Y-145556000D01*
G75*
G02*
X165444000Y-145286386I0J269614D01*
G01*
X165444000Y-144423614D01*
G75*
G02*
X165713614Y-144154000I269614J0D01*
G01*
X167026386Y-144154000D01*
G75*
G02*
X167296000Y-144423614I0J-269614D01*
G01*
X167296000Y-145286386D01*
G75*
G02*
X167026386Y-145556000I-269614J0D01*
G01*
G37*
%TD*%
%TO.C,R5*%
G36*
G01*
X161859000Y-141626386D02*
X161859000Y-140313614D01*
G75*
G02*
X162128614Y-140044000I269614J0D01*
G01*
X162991386Y-140044000D01*
G75*
G02*
X163261000Y-140313614I0J-269614D01*
G01*
X163261000Y-141626386D01*
G75*
G02*
X162991386Y-141896000I-269614J0D01*
G01*
X162128614Y-141896000D01*
G75*
G02*
X161859000Y-141626386I0J269614D01*
G01*
G37*
G36*
G01*
X158759000Y-141626386D02*
X158759000Y-140313614D01*
G75*
G02*
X159028614Y-140044000I269614J0D01*
G01*
X159891386Y-140044000D01*
G75*
G02*
X160161000Y-140313614I0J-269614D01*
G01*
X160161000Y-141626386D01*
G75*
G02*
X159891386Y-141896000I-269614J0D01*
G01*
X159028614Y-141896000D01*
G75*
G02*
X158759000Y-141626386I0J269614D01*
G01*
G37*
%TD*%
%TO.C,R6*%
G36*
G01*
X140356386Y-134051000D02*
X139043614Y-134051000D01*
G75*
G02*
X138774000Y-133781386I0J269614D01*
G01*
X138774000Y-132918614D01*
G75*
G02*
X139043614Y-132649000I269614J0D01*
G01*
X140356386Y-132649000D01*
G75*
G02*
X140626000Y-132918614I0J-269614D01*
G01*
X140626000Y-133781386D01*
G75*
G02*
X140356386Y-134051000I-269614J0D01*
G01*
G37*
G36*
G01*
X140356386Y-137151000D02*
X139043614Y-137151000D01*
G75*
G02*
X138774000Y-136881386I0J269614D01*
G01*
X138774000Y-136018614D01*
G75*
G02*
X139043614Y-135749000I269614J0D01*
G01*
X140356386Y-135749000D01*
G75*
G02*
X140626000Y-136018614I0J-269614D01*
G01*
X140626000Y-136881386D01*
G75*
G02*
X140356386Y-137151000I-269614J0D01*
G01*
G37*
%TD*%
%TO.C,R7*%
G36*
G01*
X136800386Y-137125000D02*
X135487614Y-137125000D01*
G75*
G02*
X135218000Y-136855386I0J269614D01*
G01*
X135218000Y-135992614D01*
G75*
G02*
X135487614Y-135723000I269614J0D01*
G01*
X136800386Y-135723000D01*
G75*
G02*
X137070000Y-135992614I0J-269614D01*
G01*
X137070000Y-136855386D01*
G75*
G02*
X136800386Y-137125000I-269614J0D01*
G01*
G37*
G36*
G01*
X136800386Y-134025000D02*
X135487614Y-134025000D01*
G75*
G02*
X135218000Y-133755386I0J269614D01*
G01*
X135218000Y-132892614D01*
G75*
G02*
X135487614Y-132623000I269614J0D01*
G01*
X136800386Y-132623000D01*
G75*
G02*
X137070000Y-132892614I0J-269614D01*
G01*
X137070000Y-133755386D01*
G75*
G02*
X136800386Y-134025000I-269614J0D01*
G01*
G37*
%TD*%
%TO.C,R8*%
G36*
G01*
X164803886Y-114773000D02*
X163491114Y-114773000D01*
G75*
G02*
X163221500Y-114503386I0J269614D01*
G01*
X163221500Y-113640614D01*
G75*
G02*
X163491114Y-113371000I269614J0D01*
G01*
X164803886Y-113371000D01*
G75*
G02*
X165073500Y-113640614I0J-269614D01*
G01*
X165073500Y-114503386D01*
G75*
G02*
X164803886Y-114773000I-269614J0D01*
G01*
G37*
G36*
G01*
X164803886Y-111673000D02*
X163491114Y-111673000D01*
G75*
G02*
X163221500Y-111403386I0J269614D01*
G01*
X163221500Y-110540614D01*
G75*
G02*
X163491114Y-110271000I269614J0D01*
G01*
X164803886Y-110271000D01*
G75*
G02*
X165073500Y-110540614I0J-269614D01*
G01*
X165073500Y-111403386D01*
G75*
G02*
X164803886Y-111673000I-269614J0D01*
G01*
G37*
%TD*%
%TO.C,R9*%
G36*
G01*
X155824986Y-95595400D02*
X154512214Y-95595400D01*
G75*
G02*
X154242600Y-95325786I0J269614D01*
G01*
X154242600Y-94463014D01*
G75*
G02*
X154512214Y-94193400I269614J0D01*
G01*
X155824986Y-94193400D01*
G75*
G02*
X156094600Y-94463014I0J-269614D01*
G01*
X156094600Y-95325786D01*
G75*
G02*
X155824986Y-95595400I-269614J0D01*
G01*
G37*
G36*
G01*
X155824986Y-92495400D02*
X154512214Y-92495400D01*
G75*
G02*
X154242600Y-92225786I0J269614D01*
G01*
X154242600Y-91363014D01*
G75*
G02*
X154512214Y-91093400I269614J0D01*
G01*
X155824986Y-91093400D01*
G75*
G02*
X156094600Y-91363014I0J-269614D01*
G01*
X156094600Y-92225786D01*
G75*
G02*
X155824986Y-92495400I-269614J0D01*
G01*
G37*
%TD*%
%TO.C,R10*%
G36*
G01*
X153945386Y-111699000D02*
X152632614Y-111699000D01*
G75*
G02*
X152363000Y-111429386I0J269614D01*
G01*
X152363000Y-110566614D01*
G75*
G02*
X152632614Y-110297000I269614J0D01*
G01*
X153945386Y-110297000D01*
G75*
G02*
X154215000Y-110566614I0J-269614D01*
G01*
X154215000Y-111429386D01*
G75*
G02*
X153945386Y-111699000I-269614J0D01*
G01*
G37*
G36*
G01*
X153945386Y-114799000D02*
X152632614Y-114799000D01*
G75*
G02*
X152363000Y-114529386I0J269614D01*
G01*
X152363000Y-113666614D01*
G75*
G02*
X152632614Y-113397000I269614J0D01*
G01*
X153945386Y-113397000D01*
G75*
G02*
X154215000Y-113666614I0J-269614D01*
G01*
X154215000Y-114529386D01*
G75*
G02*
X153945386Y-114799000I-269614J0D01*
G01*
G37*
%TD*%
%TO.C,R11*%
G36*
G01*
X163851386Y-134126000D02*
X162538614Y-134126000D01*
G75*
G02*
X162269000Y-133856386I0J269614D01*
G01*
X162269000Y-132993614D01*
G75*
G02*
X162538614Y-132724000I269614J0D01*
G01*
X163851386Y-132724000D01*
G75*
G02*
X164121000Y-132993614I0J-269614D01*
G01*
X164121000Y-133856386D01*
G75*
G02*
X163851386Y-134126000I-269614J0D01*
G01*
G37*
G36*
G01*
X163851386Y-137226000D02*
X162538614Y-137226000D01*
G75*
G02*
X162269000Y-136956386I0J269614D01*
G01*
X162269000Y-136093614D01*
G75*
G02*
X162538614Y-135824000I269614J0D01*
G01*
X163851386Y-135824000D01*
G75*
G02*
X164121000Y-136093614I0J-269614D01*
G01*
X164121000Y-136956386D01*
G75*
G02*
X163851386Y-137226000I-269614J0D01*
G01*
G37*
%TD*%
%TO.C,R12*%
G36*
G01*
X160041386Y-137226000D02*
X158728614Y-137226000D01*
G75*
G02*
X158459000Y-136956386I0J269614D01*
G01*
X158459000Y-136093614D01*
G75*
G02*
X158728614Y-135824000I269614J0D01*
G01*
X160041386Y-135824000D01*
G75*
G02*
X160311000Y-136093614I0J-269614D01*
G01*
X160311000Y-136956386D01*
G75*
G02*
X160041386Y-137226000I-269614J0D01*
G01*
G37*
G36*
G01*
X160041386Y-134126000D02*
X158728614Y-134126000D01*
G75*
G02*
X158459000Y-133856386I0J269614D01*
G01*
X158459000Y-132993614D01*
G75*
G02*
X158728614Y-132724000I269614J0D01*
G01*
X160041386Y-132724000D01*
G75*
G02*
X160311000Y-132993614I0J-269614D01*
G01*
X160311000Y-133856386D01*
G75*
G02*
X160041386Y-134126000I-269614J0D01*
G01*
G37*
%TD*%
%TO.C,R13*%
G36*
G01*
X147214386Y-134051000D02*
X145901614Y-134051000D01*
G75*
G02*
X145632000Y-133781386I0J269614D01*
G01*
X145632000Y-132918614D01*
G75*
G02*
X145901614Y-132649000I269614J0D01*
G01*
X147214386Y-132649000D01*
G75*
G02*
X147484000Y-132918614I0J-269614D01*
G01*
X147484000Y-133781386D01*
G75*
G02*
X147214386Y-134051000I-269614J0D01*
G01*
G37*
G36*
G01*
X147214386Y-137151000D02*
X145901614Y-137151000D01*
G75*
G02*
X145632000Y-136881386I0J269614D01*
G01*
X145632000Y-136018614D01*
G75*
G02*
X145901614Y-135749000I269614J0D01*
G01*
X147214386Y-135749000D01*
G75*
G02*
X147484000Y-136018614I0J-269614D01*
G01*
X147484000Y-136881386D01*
G75*
G02*
X147214386Y-137151000I-269614J0D01*
G01*
G37*
%TD*%
%TO.C,R14*%
G36*
G01*
X167364614Y-113397000D02*
X168677386Y-113397000D01*
G75*
G02*
X168947000Y-113666614I0J-269614D01*
G01*
X168947000Y-114529386D01*
G75*
G02*
X168677386Y-114799000I-269614J0D01*
G01*
X167364614Y-114799000D01*
G75*
G02*
X167095000Y-114529386I0J269614D01*
G01*
X167095000Y-113666614D01*
G75*
G02*
X167364614Y-113397000I269614J0D01*
G01*
G37*
G36*
G01*
X167364614Y-110297000D02*
X168677386Y-110297000D01*
G75*
G02*
X168947000Y-110566614I0J-269614D01*
G01*
X168947000Y-111429386D01*
G75*
G02*
X168677386Y-111699000I-269614J0D01*
G01*
X167364614Y-111699000D01*
G75*
G02*
X167095000Y-111429386I0J269614D01*
G01*
X167095000Y-110566614D01*
G75*
G02*
X167364614Y-110297000I269614J0D01*
G01*
G37*
%TD*%
%TO.C,R15*%
G36*
G01*
X167026386Y-137226000D02*
X165713614Y-137226000D01*
G75*
G02*
X165444000Y-136956386I0J269614D01*
G01*
X165444000Y-136093614D01*
G75*
G02*
X165713614Y-135824000I269614J0D01*
G01*
X167026386Y-135824000D01*
G75*
G02*
X167296000Y-136093614I0J-269614D01*
G01*
X167296000Y-136956386D01*
G75*
G02*
X167026386Y-137226000I-269614J0D01*
G01*
G37*
G36*
G01*
X167026386Y-134126000D02*
X165713614Y-134126000D01*
G75*
G02*
X165444000Y-133856386I0J269614D01*
G01*
X165444000Y-132993614D01*
G75*
G02*
X165713614Y-132724000I269614J0D01*
G01*
X167026386Y-132724000D01*
G75*
G02*
X167296000Y-132993614I0J-269614D01*
G01*
X167296000Y-133856386D01*
G75*
G02*
X167026386Y-134126000I-269614J0D01*
G01*
G37*
%TD*%
%TO.C,R18*%
G36*
G01*
X160747000Y-112373614D02*
X160747000Y-113686386D01*
G75*
G02*
X160477386Y-113956000I-269614J0D01*
G01*
X159614614Y-113956000D01*
G75*
G02*
X159345000Y-113686386I0J269614D01*
G01*
X159345000Y-112373614D01*
G75*
G02*
X159614614Y-112104000I269614J0D01*
G01*
X160477386Y-112104000D01*
G75*
G02*
X160747000Y-112373614I0J-269614D01*
G01*
G37*
G36*
G01*
X157647000Y-112373614D02*
X157647000Y-113686386D01*
G75*
G02*
X157377386Y-113956000I-269614J0D01*
G01*
X156514614Y-113956000D01*
G75*
G02*
X156245000Y-113686386I0J269614D01*
G01*
X156245000Y-112373614D01*
G75*
G02*
X156514614Y-112104000I269614J0D01*
G01*
X157377386Y-112104000D01*
G75*
G02*
X157647000Y-112373614I0J-269614D01*
G01*
G37*
%TD*%
%TO.C,R21*%
G36*
G01*
X144631614Y-113371000D02*
X145944386Y-113371000D01*
G75*
G02*
X146214000Y-113640614I0J-269614D01*
G01*
X146214000Y-114503386D01*
G75*
G02*
X145944386Y-114773000I-269614J0D01*
G01*
X144631614Y-114773000D01*
G75*
G02*
X144362000Y-114503386I0J269614D01*
G01*
X144362000Y-113640614D01*
G75*
G02*
X144631614Y-113371000I269614J0D01*
G01*
G37*
G36*
G01*
X144631614Y-110271000D02*
X145944386Y-110271000D01*
G75*
G02*
X146214000Y-110540614I0J-269614D01*
G01*
X146214000Y-111403386D01*
G75*
G02*
X145944386Y-111673000I-269614J0D01*
G01*
X144631614Y-111673000D01*
G75*
G02*
X144362000Y-111403386I0J269614D01*
G01*
X144362000Y-110540614D01*
G75*
G02*
X144631614Y-110271000I269614J0D01*
G01*
G37*
%TD*%
%TO.C,U1*%
G36*
G01*
X175465500Y-108259000D02*
X175816500Y-108259000D01*
G75*
G02*
X175992000Y-108434500I0J-175500D01*
G01*
X175992000Y-109785500D01*
G75*
G02*
X175816500Y-109961000I-175500J0D01*
G01*
X175465500Y-109961000D01*
G75*
G02*
X175290000Y-109785500I0J175500D01*
G01*
X175290000Y-108434500D01*
G75*
G02*
X175465500Y-108259000I175500J0D01*
G01*
G37*
G36*
G01*
X174195500Y-108259000D02*
X174546500Y-108259000D01*
G75*
G02*
X174722000Y-108434500I0J-175500D01*
G01*
X174722000Y-109785500D01*
G75*
G02*
X174546500Y-109961000I-175500J0D01*
G01*
X174195500Y-109961000D01*
G75*
G02*
X174020000Y-109785500I0J175500D01*
G01*
X174020000Y-108434500D01*
G75*
G02*
X174195500Y-108259000I175500J0D01*
G01*
G37*
G36*
G01*
X172925500Y-108259000D02*
X173276500Y-108259000D01*
G75*
G02*
X173452000Y-108434500I0J-175500D01*
G01*
X173452000Y-109785500D01*
G75*
G02*
X173276500Y-109961000I-175500J0D01*
G01*
X172925500Y-109961000D01*
G75*
G02*
X172750000Y-109785500I0J175500D01*
G01*
X172750000Y-108434500D01*
G75*
G02*
X172925500Y-108259000I175500J0D01*
G01*
G37*
G36*
G01*
X171655500Y-108259000D02*
X172006500Y-108259000D01*
G75*
G02*
X172182000Y-108434500I0J-175500D01*
G01*
X172182000Y-109785500D01*
G75*
G02*
X172006500Y-109961000I-175500J0D01*
G01*
X171655500Y-109961000D01*
G75*
G02*
X171480000Y-109785500I0J175500D01*
G01*
X171480000Y-108434500D01*
G75*
G02*
X171655500Y-108259000I175500J0D01*
G01*
G37*
G36*
G01*
X171655500Y-113559000D02*
X172006500Y-113559000D01*
G75*
G02*
X172182000Y-113734500I0J-175500D01*
G01*
X172182000Y-115085500D01*
G75*
G02*
X172006500Y-115261000I-175500J0D01*
G01*
X171655500Y-115261000D01*
G75*
G02*
X171480000Y-115085500I0J175500D01*
G01*
X171480000Y-113734500D01*
G75*
G02*
X171655500Y-113559000I175500J0D01*
G01*
G37*
G36*
G01*
X172925500Y-113559000D02*
X173276500Y-113559000D01*
G75*
G02*
X173452000Y-113734500I0J-175500D01*
G01*
X173452000Y-115085500D01*
G75*
G02*
X173276500Y-115261000I-175500J0D01*
G01*
X172925500Y-115261000D01*
G75*
G02*
X172750000Y-115085500I0J175500D01*
G01*
X172750000Y-113734500D01*
G75*
G02*
X172925500Y-113559000I175500J0D01*
G01*
G37*
G36*
G01*
X174195500Y-113559000D02*
X174546500Y-113559000D01*
G75*
G02*
X174722000Y-113734500I0J-175500D01*
G01*
X174722000Y-115085500D01*
G75*
G02*
X174546500Y-115261000I-175500J0D01*
G01*
X174195500Y-115261000D01*
G75*
G02*
X174020000Y-115085500I0J175500D01*
G01*
X174020000Y-113734500D01*
G75*
G02*
X174195500Y-113559000I175500J0D01*
G01*
G37*
G36*
G01*
X175465500Y-113559000D02*
X175816500Y-113559000D01*
G75*
G02*
X175992000Y-113734500I0J-175500D01*
G01*
X175992000Y-115085500D01*
G75*
G02*
X175816500Y-115261000I-175500J0D01*
G01*
X175465500Y-115261000D01*
G75*
G02*
X175290000Y-115085500I0J175500D01*
G01*
X175290000Y-113734500D01*
G75*
G02*
X175465500Y-113559000I175500J0D01*
G01*
G37*
G36*
G01*
X172186000Y-110504000D02*
X175286000Y-110504000D01*
G75*
G02*
X175337000Y-110555000I0J-51000D01*
G01*
X175337000Y-112965000D01*
G75*
G02*
X175286000Y-113016000I-51000J0D01*
G01*
X172186000Y-113016000D01*
G75*
G02*
X172135000Y-112965000I0J51000D01*
G01*
X172135000Y-110555000D01*
G75*
G02*
X172186000Y-110504000I51000J0D01*
G01*
G37*
%TD*%
%TO.C,U2*%
G36*
G01*
X138722000Y-127743000D02*
X137122000Y-127743000D01*
G75*
G02*
X137071000Y-127692000I0J51000D01*
G01*
X137071000Y-125292000D01*
G75*
G02*
X137122000Y-125241000I51000J0D01*
G01*
X138722000Y-125241000D01*
G75*
G02*
X138773000Y-125292000I0J-51000D01*
G01*
X138773000Y-127692000D01*
G75*
G02*
X138722000Y-127743000I-51000J0D01*
G01*
G37*
D13*
X145542000Y-118872000D03*
X140462000Y-126492000D03*
X143002000Y-118872000D03*
X143002000Y-126492000D03*
X140462000Y-118872000D03*
X145542000Y-126492000D03*
X137922000Y-118872000D03*
%TD*%
%TO.C,U3*%
G36*
G01*
X141134500Y-142618000D02*
X144234500Y-142618000D01*
G75*
G02*
X144285500Y-142669000I0J-51000D01*
G01*
X144285500Y-145079000D01*
G75*
G02*
X144234500Y-145130000I-51000J0D01*
G01*
X141134500Y-145130000D01*
G75*
G02*
X141083500Y-145079000I0J51000D01*
G01*
X141083500Y-142669000D01*
G75*
G02*
X141134500Y-142618000I51000J0D01*
G01*
G37*
G36*
G01*
X144414000Y-145673000D02*
X144765000Y-145673000D01*
G75*
G02*
X144940500Y-145848500I0J-175500D01*
G01*
X144940500Y-147199500D01*
G75*
G02*
X144765000Y-147375000I-175500J0D01*
G01*
X144414000Y-147375000D01*
G75*
G02*
X144238500Y-147199500I0J175500D01*
G01*
X144238500Y-145848500D01*
G75*
G02*
X144414000Y-145673000I175500J0D01*
G01*
G37*
G36*
G01*
X143144000Y-145673000D02*
X143495000Y-145673000D01*
G75*
G02*
X143670500Y-145848500I0J-175500D01*
G01*
X143670500Y-147199500D01*
G75*
G02*
X143495000Y-147375000I-175500J0D01*
G01*
X143144000Y-147375000D01*
G75*
G02*
X142968500Y-147199500I0J175500D01*
G01*
X142968500Y-145848500D01*
G75*
G02*
X143144000Y-145673000I175500J0D01*
G01*
G37*
G36*
G01*
X141874000Y-145673000D02*
X142225000Y-145673000D01*
G75*
G02*
X142400500Y-145848500I0J-175500D01*
G01*
X142400500Y-147199500D01*
G75*
G02*
X142225000Y-147375000I-175500J0D01*
G01*
X141874000Y-147375000D01*
G75*
G02*
X141698500Y-147199500I0J175500D01*
G01*
X141698500Y-145848500D01*
G75*
G02*
X141874000Y-145673000I175500J0D01*
G01*
G37*
G36*
G01*
X140604000Y-145673000D02*
X140955000Y-145673000D01*
G75*
G02*
X141130500Y-145848500I0J-175500D01*
G01*
X141130500Y-147199500D01*
G75*
G02*
X140955000Y-147375000I-175500J0D01*
G01*
X140604000Y-147375000D01*
G75*
G02*
X140428500Y-147199500I0J175500D01*
G01*
X140428500Y-145848500D01*
G75*
G02*
X140604000Y-145673000I175500J0D01*
G01*
G37*
G36*
G01*
X140604000Y-140373000D02*
X140955000Y-140373000D01*
G75*
G02*
X141130500Y-140548500I0J-175500D01*
G01*
X141130500Y-141899500D01*
G75*
G02*
X140955000Y-142075000I-175500J0D01*
G01*
X140604000Y-142075000D01*
G75*
G02*
X140428500Y-141899500I0J175500D01*
G01*
X140428500Y-140548500D01*
G75*
G02*
X140604000Y-140373000I175500J0D01*
G01*
G37*
G36*
G01*
X141874000Y-140373000D02*
X142225000Y-140373000D01*
G75*
G02*
X142400500Y-140548500I0J-175500D01*
G01*
X142400500Y-141899500D01*
G75*
G02*
X142225000Y-142075000I-175500J0D01*
G01*
X141874000Y-142075000D01*
G75*
G02*
X141698500Y-141899500I0J175500D01*
G01*
X141698500Y-140548500D01*
G75*
G02*
X141874000Y-140373000I175500J0D01*
G01*
G37*
G36*
G01*
X143144000Y-140373000D02*
X143495000Y-140373000D01*
G75*
G02*
X143670500Y-140548500I0J-175500D01*
G01*
X143670500Y-141899500D01*
G75*
G02*
X143495000Y-142075000I-175500J0D01*
G01*
X143144000Y-142075000D01*
G75*
G02*
X142968500Y-141899500I0J175500D01*
G01*
X142968500Y-140548500D01*
G75*
G02*
X143144000Y-140373000I175500J0D01*
G01*
G37*
G36*
G01*
X144414000Y-140373000D02*
X144765000Y-140373000D01*
G75*
G02*
X144940500Y-140548500I0J-175500D01*
G01*
X144940500Y-141899500D01*
G75*
G02*
X144765000Y-142075000I-175500J0D01*
G01*
X144414000Y-142075000D01*
G75*
G02*
X144238500Y-141899500I0J175500D01*
G01*
X144238500Y-140548500D01*
G75*
G02*
X144414000Y-140373000I175500J0D01*
G01*
G37*
%TD*%
%TO.C,U4*%
G36*
G01*
X155139000Y-145590500D02*
X155139000Y-145239500D01*
G75*
G02*
X155314500Y-145064000I175500J0D01*
G01*
X156665500Y-145064000D01*
G75*
G02*
X156841000Y-145239500I0J-175500D01*
G01*
X156841000Y-145590500D01*
G75*
G02*
X156665500Y-145766000I-175500J0D01*
G01*
X155314500Y-145766000D01*
G75*
G02*
X155139000Y-145590500I0J175500D01*
G01*
G37*
G36*
G01*
X155139000Y-146860500D02*
X155139000Y-146509500D01*
G75*
G02*
X155314500Y-146334000I175500J0D01*
G01*
X156665500Y-146334000D01*
G75*
G02*
X156841000Y-146509500I0J-175500D01*
G01*
X156841000Y-146860500D01*
G75*
G02*
X156665500Y-147036000I-175500J0D01*
G01*
X155314500Y-147036000D01*
G75*
G02*
X155139000Y-146860500I0J175500D01*
G01*
G37*
G36*
G01*
X155139000Y-148130500D02*
X155139000Y-147779500D01*
G75*
G02*
X155314500Y-147604000I175500J0D01*
G01*
X156665500Y-147604000D01*
G75*
G02*
X156841000Y-147779500I0J-175500D01*
G01*
X156841000Y-148130500D01*
G75*
G02*
X156665500Y-148306000I-175500J0D01*
G01*
X155314500Y-148306000D01*
G75*
G02*
X155139000Y-148130500I0J175500D01*
G01*
G37*
G36*
G01*
X155139000Y-149400500D02*
X155139000Y-149049500D01*
G75*
G02*
X155314500Y-148874000I175500J0D01*
G01*
X156665500Y-148874000D01*
G75*
G02*
X156841000Y-149049500I0J-175500D01*
G01*
X156841000Y-149400500D01*
G75*
G02*
X156665500Y-149576000I-175500J0D01*
G01*
X155314500Y-149576000D01*
G75*
G02*
X155139000Y-149400500I0J175500D01*
G01*
G37*
G36*
G01*
X160439000Y-149400500D02*
X160439000Y-149049500D01*
G75*
G02*
X160614500Y-148874000I175500J0D01*
G01*
X161965500Y-148874000D01*
G75*
G02*
X162141000Y-149049500I0J-175500D01*
G01*
X162141000Y-149400500D01*
G75*
G02*
X161965500Y-149576000I-175500J0D01*
G01*
X160614500Y-149576000D01*
G75*
G02*
X160439000Y-149400500I0J175500D01*
G01*
G37*
G36*
G01*
X160439000Y-148130500D02*
X160439000Y-147779500D01*
G75*
G02*
X160614500Y-147604000I175500J0D01*
G01*
X161965500Y-147604000D01*
G75*
G02*
X162141000Y-147779500I0J-175500D01*
G01*
X162141000Y-148130500D01*
G75*
G02*
X161965500Y-148306000I-175500J0D01*
G01*
X160614500Y-148306000D01*
G75*
G02*
X160439000Y-148130500I0J175500D01*
G01*
G37*
G36*
G01*
X160439000Y-146860500D02*
X160439000Y-146509500D01*
G75*
G02*
X160614500Y-146334000I175500J0D01*
G01*
X161965500Y-146334000D01*
G75*
G02*
X162141000Y-146509500I0J-175500D01*
G01*
X162141000Y-146860500D01*
G75*
G02*
X161965500Y-147036000I-175500J0D01*
G01*
X160614500Y-147036000D01*
G75*
G02*
X160439000Y-146860500I0J175500D01*
G01*
G37*
G36*
G01*
X160439000Y-145590500D02*
X160439000Y-145239500D01*
G75*
G02*
X160614500Y-145064000I175500J0D01*
G01*
X161965500Y-145064000D01*
G75*
G02*
X162141000Y-145239500I0J-175500D01*
G01*
X162141000Y-145590500D01*
G75*
G02*
X161965500Y-145766000I-175500J0D01*
G01*
X160614500Y-145766000D01*
G75*
G02*
X160439000Y-145590500I0J175500D01*
G01*
G37*
G36*
G01*
X157384000Y-148870000D02*
X157384000Y-145770000D01*
G75*
G02*
X157435000Y-145719000I51000J0D01*
G01*
X159845000Y-145719000D01*
G75*
G02*
X159896000Y-145770000I0J-51000D01*
G01*
X159896000Y-148870000D01*
G75*
G02*
X159845000Y-148921000I-51000J0D01*
G01*
X157435000Y-148921000D01*
G75*
G02*
X157384000Y-148870000I0J51000D01*
G01*
G37*
%TD*%
%TO.C,U7*%
G36*
G01*
X138468000Y-107169000D02*
X136868000Y-107169000D01*
G75*
G02*
X136817000Y-107118000I0J51000D01*
G01*
X136817000Y-104718000D01*
G75*
G02*
X136868000Y-104667000I51000J0D01*
G01*
X138468000Y-104667000D01*
G75*
G02*
X138519000Y-104718000I0J-51000D01*
G01*
X138519000Y-107118000D01*
G75*
G02*
X138468000Y-107169000I-51000J0D01*
G01*
G37*
X152908000Y-98298000D03*
X140208000Y-105918000D03*
X150368000Y-98298000D03*
X142748000Y-105918000D03*
X147828000Y-98298000D03*
X145288000Y-105918000D03*
X145288000Y-98298000D03*
X147828000Y-105918000D03*
X142748000Y-98298000D03*
X150368000Y-105918000D03*
X140208000Y-98298000D03*
X152908000Y-105918000D03*
X137668000Y-98298000D03*
%TD*%
%TO.C,R22*%
G36*
G01*
X150998986Y-92495400D02*
X149686214Y-92495400D01*
G75*
G02*
X149416600Y-92225786I0J269614D01*
G01*
X149416600Y-91363014D01*
G75*
G02*
X149686214Y-91093400I269614J0D01*
G01*
X150998986Y-91093400D01*
G75*
G02*
X151268600Y-91363014I0J-269614D01*
G01*
X151268600Y-92225786D01*
G75*
G02*
X150998986Y-92495400I-269614J0D01*
G01*
G37*
G36*
G01*
X150998986Y-95595400D02*
X149686214Y-95595400D01*
G75*
G02*
X149416600Y-95325786I0J269614D01*
G01*
X149416600Y-94463014D01*
G75*
G02*
X149686214Y-94193400I269614J0D01*
G01*
X150998986Y-94193400D01*
G75*
G02*
X151268600Y-94463014I0J-269614D01*
G01*
X151268600Y-95325786D01*
G75*
G02*
X150998986Y-95595400I-269614J0D01*
G01*
G37*
%TD*%
%TO.C,R23*%
G36*
G01*
X156250680Y-110374226D02*
X156250680Y-109061454D01*
G75*
G02*
X156520294Y-108791840I269614J0D01*
G01*
X157383066Y-108791840D01*
G75*
G02*
X157652680Y-109061454I0J-269614D01*
G01*
X157652680Y-110374226D01*
G75*
G02*
X157383066Y-110643840I-269614J0D01*
G01*
X156520294Y-110643840D01*
G75*
G02*
X156250680Y-110374226I0J269614D01*
G01*
G37*
G36*
G01*
X159350680Y-110374226D02*
X159350680Y-109061454D01*
G75*
G02*
X159620294Y-108791840I269614J0D01*
G01*
X160483066Y-108791840D01*
G75*
G02*
X160752680Y-109061454I0J-269614D01*
G01*
X160752680Y-110374226D01*
G75*
G02*
X160483066Y-110643840I-269614J0D01*
G01*
X159620294Y-110643840D01*
G75*
G02*
X159350680Y-110374226I0J269614D01*
G01*
G37*
%TD*%
%TO.C,U5*%
G36*
G01*
X170015000Y-117494000D02*
X171615000Y-117494000D01*
G75*
G02*
X171666000Y-117545000I0J-51000D01*
G01*
X171666000Y-119945000D01*
G75*
G02*
X171615000Y-119996000I-51000J0D01*
G01*
X170015000Y-119996000D01*
G75*
G02*
X169964000Y-119945000I0J51000D01*
G01*
X169964000Y-117545000D01*
G75*
G02*
X170015000Y-117494000I51000J0D01*
G01*
G37*
X153035000Y-126365000D03*
X168275000Y-118745000D03*
X155575000Y-126365000D03*
X165735000Y-118745000D03*
X158115000Y-126365000D03*
X163195000Y-118745000D03*
X160655000Y-126365000D03*
X160655000Y-118745000D03*
X163195000Y-126365000D03*
X158115000Y-118745000D03*
X165735000Y-126365000D03*
X155575000Y-118745000D03*
X168275000Y-126365000D03*
X153035000Y-118745000D03*
X170815000Y-126365000D03*
%TD*%
%TO.C,J4*%
G36*
G01*
X148387500Y-121817500D02*
X148387500Y-120117500D01*
G75*
G02*
X148438500Y-120066500I51000J0D01*
G01*
X150138500Y-120066500D01*
G75*
G02*
X150189500Y-120117500I0J-51000D01*
G01*
X150189500Y-121817500D01*
G75*
G02*
X150138500Y-121868500I-51000J0D01*
G01*
X148438500Y-121868500D01*
G75*
G02*
X148387500Y-121817500I0J51000D01*
G01*
G37*
%TD*%
%TO.C,J5*%
G36*
G01*
X148387500Y-112800500D02*
X148387500Y-111100500D01*
G75*
G02*
X148438500Y-111049500I51000J0D01*
G01*
X150138500Y-111049500D01*
G75*
G02*
X150189500Y-111100500I0J-51000D01*
G01*
X150189500Y-112800500D01*
G75*
G02*
X150138500Y-112851500I-51000J0D01*
G01*
X148438500Y-112851500D01*
G75*
G02*
X148387500Y-112800500I0J51000D01*
G01*
G37*
%TD*%
%TO.C,J6*%
G36*
G01*
X148387500Y-130898000D02*
X148387500Y-129198000D01*
G75*
G02*
X148438500Y-129147000I51000J0D01*
G01*
X150138500Y-129147000D01*
G75*
G02*
X150189500Y-129198000I0J-51000D01*
G01*
X150189500Y-130898000D01*
G75*
G02*
X150138500Y-130949000I-51000J0D01*
G01*
X148438500Y-130949000D01*
G75*
G02*
X148387500Y-130898000I0J51000D01*
G01*
G37*
%TD*%
%TO.C,J7*%
G36*
G01*
X158254000Y-75477000D02*
X158254000Y-77177000D01*
G75*
G02*
X158203000Y-77228000I-51000J0D01*
G01*
X156503000Y-77228000D01*
G75*
G02*
X156452000Y-77177000I0J51000D01*
G01*
X156452000Y-75477000D01*
G75*
G02*
X156503000Y-75426000I51000J0D01*
G01*
X158203000Y-75426000D01*
G75*
G02*
X158254000Y-75477000I0J-51000D01*
G01*
G37*
%TD*%
%TO.C,J8*%
G36*
G01*
X162445000Y-104814000D02*
X162445000Y-106514000D01*
G75*
G02*
X162394000Y-106565000I-51000J0D01*
G01*
X160694000Y-106565000D01*
G75*
G02*
X160643000Y-106514000I0J51000D01*
G01*
X160643000Y-104814000D01*
G75*
G02*
X160694000Y-104763000I51000J0D01*
G01*
X162394000Y-104763000D01*
G75*
G02*
X162445000Y-104814000I0J-51000D01*
G01*
G37*
%TD*%
%TO.C,J9*%
G36*
G01*
X124638500Y-59270000D02*
X124638500Y-57570000D01*
G75*
G02*
X124689500Y-57519000I51000J0D01*
G01*
X126389500Y-57519000D01*
G75*
G02*
X126440500Y-57570000I0J-51000D01*
G01*
X126440500Y-59270000D01*
G75*
G02*
X126389500Y-59321000I-51000J0D01*
G01*
X124689500Y-59321000D01*
G75*
G02*
X124638500Y-59270000I0J51000D01*
G01*
G37*
%TD*%
%TO.C,J10*%
G36*
G01*
X152324500Y-77113500D02*
X152324500Y-75413500D01*
G75*
G02*
X152375500Y-75362500I51000J0D01*
G01*
X154075500Y-75362500D01*
G75*
G02*
X154126500Y-75413500I0J-51000D01*
G01*
X154126500Y-77113500D01*
G75*
G02*
X154075500Y-77164500I-51000J0D01*
G01*
X152375500Y-77164500D01*
G75*
G02*
X152324500Y-77113500I0J51000D01*
G01*
G37*
%TD*%
%TO.C,J11*%
G36*
G01*
X156579000Y-106514000D02*
X156579000Y-104814000D01*
G75*
G02*
X156630000Y-104763000I51000J0D01*
G01*
X158330000Y-104763000D01*
G75*
G02*
X158381000Y-104814000I0J-51000D01*
G01*
X158381000Y-106514000D01*
G75*
G02*
X158330000Y-106565000I-51000J0D01*
G01*
X156630000Y-106565000D01*
G75*
G02*
X156579000Y-106514000I0J51000D01*
G01*
G37*
%TD*%
%TO.C,J12*%
G36*
G01*
X148387500Y-141566000D02*
X148387500Y-139866000D01*
G75*
G02*
X148438500Y-139815000I51000J0D01*
G01*
X150138500Y-139815000D01*
G75*
G02*
X150189500Y-139866000I0J-51000D01*
G01*
X150189500Y-141566000D01*
G75*
G02*
X150138500Y-141617000I-51000J0D01*
G01*
X148438500Y-141617000D01*
G75*
G02*
X148387500Y-141566000I0J51000D01*
G01*
G37*
%TD*%
%TO.C,J13*%
G36*
G01*
X129020000Y-59270000D02*
X129020000Y-57570000D01*
G75*
G02*
X129071000Y-57519000I51000J0D01*
G01*
X130771000Y-57519000D01*
G75*
G02*
X130822000Y-57570000I0J-51000D01*
G01*
X130822000Y-59270000D01*
G75*
G02*
X130771000Y-59321000I-51000J0D01*
G01*
X129071000Y-59321000D01*
G75*
G02*
X129020000Y-59270000I0J51000D01*
G01*
G37*
%TD*%
D17*
%TO.C,J1*%
X194627500Y-144081500D03*
X197167500Y-144081500D03*
X199707500Y-144081500D03*
X202247500Y-144081500D03*
X204787500Y-144081500D03*
D18*
X195707000Y-148907500D03*
X203644500Y-148907500D03*
D19*
X205168500Y-151193500D03*
X194183000Y-151193500D03*
%TD*%
D20*
%TO.C,TR1*%
X129921000Y-60960000D03*
X137287000Y-60960000D03*
X129921000Y-67754500D03*
X137287000Y-64325500D03*
X137287000Y-67754500D03*
G36*
G01*
X122732000Y-116003500D02*
X124283000Y-116003500D01*
G75*
G02*
X125058500Y-116779000I0J-775500D01*
G01*
X125058500Y-120330000D01*
G75*
G02*
X124283000Y-121105500I-775500J0D01*
G01*
X122732000Y-121105500D01*
G75*
G02*
X121956500Y-120330000I0J775500D01*
G01*
X121956500Y-116779000D01*
G75*
G02*
X122732000Y-116003500I775500J0D01*
G01*
G37*
G36*
G01*
X122732000Y-62028500D02*
X124283000Y-62028500D01*
G75*
G02*
X125058500Y-62804000I0J-775500D01*
G01*
X125058500Y-66355000D01*
G75*
G02*
X124283000Y-67130500I-775500J0D01*
G01*
X122732000Y-67130500D01*
G75*
G02*
X121956500Y-66355000I0J775500D01*
G01*
X121956500Y-62804000D01*
G75*
G02*
X122732000Y-62028500I775500J0D01*
G01*
G37*
%TD*%
D21*
%TO.C,J14*%
X181864000Y-149352000D03*
X171704000Y-149352000D03*
D22*
X176784000Y-144272000D03*
X179324000Y-144272000D03*
%TD*%
D23*
G36*
X149994165Y-152715208D02*
G01*
X149995000Y-152716834D01*
X149995000Y-152800971D01*
X149994990Y-152801167D01*
X149991056Y-152841111D01*
X149990980Y-152841496D01*
X149981119Y-152874005D01*
X149980969Y-152874367D01*
X149964955Y-152904325D01*
X149964737Y-152904651D01*
X149943187Y-152930910D01*
X149942910Y-152931187D01*
X149916651Y-152952737D01*
X149916325Y-152952955D01*
X149886367Y-152968969D01*
X149886005Y-152969119D01*
X149853496Y-152978980D01*
X149853111Y-152979056D01*
X149813167Y-152982990D01*
X149812971Y-152983000D01*
X149728834Y-152983000D01*
X149727102Y-152982000D01*
X149727102Y-152980000D01*
X149728638Y-152979010D01*
X149779975Y-152973954D01*
X149829157Y-152959035D01*
X149874481Y-152934809D01*
X149914207Y-152902207D01*
X149946809Y-152862481D01*
X149971035Y-152817157D01*
X149985954Y-152767975D01*
X149991010Y-152716638D01*
X149992175Y-152715012D01*
X149994165Y-152715208D01*
G37*
G36*
X148092990Y-152716638D02*
G01*
X148098046Y-152767975D01*
X148112965Y-152817157D01*
X148137191Y-152862481D01*
X148169793Y-152902207D01*
X148209519Y-152934809D01*
X148254843Y-152959035D01*
X148304025Y-152973954D01*
X148355362Y-152979010D01*
X148356988Y-152980175D01*
X148356792Y-152982165D01*
X148355166Y-152983000D01*
X148271029Y-152983000D01*
X148270833Y-152982990D01*
X148230889Y-152979056D01*
X148230504Y-152978980D01*
X148197995Y-152969119D01*
X148197633Y-152968969D01*
X148167675Y-152952955D01*
X148167349Y-152952737D01*
X148141090Y-152931187D01*
X148140813Y-152930910D01*
X148119263Y-152904651D01*
X148119045Y-152904325D01*
X148103031Y-152874367D01*
X148102881Y-152874005D01*
X148093020Y-152841496D01*
X148092944Y-152841111D01*
X148089010Y-152801167D01*
X148089000Y-152800971D01*
X148089000Y-152716834D01*
X148090000Y-152715102D01*
X148092000Y-152715102D01*
X148092990Y-152716638D01*
G37*
G36*
X205127796Y-150312203D02*
G01*
X205127410Y-150313990D01*
X205115889Y-150328028D01*
X205104524Y-150349292D01*
X205097524Y-150372367D01*
X205095161Y-150396358D01*
X205097524Y-150420349D01*
X205104524Y-150443424D01*
X205115889Y-150464688D01*
X205131184Y-150483325D01*
X205149821Y-150498620D01*
X205171085Y-150509985D01*
X205194160Y-150516985D01*
X205212235Y-150518765D01*
X205213861Y-150519930D01*
X205213665Y-150521920D01*
X205212039Y-150522755D01*
X205102439Y-150522755D01*
X204972850Y-150548532D01*
X204850783Y-150599094D01*
X204740924Y-150672499D01*
X204647499Y-150765924D01*
X204574094Y-150875783D01*
X204532759Y-150975574D01*
X204531172Y-150976792D01*
X204529324Y-150976027D01*
X204528997Y-150974229D01*
X204534269Y-150956844D01*
X204536633Y-150932851D01*
X204534270Y-150908860D01*
X204527269Y-150885786D01*
X204515904Y-150864522D01*
X204500609Y-150845885D01*
X204481971Y-150830590D01*
X204460707Y-150819224D01*
X204437634Y-150812227D01*
X204413641Y-150809863D01*
X204389650Y-150812226D01*
X204372275Y-150817497D01*
X204370327Y-150817043D01*
X204369746Y-150815129D01*
X204370929Y-150813735D01*
X204610388Y-150714548D01*
X204944367Y-150491390D01*
X205124450Y-150311307D01*
X205126382Y-150310789D01*
X205127796Y-150312203D01*
G37*
G36*
X194227050Y-150311307D02*
G01*
X194407133Y-150491390D01*
X194741112Y-150714548D01*
X194980572Y-150813736D01*
X194981790Y-150815323D01*
X194981025Y-150817171D01*
X194979226Y-150817498D01*
X194961848Y-150812226D01*
X194937857Y-150809863D01*
X194913866Y-150812226D01*
X194890791Y-150819226D01*
X194869527Y-150830591D01*
X194850891Y-150845886D01*
X194835595Y-150864523D01*
X194824230Y-150885787D01*
X194817230Y-150908862D01*
X194814867Y-150932853D01*
X194817231Y-150956845D01*
X194822503Y-150974229D01*
X194822049Y-150976176D01*
X194820135Y-150976757D01*
X194818741Y-150975574D01*
X194777406Y-150875783D01*
X194704001Y-150765924D01*
X194610576Y-150672499D01*
X194500717Y-150599094D01*
X194378650Y-150548532D01*
X194249061Y-150522755D01*
X194139461Y-150522755D01*
X194137729Y-150521755D01*
X194137729Y-150519755D01*
X194139265Y-150518765D01*
X194157340Y-150516985D01*
X194180415Y-150509985D01*
X194201679Y-150498620D01*
X194220316Y-150483325D01*
X194235611Y-150464688D01*
X194246976Y-150443424D01*
X194253976Y-150420349D01*
X194256339Y-150396358D01*
X194253976Y-150372367D01*
X194246976Y-150349292D01*
X194235611Y-150328028D01*
X194224090Y-150313990D01*
X194223764Y-150312016D01*
X194225310Y-150310748D01*
X194227050Y-150311307D01*
G37*
G36*
X148356898Y-149278000D02*
G01*
X148356898Y-149280000D01*
X148355362Y-149280990D01*
X148304025Y-149286046D01*
X148254843Y-149300965D01*
X148209519Y-149325191D01*
X148169793Y-149357793D01*
X148137191Y-149397519D01*
X148112965Y-149442843D01*
X148098046Y-149492025D01*
X148092990Y-149543362D01*
X148091825Y-149544988D01*
X148089835Y-149544792D01*
X148089000Y-149543166D01*
X148089000Y-149459029D01*
X148089010Y-149458833D01*
X148092944Y-149418889D01*
X148093020Y-149418504D01*
X148102881Y-149385995D01*
X148103031Y-149385633D01*
X148119045Y-149355675D01*
X148119263Y-149355349D01*
X148140813Y-149329090D01*
X148141090Y-149328813D01*
X148167349Y-149307263D01*
X148167675Y-149307045D01*
X148197633Y-149291031D01*
X148197995Y-149290881D01*
X148230504Y-149281020D01*
X148230889Y-149280944D01*
X148270833Y-149277010D01*
X148271029Y-149277000D01*
X148355166Y-149277000D01*
X148356898Y-149278000D01*
G37*
G36*
X149813167Y-149277010D02*
G01*
X149853111Y-149280944D01*
X149853496Y-149281020D01*
X149886005Y-149290881D01*
X149886367Y-149291031D01*
X149916325Y-149307045D01*
X149916651Y-149307263D01*
X149942910Y-149328813D01*
X149943187Y-149329090D01*
X149964737Y-149355349D01*
X149964955Y-149355675D01*
X149980969Y-149385633D01*
X149981119Y-149385995D01*
X149990980Y-149418504D01*
X149991056Y-149418889D01*
X149994990Y-149458833D01*
X149995000Y-149459029D01*
X149995000Y-149543166D01*
X149994000Y-149544898D01*
X149992000Y-149544898D01*
X149991010Y-149543362D01*
X149985954Y-149492025D01*
X149971035Y-149442843D01*
X149946809Y-149397519D01*
X149914207Y-149357793D01*
X149874481Y-149325191D01*
X149829157Y-149300965D01*
X149779975Y-149286046D01*
X149728638Y-149280990D01*
X149727012Y-149279825D01*
X149727208Y-149277835D01*
X149728834Y-149277000D01*
X149812971Y-149277000D01*
X149813167Y-149277010D01*
G37*
G36*
X121958490Y-120329804D02*
G01*
X121973371Y-120480898D01*
X122017388Y-120626002D01*
X122088866Y-120759729D01*
X122185060Y-120876940D01*
X122302271Y-120973134D01*
X122435998Y-121044612D01*
X122581102Y-121088629D01*
X122732196Y-121103510D01*
X122733822Y-121104675D01*
X122733626Y-121106665D01*
X122732000Y-121107500D01*
X122675640Y-121107500D01*
X122675444Y-121107490D01*
X122530325Y-121093197D01*
X122529940Y-121093121D01*
X122396294Y-121052580D01*
X122395932Y-121052430D01*
X122272773Y-120986600D01*
X122272447Y-120986382D01*
X122164491Y-120897786D01*
X122164214Y-120897509D01*
X122075618Y-120789553D01*
X122075400Y-120789227D01*
X122009570Y-120666068D01*
X122009420Y-120665706D01*
X121968879Y-120532060D01*
X121968803Y-120531675D01*
X121954510Y-120386556D01*
X121954500Y-120386360D01*
X121954500Y-120330000D01*
X121955500Y-120328268D01*
X121957500Y-120328268D01*
X121958490Y-120329804D01*
G37*
G36*
X125059665Y-120328374D02*
G01*
X125060500Y-120330000D01*
X125060500Y-120386360D01*
X125060490Y-120386556D01*
X125046197Y-120531675D01*
X125046121Y-120532060D01*
X125005580Y-120665706D01*
X125005430Y-120666068D01*
X124939600Y-120789227D01*
X124939382Y-120789553D01*
X124850786Y-120897509D01*
X124850509Y-120897786D01*
X124742553Y-120986382D01*
X124742227Y-120986600D01*
X124619068Y-121052430D01*
X124618706Y-121052580D01*
X124485060Y-121093121D01*
X124484675Y-121093197D01*
X124339556Y-121107490D01*
X124339360Y-121107500D01*
X124283000Y-121107500D01*
X124281268Y-121106500D01*
X124281268Y-121104500D01*
X124282804Y-121103510D01*
X124433898Y-121088629D01*
X124579002Y-121044612D01*
X124712729Y-120973134D01*
X124829940Y-120876940D01*
X124926134Y-120759729D01*
X124997612Y-120626002D01*
X125041629Y-120480898D01*
X125056510Y-120329804D01*
X125057675Y-120328178D01*
X125059665Y-120328374D01*
G37*
G36*
X122733732Y-116002500D02*
G01*
X122733732Y-116004500D01*
X122732196Y-116005490D01*
X122581102Y-116020371D01*
X122435998Y-116064388D01*
X122302271Y-116135866D01*
X122185060Y-116232060D01*
X122088866Y-116349271D01*
X122017388Y-116482998D01*
X121973371Y-116628102D01*
X121958490Y-116779196D01*
X121957325Y-116780822D01*
X121955335Y-116780626D01*
X121954500Y-116779000D01*
X121954500Y-116722640D01*
X121954510Y-116722444D01*
X121968803Y-116577325D01*
X121968879Y-116576940D01*
X122009420Y-116443294D01*
X122009570Y-116442932D01*
X122075400Y-116319773D01*
X122075618Y-116319447D01*
X122164214Y-116211491D01*
X122164491Y-116211214D01*
X122272447Y-116122618D01*
X122272773Y-116122400D01*
X122395932Y-116056570D01*
X122396294Y-116056420D01*
X122529940Y-116015879D01*
X122530325Y-116015803D01*
X122675444Y-116001510D01*
X122675640Y-116001500D01*
X122732000Y-116001500D01*
X122733732Y-116002500D01*
G37*
G36*
X124339556Y-116001510D02*
G01*
X124484675Y-116015803D01*
X124485060Y-116015879D01*
X124618706Y-116056420D01*
X124619068Y-116056570D01*
X124742227Y-116122400D01*
X124742553Y-116122618D01*
X124850509Y-116211214D01*
X124850786Y-116211491D01*
X124939382Y-116319447D01*
X124939600Y-116319773D01*
X125005430Y-116442932D01*
X125005580Y-116443294D01*
X125046121Y-116576940D01*
X125046197Y-116577325D01*
X125060490Y-116722444D01*
X125060500Y-116722640D01*
X125060500Y-116779000D01*
X125059500Y-116780732D01*
X125057500Y-116780732D01*
X125056510Y-116779196D01*
X125041629Y-116628102D01*
X124997612Y-116482998D01*
X124926134Y-116349271D01*
X124829940Y-116232060D01*
X124712729Y-116135866D01*
X124579002Y-116064388D01*
X124433898Y-116020371D01*
X124282804Y-116005490D01*
X124281178Y-116004325D01*
X124281374Y-116002335D01*
X124283000Y-116001500D01*
X124339360Y-116001500D01*
X124339556Y-116001510D01*
G37*
G36*
X121958490Y-66354804D02*
G01*
X121973371Y-66505898D01*
X122017388Y-66651002D01*
X122088866Y-66784729D01*
X122185060Y-66901940D01*
X122302271Y-66998134D01*
X122435998Y-67069612D01*
X122581102Y-67113629D01*
X122732196Y-67128510D01*
X122733822Y-67129675D01*
X122733626Y-67131665D01*
X122732000Y-67132500D01*
X122675640Y-67132500D01*
X122675444Y-67132490D01*
X122530325Y-67118197D01*
X122529940Y-67118121D01*
X122396294Y-67077580D01*
X122395932Y-67077430D01*
X122272773Y-67011600D01*
X122272447Y-67011382D01*
X122164491Y-66922786D01*
X122164214Y-66922509D01*
X122075618Y-66814553D01*
X122075400Y-66814227D01*
X122009570Y-66691068D01*
X122009420Y-66690706D01*
X121968879Y-66557060D01*
X121968803Y-66556675D01*
X121954510Y-66411556D01*
X121954500Y-66411360D01*
X121954500Y-66355000D01*
X121955500Y-66353268D01*
X121957500Y-66353268D01*
X121958490Y-66354804D01*
G37*
G36*
X125059665Y-66353374D02*
G01*
X125060500Y-66355000D01*
X125060500Y-66411360D01*
X125060490Y-66411556D01*
X125046197Y-66556675D01*
X125046121Y-66557060D01*
X125005580Y-66690706D01*
X125005430Y-66691068D01*
X124939600Y-66814227D01*
X124939382Y-66814553D01*
X124850786Y-66922509D01*
X124850509Y-66922786D01*
X124742553Y-67011382D01*
X124742227Y-67011600D01*
X124619068Y-67077430D01*
X124618706Y-67077580D01*
X124485060Y-67118121D01*
X124484675Y-67118197D01*
X124339556Y-67132490D01*
X124339360Y-67132500D01*
X124283000Y-67132500D01*
X124281268Y-67131500D01*
X124281268Y-67129500D01*
X124282804Y-67128510D01*
X124433898Y-67113629D01*
X124579002Y-67069612D01*
X124712729Y-66998134D01*
X124829940Y-66901940D01*
X124926134Y-66784729D01*
X124997612Y-66651002D01*
X125041629Y-66505898D01*
X125056510Y-66354804D01*
X125057675Y-66353178D01*
X125059665Y-66353374D01*
G37*
G36*
X122733732Y-62027500D02*
G01*
X122733732Y-62029500D01*
X122732196Y-62030490D01*
X122581102Y-62045371D01*
X122435998Y-62089388D01*
X122302271Y-62160866D01*
X122185060Y-62257060D01*
X122088866Y-62374271D01*
X122017388Y-62507998D01*
X121973371Y-62653102D01*
X121958490Y-62804196D01*
X121957325Y-62805822D01*
X121955335Y-62805626D01*
X121954500Y-62804000D01*
X121954500Y-62747640D01*
X121954510Y-62747444D01*
X121968803Y-62602325D01*
X121968879Y-62601940D01*
X122009420Y-62468294D01*
X122009570Y-62467932D01*
X122075400Y-62344773D01*
X122075618Y-62344447D01*
X122164214Y-62236491D01*
X122164491Y-62236214D01*
X122272447Y-62147618D01*
X122272773Y-62147400D01*
X122395932Y-62081570D01*
X122396294Y-62081420D01*
X122529940Y-62040879D01*
X122530325Y-62040803D01*
X122675444Y-62026510D01*
X122675640Y-62026500D01*
X122732000Y-62026500D01*
X122733732Y-62027500D01*
G37*
G36*
X124339556Y-62026510D02*
G01*
X124484675Y-62040803D01*
X124485060Y-62040879D01*
X124618706Y-62081420D01*
X124619068Y-62081570D01*
X124742227Y-62147400D01*
X124742553Y-62147618D01*
X124850509Y-62236214D01*
X124850786Y-62236491D01*
X124939382Y-62344447D01*
X124939600Y-62344773D01*
X125005430Y-62467932D01*
X125005580Y-62468294D01*
X125046121Y-62601940D01*
X125046197Y-62602325D01*
X125060490Y-62747444D01*
X125060500Y-62747640D01*
X125060500Y-62804000D01*
X125059500Y-62805732D01*
X125057500Y-62805732D01*
X125056510Y-62804196D01*
X125041629Y-62653102D01*
X124997612Y-62507998D01*
X124926134Y-62374271D01*
X124829940Y-62257060D01*
X124712729Y-62160866D01*
X124579002Y-62089388D01*
X124433898Y-62045371D01*
X124282804Y-62030490D01*
X124281178Y-62029325D01*
X124281374Y-62027335D01*
X124283000Y-62026500D01*
X124339360Y-62026500D01*
X124339556Y-62026510D01*
G37*
M02*
