%TF.GenerationSoftware,KiCad,Pcbnew,(5.1.10)-1*%
%TF.CreationDate,2022-11-16T01:08:31-03:00*%
%TF.ProjectId,potenciostato,706f7465-6e63-4696-9f73-7461746f2e6b,rev?*%
%TF.SameCoordinates,Original*%
%TF.FileFunction,Legend,Bot*%
%TF.FilePolarity,Positive*%
%FSLAX46Y46*%
G04 Gerber Fmt 4.6, Leading zero omitted, Abs format (unit mm)*
G04 Created by KiCad (PCBNEW (5.1.10)-1) date 2022-11-16 01:08:31*
%MOMM*%
%LPD*%
G01*
G04 APERTURE LIST*
%ADD10C,0.200000*%
%ADD11C,0.120000*%
%ADD12C,0.150000*%
G04 APERTURE END LIST*
D10*
X122621200Y-71652000D02*
X122813700Y-71705200D01*
X122118700Y-71990300D02*
X122187517Y-71797655D01*
X122187517Y-71797655D02*
X122251800Y-71741800D01*
X122325300Y-72428100D02*
X122533917Y-72412411D01*
X122533917Y-72412411D02*
X122727592Y-72358990D01*
X122727592Y-72358990D02*
X122883900Y-72267800D01*
X122882800Y-71854599D02*
X122820235Y-72045263D01*
X122820235Y-72045263D02*
X122750400Y-72109300D01*
X122750400Y-72109300D02*
X122556479Y-72186013D01*
X122556479Y-72186013D02*
X122381700Y-72201200D01*
X122251800Y-71741800D02*
X122446156Y-71666869D01*
X122446156Y-71666869D02*
X122621200Y-71652000D01*
X122666800Y-71425200D02*
X122461270Y-71440782D01*
X122461270Y-71440782D02*
X122254827Y-71500603D01*
X122254827Y-71500603D02*
X122116200Y-71584700D01*
X122026100Y-72322500D02*
X122203484Y-72415645D01*
X122203484Y-72415645D02*
X122325300Y-72428100D01*
X122381700Y-72201200D02*
X122188200Y-72145500D01*
X122116200Y-71584700D02*
X121981013Y-71748393D01*
X121981013Y-71748393D02*
X121923145Y-71943392D01*
X121923145Y-71943392D02*
X121918300Y-72029400D01*
X122188200Y-72145500D02*
X122118700Y-71990300D01*
X122974000Y-71530800D02*
X122792002Y-71437724D01*
X122792002Y-71437724D02*
X122666800Y-71425200D01*
X123084300Y-71823900D02*
X123041331Y-71621376D01*
X123041331Y-71621376D02*
X122974000Y-71530800D01*
X122813700Y-71705200D02*
X122882800Y-71854599D01*
X122883900Y-72267800D02*
X123021016Y-72104173D01*
X123021016Y-72104173D02*
X123079425Y-71909588D01*
X123079425Y-71909588D02*
X123084300Y-71823900D01*
X123287300Y-72882800D02*
X123241400Y-72993800D01*
X123555000Y-72993800D02*
X123509500Y-72882800D01*
X123509500Y-73104900D02*
X123555000Y-72993800D01*
X123398000Y-73150800D02*
X123509500Y-73104900D01*
X123287300Y-73104900D02*
X123398000Y-73150800D01*
X121964600Y-74304100D02*
X121918300Y-74415200D01*
X122186700Y-74525900D02*
X122232300Y-74415200D01*
X121964600Y-74525900D02*
X122075300Y-74572200D01*
X123341900Y-76088800D02*
X123534800Y-76111200D01*
X123316600Y-75895899D02*
X123353500Y-75983800D01*
X123197900Y-75887600D02*
X123316600Y-75895899D01*
X122417500Y-75050800D02*
X122236611Y-75151969D01*
X122236611Y-75151969D02*
X122154900Y-75221900D01*
X122807600Y-75767899D02*
X122807600Y-75675600D01*
X122727200Y-75730600D02*
X122917718Y-75647167D01*
X122917718Y-75647167D02*
X122991000Y-75575700D01*
X122186700Y-74304100D02*
X122075300Y-74258599D01*
X123398000Y-72837200D02*
X123287300Y-72882800D01*
X123551800Y-75949800D02*
X123509718Y-75750970D01*
X123509718Y-75750970D02*
X123462800Y-75696599D01*
X123509500Y-72882800D02*
X123398000Y-72837200D01*
X122991000Y-75575700D02*
X123075188Y-75386471D01*
X123075188Y-75386471D02*
X123084300Y-75282300D01*
X122075300Y-74572200D02*
X122186700Y-74525900D01*
X123462800Y-75696599D02*
X123257623Y-75653002D01*
X123257623Y-75653002D02*
X123176600Y-75663700D01*
X121918300Y-74415200D02*
X121964600Y-74525900D01*
X122655200Y-75704200D02*
X122460733Y-75784213D01*
X122460733Y-75784213D02*
X122351000Y-75809099D01*
X123548200Y-76030500D02*
X123551800Y-75949800D01*
X121939600Y-75881100D02*
X121940700Y-76109000D01*
X122351000Y-75809099D02*
X122807600Y-75767899D01*
X123534800Y-76111200D02*
X123548200Y-76030500D01*
X121980500Y-75479900D02*
X121927090Y-75674879D01*
X121927090Y-75674879D02*
X121918300Y-75801500D01*
X121940700Y-76109000D02*
X123197900Y-75887600D01*
X122745300Y-74989600D02*
X122544289Y-75011132D01*
X122544289Y-75011132D02*
X122417500Y-75050800D01*
X122281900Y-73114700D02*
X122123767Y-72987971D01*
X122123767Y-72987971D02*
X122119800Y-72932300D01*
X122154900Y-75221900D02*
X122029029Y-75382773D01*
X122029029Y-75382773D02*
X121980500Y-75479900D01*
X121918300Y-72029400D02*
X121960482Y-72231923D01*
X121960482Y-72231923D02*
X122026100Y-72322500D01*
X122133200Y-72839700D02*
X122178000Y-72744899D01*
X122119800Y-72932300D02*
X122133200Y-72839700D01*
X122419700Y-73085000D02*
X122281900Y-73114700D01*
X122007600Y-72671800D02*
X121944300Y-72808600D01*
X122995700Y-75066700D02*
X122803382Y-74992310D01*
X122803382Y-74992310D02*
X122745300Y-74989600D01*
X123241400Y-72993800D02*
X123287300Y-73104900D01*
X122548500Y-73031500D02*
X122419700Y-73085000D01*
X123351000Y-76036299D02*
X123341900Y-76088800D01*
X122688900Y-72984400D02*
X122548500Y-73031500D01*
X123176600Y-75663700D02*
X121939600Y-75881100D01*
X122984100Y-73025700D02*
X122791209Y-72968370D01*
X122791209Y-72968370D02*
X122688900Y-72984400D01*
X123084300Y-73334300D02*
X123052637Y-73128623D01*
X123052637Y-73128623D02*
X122984100Y-73025700D01*
X123078500Y-73459500D02*
X123084300Y-73334300D01*
X121944300Y-72808600D02*
X121918300Y-72973900D01*
X122232300Y-74415200D02*
X122186700Y-74304100D01*
X123054700Y-73584300D02*
X123078500Y-73459500D01*
X122075300Y-74258599D02*
X121964600Y-74304100D01*
X123353500Y-75983800D02*
X123351000Y-76036299D01*
X122861800Y-73562200D02*
X123054700Y-73584300D01*
X122807600Y-75675600D02*
X122727200Y-75730600D01*
X122886100Y-73368300D02*
X122861800Y-73562200D01*
X122841600Y-73226500D02*
X122886100Y-73368300D01*
X122573500Y-73254300D02*
X122710200Y-73208000D01*
X122710200Y-73208000D02*
X122841600Y-73226500D01*
X122427300Y-73310400D02*
X122573500Y-73254300D01*
X122272500Y-73341500D02*
X122427300Y-73310400D01*
X122008300Y-73259000D02*
X122200461Y-73341294D01*
X122200461Y-73341294D02*
X122272500Y-73341500D01*
X121918300Y-72973900D02*
X121953456Y-73175129D01*
X121953456Y-73175129D02*
X122008300Y-73259000D01*
X123084300Y-75282300D02*
X123021302Y-75092142D01*
X123021302Y-75092142D02*
X122995700Y-75066700D01*
X122178000Y-72744899D02*
X122007600Y-72671800D01*
X122827800Y-75543900D02*
X122683571Y-75686135D01*
X122683571Y-75686135D02*
X122655200Y-75704200D01*
X122833600Y-77715199D02*
X122882800Y-77827000D01*
X121929100Y-76268800D02*
X121959100Y-76451200D01*
X122807600Y-78122600D02*
X122983140Y-78022531D01*
X122983140Y-78022531D02*
X123012300Y-77986500D01*
X122613300Y-77234100D02*
X122814617Y-77170720D01*
X122814617Y-77170720D02*
X123016889Y-77093172D01*
X123016889Y-77093172D02*
X123084300Y-77065099D01*
X121924400Y-75955300D02*
X121940700Y-76109000D01*
X122255100Y-76673000D02*
X122445884Y-76582872D01*
X122445884Y-76582872D02*
X122646600Y-76531799D01*
X123341900Y-78503200D02*
X123534800Y-78525600D01*
X122882800Y-75367000D02*
X122827800Y-75543900D01*
X122835799Y-75255500D02*
X122882800Y-75367000D01*
X122256500Y-76560400D02*
X122076400Y-76645100D01*
X123551800Y-78364200D02*
X123509718Y-78165775D01*
X123509718Y-78165775D02*
X123462800Y-78111700D01*
X123353500Y-78398200D02*
X123351000Y-78450699D01*
X122882800Y-77827000D02*
X122833199Y-77988000D01*
X122118700Y-76905900D02*
X122202005Y-76715489D01*
X122202005Y-76715489D02*
X122255100Y-76673000D01*
X123351000Y-78450699D02*
X123341900Y-78503200D01*
X122981900Y-77504200D02*
X122783814Y-77460906D01*
X122783814Y-77460906D02*
X122678400Y-77473100D01*
X122254400Y-77286600D02*
X122459222Y-77268134D01*
X122459222Y-77268134D02*
X122613300Y-77234100D01*
X122702600Y-75216500D02*
X122835799Y-75255500D01*
X122471800Y-75258800D02*
X122671691Y-75217160D01*
X122671691Y-75217160D02*
X122702600Y-75216500D01*
X122581400Y-77007599D02*
X122379277Y-77052364D01*
X122379277Y-77052364D02*
X122280800Y-77059700D01*
X123012300Y-77986500D02*
X123081785Y-77794062D01*
X123081785Y-77794062D02*
X123084300Y-77742299D01*
X121929100Y-76219299D02*
X121929100Y-76268800D01*
X123043100Y-76840100D02*
X122846434Y-76917909D01*
X122846434Y-76917909D02*
X122652695Y-76985974D01*
X122652695Y-76985974D02*
X122581400Y-77007599D01*
X123084300Y-77065099D02*
X123043100Y-76840100D01*
X121939600Y-78524500D02*
X123197900Y-78302000D01*
X122286600Y-75377499D02*
X122458616Y-75264223D01*
X122458616Y-75264223D02*
X122471800Y-75258800D01*
X122119800Y-75778300D02*
X122156041Y-75575579D01*
X122156041Y-75575579D02*
X122163900Y-75556199D01*
X122156000Y-76353100D02*
X122114300Y-76231900D01*
X122205500Y-76551000D02*
X122205500Y-76620900D01*
X122161000Y-77019600D02*
X122118700Y-76905900D01*
X122146200Y-76003000D02*
X122119905Y-75797441D01*
X122119905Y-75797441D02*
X122119800Y-75778300D01*
X122163900Y-75556199D02*
X122276892Y-75387163D01*
X122276892Y-75387163D02*
X122286600Y-75377499D01*
X121940700Y-76109000D02*
X122146200Y-76003000D01*
X121917200Y-76975099D02*
X121975740Y-77171896D01*
X121975740Y-77171896D02*
X122005800Y-77204800D01*
X123316600Y-78310300D02*
X123353500Y-78398200D01*
X122807600Y-78169200D02*
X122807600Y-78122600D01*
X122646600Y-76531799D02*
X122205500Y-76551000D01*
X122221400Y-76553900D02*
X122449400Y-76566899D01*
X122114300Y-76186300D02*
X121929100Y-76219299D01*
X122298900Y-76363200D02*
X122156000Y-76353100D01*
X122353100Y-78222400D02*
X122807600Y-78169200D01*
X123548200Y-78444900D02*
X123551800Y-78364200D01*
X123534800Y-78525600D02*
X123548200Y-78444900D01*
X122678400Y-77473100D02*
X121939600Y-77603399D01*
X121958800Y-76769900D02*
X121917267Y-76967106D01*
X121917267Y-76967106D02*
X121917200Y-76975099D01*
X122076400Y-76645100D02*
X121958800Y-76769900D01*
X123176600Y-78078100D02*
X121939600Y-78296600D01*
X122205500Y-76620900D02*
X122256500Y-76560400D01*
X122833199Y-77988000D02*
X122674391Y-78117418D01*
X122674391Y-78117418D02*
X122667200Y-78121100D01*
X122005800Y-77204800D02*
X122196854Y-77283729D01*
X122196854Y-77283729D02*
X122254400Y-77286600D01*
X121939600Y-78296600D02*
X121939600Y-78524500D01*
X123462800Y-78111700D02*
X123257623Y-78067812D01*
X123257623Y-78067812D02*
X123176600Y-78078100D01*
X122667200Y-78121100D02*
X122479591Y-78191291D01*
X122479591Y-78191291D02*
X122353100Y-78222400D01*
X123063000Y-76227600D02*
X122298900Y-76363200D01*
X122449400Y-76566899D02*
X123063000Y-76457700D01*
X123197900Y-78302000D02*
X123316600Y-78310300D01*
X122280800Y-77059700D02*
X122161000Y-77019600D01*
X122053900Y-76543400D02*
X122221400Y-76553900D01*
X121918300Y-75801500D02*
X121924400Y-75955300D01*
X122114300Y-76231900D02*
X122114300Y-76186300D01*
X123063000Y-76457700D02*
X123063000Y-76227600D01*
X121959100Y-76451200D02*
X122053900Y-76543400D01*
X123084300Y-77742299D02*
X123026756Y-77544313D01*
X123026756Y-77544313D02*
X122981900Y-77504200D01*
X121939600Y-77603399D02*
X121939600Y-77831300D01*
X122178000Y-79988099D02*
X122007600Y-79915000D01*
X122178000Y-78801200D02*
X121996800Y-78759600D01*
X122563000Y-79455999D02*
X123402400Y-79308800D01*
X123398000Y-80080399D02*
X123287300Y-80125999D01*
X122886100Y-80611500D02*
X122861800Y-80805400D01*
X122710200Y-80451200D02*
X122841600Y-80469700D01*
X121918300Y-80217100D02*
X121953456Y-80418329D01*
X121953456Y-80418329D02*
X122008300Y-80502200D01*
X123073800Y-81036099D02*
X122872300Y-81201499D01*
X122158900Y-79221900D02*
X122119800Y-79075400D01*
X123402400Y-79308800D02*
X123402400Y-79080800D01*
X122427300Y-80553600D02*
X122573500Y-80497500D01*
X122233400Y-82133500D02*
X122436648Y-82107770D01*
X122436648Y-82107770D02*
X122579300Y-82052400D01*
X122984100Y-80268900D02*
X122791209Y-80211570D01*
X122791209Y-80211570D02*
X122688900Y-80227600D01*
X121918300Y-79117000D02*
X121950829Y-79320274D01*
X121950829Y-79320274D02*
X122001500Y-79403600D01*
X122573500Y-80497500D02*
X122710200Y-80451200D01*
X122686700Y-77700700D02*
X122833600Y-77715199D01*
X123509500Y-80125999D02*
X123398000Y-80080399D01*
X122001500Y-79403600D02*
X122188235Y-79491083D01*
X122188235Y-79491083D02*
X122260900Y-79495500D01*
X122235199Y-81416700D02*
X122052723Y-81516096D01*
X122052723Y-81516096D02*
X122000400Y-81571600D01*
X122119800Y-80175500D02*
X122133200Y-80082900D01*
X121939600Y-77831300D02*
X122686700Y-77700700D01*
X122866200Y-78676000D02*
X122866200Y-79665900D01*
X122866200Y-79665900D02*
X123063000Y-79631100D01*
X123287300Y-80125999D02*
X123241400Y-80237000D01*
X122008300Y-80502200D02*
X122200461Y-80584494D01*
X122200461Y-80584494D02*
X122272500Y-80584700D01*
X122844800Y-81824800D02*
X122952688Y-81644469D01*
X122952688Y-81644469D02*
X123014500Y-81481900D01*
X121941000Y-78921300D02*
X121918300Y-79117000D01*
X122437800Y-79477700D02*
X122563000Y-79455999D01*
X121944300Y-80051800D02*
X121918300Y-80217100D01*
X122000000Y-82053500D02*
X122187913Y-82131538D01*
X122187913Y-82131538D02*
X122233400Y-82133500D01*
X122184500Y-81467700D02*
X122235199Y-81416700D01*
X122119800Y-79075400D02*
X122132400Y-78939700D01*
X122132400Y-78939700D02*
X122178000Y-78801200D01*
X122272500Y-80584700D02*
X122427300Y-80553600D01*
X123509500Y-80348100D02*
X123555000Y-80237000D01*
X122281900Y-79268600D02*
X122158900Y-79221900D01*
X122346300Y-79491100D02*
X122437800Y-79477700D01*
X121917200Y-81827000D02*
X121971960Y-82021065D01*
X121971960Y-82021065D02*
X122000000Y-82053500D01*
X122563000Y-79228100D02*
X122399400Y-79257399D01*
X123402400Y-79080800D02*
X122563000Y-79228100D01*
X122841600Y-80469700D02*
X122886100Y-80611500D01*
X123073800Y-81055300D02*
X123073800Y-81036099D01*
X122548500Y-80274700D02*
X122419700Y-80328200D01*
X123014500Y-81481900D02*
X123058925Y-81277000D01*
X123058925Y-81277000D02*
X123073741Y-81069648D01*
X123073741Y-81069648D02*
X123073800Y-81055300D01*
X122688900Y-80227600D02*
X122548500Y-80274700D01*
X123078500Y-80702700D02*
X123084300Y-80577500D01*
X123398000Y-80394000D02*
X123509500Y-80348100D01*
X122007600Y-79915000D02*
X121944300Y-80051800D01*
X123054700Y-80827500D02*
X123078500Y-80702700D01*
X123555000Y-80237000D02*
X123509500Y-80125999D01*
X123287300Y-80348100D02*
X123398000Y-80394000D01*
X123241400Y-80237000D02*
X123287300Y-80348100D01*
X122579300Y-82052400D02*
X122747808Y-81932983D01*
X122747808Y-81932983D02*
X122844800Y-81824800D01*
X122133200Y-80082900D02*
X122178000Y-79988099D01*
X122281900Y-80357900D02*
X122123767Y-80231171D01*
X122123767Y-80231171D02*
X122119800Y-80175500D01*
X122861800Y-80805400D02*
X123054700Y-80827500D01*
X123063000Y-79631100D02*
X123063000Y-78640900D01*
X123063000Y-78640900D02*
X122866200Y-78676000D01*
X122419700Y-80328200D02*
X122281900Y-80357900D01*
X121996800Y-78759600D02*
X121941000Y-78921300D01*
X122260900Y-79495500D02*
X122346300Y-79491100D01*
X122000400Y-81571600D02*
X121921308Y-81764105D01*
X121921308Y-81764105D02*
X121917200Y-81827000D01*
X122399400Y-79257399D02*
X122281900Y-79268600D01*
X123084300Y-80577500D02*
X123052637Y-80371823D01*
X123052637Y-80371823D02*
X122984100Y-80268900D01*
X122866200Y-85701900D02*
X123063000Y-85667100D01*
X122118700Y-84062300D02*
X122187517Y-83869655D01*
X122187517Y-83869655D02*
X122251800Y-83813800D01*
X122184500Y-81344700D02*
X122184500Y-81467700D01*
X123073800Y-81035400D02*
X122152700Y-81198600D01*
X122917900Y-81290800D02*
X123073800Y-81043699D01*
X121964600Y-82754499D02*
X121918300Y-82865600D01*
X121964600Y-82976300D02*
X122075300Y-83022600D01*
X122186700Y-82976300D02*
X122232300Y-82865600D01*
X122119800Y-85111400D02*
X122132400Y-84975700D01*
X121941000Y-84957300D02*
X121918300Y-85153000D01*
X123063000Y-84676900D02*
X122866200Y-84712000D01*
X122188200Y-84217499D02*
X122118700Y-84062300D01*
X122399400Y-85293400D02*
X122281900Y-85304600D01*
X122974000Y-83602800D02*
X122792002Y-83509724D01*
X122792002Y-83509724D02*
X122666800Y-83497200D01*
X121918300Y-82865600D02*
X121964600Y-82976300D01*
X122599900Y-81221700D02*
X122184500Y-81344700D01*
X122688900Y-81330999D02*
X122599900Y-81221700D01*
X122358900Y-81426900D02*
X122555306Y-81357306D01*
X122555306Y-81357306D02*
X122646600Y-81338200D01*
X122118700Y-81758300D02*
X122179800Y-81569400D01*
X122155200Y-81867900D02*
X122118700Y-81758300D01*
X122259800Y-81906599D02*
X122155200Y-81867900D01*
X122152700Y-81198600D02*
X121958177Y-81246062D01*
X121958177Y-81246062D02*
X121877000Y-81275300D01*
X121628100Y-82171400D02*
X121641800Y-81948900D01*
X121918300Y-84101400D02*
X121960482Y-84303923D01*
X121960482Y-84303923D02*
X122026100Y-84394500D01*
X122750400Y-84181300D02*
X122556479Y-84258013D01*
X122556479Y-84258013D02*
X122381700Y-84273200D01*
X122281900Y-85304600D02*
X122158900Y-85257900D01*
X122872300Y-81201499D02*
X122841380Y-81404527D01*
X122841380Y-81404527D02*
X122817300Y-81478199D01*
X123084300Y-83895900D02*
X123041331Y-83693376D01*
X123041331Y-83693376D02*
X122974000Y-83602800D01*
X122158900Y-85257900D02*
X122119800Y-85111400D01*
X122495700Y-81852300D02*
X122299050Y-81905273D01*
X122299050Y-81905273D02*
X122259800Y-81906599D01*
X122381700Y-84273200D02*
X122188200Y-84217499D01*
X122866200Y-84712000D02*
X122866200Y-85701900D01*
X122178000Y-84837200D02*
X121996800Y-84795599D01*
X122325300Y-84500099D02*
X122533917Y-84484411D01*
X122533917Y-84484411D02*
X122727592Y-84430989D01*
X122727592Y-84430989D02*
X122883900Y-84339800D01*
X123063000Y-85667100D02*
X123063000Y-84676900D01*
X121655600Y-81412400D02*
X121530385Y-81578389D01*
X121530385Y-81578389D02*
X121504000Y-81635600D01*
X121950100Y-81479000D02*
X122118700Y-81431600D01*
X122075300Y-82709000D02*
X121964600Y-82754499D01*
X122882800Y-83926599D02*
X122820235Y-84117263D01*
X122820235Y-84117263D02*
X122750400Y-84181300D01*
X122075300Y-83022600D02*
X122186700Y-82976300D01*
X122026100Y-84394500D02*
X122203484Y-84487644D01*
X122203484Y-84487644D02*
X122325300Y-84500099D01*
X121877000Y-81275300D02*
X121698852Y-81376165D01*
X121698852Y-81376165D02*
X121655600Y-81412400D01*
X121641800Y-81948900D02*
X121682450Y-81747339D01*
X121682450Y-81747339D02*
X121692500Y-81723500D01*
X121430900Y-82161000D02*
X121628100Y-82171400D01*
X122686399Y-81702499D02*
X122528959Y-81834485D01*
X122528959Y-81834485D02*
X122495700Y-81852300D01*
X122817300Y-81478199D02*
X122720675Y-81658938D01*
X122720675Y-81658938D02*
X122686399Y-81702499D01*
X122116200Y-83656700D02*
X121981013Y-83820393D01*
X121981013Y-83820393D02*
X121923145Y-84015392D01*
X121923145Y-84015392D02*
X121918300Y-84101400D01*
X121996800Y-84795599D02*
X121941000Y-84957300D01*
X122132400Y-84975700D02*
X122178000Y-84837200D01*
X121439200Y-81969900D02*
X121430900Y-82161000D01*
X122186700Y-82754499D02*
X122075300Y-82709000D01*
X121504000Y-81635600D02*
X121452337Y-81830058D01*
X121452337Y-81830058D02*
X121439200Y-81969900D01*
X123073800Y-81043699D02*
X123073800Y-81035400D01*
X122646600Y-81338200D02*
X122688900Y-81330999D01*
X121692500Y-81723500D02*
X121801800Y-81571600D01*
X122232300Y-82865600D02*
X122186700Y-82754499D01*
X122621200Y-83723999D02*
X122813700Y-83777200D01*
X122666800Y-83497200D02*
X122461270Y-83512782D01*
X122461270Y-83512782D02*
X122254827Y-83572602D01*
X122254827Y-83572602D02*
X122116200Y-83656700D01*
X122179800Y-81569400D02*
X122337241Y-81438099D01*
X122337241Y-81438099D02*
X122358900Y-81426900D01*
X122118700Y-81431600D02*
X122917900Y-81290800D01*
X121801800Y-81571600D02*
X121950100Y-81479000D01*
X122813700Y-83777200D02*
X122882800Y-83926599D01*
X122251800Y-83813800D02*
X122446156Y-83738868D01*
X122446156Y-83738868D02*
X122621200Y-83723999D01*
X122883900Y-84339800D02*
X123021016Y-84176173D01*
X123021016Y-84176173D02*
X123079425Y-83981588D01*
X123079425Y-83981588D02*
X123084300Y-83895900D01*
X122233400Y-86209700D02*
X122205500Y-86148200D01*
X122275700Y-86023000D02*
X122152700Y-86009600D01*
X121996800Y-87210000D02*
X121941000Y-87371699D01*
X122132400Y-87390099D02*
X122178000Y-87251599D01*
X122495700Y-86699900D02*
X122299050Y-86752873D01*
X122299050Y-86752873D02*
X122259800Y-86754199D01*
X122872300Y-86045100D02*
X122841380Y-86248468D01*
X122841380Y-86248468D02*
X122817300Y-86322600D01*
X122866200Y-88116300D02*
X123063000Y-88081500D01*
X122152700Y-86009600D02*
X122114300Y-85888399D01*
X122158900Y-87672300D02*
X122119800Y-87525799D01*
X121929100Y-85876900D02*
X121929100Y-85952100D01*
X122205500Y-86148200D02*
X122205500Y-86271200D01*
X122233400Y-86981100D02*
X122436648Y-86955535D01*
X122436648Y-86955535D02*
X122579300Y-86900000D01*
X123014500Y-86330600D02*
X123058925Y-86125899D01*
X123058925Y-86125899D02*
X123073741Y-85918747D01*
X123073741Y-85918747D02*
X123073800Y-85904400D01*
X122119800Y-87525799D02*
X122132400Y-87390099D01*
X123402400Y-87759200D02*
X123402400Y-87531200D01*
X123402400Y-87531200D02*
X122563000Y-87678500D01*
X122114300Y-85888399D02*
X122114300Y-85845000D01*
X122346300Y-85527099D02*
X122437800Y-85513700D01*
X122260900Y-85531500D02*
X122346300Y-85527099D01*
X121929100Y-85952100D02*
X121945399Y-86088100D01*
X123073800Y-85883000D02*
X122275700Y-86023000D01*
X122178000Y-87251599D02*
X121996800Y-87210000D01*
X122399400Y-87707800D02*
X122281900Y-87719000D01*
X122267000Y-86214800D02*
X122088363Y-86312627D01*
X122088363Y-86312627D02*
X122009100Y-86395000D01*
X122817300Y-86322600D02*
X122720675Y-86504368D01*
X122720675Y-86504368D02*
X122686399Y-86548400D01*
X121941000Y-87371699D02*
X121918300Y-87567400D01*
X121945399Y-86088100D02*
X121997500Y-86173199D01*
X122281900Y-87719000D02*
X122158900Y-87672300D01*
X122646600Y-86186200D02*
X122954100Y-86131200D01*
X122009100Y-86395000D02*
X121926320Y-86582216D01*
X121926320Y-86582216D02*
X121917200Y-86680000D01*
X121997500Y-86173199D02*
X122091200Y-86211500D01*
X122000000Y-86902900D02*
X122187913Y-86979188D01*
X122187913Y-86979188D02*
X122233400Y-86981100D01*
X122563000Y-85264100D02*
X122399400Y-85293400D01*
X122118700Y-86611300D02*
X122183817Y-86420086D01*
X122183817Y-86420086D02*
X122256500Y-86345400D01*
X122579300Y-86900000D02*
X122747808Y-86780784D01*
X122747808Y-86780784D02*
X122844800Y-86672800D01*
X122954100Y-86131200D02*
X122872300Y-86045100D01*
X123402400Y-85344800D02*
X123402400Y-85116800D01*
X122437800Y-85513700D02*
X122563000Y-85491999D01*
X122259800Y-86754199D02*
X122155200Y-86716600D01*
X122563000Y-87678500D02*
X122399400Y-87707800D01*
X122686399Y-86548400D02*
X122528959Y-86681759D01*
X122528959Y-86681759D02*
X122495700Y-86699900D01*
X122091200Y-86211500D02*
X122233400Y-86209700D01*
X122844800Y-86672800D02*
X122952688Y-86492464D01*
X122952688Y-86492464D02*
X123014500Y-86330600D01*
X123063000Y-88081500D02*
X123063000Y-87091299D01*
X122563000Y-87906400D02*
X123402400Y-87759200D01*
X122866200Y-87126399D02*
X122866200Y-88116300D01*
X122001500Y-85439600D02*
X122188235Y-85527083D01*
X122188235Y-85527083D02*
X122260900Y-85531500D01*
X123402400Y-85116800D02*
X122563000Y-85264100D01*
X122563000Y-85491999D02*
X123402400Y-85344800D01*
X121918300Y-85153000D02*
X121950829Y-85356274D01*
X121950829Y-85356274D02*
X122001500Y-85439600D01*
X122155200Y-86716600D02*
X122118700Y-86611300D01*
X122256500Y-86345400D02*
X122435199Y-86243938D01*
X122435199Y-86243938D02*
X122630934Y-86189116D01*
X122630934Y-86189116D02*
X122646600Y-86186200D01*
X122205500Y-86271200D02*
X122267000Y-86214800D01*
X122114300Y-85845000D02*
X121929100Y-85876900D01*
X121917200Y-86680000D02*
X121976231Y-86876739D01*
X121976231Y-86876739D02*
X122000000Y-86902900D01*
X123073800Y-85904400D02*
X123073800Y-85883000D01*
X123063000Y-87091299D02*
X122866200Y-87126399D01*
X123084300Y-91442299D02*
X123052637Y-91236623D01*
X123052637Y-91236623D02*
X122984100Y-91133700D01*
X122137100Y-89090800D02*
X122119800Y-88906000D01*
X122882800Y-89962600D02*
X122820235Y-90153263D01*
X122820235Y-90153263D02*
X122750400Y-90217300D01*
X123054700Y-91692299D02*
X123078500Y-91567500D01*
X122285100Y-88386400D02*
X122089631Y-88449061D01*
X122089631Y-88449061D02*
X122014500Y-88531900D01*
X122688499Y-89001500D02*
X122656000Y-88941800D01*
X122251800Y-89849800D02*
X122446156Y-89774869D01*
X122446156Y-89774869D02*
X122621200Y-89760000D01*
X123076000Y-88477200D02*
X123052500Y-88286899D01*
X122734500Y-89021400D02*
X122688499Y-89001500D01*
X122882800Y-88706600D02*
X122857540Y-88906045D01*
X122857540Y-88906045D02*
X122844500Y-88939200D01*
X122281900Y-91222700D02*
X122123767Y-91095970D01*
X122123767Y-91095970D02*
X122119800Y-91040299D01*
X122133200Y-90947700D02*
X122178000Y-90852900D01*
X122984100Y-91133700D02*
X122791209Y-91076370D01*
X122791209Y-91076370D02*
X122688900Y-91092400D01*
X122861800Y-91670200D02*
X123054700Y-91692299D01*
X122844500Y-88939200D02*
X122734500Y-89021400D01*
X122188200Y-90253500D02*
X122118700Y-90098300D01*
X123084300Y-88674800D02*
X123076000Y-88477200D01*
X122713500Y-89249300D02*
X122911204Y-89184801D01*
X122911204Y-89184801D02*
X122987400Y-89099500D01*
X122570200Y-89193200D02*
X122713500Y-89249300D01*
X122364700Y-88714200D02*
X122471800Y-89031900D01*
X122471800Y-89031900D02*
X122570200Y-89193200D01*
X122325300Y-90536100D02*
X122533917Y-90520412D01*
X122533917Y-90520412D02*
X122727592Y-90466990D01*
X122727592Y-90466990D02*
X122883900Y-90375800D01*
X122119800Y-88906000D02*
X122149807Y-88705197D01*
X122149807Y-88705197D02*
X122156300Y-88690300D01*
X123078500Y-91567500D02*
X123084300Y-91442299D01*
X122573500Y-91362300D02*
X122710200Y-91316000D01*
X121935300Y-89195400D02*
X121981900Y-89383900D01*
X122119800Y-91040299D02*
X122133200Y-90947700D01*
X122116200Y-89692699D02*
X121981013Y-89856392D01*
X121981013Y-89856392D02*
X121923145Y-90051392D01*
X121923145Y-90051392D02*
X121918300Y-90137400D01*
X122320600Y-88639300D02*
X122364700Y-88714200D01*
X121918300Y-90137400D02*
X121960482Y-90339922D01*
X121960482Y-90339922D02*
X122026100Y-90430500D01*
X122419700Y-91193000D02*
X122281900Y-91222700D01*
X122621200Y-89760000D02*
X122813700Y-89813199D01*
X122437800Y-87928100D02*
X122563000Y-87906400D01*
X122346300Y-87941499D02*
X122437800Y-87928100D01*
X122260900Y-87945900D02*
X122346300Y-87941499D01*
X122001500Y-87854000D02*
X122188235Y-87941483D01*
X122188235Y-87941483D02*
X122260900Y-87945900D01*
X121918300Y-87567400D02*
X121950829Y-87770674D01*
X121950829Y-87770674D02*
X122001500Y-87854000D01*
X122118700Y-90098300D02*
X122187517Y-89905655D01*
X122187517Y-89905655D02*
X122251800Y-89849800D01*
X122666800Y-89533200D02*
X122461270Y-89548782D01*
X122461270Y-89548782D02*
X122254827Y-89608603D01*
X122254827Y-89608603D02*
X122116200Y-89692699D01*
X122656000Y-88941800D02*
X122553200Y-88618700D01*
X122156300Y-88690300D02*
X122259800Y-88613300D01*
X122750400Y-90217300D02*
X122556479Y-90294013D01*
X122556479Y-90294013D02*
X122381700Y-90309200D01*
X122974000Y-89638800D02*
X122792002Y-89545724D01*
X122792002Y-89545724D02*
X122666800Y-89533200D01*
X122026100Y-90430500D02*
X122203484Y-90523645D01*
X122203484Y-90523645D02*
X122325300Y-90536100D01*
X121981900Y-89383900D02*
X122185600Y-89322400D01*
X121918300Y-88941800D02*
X121928689Y-89143728D01*
X121928689Y-89143728D02*
X121935300Y-89195400D01*
X122381700Y-90309200D02*
X122188200Y-90253500D01*
X122813700Y-89813199D02*
X122882800Y-89962600D01*
X122688900Y-91092400D02*
X122548500Y-91139500D01*
X122857500Y-88344100D02*
X122875900Y-88538700D01*
X123084300Y-89931900D02*
X123041331Y-89729376D01*
X123041331Y-89729376D02*
X122974000Y-89638800D01*
X122185600Y-89322400D02*
X122143013Y-89125101D01*
X122143013Y-89125101D02*
X122137100Y-89090800D01*
X122548500Y-91139500D02*
X122419700Y-91193000D01*
X122014500Y-88531900D02*
X121939484Y-88719777D01*
X121939484Y-88719777D02*
X121918394Y-88925360D01*
X121918394Y-88925360D02*
X121918300Y-88941800D01*
X122446800Y-88446500D02*
X122285100Y-88386400D01*
X122553200Y-88618700D02*
X122446800Y-88446500D01*
X122886100Y-91476300D02*
X122861800Y-91670200D01*
X122875900Y-88538700D02*
X122882800Y-88706600D01*
X122259800Y-88613300D02*
X122320600Y-88639300D01*
X122710200Y-91316000D02*
X122841600Y-91334500D01*
X123052500Y-88286899D02*
X122857500Y-88344100D01*
X122883900Y-90375800D02*
X123021016Y-90212173D01*
X123021016Y-90212173D02*
X123079425Y-90017588D01*
X123079425Y-90017588D02*
X123084300Y-89931900D01*
X122841600Y-91334500D02*
X122886100Y-91476300D01*
X122987400Y-89099500D02*
X123063043Y-88904808D01*
X123063043Y-88904808D02*
X123084205Y-88691834D01*
X123084205Y-88691834D02*
X123084300Y-88674800D01*
X122807600Y-93812200D02*
X122983140Y-93712910D01*
X122983140Y-93712910D02*
X123012300Y-93677600D01*
X123084300Y-92323900D02*
X123058274Y-92118514D01*
X123058274Y-92118514D02*
X123029299Y-92047400D01*
X122026400Y-92848800D02*
X122206296Y-92949619D01*
X122206296Y-92949619D02*
X122330700Y-92963200D01*
X123063000Y-93825900D02*
X122794900Y-93833200D01*
X122727600Y-92883600D02*
X122901944Y-92766652D01*
X122901944Y-92766652D02*
X122990600Y-92660700D01*
X123063000Y-94013300D02*
X123063000Y-93825900D01*
X122119800Y-92494600D02*
X122151588Y-92292183D01*
X122151588Y-92292183D02*
X122156000Y-92279000D01*
X122833199Y-93679800D02*
X122674391Y-93807819D01*
X122674391Y-93807819D02*
X122667200Y-93811500D01*
X123084300Y-93435900D02*
X123026756Y-93237914D01*
X123026756Y-93237914D02*
X122981900Y-93197800D01*
X122577800Y-94737900D02*
X122714656Y-94589315D01*
X122714656Y-94589315D02*
X122773900Y-94579400D01*
X122502600Y-95180400D02*
X122517060Y-94970400D01*
X122517060Y-94970400D02*
X122565061Y-94768709D01*
X122565061Y-94768709D02*
X122577800Y-94737900D01*
X122076400Y-92015600D02*
X121982327Y-92195903D01*
X121982327Y-92195903D02*
X121962000Y-92252900D01*
X122178000Y-90852900D02*
X122007600Y-90779800D01*
X122181300Y-92672300D02*
X122119800Y-92494600D01*
X122851300Y-91891500D02*
X122720700Y-92055800D01*
X122667200Y-93811500D02*
X122479591Y-93881272D01*
X122479591Y-93881272D02*
X122353100Y-93911700D01*
X122364700Y-95140200D02*
X122184500Y-95068900D01*
X122272500Y-91449500D02*
X122427300Y-91418400D01*
X122156000Y-92279000D02*
X122246392Y-92097014D01*
X122246392Y-92097014D02*
X122250000Y-92091900D01*
X123287300Y-90990800D02*
X123241400Y-91101800D01*
X123509500Y-90990800D02*
X123398000Y-90945200D01*
X123555000Y-91101800D02*
X123509500Y-90990800D01*
X122637200Y-95085600D02*
X122440170Y-95136351D01*
X122440170Y-95136351D02*
X122364700Y-95140200D01*
X122817300Y-92554700D02*
X122654608Y-92678997D01*
X122654608Y-92678997D02*
X122632800Y-92688200D01*
X122332900Y-95158300D02*
X122502600Y-95180400D01*
X122632800Y-92688200D02*
X122431481Y-92732918D01*
X122431481Y-92732918D02*
X122354200Y-92736300D01*
X122844500Y-92182000D02*
X122882800Y-92353500D01*
X122990600Y-92660700D02*
X123068875Y-92472640D01*
X123068875Y-92472640D02*
X123084300Y-92323900D01*
X123012300Y-93677600D02*
X123081785Y-93487232D01*
X123081785Y-93487232D02*
X123084300Y-93435900D01*
X121918300Y-92525400D02*
X121952531Y-92730568D01*
X121952531Y-92730568D02*
X122026400Y-92848800D01*
X122773900Y-94579400D02*
X122853900Y-94614500D01*
X122330700Y-92963200D02*
X122531499Y-92945721D01*
X122531499Y-92945721D02*
X122727600Y-92883600D01*
X121962000Y-92252900D02*
X121921007Y-92456271D01*
X121921007Y-92456271D02*
X121918300Y-92525400D01*
X121939600Y-93297000D02*
X121939600Y-93524900D01*
X122807600Y-93858799D02*
X122807600Y-93812200D01*
X122427300Y-91418400D02*
X122573500Y-91362300D01*
X122250000Y-92091900D02*
X122076400Y-92015600D01*
X122008300Y-91367000D02*
X122200461Y-91449294D01*
X122200461Y-91449294D02*
X122272500Y-91449500D01*
X123029299Y-92047400D02*
X122880920Y-91905573D01*
X122880920Y-91905573D02*
X122851300Y-91891500D01*
X122794900Y-93833200D02*
X121939600Y-93983700D01*
X123287300Y-91212900D02*
X123398000Y-91258800D01*
X122007600Y-90779800D02*
X121944300Y-90916600D01*
X121939600Y-93983700D02*
X121939600Y-94211600D01*
X123509500Y-91212900D02*
X123555000Y-91101800D01*
X121939600Y-93524900D02*
X122686700Y-93394300D01*
X122981900Y-93197800D02*
X122783814Y-93154506D01*
X122783814Y-93154506D02*
X122678400Y-93166700D01*
X122686700Y-93394300D02*
X122833600Y-93408800D01*
X121939600Y-94211600D02*
X123063000Y-94013300D01*
X122184500Y-95068900D02*
X122119800Y-94876100D01*
X122882800Y-94714000D02*
X122833541Y-94911693D01*
X122833541Y-94911693D02*
X122818400Y-94936200D01*
X121918300Y-91081900D02*
X121953456Y-91283129D01*
X121953456Y-91283129D02*
X122008300Y-91367000D01*
X121944300Y-90916600D02*
X121918300Y-91081900D01*
X123398000Y-90945200D02*
X123287300Y-90990800D01*
X122882800Y-93520599D02*
X122833199Y-93679800D01*
X123398000Y-91258800D02*
X123509500Y-91212900D01*
X123241400Y-91101800D02*
X123287300Y-91212900D01*
X122833600Y-93408800D02*
X122882800Y-93520599D01*
X122818400Y-94936200D02*
X122665530Y-95071526D01*
X122665530Y-95071526D02*
X122637200Y-95085600D01*
X122853900Y-94614500D02*
X122882800Y-94714000D01*
X122354200Y-92736300D02*
X122181300Y-92672300D01*
X122882800Y-92353500D02*
X122821341Y-92549245D01*
X122821341Y-92549245D02*
X122817300Y-92554700D01*
X122720700Y-92055800D02*
X122844500Y-92182000D01*
X122353100Y-93911700D02*
X122807600Y-93858799D01*
X122678400Y-93166700D02*
X121939600Y-93297000D01*
X122178000Y-95702000D02*
X121996800Y-95660400D01*
X122736600Y-95265800D02*
X122906302Y-95143574D01*
X122906302Y-95143574D02*
X122992800Y-95033100D01*
X122039099Y-94436200D02*
X121960699Y-94622240D01*
X121960699Y-94622240D02*
X121950100Y-94659000D01*
X122563000Y-96356800D02*
X123402400Y-96209600D01*
X122621200Y-97003200D02*
X122813700Y-97056400D01*
X123084300Y-97175100D02*
X123041331Y-96972576D01*
X123041331Y-96972576D02*
X122974000Y-96882000D01*
X122750400Y-97460500D02*
X122556479Y-97537213D01*
X122556479Y-97537213D02*
X122381700Y-97552400D01*
X123084300Y-94684300D02*
X123040214Y-94488155D01*
X123040214Y-94488155D02*
X123005800Y-94440099D01*
X122992800Y-95033100D02*
X123069228Y-94837944D01*
X123069228Y-94837944D02*
X123084300Y-94684300D01*
X121918300Y-96017800D02*
X121950829Y-96221074D01*
X121950829Y-96221074D02*
X122001500Y-96304400D01*
X122119800Y-95976200D02*
X122132400Y-95840500D01*
X122032900Y-95226700D02*
X122211306Y-95331766D01*
X122211306Y-95331766D02*
X122352100Y-95349000D01*
X121918300Y-94885900D02*
X121950682Y-95090706D01*
X121950682Y-95090706D02*
X122032900Y-95226700D01*
X121950100Y-94659000D02*
X121918805Y-94858599D01*
X121918805Y-94858599D02*
X121918300Y-94885900D01*
X121980500Y-98411600D02*
X121927090Y-98606368D01*
X121927090Y-98606368D02*
X121918300Y-98733200D01*
X122260900Y-96396300D02*
X122346300Y-96391900D01*
X122220400Y-94509600D02*
X122039099Y-94436200D01*
X122119800Y-94876100D02*
X122146200Y-94694800D01*
X123063000Y-95541700D02*
X122866200Y-95576800D01*
X122325300Y-97779300D02*
X122533917Y-97763612D01*
X122533917Y-97763612D02*
X122727592Y-97710190D01*
X122727592Y-97710190D02*
X122883900Y-97619000D01*
X122381700Y-97552400D02*
X122188200Y-97496700D01*
X122866200Y-96566700D02*
X123063000Y-96531900D01*
X122026100Y-97673700D02*
X122203484Y-97766845D01*
X122203484Y-97766845D02*
X122325300Y-97779300D01*
X122974000Y-96882000D02*
X122792002Y-96788924D01*
X122792002Y-96788924D02*
X122666800Y-96776400D01*
X122882800Y-97205800D02*
X122820235Y-97396463D01*
X122820235Y-97396463D02*
X122750400Y-97460500D01*
X122437800Y-96378500D02*
X122563000Y-96356800D01*
X121996800Y-95660400D02*
X121941000Y-95822100D01*
X122188200Y-97496700D02*
X122118700Y-97341500D01*
X122116200Y-96935900D02*
X121981013Y-97099593D01*
X121981013Y-97099593D02*
X121923145Y-97294592D01*
X121923145Y-97294592D02*
X121918300Y-97380600D01*
X122666800Y-96776400D02*
X122461270Y-96791982D01*
X122461270Y-96791982D02*
X122254827Y-96851802D01*
X122254827Y-96851802D02*
X122116200Y-96935900D01*
X122251800Y-97093000D02*
X122446156Y-97018069D01*
X122446156Y-97018069D02*
X122621200Y-97003200D01*
X122813700Y-97056400D02*
X122882800Y-97205800D01*
X122132400Y-95840500D02*
X122178000Y-95702000D01*
X122158900Y-96122699D02*
X122119800Y-95976200D01*
X121918300Y-97380600D02*
X121960482Y-97583123D01*
X121960482Y-97583123D02*
X122026100Y-97673700D01*
X122281900Y-96169400D02*
X122158900Y-96122699D01*
X123402400Y-95981600D02*
X122563000Y-96128900D01*
X122118700Y-97341500D02*
X122187517Y-97148855D01*
X122187517Y-97148855D02*
X122251800Y-97093000D01*
X122346300Y-96391900D02*
X122437800Y-96378500D01*
X123005800Y-94440099D02*
X122821721Y-94353972D01*
X122821721Y-94353972D02*
X122787700Y-94352600D01*
X121941000Y-95822100D02*
X121918300Y-96017800D01*
X122883900Y-97619000D02*
X123021016Y-97455373D01*
X123021016Y-97455373D02*
X123079425Y-97260788D01*
X123079425Y-97260788D02*
X123084300Y-97175100D01*
X122146200Y-94694800D02*
X122220400Y-94509600D01*
X122399400Y-96158200D02*
X122281900Y-96169400D01*
X123402400Y-96209600D02*
X123402400Y-95981600D01*
X122001500Y-96304400D02*
X122188235Y-96391883D01*
X122188235Y-96391883D02*
X122260900Y-96396300D01*
X122460200Y-94565000D02*
X122381382Y-94765449D01*
X122381382Y-94765449D02*
X122343664Y-94978381D01*
X122343664Y-94978381D02*
X122332900Y-95158300D01*
X122563000Y-96128900D02*
X122399400Y-96158200D01*
X123063000Y-96531900D02*
X123063000Y-95541700D01*
X122787700Y-94352600D02*
X122591673Y-94412584D01*
X122591673Y-94412584D02*
X122460200Y-94565000D01*
X122352100Y-95349000D02*
X122558299Y-95328137D01*
X122558299Y-95328137D02*
X122736600Y-95265800D01*
X122866200Y-95576800D02*
X122866200Y-96566700D01*
X122727200Y-98667400D02*
X122917718Y-98582589D01*
X122917718Y-98582589D02*
X122991000Y-98510400D01*
X122807600Y-98699200D02*
X122807600Y-98606999D01*
X122655200Y-98635500D02*
X122460733Y-98715723D01*
X122460733Y-98715723D02*
X122351000Y-98740500D01*
X122827800Y-98475599D02*
X122683571Y-98617485D01*
X122683571Y-98617485D02*
X122655200Y-98635500D01*
X122882800Y-98298400D02*
X122827800Y-98475599D01*
X122404500Y-98221700D02*
X122602112Y-98155010D01*
X122602112Y-98155010D02*
X122702600Y-98147800D01*
X122835799Y-98187300D02*
X122882800Y-98298400D01*
X122196100Y-98422400D02*
X122334703Y-98267412D01*
X122334703Y-98267412D02*
X122404500Y-98221700D01*
X122797100Y-98660900D02*
X121451900Y-98898599D01*
X121451900Y-98898599D02*
X121451900Y-99126500D01*
X121924400Y-98886599D02*
X121940700Y-99040400D01*
X122119800Y-98709700D02*
X122155804Y-98505252D01*
X122155804Y-98505252D02*
X122196100Y-98422400D01*
X121940700Y-99040400D02*
X122146200Y-98934400D01*
X121918300Y-98733200D02*
X121924400Y-98886599D01*
X123063000Y-98843200D02*
X123063000Y-98653600D01*
X122991000Y-98510400D02*
X123075188Y-98319220D01*
X123075188Y-98319220D02*
X123084300Y-98213699D01*
X122702600Y-98147800D02*
X122835799Y-98187300D01*
X122154900Y-98153300D02*
X122029029Y-98314213D01*
X122029029Y-98314213D02*
X121980500Y-98411600D01*
X122351000Y-98740500D02*
X122807600Y-98699200D01*
X121451900Y-99126500D02*
X123063000Y-98843200D01*
X122417500Y-97982100D02*
X122236611Y-98083320D01*
X122236611Y-98083320D02*
X122154900Y-98153300D01*
X122807600Y-98606999D02*
X122727200Y-98667400D01*
X122745300Y-97921000D02*
X122544289Y-97942640D01*
X122544289Y-97942640D02*
X122417500Y-97982100D01*
X122995700Y-97998100D02*
X122803382Y-97923710D01*
X122803382Y-97923710D02*
X122745300Y-97921000D01*
X123084300Y-98213699D02*
X123021302Y-98023542D01*
X123021302Y-98023542D02*
X122995700Y-97998100D01*
X122146200Y-98934400D02*
X122119905Y-98728840D01*
X122119905Y-98728840D02*
X122119800Y-98709700D01*
X123063000Y-98653600D02*
X122797100Y-98660900D01*
X186733100Y-70366500D02*
X186938609Y-70394786D01*
X186938609Y-70394786D02*
X187120831Y-70479731D01*
X187120831Y-70479731D02*
X187229500Y-70567900D01*
X186376200Y-70551300D02*
X186529187Y-70412775D01*
X186529187Y-70412775D02*
X186733100Y-70366500D01*
X194605700Y-70382300D02*
X194644900Y-70382300D01*
X186687100Y-69959900D02*
X186484356Y-69977271D01*
X186484356Y-69977271D02*
X186284374Y-70038297D01*
X186284374Y-70038297D02*
X186097073Y-70157522D01*
X186097073Y-70157522D02*
X186017200Y-70237400D01*
X194073100Y-71958200D02*
X194163600Y-72377600D01*
X186668900Y-72576100D02*
X186540667Y-72414131D01*
X186540667Y-72414131D02*
X186443266Y-72230239D01*
X186443266Y-72230239D02*
X186371345Y-72034863D01*
X186371345Y-72034863D02*
X186357399Y-71987600D01*
X191838300Y-70423800D02*
X191765900Y-70004400D01*
X185776499Y-71009900D02*
X185780699Y-71218381D01*
X185780699Y-71218381D02*
X185796810Y-71456013D01*
X185796810Y-71456013D02*
X185824964Y-71679962D01*
X185824964Y-71679962D02*
X185865124Y-71890232D01*
X185865124Y-71890232D02*
X185917256Y-72086828D01*
X185917256Y-72086828D02*
X185947800Y-72180000D01*
X194463100Y-71457300D02*
X194486734Y-71247675D01*
X194486734Y-71247675D02*
X194510867Y-71045364D01*
X194510867Y-71045364D02*
X194533300Y-70868100D01*
X186017200Y-70237400D02*
X185900744Y-70410586D01*
X185900744Y-70410586D02*
X185822495Y-70618207D01*
X185822495Y-70618207D02*
X185784941Y-70831764D01*
X185784941Y-70831764D02*
X185776499Y-71009900D01*
X185947800Y-72180000D02*
X186029790Y-72382409D01*
X186029790Y-72382409D02*
X186126241Y-72562946D01*
X186126241Y-72562946D02*
X186254131Y-72742502D01*
X186254131Y-72742502D02*
X186400803Y-72893508D01*
X186400803Y-72893508D02*
X186440400Y-72926800D01*
X195664100Y-71958200D02*
X194073100Y-71958200D01*
X194029300Y-71233200D02*
X194003527Y-71449762D01*
X194003527Y-71449762D02*
X193979984Y-71666394D01*
X193979984Y-71666394D02*
X193958616Y-71882638D01*
X193958616Y-71882638D02*
X193954599Y-71925800D01*
X194533300Y-70868100D02*
X194560768Y-70669240D01*
X194560768Y-70669240D02*
X194592165Y-70462509D01*
X194592165Y-70462509D02*
X194605700Y-70382300D01*
X193883000Y-73142600D02*
X194351500Y-73142600D01*
X190846300Y-70004400D02*
X190386800Y-70004400D01*
X187654900Y-72057000D02*
X187639404Y-72273519D01*
X187639404Y-72273519D02*
X187587136Y-72469460D01*
X187587136Y-72469460D02*
X187523700Y-72588900D01*
X187157800Y-72780400D02*
X186955331Y-72751538D01*
X186955331Y-72751538D02*
X186761911Y-72655504D01*
X186761911Y-72655504D02*
X186668900Y-72576100D01*
X187215100Y-73187100D02*
X187418778Y-73169281D01*
X187418778Y-73169281D02*
X187619518Y-73106700D01*
X187619518Y-73106700D02*
X187790166Y-72999186D01*
X187790166Y-72999186D02*
X187887200Y-72902600D01*
X191400800Y-73142600D02*
X190846300Y-70004400D01*
X193954599Y-71925800D02*
X193936018Y-72138864D01*
X193936018Y-72138864D02*
X193919858Y-72345307D01*
X193919858Y-72345307D02*
X193906430Y-72545130D01*
X193906430Y-72545130D02*
X193904100Y-72584300D01*
X187462600Y-70216300D02*
X187293109Y-70104307D01*
X187293109Y-70104307D02*
X187107325Y-70024162D01*
X187107325Y-70024162D02*
X186905303Y-69975985D01*
X186905303Y-69975985D02*
X186687100Y-69959900D01*
X194644900Y-70382300D02*
X195845200Y-73142600D01*
X195754600Y-72377600D02*
X195664100Y-71958200D01*
X186357399Y-71987600D02*
X186310291Y-71786167D01*
X186310291Y-71786167D02*
X186276561Y-71565337D01*
X186276561Y-71565337D02*
X186258074Y-71356104D01*
X186258074Y-71356104D02*
X186249923Y-71131845D01*
X186249923Y-71131845D02*
X186249499Y-71065000D01*
X194363500Y-72662800D02*
X194375945Y-72450988D01*
X194375945Y-72450988D02*
X194389935Y-72248662D01*
X194389935Y-72248662D02*
X194403500Y-72077400D01*
X195845200Y-73142600D02*
X196336300Y-73142600D01*
X190941300Y-73142600D02*
X191400800Y-73142600D01*
X193904100Y-72584300D02*
X193892998Y-72791597D01*
X193892998Y-72791597D02*
X193885538Y-72999247D01*
X193885538Y-72999247D02*
X193883000Y-73142600D01*
X187229500Y-70567900D02*
X187360108Y-70727026D01*
X187360108Y-70727026D02*
X187458745Y-70907719D01*
X187458745Y-70907719D02*
X187531404Y-71099949D01*
X187531404Y-71099949D02*
X187545500Y-71146500D01*
X186249499Y-71065000D02*
X186264462Y-70855735D01*
X186264462Y-70855735D02*
X186320754Y-70652546D01*
X186320754Y-70652546D02*
X186376200Y-70551300D01*
X187887200Y-72902600D02*
X188003699Y-72725319D01*
X188003699Y-72725319D02*
X188075128Y-72538263D01*
X188075128Y-72538263D02*
X188116419Y-72323478D01*
X188116419Y-72323478D02*
X188127900Y-72112801D01*
X194403500Y-72077400D02*
X194421714Y-71864196D01*
X194421714Y-71864196D02*
X194442251Y-71651061D01*
X194442251Y-71651061D02*
X194463100Y-71457300D01*
X194351500Y-73142600D02*
X194352911Y-72935660D01*
X194352911Y-72935660D02*
X194360109Y-72730670D01*
X194360109Y-72730670D02*
X194363500Y-72662800D01*
X187545500Y-71146500D02*
X187593475Y-71345226D01*
X187593475Y-71345226D02*
X187627650Y-71563312D01*
X187627650Y-71563312D02*
X187646291Y-71769907D01*
X187646291Y-71769907D02*
X187654475Y-71991123D01*
X187654475Y-71991123D02*
X187654900Y-72057000D01*
X186440400Y-72926800D02*
X186609385Y-73040667D01*
X186609385Y-73040667D02*
X186794937Y-73122012D01*
X186794937Y-73122012D02*
X186996895Y-73170826D01*
X186996895Y-73170826D02*
X187215100Y-73187100D01*
X190386800Y-70004400D02*
X190941300Y-73142600D01*
X187956600Y-70954900D02*
X187874516Y-70754810D01*
X187874516Y-70754810D02*
X187777815Y-70576340D01*
X187777815Y-70576340D02*
X187649503Y-70398776D01*
X187649503Y-70398776D02*
X187502327Y-70249293D01*
X187502327Y-70249293D02*
X187462600Y-70216300D01*
X189541899Y-70423800D02*
X191838300Y-70423800D01*
X189469500Y-70004400D02*
X189541899Y-70423800D01*
X188127900Y-72112801D02*
X188123699Y-71906097D01*
X188123699Y-71906097D02*
X188107588Y-71670615D01*
X188107588Y-71670615D02*
X188079435Y-71448874D01*
X188079435Y-71448874D02*
X188039275Y-71240914D01*
X188039275Y-71240914D02*
X187987143Y-71046774D01*
X187987143Y-71046774D02*
X187956600Y-70954900D01*
X194163600Y-72377600D02*
X195754600Y-72377600D01*
X187523700Y-72588900D02*
X187377811Y-72726247D01*
X187377811Y-72726247D02*
X187172343Y-72780212D01*
X187172343Y-72780212D02*
X187157800Y-72780400D01*
X204001999Y-69558300D02*
X185778600Y-69558300D01*
X191765900Y-70004400D02*
X189469500Y-70004400D01*
X202242899Y-71613400D02*
X202091597Y-71750223D01*
X202091597Y-71750223D02*
X201963773Y-71905267D01*
X201963773Y-71905267D02*
X201938200Y-71946100D01*
X202488900Y-72676300D02*
X202349109Y-72528557D01*
X202349109Y-72528557D02*
X202316099Y-72371600D01*
X203225899Y-70168800D02*
X203042071Y-70058844D01*
X203042071Y-70058844D02*
X202837858Y-69994513D01*
X202837858Y-69994513D02*
X202625325Y-69965028D01*
X202625325Y-69965028D02*
X202477600Y-69959900D01*
X202161500Y-70442700D02*
X202353572Y-70381149D01*
X202353572Y-70381149D02*
X202503900Y-70366500D01*
X203404700Y-71141200D02*
X203465834Y-70949627D01*
X203465834Y-70949627D02*
X203483200Y-70784400D01*
X187157600Y-68757400D02*
X186946739Y-68724508D01*
X186946739Y-68724508D02*
X186770145Y-68625995D01*
X186770145Y-68625995D02*
X186639299Y-68479700D01*
X189694400Y-66743901D02*
X189482660Y-66756925D01*
X189482660Y-66756925D02*
X189284881Y-66802780D01*
X189284881Y-66802780D02*
X189101563Y-66903839D01*
X189101563Y-66903839D02*
X189050900Y-66952900D01*
X194124400Y-70568600D02*
X194093263Y-70770036D01*
X194093263Y-70770036D02*
X194063415Y-70977038D01*
X194063415Y-70977038D02*
X194034857Y-71189899D01*
X194034857Y-71189899D02*
X194029300Y-71233200D01*
X194233800Y-70002100D02*
X194191767Y-70198913D01*
X194191767Y-70198913D02*
X194154188Y-70395747D01*
X194154188Y-70395747D02*
X194124400Y-70568600D01*
X185979200Y-67614500D02*
X185987322Y-67836717D01*
X185987322Y-67836717D02*
X186011690Y-68043063D01*
X186011690Y-68043063D02*
X186062375Y-68269737D01*
X186062375Y-68269737D02*
X186136452Y-68473577D01*
X186136452Y-68473577D02*
X186233923Y-68654594D01*
X186233923Y-68654594D02*
X186311900Y-68762600D01*
X189174599Y-68129700D02*
X189227400Y-68331740D01*
X189227400Y-68331740D02*
X189236500Y-68417200D01*
X203010100Y-70746700D02*
X202963825Y-70948693D01*
X202963825Y-70948693D02*
X202957400Y-70963200D01*
X186874600Y-67164100D02*
X187072891Y-67191056D01*
X187072891Y-67191056D02*
X187257135Y-67282991D01*
X187257135Y-67282991D02*
X187405700Y-67440200D01*
X202957400Y-70963200D02*
X202841623Y-71126943D01*
X202841623Y-71126943D02*
X202786900Y-71175900D01*
X201509700Y-70333300D02*
X201830300Y-70669700D01*
X187597400Y-68208900D02*
X187575225Y-68413618D01*
X187575225Y-68413618D02*
X187488278Y-68603333D01*
X187488278Y-68603333D02*
X187481100Y-68612500D01*
X201830300Y-70669700D02*
X201993612Y-70537787D01*
X201993612Y-70537787D02*
X202161500Y-70442700D01*
X186563000Y-67308100D02*
X186725921Y-67187718D01*
X186725921Y-67187718D02*
X186874600Y-67164100D01*
X202878900Y-70463001D02*
X202994604Y-70628441D01*
X202994604Y-70628441D02*
X203010100Y-70746700D01*
X188070300Y-68326600D02*
X188062128Y-68100991D01*
X188062128Y-68100991D02*
X188037622Y-67891580D01*
X188037622Y-67891580D02*
X187986675Y-67661625D01*
X187986675Y-67661625D02*
X187912249Y-67454893D01*
X187912249Y-67454893D02*
X187814370Y-67271330D01*
X187814370Y-67271330D02*
X187736100Y-67161800D01*
X196336300Y-73142600D02*
X194943700Y-70002100D01*
X197422900Y-70423800D02*
X199719200Y-70423800D01*
X189955399Y-66755900D02*
X189751357Y-66744452D01*
X189751357Y-66744452D02*
X189694400Y-66743901D01*
X197350400Y-70004400D02*
X197422900Y-70423800D01*
X199719200Y-70423800D02*
X199646800Y-70004400D01*
X198727200Y-70004400D02*
X198267800Y-70004400D01*
X199281700Y-73142600D02*
X198727200Y-70004400D01*
X203483200Y-70784400D02*
X203462807Y-70571479D01*
X203462807Y-70571479D02*
X203392391Y-70371417D01*
X203392391Y-70371417D02*
X203271827Y-70209792D01*
X203271827Y-70209792D02*
X203225899Y-70168800D01*
X190215699Y-66805800D02*
X190012349Y-66762590D01*
X190012349Y-66762590D02*
X189955399Y-66755900D01*
X202316099Y-72371600D02*
X202356479Y-72173264D01*
X202356479Y-72173264D02*
X202365200Y-72155800D01*
X187239000Y-69175300D02*
X187445618Y-69157421D01*
X187445618Y-69157421D02*
X187643283Y-69095805D01*
X187643283Y-69095805D02*
X187821896Y-68977628D01*
X187821896Y-68977628D02*
X187850000Y-68950500D01*
X187736100Y-67161800D02*
X187578018Y-66998766D01*
X187578018Y-66998766D02*
X187394968Y-66875919D01*
X187394968Y-66875919D02*
X187187076Y-66793165D01*
X187187076Y-66793165D02*
X186989206Y-66754072D01*
X186989206Y-66754072D02*
X186810500Y-66743901D01*
X188965000Y-67568500D02*
X189024225Y-67765147D01*
X189024225Y-67765147D02*
X189063000Y-67861101D01*
X189063000Y-67861101D02*
X189141891Y-68046523D01*
X189141891Y-68046523D02*
X189174599Y-68129700D01*
X189236500Y-68417200D02*
X189194715Y-68622859D01*
X189194715Y-68622859D02*
X189012968Y-68738867D01*
X189012968Y-68738867D02*
X188856300Y-68755100D01*
X203867900Y-72590400D02*
X203671093Y-72664446D01*
X203671093Y-72664446D02*
X203477650Y-72720296D01*
X203477650Y-72720296D02*
X203260586Y-72761852D01*
X203260586Y-72761852D02*
X203047688Y-72779658D01*
X203047688Y-72779658D02*
X202995100Y-72780400D01*
X188856300Y-68755100D02*
X188663100Y-68727200D01*
X187850000Y-68950500D02*
X187975528Y-68775615D01*
X187975528Y-68775615D02*
X188044322Y-68580597D01*
X188044322Y-68580597D02*
X188069442Y-68375850D01*
X188069442Y-68375850D02*
X188070300Y-68326600D01*
X201938200Y-71946100D02*
X201863995Y-72132503D01*
X201863995Y-72132503D02*
X201843100Y-72320300D01*
X186452100Y-67709500D02*
X186473337Y-67506631D01*
X186473337Y-67506631D02*
X186556179Y-67317266D01*
X186556179Y-67317266D02*
X186563000Y-67308100D01*
X202503900Y-70366500D02*
X202707336Y-70387750D01*
X202707336Y-70387750D02*
X202878900Y-70463001D01*
X186810500Y-66743901D02*
X186603897Y-66762016D01*
X186603897Y-66762016D02*
X186406258Y-66824804D01*
X186406258Y-66824804D02*
X186227619Y-66946053D01*
X186227619Y-66946053D02*
X186199499Y-66974000D01*
X202477600Y-69959900D02*
X202257034Y-69973021D01*
X202257034Y-69973021D02*
X202054472Y-70012391D01*
X202054472Y-70012391D02*
X201840948Y-70091509D01*
X201840948Y-70091509D02*
X201652021Y-70206377D01*
X201652021Y-70206377D02*
X201509700Y-70333300D01*
X204004400Y-72992400D02*
X203867900Y-72590400D01*
X186311900Y-68762600D02*
X186469997Y-68923194D01*
X186469997Y-68923194D02*
X186653157Y-69044497D01*
X186653157Y-69044497D02*
X186861347Y-69126409D01*
X186861347Y-69126409D02*
X187059694Y-69165191D01*
X187059694Y-69165191D02*
X187239000Y-69175300D01*
X203155700Y-71462500D02*
X203303412Y-71312650D01*
X203303412Y-71312650D02*
X203404700Y-71141200D01*
X202523600Y-71975500D02*
X203155700Y-71462500D01*
X203036600Y-73187100D02*
X203245098Y-73180255D01*
X203245098Y-73180255D02*
X203472623Y-73154966D01*
X203472623Y-73154966D02*
X203683161Y-73111045D01*
X203683161Y-73111045D02*
X203876655Y-73048490D01*
X203876655Y-73048490D02*
X204004400Y-72992400D01*
X187405700Y-67440200D02*
X187506658Y-67633980D01*
X187506658Y-67633980D02*
X187565673Y-67844532D01*
X187565673Y-67844532D02*
X187592701Y-68060350D01*
X187592701Y-68060350D02*
X187597400Y-68208900D01*
X188663100Y-68727200D02*
X188479671Y-68641670D01*
X188479671Y-68641670D02*
X188465499Y-68633600D01*
X189050900Y-66952900D02*
X188951896Y-67137036D01*
X188951896Y-67137036D02*
X188931538Y-67355050D01*
X188931538Y-67355050D02*
X188965000Y-67568500D01*
X186199499Y-66974000D02*
X186074326Y-67153340D01*
X186074326Y-67153340D02*
X186005363Y-67353475D01*
X186005363Y-67353475D02*
X185980066Y-67563852D01*
X185980066Y-67563852D02*
X185979200Y-67614500D01*
X186639299Y-68479700D02*
X186540713Y-68285422D01*
X186540713Y-68285422D02*
X186483083Y-68074547D01*
X186483083Y-68074547D02*
X186456688Y-67858371D01*
X186456688Y-67858371D02*
X186452100Y-67709500D01*
X194943700Y-70002100D02*
X194233800Y-70002100D01*
X202786900Y-71175900D02*
X202242899Y-71613400D01*
X187481100Y-68612500D02*
X187311076Y-68733485D01*
X187311076Y-68733485D02*
X187157600Y-68757400D01*
X199646800Y-70004400D02*
X197350400Y-70004400D01*
X198267800Y-70004400D02*
X198822200Y-73142600D01*
X202145700Y-72966800D02*
X202338773Y-73073045D01*
X202338773Y-73073045D02*
X202548210Y-73138495D01*
X202548210Y-73138495D02*
X202760610Y-73173251D01*
X202760610Y-73173251D02*
X202964281Y-73186233D01*
X202964281Y-73186233D02*
X203036600Y-73187100D01*
X190169699Y-67207901D02*
X190215699Y-66805800D01*
X202995100Y-72780400D02*
X202784620Y-72768099D01*
X202784620Y-72768099D02*
X202585051Y-72721843D01*
X202585051Y-72721843D02*
X202488900Y-72676300D01*
X198822200Y-73142600D02*
X199281700Y-73142600D01*
X201843100Y-72320300D02*
X201862045Y-72520709D01*
X201862045Y-72520709D02*
X201928594Y-72715305D01*
X201928594Y-72715305D02*
X202058603Y-72893101D01*
X202058603Y-72893101D02*
X202145700Y-72966800D01*
X202365200Y-72155800D02*
X202497106Y-71997656D01*
X202497106Y-71997656D02*
X202523600Y-71975500D01*
X188598300Y-69121000D02*
X188803223Y-69167664D01*
X188803223Y-69167664D02*
X188943100Y-69175300D01*
X191267200Y-66743901D02*
X191055267Y-66755152D01*
X191055267Y-66755152D02*
X190855477Y-66793388D01*
X190855477Y-66793388D02*
X190690800Y-66858501D01*
X188984500Y-66416500D02*
X189178627Y-66353343D01*
X189178627Y-66353343D02*
X189216100Y-66320700D01*
X190624400Y-68845600D02*
X190810457Y-68956361D01*
X190810457Y-68956361D02*
X191000523Y-69041655D01*
X191000523Y-69041655D02*
X191119399Y-69084000D01*
X193030900Y-69130800D02*
X193506100Y-69130800D01*
X189469600Y-67250100D02*
X189656922Y-67164635D01*
X189656922Y-67164635D02*
X189765300Y-67157301D01*
X189431100Y-67523900D02*
X189429410Y-67316721D01*
X189429410Y-67316721D02*
X189469600Y-67250100D01*
X192600200Y-68315300D02*
X192592295Y-68113209D01*
X192592295Y-68113209D02*
X192563852Y-67896661D01*
X192563852Y-67896661D02*
X192514626Y-67695519D01*
X192514626Y-67695519D02*
X192434300Y-67487700D01*
X190365700Y-67229700D02*
X190708200Y-67502100D01*
X192434300Y-67487700D02*
X192330623Y-67301656D01*
X192330623Y-67301656D02*
X192205681Y-67140530D01*
X192205681Y-67140530D02*
X192042144Y-66990613D01*
X192042144Y-66990613D02*
X191969500Y-66939200D01*
X193497000Y-67164100D02*
X193700472Y-67200288D01*
X193700472Y-67200288D02*
X193829000Y-67267400D01*
X189527700Y-67809100D02*
X189457405Y-67619372D01*
X189457405Y-67619372D02*
X189431100Y-67523900D01*
X193506100Y-69130800D02*
X193233800Y-67573001D01*
X189644600Y-68113800D02*
X189573380Y-67921505D01*
X189573380Y-67921505D02*
X189527700Y-67809100D01*
X194103600Y-67613700D02*
X194183859Y-67800240D01*
X194183859Y-67800240D02*
X194249091Y-68004809D01*
X194249091Y-68004809D02*
X194301614Y-68217534D01*
X194301614Y-68217534D02*
X194312500Y-68268500D01*
X194148800Y-67347401D02*
X194462699Y-69130800D01*
X193829000Y-67267400D02*
X193973650Y-67406012D01*
X193973650Y-67406012D02*
X194088196Y-67583958D01*
X194088196Y-67583958D02*
X194103600Y-67613700D01*
X191993700Y-68626800D02*
X191811773Y-68730467D01*
X191811773Y-68730467D02*
X191623300Y-68755100D01*
X189709500Y-68436700D02*
X189679250Y-68233035D01*
X189679250Y-68233035D02*
X189644600Y-68113800D01*
X191173600Y-68679700D02*
X190978445Y-68599275D01*
X190978445Y-68599275D02*
X190805109Y-68498470D01*
X190805109Y-68498470D02*
X190783700Y-68483500D01*
X196494900Y-67676300D02*
X196563018Y-67870245D01*
X196563018Y-67870245D02*
X196598789Y-68068161D01*
X196598789Y-68068161D02*
X196608800Y-68244400D01*
X188943100Y-69175300D02*
X189151615Y-69160442D01*
X189151615Y-69160442D02*
X189345437Y-69109072D01*
X189345437Y-69109072D02*
X189525139Y-68998963D01*
X189525139Y-68998963D02*
X189537500Y-68987400D01*
X189216100Y-65857500D02*
X189033763Y-65765743D01*
X189033763Y-65765743D02*
X188984500Y-65762400D01*
X194524500Y-66788401D02*
X194133800Y-66788401D01*
X192026900Y-67685400D02*
X192087068Y-67883289D01*
X192087068Y-67883289D02*
X192118396Y-68085751D01*
X192118396Y-68085751D02*
X192127200Y-68266300D01*
X191969500Y-66939200D02*
X191792796Y-66844705D01*
X191792796Y-66844705D02*
X191599820Y-66781217D01*
X191599820Y-66781217D02*
X191390533Y-66748656D01*
X191390533Y-66748656D02*
X191267200Y-66743901D01*
X191687400Y-69175300D02*
X191892900Y-69161157D01*
X191892900Y-69161157D02*
X192094682Y-69111510D01*
X192094682Y-69111510D02*
X192282370Y-69014592D01*
X192282370Y-69014592D02*
X192361800Y-68949700D01*
X194312500Y-68268500D02*
X194202400Y-67321001D01*
X192759200Y-67590300D02*
X193030900Y-69130800D01*
X194937900Y-69130800D02*
X194524500Y-66788401D01*
X195720200Y-67164100D02*
X195923290Y-67186186D01*
X195923290Y-67186186D02*
X196119172Y-67259621D01*
X196119172Y-67259621D02*
X196183300Y-67298400D01*
X194202400Y-67321001D02*
X194105100Y-67321001D01*
X190783700Y-68483500D02*
X190624400Y-68845600D01*
X196608800Y-68244400D02*
X196574934Y-68446943D01*
X196574934Y-68446943D02*
X196460200Y-68620000D01*
X193824399Y-66894000D02*
X193639648Y-66796673D01*
X193639648Y-66796673D02*
X193444866Y-66751046D01*
X193444866Y-66751046D02*
X193320599Y-66743901D01*
X193263900Y-67266700D02*
X193437800Y-67167681D01*
X193437800Y-67167681D02*
X193497000Y-67164100D01*
X193320599Y-66743901D02*
X193118968Y-66764696D01*
X193118968Y-66764696D02*
X192932853Y-66844694D01*
X192932853Y-66844694D02*
X192824100Y-66957401D01*
X191623300Y-68755100D02*
X191409967Y-68738614D01*
X191409967Y-68738614D02*
X191214872Y-68693228D01*
X191214872Y-68693228D02*
X191173600Y-68679700D01*
X188313200Y-68988900D02*
X188496717Y-69080946D01*
X188496717Y-69080946D02*
X188598300Y-69121000D01*
X192127200Y-68266300D02*
X192092700Y-68472875D01*
X192092700Y-68472875D02*
X191993700Y-68626800D01*
X190708200Y-67502100D02*
X190839888Y-67341355D01*
X190839888Y-67341355D02*
X190971500Y-67244100D01*
X188465499Y-68633600D02*
X188313200Y-68988900D01*
X191329100Y-67164100D02*
X191540041Y-67194022D01*
X191540041Y-67194022D02*
X191725647Y-67284037D01*
X191725647Y-67284037D02*
X191748500Y-67300600D01*
X190971500Y-67244100D02*
X191169062Y-67177224D01*
X191169062Y-67177224D02*
X191329100Y-67164100D01*
X188753000Y-66320700D02*
X188934702Y-66413152D01*
X188934702Y-66413152D02*
X188984500Y-66416500D01*
X188657900Y-66089801D02*
X188720680Y-66283283D01*
X188720680Y-66283283D02*
X188753000Y-66320700D01*
X189311900Y-66089801D02*
X189248483Y-65894665D01*
X189248483Y-65894665D02*
X189216100Y-65857500D01*
X190690800Y-66858501D02*
X190522928Y-66986419D01*
X190522928Y-66986419D02*
X190402835Y-67153238D01*
X190402835Y-67153238D02*
X190365700Y-67229700D01*
X192824100Y-66957401D02*
X192749160Y-67146192D01*
X192749160Y-67146192D02*
X192733042Y-67348086D01*
X192733042Y-67348086D02*
X192754677Y-67564269D01*
X192754677Y-67564269D02*
X192759200Y-67590300D01*
X194133800Y-66788401D02*
X194148800Y-67347401D01*
X189216100Y-66320700D02*
X189308492Y-66138962D01*
X189308492Y-66138962D02*
X189311900Y-66089801D01*
X191119399Y-69084000D02*
X191329722Y-69139738D01*
X191329722Y-69139738D02*
X191543271Y-69169626D01*
X191543271Y-69169626D02*
X191687400Y-69175300D01*
X191748500Y-67300600D02*
X191890339Y-67441637D01*
X191890339Y-67441637D02*
X192001020Y-67625151D01*
X192001020Y-67625151D02*
X192026900Y-67685400D01*
X192361800Y-68949700D02*
X192487282Y-68790895D01*
X192487282Y-68790895D02*
X192566534Y-68596114D01*
X192566534Y-68596114D02*
X192598091Y-68390293D01*
X192598091Y-68390293D02*
X192600200Y-68315300D01*
X195512700Y-67224400D02*
X195703584Y-67164330D01*
X195703584Y-67164330D02*
X195720200Y-67164100D01*
X194105100Y-67321001D02*
X194032219Y-67131156D01*
X194032219Y-67131156D02*
X193909407Y-66965847D01*
X193909407Y-66965847D02*
X193824399Y-66894000D01*
X196183300Y-67298400D02*
X196341393Y-67437008D01*
X196341393Y-67437008D02*
X196457783Y-67602926D01*
X196457783Y-67602926D02*
X196494900Y-67676300D01*
X196460200Y-68620000D02*
X196287124Y-68721262D01*
X196287124Y-68721262D02*
X196089766Y-68754570D01*
X196089766Y-68754570D02*
X196058099Y-68755100D01*
X193233800Y-67573001D02*
X193227378Y-67366833D01*
X193227378Y-67366833D02*
X193263900Y-67266700D01*
X194462699Y-69130800D02*
X194937900Y-69130800D01*
X189765300Y-67157301D02*
X189971174Y-67169850D01*
X189971174Y-67169850D02*
X190169699Y-67207901D01*
X188984500Y-65762400D02*
X188790091Y-65825180D01*
X188790091Y-65825180D02*
X188753000Y-65857500D01*
X189537500Y-68987400D02*
X189652943Y-68821812D01*
X189652943Y-68821812D02*
X189705057Y-68626791D01*
X189705057Y-68626791D02*
X189709500Y-68436700D01*
X188753000Y-65857500D02*
X188661243Y-66039929D01*
X188661243Y-66039929D02*
X188657900Y-66089801D01*
X195409300Y-68045300D02*
X195620049Y-68143397D01*
X195620049Y-68143397D02*
X195827317Y-68209616D01*
X195827317Y-68209616D02*
X196059224Y-68259370D01*
X196059224Y-68259370D02*
X196271345Y-68288271D01*
X196271345Y-68288271D02*
X196500652Y-68305769D01*
X196500652Y-68305769D02*
X196646500Y-68310800D01*
X200667900Y-68757400D02*
X200457088Y-68724508D01*
X200457088Y-68724508D02*
X200280498Y-68625995D01*
X200280498Y-68625995D02*
X200149699Y-68479700D01*
X199489600Y-67614500D02*
X199497722Y-67836717D01*
X199497722Y-67836717D02*
X199522090Y-68043063D01*
X199522090Y-68043063D02*
X199572775Y-68269737D01*
X199572775Y-68269737D02*
X199646852Y-68473577D01*
X199646852Y-68473577D02*
X199744323Y-68654594D01*
X199744323Y-68654594D02*
X199822300Y-68762600D01*
X195149000Y-66907600D02*
X195024354Y-67074911D01*
X195024354Y-67074911D02*
X194970972Y-67274430D01*
X194970972Y-67274430D02*
X194966500Y-67362500D01*
X195680100Y-68700000D02*
X195483324Y-68633725D01*
X195483324Y-68633725D02*
X195293900Y-68545400D01*
X197514700Y-68633600D02*
X197427999Y-69011600D01*
X198086500Y-68755100D02*
X197883756Y-68742533D01*
X197883756Y-68742533D02*
X197803600Y-68728700D01*
X198489400Y-68417200D02*
X198443348Y-68613101D01*
X198443348Y-68613101D02*
X198391999Y-68673601D01*
X198925300Y-68092000D02*
X198889964Y-67887369D01*
X198889964Y-67887369D02*
X198880100Y-67831000D01*
X199822300Y-68762600D02*
X199980397Y-68923194D01*
X199980397Y-68923194D02*
X200163557Y-69044497D01*
X200163557Y-69044497D02*
X200371747Y-69126409D01*
X200371747Y-69126409D02*
X200570094Y-69165191D01*
X200570094Y-69165191D02*
X200749400Y-69175300D01*
X203483200Y-66412000D02*
X203410000Y-65992601D01*
X201580700Y-68326600D02*
X201572522Y-68100991D01*
X201572522Y-68100991D02*
X201548002Y-67891580D01*
X201548002Y-67891580D02*
X201497037Y-67661625D01*
X201497037Y-67661625D02*
X201422605Y-67454893D01*
X201422605Y-67454893D02*
X201324741Y-67271330D01*
X201324741Y-67271330D02*
X201246499Y-67161800D01*
X203410000Y-65992601D02*
X203196756Y-65967339D01*
X203196756Y-65967339D02*
X202994304Y-65954402D01*
X202994304Y-65954402D02*
X202793114Y-65948802D01*
X202793114Y-65948802D02*
X202685000Y-65948100D01*
X198097800Y-66080801D02*
X198404800Y-67831000D01*
X201246499Y-67161800D02*
X201088406Y-66998766D01*
X201088406Y-66998766D02*
X200905335Y-66875919D01*
X200905335Y-66875919D02*
X200697431Y-66793165D01*
X200697431Y-66793165D02*
X200499572Y-66754072D01*
X200499572Y-66754072D02*
X200320900Y-66743901D01*
X201785800Y-66200000D02*
X201638261Y-66360562D01*
X201638261Y-66360562D02*
X201539237Y-66558475D01*
X201539237Y-66558475D02*
X201491762Y-66765829D01*
X201491762Y-66765829D02*
X201481099Y-66940800D01*
X198880100Y-67831000D02*
X198573099Y-66080801D01*
X196058099Y-68755100D02*
X195851602Y-68737444D01*
X195851602Y-68737444D02*
X195680100Y-68700000D01*
X201360400Y-68950500D02*
X201485928Y-68775615D01*
X201485928Y-68775615D02*
X201554722Y-68580597D01*
X201554722Y-68580597D02*
X201579842Y-68375850D01*
X201579842Y-68375850D02*
X201580700Y-68326600D01*
X194966500Y-67362500D02*
X194994203Y-67567709D01*
X194994203Y-67567709D02*
X195077275Y-67749950D01*
X195077275Y-67749950D02*
X195215659Y-67909165D01*
X195215659Y-67909165D02*
X195382075Y-68029547D01*
X195382075Y-68029547D02*
X195409300Y-68045300D01*
X195658299Y-66743901D02*
X195450533Y-66763182D01*
X195450533Y-66763182D02*
X195249165Y-66835868D01*
X195249165Y-66835868D02*
X195149000Y-66907600D01*
X196385500Y-66934700D02*
X196201749Y-66842380D01*
X196201749Y-66842380D02*
X196001782Y-66780356D01*
X196001782Y-66780356D02*
X195785517Y-66748546D01*
X195785517Y-66748546D02*
X195658299Y-66743901D01*
X197044100Y-68270800D02*
X197033218Y-68048415D01*
X197033218Y-68048415D02*
X197000624Y-67840675D01*
X197000624Y-67840675D02*
X196946393Y-67647521D01*
X196946393Y-67647521D02*
X196870600Y-67468900D01*
X200384999Y-67164100D02*
X200583291Y-67191056D01*
X200583291Y-67191056D02*
X200767535Y-67282991D01*
X200767535Y-67282991D02*
X200916100Y-67440200D01*
X196078400Y-69175300D02*
X196293425Y-69160314D01*
X196293425Y-69160314D02*
X196505564Y-69107700D01*
X196505564Y-69107700D02*
X196686190Y-69017345D01*
X196686190Y-69017345D02*
X196789100Y-68936200D01*
X195605400Y-69108900D02*
X195802510Y-69151690D01*
X195802510Y-69151690D02*
X196007207Y-69173650D01*
X196007207Y-69173650D02*
X196078400Y-69175300D01*
X197253700Y-67198800D02*
X199317600Y-67198800D01*
X197180500Y-66788401D02*
X197253700Y-67198800D01*
X199317600Y-67198800D02*
X199245200Y-66788401D01*
X198466000Y-68171900D02*
X198488791Y-68377767D01*
X198488791Y-68377767D02*
X198489400Y-68417200D01*
X200991500Y-68612500D02*
X200821412Y-68733485D01*
X200821412Y-68733485D02*
X200667900Y-68757400D01*
X200149699Y-68479700D02*
X200051113Y-68285422D01*
X200051113Y-68285422D02*
X199993483Y-68074547D01*
X199993483Y-68074547D02*
X199967088Y-67858371D01*
X199967088Y-67858371D02*
X199962500Y-67709500D01*
X198404800Y-67831000D02*
X198440748Y-68037456D01*
X198440748Y-68037456D02*
X198466000Y-68171900D01*
X200916100Y-67440200D02*
X201017035Y-67633980D01*
X201017035Y-67633980D02*
X201076009Y-67844532D01*
X201076009Y-67844532D02*
X201103007Y-68060350D01*
X201103007Y-68060350D02*
X201107700Y-68208900D01*
X199245200Y-66788401D02*
X197180500Y-66788401D01*
X198953300Y-68282800D02*
X198925300Y-68092000D01*
X203463500Y-68334900D02*
X203710999Y-68334900D01*
X197803600Y-68728700D02*
X197605282Y-68668594D01*
X197605282Y-68668594D02*
X197514700Y-68633600D01*
X199962500Y-67709500D02*
X199983737Y-67506631D01*
X199983737Y-67506631D02*
X200066579Y-67317266D01*
X200066579Y-67317266D02*
X200073400Y-67308100D01*
X200749400Y-69175300D02*
X200956001Y-69157421D01*
X200956001Y-69157421D02*
X201153640Y-69095805D01*
X201153640Y-69095805D02*
X201332279Y-68977628D01*
X201332279Y-68977628D02*
X201360400Y-68950500D01*
X202758200Y-66368200D02*
X202969370Y-66370895D01*
X202969370Y-66370895D02*
X203183059Y-66380442D01*
X203183059Y-66380442D02*
X203390917Y-66399282D01*
X203390917Y-66399282D02*
X203483200Y-66412000D01*
X202158500Y-66520600D02*
X202338317Y-66427599D01*
X202338317Y-66427599D02*
X202550661Y-66380203D01*
X202550661Y-66380203D02*
X202758200Y-66368200D01*
X199709900Y-66974000D02*
X199584682Y-67153340D01*
X199584682Y-67153340D02*
X199515740Y-67353475D01*
X199515740Y-67353475D02*
X199490465Y-67563852D01*
X199490465Y-67563852D02*
X199489600Y-67614500D01*
X197427999Y-69011600D02*
X197623777Y-69085517D01*
X197623777Y-69085517D02*
X197765100Y-69127801D01*
X196870600Y-67468900D02*
X196762141Y-67288021D01*
X196762141Y-67288021D02*
X196631664Y-67131132D01*
X196631664Y-67131132D02*
X196479408Y-66998204D01*
X196479408Y-66998204D02*
X196385500Y-66934700D01*
X196789100Y-68936200D02*
X196923439Y-68768545D01*
X196923439Y-68768545D02*
X197008161Y-68564270D01*
X197008161Y-68564270D02*
X197041851Y-68349111D01*
X197041851Y-68349111D02*
X197044100Y-68270800D01*
X195140799Y-68923300D02*
X195322180Y-69011295D01*
X195322180Y-69011295D02*
X195513587Y-69082042D01*
X195513587Y-69082042D02*
X195605400Y-69108900D01*
X198391999Y-68673601D02*
X198205788Y-68747134D01*
X198205788Y-68747134D02*
X198086500Y-68755100D01*
X201982700Y-67981900D02*
X202187482Y-68101852D01*
X202187482Y-68101852D02*
X202383803Y-68182860D01*
X202383803Y-68182860D02*
X202603475Y-68246637D01*
X202603475Y-68246637D02*
X202846510Y-68293180D01*
X202846510Y-68293180D02*
X203057771Y-68318004D01*
X203057771Y-68318004D02*
X203284000Y-68331796D01*
X203284000Y-68331796D02*
X203463500Y-68334900D01*
X198173299Y-69175300D02*
X198384791Y-69161528D01*
X198384791Y-69161528D02*
X198579894Y-69113998D01*
X198579894Y-69113998D02*
X198758545Y-69012359D01*
X198758545Y-69012359D02*
X198770700Y-69001700D01*
X198573099Y-66080801D02*
X198097800Y-66080801D01*
X195293900Y-68545400D02*
X195140799Y-68923300D01*
X202685000Y-65948100D02*
X202472317Y-65956993D01*
X202472317Y-65956993D02*
X202249828Y-65989801D01*
X202249828Y-65989801D02*
X202055037Y-66046689D01*
X202055037Y-66046689D02*
X201866445Y-66141085D01*
X201866445Y-66141085D02*
X201785800Y-66200000D01*
X197765100Y-69127801D02*
X197969004Y-69164839D01*
X197969004Y-69164839D02*
X198173299Y-69175300D01*
X200320900Y-66743901D02*
X200114281Y-66762016D01*
X200114281Y-66762016D02*
X199916616Y-66824804D01*
X199916616Y-66824804D02*
X199738003Y-66946053D01*
X199738003Y-66946053D02*
X199709900Y-66974000D01*
X201481099Y-66940800D02*
X201493308Y-67147318D01*
X201493308Y-67147318D02*
X201540230Y-67373700D01*
X201540230Y-67373700D02*
X201622426Y-67576696D01*
X201622426Y-67576696D02*
X201739965Y-67756310D01*
X201739965Y-67756310D02*
X201892919Y-67912547D01*
X201892919Y-67912547D02*
X201982700Y-67981900D01*
X200073400Y-67308100D02*
X200236321Y-67187718D01*
X200236321Y-67187718D02*
X200384999Y-67164100D01*
X201107700Y-68208900D02*
X201085565Y-68413618D01*
X201085565Y-68413618D02*
X200998678Y-68603333D01*
X200998678Y-68603333D02*
X200991500Y-68612500D01*
X198962299Y-68460900D02*
X198953300Y-68282800D01*
X198770700Y-69001700D02*
X198894652Y-68828629D01*
X198894652Y-68828629D02*
X198950291Y-68632475D01*
X198950291Y-68632475D02*
X198962299Y-68460900D01*
X195439500Y-67391200D02*
X195512700Y-67224400D01*
X195769900Y-67800001D02*
X195595650Y-67696492D01*
X195595650Y-67696492D02*
X195465629Y-67529100D01*
X195465629Y-67529100D02*
X195439500Y-67391200D01*
X196692499Y-67956900D02*
X196479742Y-67948667D01*
X196479742Y-67948667D02*
X196254683Y-67926751D01*
X196254683Y-67926751D02*
X196054609Y-67891524D01*
X196054609Y-67891524D02*
X195856612Y-67834891D01*
X195856612Y-67834891D02*
X195769900Y-67800001D01*
X196646500Y-68310800D02*
X196692499Y-67956900D01*
X211224199Y-68214000D02*
X211413840Y-68320860D01*
X211413840Y-68320860D02*
X211625216Y-68315771D01*
X211625216Y-68315771D02*
X211796000Y-68214000D01*
X211796000Y-67642200D02*
X211606359Y-67535339D01*
X211606359Y-67535339D02*
X211394983Y-67540428D01*
X211394983Y-67540428D02*
X211224199Y-67642200D01*
X207785700Y-68886600D02*
X207632364Y-68692294D01*
X207632364Y-68692294D02*
X207483954Y-68493251D01*
X207483954Y-68493251D02*
X207340201Y-68289841D01*
X207340201Y-68289841D02*
X207200837Y-68082437D01*
X207200837Y-68082437D02*
X207065592Y-67871409D01*
X207065592Y-67871409D02*
X206934200Y-67657129D01*
X206934200Y-67657129D02*
X206806392Y-67439969D01*
X206806392Y-67439969D02*
X206681899Y-67220300D01*
X184000800Y-75996300D02*
X215828800Y-75996300D01*
X216602400Y-64060900D02*
X216567470Y-63831503D01*
X216567470Y-63831503D02*
X216469820Y-63629140D01*
X216469820Y-63629140D02*
X216320155Y-63464517D01*
X216320155Y-63464517D02*
X216129182Y-63348339D01*
X216129182Y-63348339D02*
X215907608Y-63291313D01*
X215907608Y-63291313D02*
X215828800Y-63287300D01*
X207327300Y-67238100D02*
X207201099Y-67234700D01*
X213034199Y-69258900D02*
X213251838Y-69256653D01*
X213251838Y-69256653D02*
X213432302Y-69146608D01*
X213432302Y-69146608D02*
X213529300Y-68973100D01*
X206376300Y-66752300D02*
X206576271Y-66758385D01*
X206576271Y-66758385D02*
X206776258Y-66764362D01*
X206776258Y-66764362D02*
X206976277Y-66770207D01*
X206976277Y-66770207D02*
X207176343Y-66775896D01*
X207176343Y-66775896D02*
X207376473Y-66781407D01*
X207376473Y-66781407D02*
X207443200Y-66783200D01*
X207201099Y-67234700D02*
X207306486Y-67413190D01*
X207306486Y-67413190D02*
X207414327Y-67589559D01*
X207414327Y-67589559D02*
X207524779Y-67763580D01*
X207524779Y-67763580D02*
X207637999Y-67935025D01*
X207637999Y-67935025D02*
X207754144Y-68103666D01*
X207754144Y-68103666D02*
X207873371Y-68269278D01*
X207873371Y-68269278D02*
X207995837Y-68431631D01*
X207995837Y-68431631D02*
X208121700Y-68590500D01*
X208945100Y-68412200D02*
X208757625Y-68335484D01*
X208757625Y-68335484D02*
X208563698Y-68241696D01*
X208563698Y-68241696D02*
X208367790Y-68133547D01*
X208367790Y-68133547D02*
X208174376Y-68013753D01*
X208174376Y-68013753D02*
X207987928Y-67885025D01*
X207987928Y-67885025D02*
X207928100Y-67840600D01*
X215828800Y-75996300D02*
X216058196Y-75961370D01*
X216058196Y-75961370D02*
X216260559Y-75863720D01*
X216260559Y-75863720D02*
X216425182Y-75714055D01*
X216425182Y-75714055D02*
X216541360Y-75523082D01*
X216541360Y-75523082D02*
X216598386Y-75301508D01*
X216598386Y-75301508D02*
X216602400Y-75222700D01*
X205338600Y-69641800D02*
X205344509Y-69875513D01*
X205344509Y-69875513D02*
X205362048Y-70106159D01*
X205362048Y-70106159D02*
X205390930Y-70333450D01*
X205390930Y-70333450D02*
X205430871Y-70557103D01*
X205430871Y-70557103D02*
X205481585Y-70776831D01*
X205481585Y-70776831D02*
X205542786Y-70992349D01*
X205542786Y-70992349D02*
X205614189Y-71203371D01*
X205614189Y-71203371D02*
X205695509Y-71409614D01*
X205695509Y-71409614D02*
X205786460Y-71610790D01*
X205786460Y-71610790D02*
X205886757Y-71806615D01*
X205886757Y-71806615D02*
X205996115Y-71996804D01*
X205996115Y-71996804D02*
X206114248Y-72181070D01*
X206114248Y-72181070D02*
X206240871Y-72359130D01*
X206240871Y-72359130D02*
X206375698Y-72530697D01*
X206375698Y-72530697D02*
X206518445Y-72695486D01*
X206518445Y-72695486D02*
X206668825Y-72853212D01*
X206668825Y-72853212D02*
X206826553Y-73003589D01*
X206826553Y-73003589D02*
X206991344Y-73146333D01*
X206991344Y-73146333D02*
X207162912Y-73281157D01*
X207162912Y-73281157D02*
X207340973Y-73407777D01*
X207340973Y-73407777D02*
X207525240Y-73525907D01*
X207525240Y-73525907D02*
X207715428Y-73635262D01*
X207715428Y-73635262D02*
X207911253Y-73735556D01*
X207911253Y-73735556D02*
X208112428Y-73826504D01*
X208112428Y-73826504D02*
X208318668Y-73907821D01*
X208318668Y-73907821D02*
X208529688Y-73979222D01*
X208529688Y-73979222D02*
X208745202Y-74040421D01*
X208745202Y-74040421D02*
X208964925Y-74091132D01*
X208964925Y-74091132D02*
X209188572Y-74131071D01*
X209188572Y-74131071D02*
X209415857Y-74159952D01*
X209415857Y-74159952D02*
X209646494Y-74177490D01*
X209646494Y-74177490D02*
X209880200Y-74183400D01*
X203390300Y-67915500D02*
X203177669Y-67909640D01*
X203177669Y-67909640D02*
X202944546Y-67887140D01*
X202944546Y-67887140D02*
X202735493Y-67847765D01*
X202735493Y-67847765D02*
X202522066Y-67780500D01*
X202522066Y-67780500D02*
X202341506Y-67690265D01*
X202341506Y-67690265D02*
X202318399Y-67675500D01*
X209543199Y-69243400D02*
X209726183Y-69143358D01*
X209726183Y-69143358D02*
X209849000Y-69183300D01*
X209346100Y-70310000D02*
X209179095Y-70198874D01*
X209179095Y-70198874D02*
X208963694Y-70042702D01*
X208963694Y-70042702D02*
X208756300Y-69877794D01*
X208756300Y-69877794D02*
X208556581Y-69704602D01*
X208556581Y-69704602D02*
X208364207Y-69523576D01*
X208364207Y-69523576D02*
X208178844Y-69335169D01*
X208178844Y-69335169D02*
X208000162Y-69139831D01*
X208000162Y-69139831D02*
X207827830Y-68938013D01*
X207827830Y-68938013D02*
X207785700Y-68886600D01*
X212900900Y-71990700D02*
X212935300Y-72065900D01*
X202318399Y-67675500D02*
X202158988Y-67541434D01*
X202158988Y-67541434D02*
X202034079Y-67356789D01*
X202034079Y-67356789D02*
X201971440Y-67162577D01*
X201971440Y-67162577D02*
X201954000Y-66969400D01*
X203637799Y-67915500D02*
X203390300Y-67915500D01*
X203710999Y-68334900D02*
X203637799Y-67915500D01*
X203502700Y-69130800D02*
X203962900Y-69130800D01*
X203962900Y-69130800D02*
X203410000Y-65992601D01*
X208121700Y-68590500D02*
X208281242Y-68780469D01*
X208281242Y-68780469D02*
X208446571Y-68964446D01*
X208446571Y-68964446D02*
X208617990Y-69142006D01*
X208617990Y-69142006D02*
X208795799Y-69312725D01*
X208795799Y-69312725D02*
X208980303Y-69476177D01*
X208980303Y-69476177D02*
X209171802Y-69631940D01*
X209171802Y-69631940D02*
X209370600Y-69779589D01*
X209370600Y-69779589D02*
X209576999Y-69918700D01*
X210674400Y-66689901D02*
X210861766Y-66579121D01*
X210861766Y-66579121D02*
X210963047Y-66393568D01*
X210963047Y-66393568D02*
X210960300Y-66194800D01*
X211346300Y-70490100D02*
X211488677Y-70646263D01*
X211488677Y-70646263D02*
X211628686Y-70806676D01*
X211628686Y-70806676D02*
X211766374Y-70971458D01*
X211766374Y-70971458D02*
X211901789Y-71140728D01*
X211901789Y-71140728D02*
X212034979Y-71314605D01*
X212034979Y-71314605D02*
X212165992Y-71493208D01*
X212165992Y-71493208D02*
X212217799Y-71566000D01*
X212252600Y-72429100D02*
X212145700Y-72258477D01*
X212145700Y-72258477D02*
X212000861Y-72037388D01*
X212000861Y-72037388D02*
X211853313Y-71823442D01*
X211853313Y-71823442D02*
X211702978Y-71616439D01*
X211702978Y-71616439D02*
X211549776Y-71416179D01*
X211549776Y-71416179D02*
X211393626Y-71222464D01*
X211393626Y-71222464D02*
X211234449Y-71035093D01*
X211234449Y-71035093D02*
X211072165Y-70853869D01*
X211072165Y-70853869D02*
X211031100Y-70809500D01*
X213734100Y-72045201D02*
X213851766Y-71845861D01*
X213851766Y-71845861D02*
X213959402Y-71640184D01*
X213959402Y-71640184D02*
X214056671Y-71428502D01*
X214056671Y-71428502D02*
X214143237Y-71211149D01*
X214143237Y-71211149D02*
X214218761Y-70988459D01*
X214218761Y-70988459D02*
X214282907Y-70760763D01*
X214282907Y-70760763D02*
X214335337Y-70528396D01*
X214335337Y-70528396D02*
X214375715Y-70291690D01*
X214375715Y-70291690D02*
X214403703Y-70050979D01*
X214403703Y-70050979D02*
X214418963Y-69806597D01*
X214418963Y-69806597D02*
X214421900Y-69641800D01*
X209849000Y-69183300D02*
X210049455Y-69329017D01*
X210049455Y-69329017D02*
X210245951Y-69479357D01*
X210245951Y-69479357D02*
X210438568Y-69634528D01*
X210438568Y-69634528D02*
X210627387Y-69794737D01*
X210627387Y-69794737D02*
X210812489Y-69960192D01*
X210812489Y-69960192D02*
X210993954Y-70131098D01*
X210993954Y-70131098D02*
X211171864Y-70307665D01*
X211171864Y-70307665D02*
X211346300Y-70490100D01*
X184000800Y-63287300D02*
X183771403Y-63322229D01*
X183771403Y-63322229D02*
X183569040Y-63419879D01*
X183569040Y-63419879D02*
X183404417Y-63569544D01*
X183404417Y-63569544D02*
X183288239Y-63760517D01*
X183288239Y-63760517D02*
X183231213Y-63982091D01*
X183231213Y-63982091D02*
X183227200Y-64060900D01*
X211796000Y-68214000D02*
X211902860Y-68024359D01*
X211902860Y-68024359D02*
X211897771Y-67812983D01*
X211897771Y-67812983D02*
X211796000Y-67642200D01*
X213529300Y-68973100D02*
X213527030Y-68755433D01*
X213527030Y-68755433D02*
X213416963Y-68574920D01*
X213416963Y-68574920D02*
X213243499Y-68477900D01*
X216602400Y-75222700D02*
X216602400Y-64060900D01*
X209880200Y-74183400D02*
X210144077Y-74175860D01*
X210144077Y-74175860D02*
X210403985Y-74153518D01*
X210403985Y-74153518D02*
X210659514Y-74116784D01*
X210659514Y-74116784D02*
X210910251Y-74066071D01*
X210910251Y-74066071D02*
X211155785Y-74001792D01*
X211155785Y-74001792D02*
X211395706Y-73924358D01*
X211395706Y-73924358D02*
X211629602Y-73834181D01*
X211629602Y-73834181D02*
X211857062Y-73731675D01*
X211857062Y-73731675D02*
X212077674Y-73617250D01*
X212077674Y-73617250D02*
X212291028Y-73491319D01*
X212291028Y-73491319D02*
X212496713Y-73354295D01*
X212496713Y-73354295D02*
X212694317Y-73206590D01*
X212694317Y-73206590D02*
X212883428Y-73048616D01*
X212883428Y-73048616D02*
X213063637Y-72880784D01*
X213063637Y-72880784D02*
X213234531Y-72703508D01*
X213234531Y-72703508D02*
X213395700Y-72517200D01*
X213243499Y-68477900D02*
X213025832Y-68480173D01*
X213025832Y-68480173D02*
X212845319Y-68590268D01*
X212845319Y-68590268D02*
X212748300Y-68763800D01*
X214421900Y-69641800D02*
X214415990Y-69408094D01*
X214415990Y-69408094D02*
X214398451Y-69177457D01*
X214398451Y-69177457D02*
X214369569Y-68950172D01*
X214369569Y-68950172D02*
X214329628Y-68726525D01*
X214329628Y-68726525D02*
X214278914Y-68506802D01*
X214278914Y-68506802D02*
X214217713Y-68291288D01*
X214217713Y-68291288D02*
X214146309Y-68080268D01*
X214146309Y-68080268D02*
X214064989Y-67874028D01*
X214064989Y-67874028D02*
X213974037Y-67672853D01*
X213974037Y-67672853D02*
X213873738Y-67477028D01*
X213873738Y-67477028D02*
X213764380Y-67286840D01*
X213764380Y-67286840D02*
X213646245Y-67102573D01*
X213646245Y-67102573D02*
X213519621Y-66924512D01*
X213519621Y-66924512D02*
X213384792Y-66752944D01*
X213384792Y-66752944D02*
X213242044Y-66588153D01*
X213242044Y-66588153D02*
X213091662Y-66430425D01*
X213091662Y-66430425D02*
X212933931Y-66280045D01*
X212933931Y-66280045D02*
X212769138Y-66137298D01*
X212769138Y-66137298D02*
X212597566Y-66002471D01*
X212597566Y-66002471D02*
X212419502Y-65875848D01*
X212419502Y-65875848D02*
X212235231Y-65757715D01*
X212235231Y-65757715D02*
X212045038Y-65648357D01*
X212045038Y-65648357D02*
X211849209Y-65548060D01*
X211849209Y-65548060D02*
X211648029Y-65457109D01*
X211648029Y-65457109D02*
X211441784Y-65375789D01*
X211441784Y-65375789D02*
X211230758Y-65304386D01*
X211230758Y-65304386D02*
X211015237Y-65243185D01*
X211015237Y-65243185D02*
X210795507Y-65192471D01*
X210795507Y-65192471D02*
X210571853Y-65152530D01*
X210571853Y-65152530D02*
X210344560Y-65123648D01*
X210344560Y-65123648D02*
X210113914Y-65106109D01*
X210113914Y-65106109D02*
X209880200Y-65100200D01*
X212935300Y-72065900D02*
X213159004Y-72060457D01*
X213159004Y-72060457D02*
X213383819Y-72054219D01*
X213383819Y-72054219D02*
X213584024Y-72048784D01*
X213584024Y-72048784D02*
X213734100Y-72045201D01*
X207928100Y-67840600D02*
X207768350Y-67712927D01*
X207768350Y-67712927D02*
X207601945Y-67562232D01*
X207601945Y-67562232D02*
X207457484Y-67409257D01*
X207457484Y-67409257D02*
X207327300Y-67238100D01*
X209576999Y-69918700D02*
X209681094Y-70093669D01*
X209681094Y-70093669D02*
X209649300Y-70234600D01*
X206050200Y-67200200D02*
X205928549Y-67401972D01*
X205928549Y-67401972D02*
X205817242Y-67610378D01*
X205817242Y-67610378D02*
X205716631Y-67825064D01*
X205716631Y-67825064D02*
X205627071Y-68045677D01*
X205627071Y-68045677D02*
X205548917Y-68271864D01*
X205548917Y-68271864D02*
X205482524Y-68503271D01*
X205482524Y-68503271D02*
X205428245Y-68739543D01*
X205428245Y-68739543D02*
X205386435Y-68980329D01*
X205386435Y-68980329D02*
X205357450Y-69225274D01*
X205357450Y-69225274D02*
X205341642Y-69474026D01*
X205341642Y-69474026D02*
X205338600Y-69641800D01*
X207443200Y-66783200D02*
X207629817Y-66873363D01*
X207629817Y-66873363D02*
X207651700Y-66910100D01*
X183227200Y-75222700D02*
X183262129Y-75452096D01*
X183262129Y-75452096D02*
X183359779Y-75654459D01*
X183359779Y-75654459D02*
X183509444Y-75819082D01*
X183509444Y-75819082D02*
X183700417Y-75935260D01*
X183700417Y-75935260D02*
X183921991Y-75992286D01*
X183921991Y-75992286D02*
X184000800Y-75996300D01*
X208186600Y-67469100D02*
X208350949Y-67586922D01*
X208350949Y-67586922D02*
X208522178Y-67697237D01*
X208522178Y-67697237D02*
X208696306Y-67797619D01*
X208696306Y-67797619D02*
X208897803Y-67898944D01*
X208897803Y-67898944D02*
X209091500Y-67979600D01*
X215828800Y-63287300D02*
X184000800Y-63287300D01*
X207651700Y-66910100D02*
X207774801Y-67092639D01*
X207774801Y-67092639D02*
X207927995Y-67252660D01*
X207927995Y-67252660D02*
X208094787Y-67397362D01*
X208094787Y-67397362D02*
X208186600Y-67469100D01*
X212804500Y-72532000D02*
X212755600Y-72527600D01*
X210960300Y-66194800D02*
X210849497Y-66007433D01*
X210849497Y-66007433D02*
X210663924Y-65906152D01*
X210663924Y-65906152D02*
X210465200Y-65908900D01*
X212455000Y-72533900D02*
X212271099Y-72454992D01*
X212271099Y-72454992D02*
X212252600Y-72429100D01*
X212755600Y-72527600D02*
X212455000Y-72533900D01*
X211224199Y-67642200D02*
X211117407Y-67831840D01*
X211117407Y-67831840D02*
X211122492Y-68043216D01*
X211122492Y-68043216D02*
X211224199Y-68214000D01*
X212748300Y-68763800D02*
X212750573Y-68981462D01*
X212750573Y-68981462D02*
X212860668Y-69161947D01*
X212860668Y-69161947D02*
X213034199Y-69258900D01*
X209649300Y-70234600D02*
X209470809Y-70343799D01*
X209470809Y-70343799D02*
X209346100Y-70310000D01*
X206681899Y-67220300D02*
X206050200Y-67200200D01*
X212217799Y-71566000D02*
X212106119Y-71338837D01*
X212106119Y-71338837D02*
X211988060Y-71111670D01*
X211988060Y-71111670D02*
X211862336Y-70885360D01*
X211862336Y-70885360D02*
X211727660Y-70660766D01*
X211727660Y-70660766D02*
X211582745Y-70438745D01*
X211582745Y-70438745D02*
X211426307Y-70220159D01*
X211426307Y-70220159D02*
X211257058Y-70005866D01*
X211257058Y-70005866D02*
X211073712Y-69796725D01*
X211073712Y-69796725D02*
X210874982Y-69593596D01*
X210874982Y-69593596D02*
X210659583Y-69397338D01*
X210659583Y-69397338D02*
X210426229Y-69208810D01*
X210426229Y-69208810D02*
X210173632Y-69028872D01*
X210173632Y-69028872D02*
X209900507Y-68858382D01*
X209900507Y-68858382D02*
X209605568Y-68698201D01*
X209605568Y-68698201D02*
X209287527Y-68549187D01*
X209287527Y-68549187D02*
X208945100Y-68412200D01*
X213395700Y-72517200D02*
X212804500Y-72532000D01*
X183227200Y-64060900D02*
X183227200Y-75222700D01*
X201954000Y-66969400D02*
X201982687Y-66767429D01*
X201982687Y-66767429D02*
X202088902Y-66582923D01*
X202088902Y-66582923D02*
X202158500Y-66520600D01*
X202950500Y-65992601D02*
X203502700Y-69130800D01*
X203410000Y-65992601D02*
X202950500Y-65992601D01*
X210179300Y-66404101D02*
X210290079Y-66591395D01*
X210290079Y-66591395D02*
X210475631Y-66692651D01*
X210475631Y-66692651D02*
X210674400Y-66689901D01*
X209091500Y-67979600D02*
X209311006Y-68064408D01*
X209311006Y-68064408D02*
X209521214Y-68153639D01*
X209521214Y-68153639D02*
X209722404Y-68247110D01*
X209722404Y-68247110D02*
X209914859Y-68344643D01*
X209914859Y-68344643D02*
X210098861Y-68446055D01*
X210098861Y-68446055D02*
X210274690Y-68551167D01*
X210274690Y-68551167D02*
X210442630Y-68659797D01*
X210442630Y-68659797D02*
X210755965Y-68886891D01*
X210755965Y-68886891D02*
X211041120Y-69125891D01*
X211041120Y-69125891D02*
X211300349Y-69375353D01*
X211300349Y-69375353D02*
X211535906Y-69633831D01*
X211535906Y-69633831D02*
X211750045Y-69899880D01*
X211750045Y-69899880D02*
X211945020Y-70172055D01*
X211945020Y-70172055D02*
X212123086Y-70448911D01*
X212123086Y-70448911D02*
X212286495Y-70729002D01*
X212286495Y-70729002D02*
X212437501Y-71010883D01*
X212437501Y-71010883D02*
X212578360Y-71293109D01*
X212578360Y-71293109D02*
X212711324Y-71574235D01*
X212711324Y-71574235D02*
X212838648Y-71852815D01*
X212838648Y-71852815D02*
X212900900Y-71990700D01*
X210465200Y-65908900D02*
X210277832Y-66019706D01*
X210277832Y-66019706D02*
X210176551Y-66205308D01*
X210176551Y-66205308D02*
X210179300Y-66404101D01*
X211031100Y-70809500D02*
X210864830Y-70635659D01*
X210864830Y-70635659D02*
X210695145Y-70467330D01*
X210695145Y-70467330D02*
X210521965Y-70304313D01*
X210521965Y-70304313D02*
X210345212Y-70146412D01*
X210345212Y-70146412D02*
X210164807Y-69993428D01*
X210164807Y-69993428D02*
X209980673Y-69845164D01*
X209980673Y-69845164D02*
X209792729Y-69701420D01*
X209792729Y-69701420D02*
X209600900Y-69562000D01*
X209600900Y-69562000D02*
X209505083Y-69382331D01*
X209505083Y-69382331D02*
X209543199Y-69243400D01*
X209880200Y-65100200D02*
X209617540Y-65107668D01*
X209617540Y-65107668D02*
X209358807Y-65129803D01*
X209358807Y-65129803D02*
X209104406Y-65166199D01*
X209104406Y-65166199D02*
X208854745Y-65216450D01*
X208854745Y-65216450D02*
X208610228Y-65280148D01*
X208610228Y-65280148D02*
X208371263Y-65356889D01*
X208371263Y-65356889D02*
X208138256Y-65446267D01*
X208138256Y-65446267D02*
X207911612Y-65547875D01*
X207911612Y-65547875D02*
X207691738Y-65661306D01*
X207691738Y-65661306D02*
X207479040Y-65786157D01*
X207479040Y-65786157D02*
X207273925Y-65922019D01*
X207273925Y-65922019D02*
X207076798Y-66068487D01*
X207076798Y-66068487D02*
X206888066Y-66225155D01*
X206888066Y-66225155D02*
X206708134Y-66391617D01*
X206708134Y-66391617D02*
X206537410Y-66567468D01*
X206537410Y-66567468D02*
X206376300Y-66752300D01*
D11*
%TO.C,D1*%
X151638000Y-62039500D02*
X151638000Y-62039500D01*
X150876000Y-62039500D02*
X151638000Y-62039500D01*
X150876000Y-70675500D02*
X150876000Y-70675500D01*
X150876000Y-68643500D02*
X150876000Y-70675500D01*
X151638000Y-68643500D02*
X150876000Y-68643500D01*
X143820000Y-68641500D02*
X143020000Y-68641500D01*
X143020000Y-68641500D02*
X143020000Y-62041500D01*
X143020000Y-62041500D02*
X143820000Y-62041500D01*
X148920000Y-68641500D02*
X145720000Y-68641500D01*
X148920000Y-62041500D02*
X145720000Y-62041500D01*
X151620000Y-68641500D02*
X151620000Y-62041500D01*
%TO.C,C4*%
X175589748Y-61806500D02*
X177012252Y-61806500D01*
X175589748Y-59986500D02*
X177012252Y-59986500D01*
%TO.C,C3*%
X163474748Y-61806500D02*
X164897252Y-61806500D01*
X163474748Y-59986500D02*
X164897252Y-59986500D01*
%TO.C,D1*%
D12*
X152872380Y-64603404D02*
X151872380Y-64603404D01*
X151872380Y-64841500D01*
X151920000Y-64984357D01*
X152015238Y-65079595D01*
X152110476Y-65127214D01*
X152300952Y-65174833D01*
X152443809Y-65174833D01*
X152634285Y-65127214D01*
X152729523Y-65079595D01*
X152824761Y-64984357D01*
X152872380Y-64841500D01*
X152872380Y-64603404D01*
X152872380Y-66127214D02*
X152872380Y-65555785D01*
X152872380Y-65841500D02*
X151872380Y-65841500D01*
X152015238Y-65746261D01*
X152110476Y-65651023D01*
X152158095Y-65555785D01*
%TO.C,C4*%
X176467666Y-63103642D02*
X176515285Y-63151261D01*
X176658142Y-63198880D01*
X176753380Y-63198880D01*
X176896238Y-63151261D01*
X176991476Y-63056023D01*
X177039095Y-62960785D01*
X177086714Y-62770309D01*
X177086714Y-62627452D01*
X177039095Y-62436976D01*
X176991476Y-62341738D01*
X176896238Y-62246500D01*
X176753380Y-62198880D01*
X176658142Y-62198880D01*
X176515285Y-62246500D01*
X176467666Y-62294119D01*
X175610523Y-62532214D02*
X175610523Y-63198880D01*
X175848619Y-62151261D02*
X176086714Y-62865547D01*
X175467666Y-62865547D01*
%TO.C,C3*%
X164352666Y-63103642D02*
X164400285Y-63151261D01*
X164543142Y-63198880D01*
X164638380Y-63198880D01*
X164781238Y-63151261D01*
X164876476Y-63056023D01*
X164924095Y-62960785D01*
X164971714Y-62770309D01*
X164971714Y-62627452D01*
X164924095Y-62436976D01*
X164876476Y-62341738D01*
X164781238Y-62246500D01*
X164638380Y-62198880D01*
X164543142Y-62198880D01*
X164400285Y-62246500D01*
X164352666Y-62294119D01*
X164019333Y-62198880D02*
X163400285Y-62198880D01*
X163733619Y-62579833D01*
X163590761Y-62579833D01*
X163495523Y-62627452D01*
X163447904Y-62675071D01*
X163400285Y-62770309D01*
X163400285Y-63008404D01*
X163447904Y-63103642D01*
X163495523Y-63151261D01*
X163590761Y-63198880D01*
X163876476Y-63198880D01*
X163971714Y-63151261D01*
X164019333Y-63103642D01*
%TD*%
M02*
