M48
; DRILL file {KiCad (5.1.10)-1} date 11/14/22 19:36:39
; FORMAT={-:-/ absolute / inch / decimal}
; #@! TF.CreationDate,2022-11-14T19:36:39-03:00
; #@! TF.GenerationSoftware,Kicad,Pcbnew,(5.1.10)-1
FMAT,2
INCH
T1C0.0157
T2C0.0315
T3C0.0350
T4C0.0394
T5C0.0433
T6C0.0472
T7C0.0787
T8C0.0791
T9C0.1181
%
G90
G05
T1
X4.76Y-5.52
X4.94Y-3.06
X4.94Y-3.65
X4.94Y-4.24
X5.04Y-6.06
X5.11Y-4.5775
X5.18Y-4.79
X5.24Y-5.98
X5.348Y-5.516
X5.348Y-5.773
X5.3591Y-5.16
X5.4825Y-3.06
X5.8025Y-4.5775
X5.85Y-3.97
X6.0683Y-5.9492
X6.095Y-5.4775
X6.3Y-4.25
X6.325Y-4.83
X6.345Y-3.6475
X6.346Y-5.662
X6.4Y-5.9475
X6.6075Y-4.1575
X6.608Y-4.249
X6.6425Y-3.957
X6.705Y-4.402
X6.765Y-3.72
X6.788Y-5.9485
X6.812Y-3.285
X6.865Y-4.6825
X6.903Y-3.187
X6.905Y-5.435
X7.053Y-4.975
X7.053Y-5.28
X7.164Y-4.603
X7.165Y-3.451
X7.166Y-4.932
X7.2625Y-5.03
X7.2625Y-5.145
X7.265Y-5.355
X7.6725Y-3.6425
X7.6725Y-4.24
T2
X4.75Y-5.06
X4.75Y-5.36
X4.85Y-5.06
X4.85Y-5.36
X4.8525Y-5.6
X4.95Y-5.06
X4.95Y-5.36
X4.9525Y-5.6
X5.05Y-5.06
X5.05Y-5.36
X5.0525Y-5.6
X5.275Y-2.4
X5.275Y-2.6675
X5.43Y-4.68
X5.43Y-4.98
X5.53Y-4.68
X5.53Y-4.98
X5.565Y-2.4
X5.565Y-2.5325
X5.565Y-2.6675
X5.63Y-4.68
X5.63Y-4.98
X5.65Y-3.81
X5.65Y-4.11
X5.73Y-4.68
X5.73Y-4.98
X5.75Y-3.81
X5.75Y-4.11
X5.85Y-3.81
X5.85Y-4.11
X5.95Y-3.81
X5.95Y-4.11
X6.025Y-4.675
X6.025Y-4.975
X6.05Y-3.81
X6.05Y-4.11
X6.125Y-4.675
X6.125Y-4.975
X6.1425Y-2.3725
X6.1425Y-2.4512
X6.1425Y-2.6225
X6.1425Y-2.7012
X6.15Y-3.81
X6.15Y-4.11
X6.225Y-4.675
X6.225Y-4.975
X6.25Y-3.81
X6.25Y-4.11
X6.325Y-4.675
X6.325Y-4.975
X6.4038Y-2.8925
X6.425Y-4.675
X6.425Y-4.975
X6.4825Y-2.8925
X6.525Y-4.675
X6.525Y-4.975
X6.625Y-4.675
X6.625Y-4.975
X6.725Y-4.675
X6.725Y-4.975
X6.95Y-2.8925
X7.0287Y-2.8925
X7.425Y-3.351
X7.425Y-3.451
X7.425Y-3.551
X7.425Y-3.651
X7.425Y-3.751
X7.425Y-3.851
X7.425Y-3.951
X7.425Y-4.051
X7.425Y-4.151
X7.425Y-4.251
X7.425Y-4.351
X7.425Y-4.451
X7.425Y-4.551
X7.425Y-4.651
X7.425Y-4.751
X7.425Y-4.851
X7.425Y-4.951
X7.425Y-5.051
X7.425Y-5.151
X7.425Y-5.251
X7.425Y-5.351
X7.425Y-5.451
X7.425Y-5.551
X7.425Y-5.651
X7.425Y-5.751
X7.425Y-5.851
X7.425Y-5.951
X7.6625Y-5.6249
X7.7625Y-5.6249
X7.8625Y-5.6249
X7.9625Y-5.6249
X8.0625Y-5.6249
X8.325Y-3.351
X8.325Y-3.451
X8.325Y-3.551
X8.325Y-3.651
X8.325Y-3.751
X8.325Y-3.851
X8.325Y-3.951
X8.325Y-4.051
X8.325Y-4.151
X8.325Y-4.251
X8.325Y-4.351
X8.325Y-4.451
X8.325Y-4.551
X8.325Y-4.651
X8.325Y-4.751
X8.325Y-4.851
X8.325Y-4.951
X8.325Y-5.051
X8.325Y-5.151
X8.325Y-5.251
X8.325Y-5.351
X8.325Y-5.451
X8.325Y-5.551
X8.325Y-5.651
X8.325Y-5.751
X8.325Y-5.851
X8.325Y-5.951
T3
X6.835Y-5.67
X6.935Y-5.67
T4
X5.1Y-2.3
X5.275Y-2.3
X5.59Y-5.12
X5.8775Y-4.4075
X5.8775Y-4.7625
X5.8775Y-5.12
X5.8775Y-5.54
X6.0325Y-3.0025
X6.24Y-3.005
X6.42Y-3.76
X6.42Y-4.04
X6.7025Y-2.8725
X6.7025Y-2.9725
X7.645Y-5.9443
X8.0775Y-5.9443
T5
X6.4025Y-2.6225
X6.5025Y-2.6225
X6.6025Y-2.6225
X6.9025Y-2.6225
X7.0025Y-2.6225
X7.1025Y-2.6225
T6
X5.4678Y-5.95
X5.6678Y-5.95
X5.8678Y-5.95
T8
X6.635Y-5.87
X7.035Y-5.87
T9
X4.7694Y-2.36
X4.7694Y-6.0531
X7.705Y-5.811
X8.0175Y-5.811
X8.46Y-2.36
X8.48Y-6.07
T7
G00X4.8625Y-2.5425
M15
G01X4.8625Y-2.5425
M16
G05
G00X4.8625Y-4.6675
M15
G01X4.8625Y-4.6675
M16
G05
T0
M30
