%TF.GenerationSoftware,KiCad,Pcbnew,(5.1.10)-1*%
%TF.CreationDate,2022-11-09T22:19:52-03:00*%
%TF.ProjectId,potenciostato,706f7465-6e63-4696-9f73-7461746f2e6b,rev?*%
%TF.SameCoordinates,Original*%
%TF.FileFunction,Legend,Bot*%
%TF.FilePolarity,Positive*%
%FSLAX46Y46*%
G04 Gerber Fmt 4.6, Leading zero omitted, Abs format (unit mm)*
G04 Created by KiCad (PCBNEW (5.1.10)-1) date 2022-11-09 22:19:52*
%MOMM*%
%LPD*%
G01*
G04 APERTURE LIST*
%ADD10C,0.120000*%
%ADD11C,0.150000*%
G04 APERTURE END LIST*
D10*
%TO.C,D1*%
X147673000Y-68641500D02*
X147673000Y-62041500D01*
X144973000Y-62041500D02*
X141773000Y-62041500D01*
X144973000Y-68641500D02*
X141773000Y-68641500D01*
X139073000Y-62041500D02*
X139873000Y-62041500D01*
X139073000Y-68641500D02*
X139073000Y-62041500D01*
X139873000Y-68641500D02*
X139073000Y-68641500D01*
X147691000Y-68643500D02*
X146929000Y-68643500D01*
X146929000Y-68643500D02*
X146929000Y-70675500D01*
X146929000Y-70675500D02*
X146929000Y-70675500D01*
X146929000Y-62039500D02*
X147691000Y-62039500D01*
X147691000Y-62039500D02*
X147691000Y-62039500D01*
%TO.C,C4*%
X174065748Y-59986500D02*
X175488252Y-59986500D01*
X174065748Y-61806500D02*
X175488252Y-61806500D01*
%TO.C,C3*%
X161950748Y-59986500D02*
X163373252Y-59986500D01*
X161950748Y-61806500D02*
X163373252Y-61806500D01*
%TO.C,D1*%
D11*
X148925380Y-64603404D02*
X147925380Y-64603404D01*
X147925380Y-64841500D01*
X147973000Y-64984357D01*
X148068238Y-65079595D01*
X148163476Y-65127214D01*
X148353952Y-65174833D01*
X148496809Y-65174833D01*
X148687285Y-65127214D01*
X148782523Y-65079595D01*
X148877761Y-64984357D01*
X148925380Y-64841500D01*
X148925380Y-64603404D01*
X148925380Y-66127214D02*
X148925380Y-65555785D01*
X148925380Y-65841500D02*
X147925380Y-65841500D01*
X148068238Y-65746261D01*
X148163476Y-65651023D01*
X148211095Y-65555785D01*
%TO.C,C4*%
X174943666Y-63103642D02*
X174991285Y-63151261D01*
X175134142Y-63198880D01*
X175229380Y-63198880D01*
X175372238Y-63151261D01*
X175467476Y-63056023D01*
X175515095Y-62960785D01*
X175562714Y-62770309D01*
X175562714Y-62627452D01*
X175515095Y-62436976D01*
X175467476Y-62341738D01*
X175372238Y-62246500D01*
X175229380Y-62198880D01*
X175134142Y-62198880D01*
X174991285Y-62246500D01*
X174943666Y-62294119D01*
X174086523Y-62532214D02*
X174086523Y-63198880D01*
X174324619Y-62151261D02*
X174562714Y-62865547D01*
X173943666Y-62865547D01*
%TO.C,C3*%
X162828666Y-63103642D02*
X162876285Y-63151261D01*
X163019142Y-63198880D01*
X163114380Y-63198880D01*
X163257238Y-63151261D01*
X163352476Y-63056023D01*
X163400095Y-62960785D01*
X163447714Y-62770309D01*
X163447714Y-62627452D01*
X163400095Y-62436976D01*
X163352476Y-62341738D01*
X163257238Y-62246500D01*
X163114380Y-62198880D01*
X163019142Y-62198880D01*
X162876285Y-62246500D01*
X162828666Y-62294119D01*
X162495333Y-62198880D02*
X161876285Y-62198880D01*
X162209619Y-62579833D01*
X162066761Y-62579833D01*
X161971523Y-62627452D01*
X161923904Y-62675071D01*
X161876285Y-62770309D01*
X161876285Y-63008404D01*
X161923904Y-63103642D01*
X161971523Y-63151261D01*
X162066761Y-63198880D01*
X162352476Y-63198880D01*
X162447714Y-63151261D01*
X162495333Y-63103642D01*
%TD*%
M02*
